<?xml version="1.0" encoding="UTF-8" standalone="no"?>
<!DOCTYPE svg PUBLIC "-//W3C//DTD SVG 1.1//EN"
 "http://www.w3.org/Graphics/SVG/1.1/DTD/svg11.dtd">
<!-- Generated by graphviz version 2.44.0 ()
 -->
<!-- Title: v8::IndexedPropertyHandlerConfiguration Pages: 1 -->
<svg width="832pt" height="302pt"
 viewBox="0.00 0.00 832.00 301.50" xmlns="http://www.w3.org/2000/svg" xmlns:xlink="http://www.w3.org/1999/xlink">
<g id="graph0" class="graph" transform="scale(1 1) rotate(0) translate(4 297.5)">
<title>v8::IndexedPropertyHandlerConfiguration</title>
<polygon fill="white" stroke="transparent" points="-4,4 -4,-297.5 828,-297.5 828,4 -4,4"/>
<!-- Node1 -->
<g id="node1" class="node">
<title>Node1</title>
<g id="a_node1"><a xlink:title=" ">
<polygon fill="#bfbfbf" stroke="black" points="689,-137 689,-167 824,-167 824,-137 689,-137"/>
<text text-anchor="start" x="697" y="-155" font-family="Helvetica,sans-Serif" font-size="10.00">v8::IndexedPropertyHandler</text>
<text text-anchor="middle" x="756.5" y="-144" font-family="Helvetica,sans-Serif" font-size="10.00">Configuration</text>
</a>
</g>
</g>
<!-- Node2 -->
<g id="node2" class="node">
<title>Node2</title>
<g id="a_node2"><a xlink:href="classv8_1_1PropertyCallbackInfo.html" target="_top" xlink:title=" ">
<polygon fill="white" stroke="black" points="479,-263 479,-293 601,-293 601,-263 479,-263"/>
<text text-anchor="start" x="487" y="-281" font-family="Helvetica,sans-Serif" font-size="10.00">v8::PropertyCallbackInfo</text>
<text text-anchor="middle" x="540" y="-270" font-family="Helvetica,sans-Serif" font-size="10.00">&lt; Value &gt;</text>
</a>
</g>
</g>
<!-- Node2&#45;&gt;Node1 -->
<g id="edge1" class="edge">
<title>Node2&#45;&gt;Node1</title>
<path fill="none" stroke="#9a32cd" stroke-dasharray="5,2" d="M590,-258.95C593.74,-257.33 597.45,-255.67 601,-254 633.04,-238.96 641.25,-235.19 671,-216 694.82,-200.64 720.56,-180.6 737.29,-167.07"/>
<polygon fill="#9a32cd" stroke="#9a32cd" points="588.51,-255.78 580.66,-262.9 591.23,-262.23 588.51,-255.78"/>
<text text-anchor="middle" x="645" y="-248" font-family="Helvetica,sans-Serif" font-size="10.00"> getter</text>
</g>
<!-- Node3 -->
<g id="node3" class="node">
<title>Node3</title>
<g id="a_node3"><a xlink:href="classv8_1_1PropertyCallbackInfo.html" target="_top" xlink:title=" ">
<polygon fill="white" stroke="black" points="180,-194.5 180,-213.5 324,-213.5 324,-194.5 180,-194.5"/>
<text text-anchor="middle" x="252" y="-201.5" font-family="Helvetica,sans-Serif" font-size="10.00">v8::PropertyCallbackInfo&lt; T &gt;</text>
</a>
</g>
</g>
<!-- Node3&#45;&gt;Node2 -->
<g id="edge2" class="edge">
<title>Node3&#45;&gt;Node2</title>
<path fill="none" stroke="orange" stroke-dasharray="5,2" d="M286.63,-217.31C303.14,-223.53 323.43,-230.71 342,-236 387.23,-248.89 439.32,-259.83 478.56,-267.31"/>
<polygon fill="orange" stroke="orange" points="287.48,-213.88 276.89,-213.58 284.98,-220.42 287.48,-213.88"/>
<text text-anchor="middle" x="401.5" y="-266" font-family="Helvetica,sans-Serif" font-size="10.00"> &lt; Value &gt;</text>
</g>
<!-- Node4 -->
<g id="node4" class="node">
<title>Node4</title>
<g id="a_node4"><a xlink:href="classv8_1_1PropertyCallbackInfo.html" target="_top" xlink:title=" ">
<polygon fill="white" stroke="black" points="479,-214 479,-244 601,-244 601,-214 479,-214"/>
<text text-anchor="start" x="487" y="-232" font-family="Helvetica,sans-Serif" font-size="10.00">v8::PropertyCallbackInfo</text>
<text text-anchor="middle" x="540" y="-221" font-family="Helvetica,sans-Serif" font-size="10.00">&lt; Boolean &gt;</text>
</a>
</g>
</g>
<!-- Node3&#45;&gt;Node4 -->
<g id="edge4" class="edge">
<title>Node3&#45;&gt;Node4</title>
<path fill="none" stroke="orange" stroke-dasharray="5,2" d="M334.03,-211.08C380.11,-215.11 436.85,-220.07 478.94,-223.75"/>
<polygon fill="orange" stroke="orange" points="334.33,-207.6 324.06,-210.21 333.72,-214.57 334.33,-207.6"/>
<text text-anchor="middle" x="401.5" y="-224" font-family="Helvetica,sans-Serif" font-size="10.00"> &lt; Boolean &gt;</text>
</g>
<!-- Node5 -->
<g id="node5" class="node">
<title>Node5</title>
<g id="a_node5"><a xlink:href="classv8_1_1PropertyCallbackInfo.html" target="_top" xlink:title=" ">
<polygon fill="white" stroke="black" points="479,-165 479,-195 601,-195 601,-165 479,-165"/>
<text text-anchor="start" x="487" y="-183" font-family="Helvetica,sans-Serif" font-size="10.00">v8::PropertyCallbackInfo</text>
<text text-anchor="middle" x="540" y="-172" font-family="Helvetica,sans-Serif" font-size="10.00">&lt; Array &gt;</text>
</a>
</g>
</g>
<!-- Node3&#45;&gt;Node5 -->
<g id="edge6" class="edge">
<title>Node3&#45;&gt;Node5</title>
<path fill="none" stroke="orange" stroke-dasharray="5,2" d="M329.45,-193.32C333.69,-192.85 337.9,-192.4 342,-192 387.87,-187.52 439.92,-184.43 478.99,-182.51"/>
<polygon fill="orange" stroke="orange" points="329.04,-189.85 319.52,-194.49 329.86,-196.8 329.04,-189.85"/>
<text text-anchor="middle" x="401.5" y="-195" font-family="Helvetica,sans-Serif" font-size="10.00"> &lt; Array &gt;</text>
</g>
<!-- Node6 -->
<g id="node6" class="node">
<title>Node6</title>
<g id="a_node6"><a xlink:href="classv8_1_1PropertyCallbackInfo.html" target="_top" xlink:title=" ">
<polygon fill="white" stroke="black" points="479,-116 479,-146 601,-146 601,-116 479,-116"/>
<text text-anchor="start" x="487" y="-134" font-family="Helvetica,sans-Serif" font-size="10.00">v8::PropertyCallbackInfo</text>
<text text-anchor="middle" x="540" y="-123" font-family="Helvetica,sans-Serif" font-size="10.00">&lt; Integer &gt;</text>
</a>
</g>
</g>
<!-- Node3&#45;&gt;Node6 -->
<g id="edge8" class="edge">
<title>Node3&#45;&gt;Node6</title>
<path fill="none" stroke="orange" stroke-dasharray="5,2" d="M282.86,-190.19C299.89,-182.75 321.81,-173.92 342,-168 387.08,-154.79 439.4,-145.22 478.79,-139.13"/>
<polygon fill="orange" stroke="orange" points="281.16,-187.11 273.45,-194.37 284.01,-193.51 281.16,-187.11"/>
<text text-anchor="middle" x="401.5" y="-171" font-family="Helvetica,sans-Serif" font-size="10.00"> &lt; Integer &gt;</text>
</g>
<!-- Node4&#45;&gt;Node1 -->
<g id="edge3" class="edge">
<title>Node4&#45;&gt;Node1</title>
<path fill="none" stroke="#9a32cd" stroke-dasharray="5,2" d="M595.36,-210.57C618.7,-202.56 646.24,-192.97 671,-184 685.9,-178.6 702.19,-172.48 716.46,-167.05"/>
<polygon fill="#9a32cd" stroke="#9a32cd" points="593.96,-207.35 585.64,-213.9 596.23,-213.97 593.96,-207.35"/>
<text text-anchor="middle" x="645" y="-204" font-family="Helvetica,sans-Serif" font-size="10.00"> deleter</text>
</g>
<!-- Node5&#45;&gt;Node1 -->
<g id="edge5" class="edge">
<title>Node5&#45;&gt;Node1</title>
<path fill="none" stroke="#9a32cd" stroke-dasharray="5,2" d="M611.15,-170.84C636.07,-167.59 664.05,-163.94 688.69,-160.72"/>
<polygon fill="#9a32cd" stroke="#9a32cd" points="610.5,-167.4 601.04,-172.16 611.4,-174.34 610.5,-167.4"/>
<text text-anchor="middle" x="645" y="-172" font-family="Helvetica,sans-Serif" font-size="10.00"> enumerator</text>
</g>
<!-- Node6&#45;&gt;Node1 -->
<g id="edge7" class="edge">
<title>Node6&#45;&gt;Node1</title>
<path fill="none" stroke="#9a32cd" stroke-dasharray="5,2" d="M611.18,-137.3C630.56,-139.08 651.6,-141.07 671,-143 676.73,-143.57 682.67,-144.17 688.63,-144.79"/>
<polygon fill="#9a32cd" stroke="#9a32cd" points="611.49,-133.81 601.21,-136.38 610.85,-140.78 611.49,-133.81"/>
<text text-anchor="middle" x="645" y="-146" font-family="Helvetica,sans-Serif" font-size="10.00"> query</text>
</g>
<!-- Node7 -->
<g id="node7" class="node">
<title>Node7</title>
<g id="a_node7"><a xlink:href="classv8_1_1Handle.html" target="_top" xlink:title=" ">
<polygon fill="white" stroke="black" points="342,-76.5 342,-95.5 461,-95.5 461,-76.5 342,-76.5"/>
<text text-anchor="middle" x="401.5" y="-83.5" font-family="Helvetica,sans-Serif" font-size="10.00">v8::Handle&lt; v8::Value &gt;</text>
</a>
</g>
</g>
<!-- Node7&#45;&gt;Node1 -->
<g id="edge9" class="edge">
<title>Node7&#45;&gt;Node1</title>
<path fill="none" stroke="#9a32cd" stroke-dasharray="5,2" d="M471.32,-84.47C509.81,-84.86 558.46,-87.42 601,-96 644.49,-104.77 692.15,-123.55 722.87,-136.94"/>
<polygon fill="#9a32cd" stroke="#9a32cd" points="471.28,-80.97 461.26,-84.41 471.24,-87.97 471.28,-80.97"/>
<text text-anchor="middle" x="540" y="-99" font-family="Helvetica,sans-Serif" font-size="10.00"> data</text>
</g>
<!-- Node8 -->
<g id="node8" class="node">
<title>Node8</title>
<g id="a_node8"><a xlink:href="classv8_1_1Handle.html" target="_top" xlink:title=" ">
<polygon fill="white" stroke="black" points="0,-38.5 0,-57.5 85,-57.5 85,-38.5 0,-38.5"/>
<text text-anchor="middle" x="42.5" y="-45.5" font-family="Helvetica,sans-Serif" font-size="10.00">v8::Handle&lt; T &gt;</text>
</a>
</g>
</g>
<!-- Node8&#45;&gt;Node7 -->
<g id="edge10" class="edge">
<title>Node8&#45;&gt;Node7</title>
<path fill="none" stroke="orange" stroke-dasharray="5,2" d="M90.16,-59.68C94.48,-60.55 98.81,-61.34 103,-62 185.29,-74.92 281.54,-81.08 341.77,-83.87"/>
<polygon fill="orange" stroke="orange" points="90.66,-56.21 80.15,-57.54 89.19,-63.05 90.66,-56.21"/>
<text text-anchor="middle" x="132.5" y="-72" font-family="Helvetica,sans-Serif" font-size="10.00"> &lt; v8::Value &gt;</text>
</g>
<!-- Node9 -->
<g id="node9" class="node">
<title>Node9</title>
<g id="a_node9"><a xlink:href="classv8_1_1Local.html" target="_top" xlink:title=" ">
<polygon fill="white" stroke="black" points="491.5,-30.5 491.5,-49.5 588.5,-49.5 588.5,-30.5 491.5,-30.5"/>
<text text-anchor="middle" x="540" y="-37.5" font-family="Helvetica,sans-Serif" font-size="10.00">v8::Local&lt; Value &gt;</text>
</a>
</g>
</g>
<!-- Node8&#45;&gt;Node9 -->
<g id="edge12" class="edge">
<title>Node8&#45;&gt;Node9</title>
<path fill="none" stroke="midnightblue" d="M95.43,-47.16C192.06,-45.6 398.08,-42.28 491.36,-40.77"/>
<polygon fill="midnightblue" stroke="midnightblue" points="95.26,-43.66 85.32,-47.32 95.37,-50.66 95.26,-43.66"/>
</g>
<!-- Node10 -->
<g id="node10" class="node">
<title>Node10</title>
<g id="a_node10"><a xlink:href="classv8_1_1Local.html" target="_top" xlink:title=" ">
<polygon fill="white" stroke="black" points="213,-0.5 213,-19.5 291,-19.5 291,-0.5 213,-0.5"/>
<text text-anchor="middle" x="252" y="-7.5" font-family="Helvetica,sans-Serif" font-size="10.00">v8::Local&lt; T &gt;</text>
</a>
</g>
</g>
<!-- Node8&#45;&gt;Node10 -->
<g id="edge14" class="edge">
<title>Node8&#45;&gt;Node10</title>
<path fill="none" stroke="midnightblue" d="M91.97,-36.3C95.7,-35.49 99.41,-34.71 103,-34 140.15,-26.63 182.88,-19.88 212.85,-15.43"/>
<polygon fill="midnightblue" stroke="midnightblue" points="91.14,-32.9 82.14,-38.49 92.66,-39.73 91.14,-32.9"/>
</g>
<!-- Node9&#45;&gt;Node1 -->
<g id="edge11" class="edge">
<title>Node9&#45;&gt;Node1</title>
<path fill="none" stroke="#9a32cd" stroke-dasharray="5,2" d="M598.99,-41.23C622.47,-43.75 649.14,-49.3 671,-61 704.84,-79.1 732.47,-116.03 746.17,-136.85"/>
<polygon fill="#9a32cd" stroke="#9a32cd" points="599.08,-37.72 588.8,-40.3 598.44,-44.69 599.08,-37.72"/>
<text text-anchor="middle" x="645" y="-64" font-family="Helvetica,sans-Serif" font-size="10.00"> setter</text>
</g>
<!-- Node10&#45;&gt;Node9 -->
<g id="edge13" class="edge">
<title>Node10&#45;&gt;Node9</title>
<path fill="none" stroke="orange" stroke-dasharray="5,2" d="M301.15,-10.93C343.44,-12.25 406.54,-15.41 461,-23 474.04,-24.82 488.14,-27.63 500.73,-30.44"/>
<polygon fill="orange" stroke="orange" points="301.23,-7.44 291.13,-10.65 301.02,-14.43 301.23,-7.44"/>
<text text-anchor="middle" x="401.5" y="-26" font-family="Helvetica,sans-Serif" font-size="10.00"> &lt; Value &gt;</text>
</g>
</g>
</svg>
