<?xml version="1.0" encoding="UTF-8" standalone="no"?>
<!DOCTYPE svg PUBLIC "-//W3C//DTD SVG 1.1//EN"
 "http://www.w3.org/Graphics/SVG/1.1/DTD/svg11.dtd">
<!-- Generated by graphviz version 2.44.0 ()
 -->
<!-- Title: v8::Isolate::CreateParams Pages: 1 -->
<svg width="906pt" height="312pt"
 viewBox="0.00 0.00 906.00 312.00" xmlns="http://www.w3.org/2000/svg" xmlns:xlink="http://www.w3.org/1999/xlink">
<g id="graph0" class="graph" transform="scale(1 1) rotate(0) translate(4 308)">
<title>v8::Isolate::CreateParams</title>
<polygon fill="white" stroke="transparent" points="-4,4 -4,-308 902,-308 902,4 -4,4"/>
<!-- Node1 -->
<g id="node1" class="node">
<title>Node1</title>
<g id="a_node1"><a xlink:title=" ">
<polygon fill="#bfbfbf" stroke="black" points="770,-201.5 770,-220.5 898,-220.5 898,-201.5 770,-201.5"/>
<text text-anchor="middle" x="834" y="-208.5" font-family="Helvetica,sans-Serif" font-size="10.00">v8::Isolate::CreateParams</text>
</a>
</g>
</g>
<!-- Node2 -->
<g id="node2" class="node">
<title>Node2</title>
<g id="a_node2"><a xlink:href="classv8_1_1ArrayBuffer_1_1Allocator.html" target="_top" xlink:title=" ">
<polygon fill="white" stroke="black" points="517,-284.5 517,-303.5 639,-303.5 639,-284.5 517,-284.5"/>
<text text-anchor="middle" x="578" y="-291.5" font-family="Helvetica,sans-Serif" font-size="10.00">v8::ArrayBuffer::Allocator</text>
</a>
</g>
</g>
<!-- Node2&#45;&gt;Node1 -->
<g id="edge1" class="edge">
<title>Node2&#45;&gt;Node1</title>
<path fill="none" stroke="#9a32cd" stroke-dasharray="5,2" d="M649.24,-287.77C681.37,-283.33 719.45,-275.78 752,-263 778.91,-252.44 806.44,-232.4 821.46,-220.52"/>
<polygon fill="#9a32cd" stroke="#9a32cd" points="648.5,-284.34 639.03,-289.1 649.4,-291.28 648.5,-284.34"/>
<text text-anchor="middle" x="704.5" y="-289" font-family="Helvetica,sans-Serif" font-size="10.00"> array_buffer_allocator</text>
</g>
<!-- Node3 -->
<g id="node3" class="node">
<title>Node3</title>
<g id="a_node3"><a xlink:href="classv8_1_1ResourceConstraints.html" target="_top" xlink:title=" ">
<polygon fill="white" stroke="black" points="517,-246.5 517,-265.5 639,-265.5 639,-246.5 517,-246.5"/>
<text text-anchor="middle" x="578" y="-253.5" font-family="Helvetica,sans-Serif" font-size="10.00">v8::ResourceConstraints</text>
</a>
</g>
</g>
<!-- Node3&#45;&gt;Node1 -->
<g id="edge2" class="edge">
<title>Node3&#45;&gt;Node1</title>
<path fill="none" stroke="#9a32cd" stroke-dasharray="5,2" d="M649.05,-249.51C680.68,-245.96 718.41,-240.86 752,-234 769.19,-230.49 788.06,-225.21 803.26,-220.6"/>
<polygon fill="#9a32cd" stroke="#9a32cd" points="648.57,-246.04 639.01,-250.61 649.33,-253 648.57,-246.04"/>
<text text-anchor="middle" x="704.5" y="-251" font-family="Helvetica,sans-Serif" font-size="10.00"> constraints</text>
</g>
<!-- Node4 -->
<g id="node4" class="node">
<title>Node4</title>
<g id="a_node4"><a xlink:title=" ">
<polygon fill="white" stroke="#bfbfbf" points="518,-197 518,-227 638,-227 638,-197 518,-197"/>
<text text-anchor="start" x="526" y="-215" font-family="Helvetica,sans-Serif" font-size="10.00">std::shared_ptr&lt; v8</text>
<text text-anchor="middle" x="578" y="-204" font-family="Helvetica,sans-Serif" font-size="10.00">::ArrayBuffer::Allocator &gt;</text>
</a>
</g>
</g>
<!-- Node4&#45;&gt;Node1 -->
<g id="edge3" class="edge">
<title>Node4&#45;&gt;Node1</title>
<path fill="none" stroke="#9a32cd" stroke-dasharray="5,2" d="M648.66,-211.73C686.48,-211.58 732.88,-211.39 769.67,-211.25"/>
<polygon fill="#9a32cd" stroke="#9a32cd" points="648.22,-208.23 638.23,-211.77 648.24,-215.23 648.22,-208.23"/>
<text text-anchor="start" x="657" y="-225" font-family="Helvetica,sans-Serif" font-size="10.00"> array_buffer_allocator</text>
<text text-anchor="middle" x="704.5" y="-214" font-family="Helvetica,sans-Serif" font-size="10.00">_shared</text>
</g>
<!-- Node5 -->
<g id="node5" class="node">
<title>Node5</title>
<g id="a_node5"><a xlink:title=" ">
<polygon fill="white" stroke="#bfbfbf" points="268.5,-211.5 268.5,-230.5 371.5,-230.5 371.5,-211.5 268.5,-211.5"/>
<text text-anchor="middle" x="320" y="-218.5" font-family="Helvetica,sans-Serif" font-size="10.00">std::shared_ptr&lt; T &gt;</text>
</a>
</g>
</g>
<!-- Node5&#45;&gt;Node4 -->
<g id="edge4" class="edge">
<title>Node5&#45;&gt;Node4</title>
<path fill="none" stroke="orange" stroke-dasharray="5,2" d="M381.72,-218.87C422.78,-217.42 476.75,-215.52 517.54,-214.09"/>
<polygon fill="orange" stroke="orange" points="381.45,-215.37 371.58,-219.22 381.69,-222.37 381.45,-215.37"/>
<text text-anchor="start" x="417" y="-231" font-family="Helvetica,sans-Serif" font-size="10.00"> &lt; v8::ArrayBuffer::</text>
<text text-anchor="middle" x="456.5" y="-220" font-family="Helvetica,sans-Serif" font-size="10.00">Allocator &gt;</text>
</g>
<!-- Node6 -->
<g id="node6" class="node">
<title>Node6</title>
<g id="a_node6"><a xlink:title=" ">
<polygon fill="white" stroke="#bfbfbf" points="40,-211.5 40,-230.5 69,-230.5 69,-211.5 40,-211.5"/>
<text text-anchor="middle" x="54.5" y="-218.5" font-family="Helvetica,sans-Serif" font-size="10.00">T</text>
</a>
</g>
</g>
<!-- Node6&#45;&gt;Node5 -->
<g id="edge5" class="edge">
<title>Node6&#45;&gt;Node5</title>
<path fill="none" stroke="#9a32cd" stroke-dasharray="5,2" d="M79.52,-221C122.08,-221 211.57,-221 268.29,-221"/>
<polygon fill="#9a32cd" stroke="#9a32cd" points="79.3,-217.5 69.3,-221 79.3,-224.5 79.3,-217.5"/>
<text text-anchor="middle" x="176.5" y="-224" font-family="Helvetica,sans-Serif" font-size="10.00"> ptr</text>
</g>
<!-- Node7 -->
<g id="node7" class="node">
<title>Node7</title>
<g id="a_node7"><a xlink:href="classv8_1_1StartupData.html" target="_top" xlink:title=" ">
<polygon fill="white" stroke="black" points="536.5,-158.5 536.5,-177.5 619.5,-177.5 619.5,-158.5 536.5,-158.5"/>
<text text-anchor="middle" x="578" y="-165.5" font-family="Helvetica,sans-Serif" font-size="10.00">v8::StartupData</text>
</a>
</g>
</g>
<!-- Node7&#45;&gt;Node1 -->
<g id="edge6" class="edge">
<title>Node7&#45;&gt;Node1</title>
<path fill="none" stroke="#9a32cd" stroke-dasharray="5,2" d="M629.89,-175.93C664.38,-181.37 710.98,-188.88 752,-196 761.86,-197.71 772.39,-199.61 782.48,-201.46"/>
<polygon fill="#9a32cd" stroke="#9a32cd" points="630.01,-172.4 619.59,-174.3 628.92,-179.32 630.01,-172.4"/>
<text text-anchor="middle" x="704.5" y="-199" font-family="Helvetica,sans-Serif" font-size="10.00"> snapshot_blob</text>
</g>
<!-- Node8 -->
<g id="node8" class="node">
<title>Node8</title>
<g id="a_node8"><a xlink:href="structv8_1_1JitCodeEvent.html" target="_top" xlink:title=" ">
<polygon fill="white" stroke="black" points="533.5,-109.5 533.5,-128.5 622.5,-128.5 622.5,-109.5 533.5,-109.5"/>
<text text-anchor="middle" x="578" y="-116.5" font-family="Helvetica,sans-Serif" font-size="10.00">v8::JitCodeEvent</text>
</a>
</g>
</g>
<!-- Node8&#45;&gt;Node1 -->
<g id="edge7" class="edge">
<title>Node8&#45;&gt;Node1</title>
<path fill="none" stroke="#9a32cd" stroke-dasharray="5,2" d="M632.61,-129.52C667.38,-137.25 713.25,-149.15 752,-165 776.55,-175.04 802.89,-191.09 818.65,-201.34"/>
<polygon fill="#9a32cd" stroke="#9a32cd" points="633.18,-126.06 622.66,-127.36 631.69,-132.9 633.18,-126.06"/>
<text text-anchor="middle" x="704.5" y="-168" font-family="Helvetica,sans-Serif" font-size="10.00"> code_event_handler</text>
</g>
<!-- Node9 -->
<g id="node9" class="node">
<title>Node9</title>
<g id="a_node9"><a xlink:href="structv8_1_1JitCodeEvent_1_1name__t.html" target="_top" xlink:title=" ">
<polygon fill="white" stroke="black" points="257,-173.5 257,-192.5 383,-192.5 383,-173.5 257,-173.5"/>
<text text-anchor="middle" x="320" y="-180.5" font-family="Helvetica,sans-Serif" font-size="10.00">v8::JitCodeEvent::name_t</text>
</a>
</g>
</g>
<!-- Node9&#45;&gt;Node8 -->
<g id="edge8" class="edge">
<title>Node9&#45;&gt;Node8</title>
<path fill="none" stroke="#9a32cd" stroke-dasharray="5,2" d="M393.03,-178.23C425.89,-174.7 464.97,-168.58 499,-158 499.1,-157.97 534.68,-140.17 557.75,-128.63"/>
<polygon fill="#9a32cd" stroke="#9a32cd" points="392.64,-174.75 383.04,-179.24 393.34,-181.71 392.64,-174.75"/>
<text text-anchor="middle" x="456.5" y="-178" font-family="Helvetica,sans-Serif" font-size="10.00"> name</text>
</g>
<!-- Node10 -->
<g id="node10" class="node">
<title>Node10</title>
<g id="a_node10"><a xlink:href="structv8_1_1JitCodeEvent_1_1line__info__t.html" target="_top" xlink:title=" ">
<polygon fill="white" stroke="black" points="0,-110 0,-140 109,-140 109,-110 0,-110"/>
<text text-anchor="start" x="8" y="-128" font-family="Helvetica,sans-Serif" font-size="10.00">v8::JitCodeEvent::line</text>
<text text-anchor="middle" x="54.5" y="-117" font-family="Helvetica,sans-Serif" font-size="10.00">_info_t</text>
</a>
</g>
</g>
<!-- Node10&#45;&gt;Node8 -->
<g id="edge9" class="edge">
<title>Node10&#45;&gt;Node8</title>
<path fill="none" stroke="#9a32cd" stroke-dasharray="5,2" d="M119.37,-129.69C121.95,-129.81 124.5,-129.91 127,-130 220.64,-133.27 466.49,-126.55 499,-125 510.12,-124.47 522.13,-123.66 533.3,-122.81"/>
<polygon fill="#9a32cd" stroke="#9a32cd" points="119.52,-126.19 109.36,-129.17 119.16,-133.18 119.52,-126.19"/>
<text text-anchor="middle" x="320" y="-133" font-family="Helvetica,sans-Serif" font-size="10.00"> line_info</text>
</g>
<!-- Node11 -->
<g id="node11" class="node">
<title>Node11</title>
<g id="a_node11"><a xlink:href="structv8_1_1JitCodeEvent_1_1wasm__source__info__t.html" target="_top" xlink:title=" ">
<polygon fill="white" stroke="black" points="260,-77 260,-107 380,-107 380,-77 260,-77"/>
<text text-anchor="start" x="268" y="-95" font-family="Helvetica,sans-Serif" font-size="10.00">v8::JitCodeEvent::wasm</text>
<text text-anchor="middle" x="320" y="-84" font-family="Helvetica,sans-Serif" font-size="10.00">_source_info_t</text>
</a>
</g>
</g>
<!-- Node10&#45;&gt;Node11 -->
<g id="edge11" class="edge">
<title>Node10&#45;&gt;Node11</title>
<path fill="none" stroke="#9a32cd" stroke-dasharray="5,2" d="M119.17,-117.03C162.01,-111.66 218.09,-104.64 259.93,-99.4"/>
<polygon fill="#9a32cd" stroke="#9a32cd" points="118.63,-113.57 109.14,-118.28 119.5,-120.51 118.63,-113.57"/>
<text text-anchor="middle" x="176.5" y="-118" font-family="Helvetica,sans-Serif" font-size="10.00"> line_number_table</text>
</g>
<!-- Node11&#45;&gt;Node8 -->
<g id="edge10" class="edge">
<title>Node11&#45;&gt;Node8</title>
<path fill="none" stroke="#9a32cd" stroke-dasharray="5,2" d="M390.17,-99.3C435.8,-104.11 494.17,-110.26 533.43,-114.4"/>
<polygon fill="#9a32cd" stroke="#9a32cd" points="390.36,-95.8 380.05,-98.23 389.63,-102.76 390.36,-95.8"/>
<text text-anchor="middle" x="456.5" y="-113" font-family="Helvetica,sans-Serif" font-size="10.00"> wasm_source_info</text>
</g>
<!-- Node12 -->
<g id="node12" class="node">
<title>Node12</title>
<g id="a_node12"><a xlink:href="classv8_1_1Local.html" target="_top" xlink:title=" ">
<polygon fill="white" stroke="black" points="244,-38.5 244,-57.5 396,-57.5 396,-38.5 244,-38.5"/>
<text text-anchor="middle" x="320" y="-45.5" font-family="Helvetica,sans-Serif" font-size="10.00">v8::Local&lt; v8::UnboundScript &gt;</text>
</a>
</g>
</g>
<!-- Node12&#45;&gt;Node8 -->
<g id="edge12" class="edge">
<title>Node12&#45;&gt;Node8</title>
<path fill="none" stroke="#9a32cd" stroke-dasharray="5,2" d="M386,-59.43C420.03,-66.11 462.17,-75.51 499,-87 518.98,-93.24 540.98,-102.49 556.5,-109.44"/>
<polygon fill="#9a32cd" stroke="#9a32cd" points="386.66,-55.99 376.18,-57.53 385.33,-62.86 386.66,-55.99"/>
<text text-anchor="middle" x="456.5" y="-90" font-family="Helvetica,sans-Serif" font-size="10.00"> script</text>
</g>
<!-- Node13 -->
<g id="node13" class="node">
<title>Node13</title>
<g id="a_node13"><a xlink:href="classv8_1_1Local.html" target="_top" xlink:title=" ">
<polygon fill="white" stroke="black" points="15.5,-38.5 15.5,-57.5 93.5,-57.5 93.5,-38.5 15.5,-38.5"/>
<text text-anchor="middle" x="54.5" y="-45.5" font-family="Helvetica,sans-Serif" font-size="10.00">v8::Local&lt; T &gt;</text>
</a>
</g>
</g>
<!-- Node13&#45;&gt;Node12 -->
<g id="edge13" class="edge">
<title>Node13&#45;&gt;Node12</title>
<path fill="none" stroke="orange" stroke-dasharray="5,2" d="M103.62,-48C142.83,-48 198.89,-48 243.99,-48"/>
<polygon fill="orange" stroke="orange" points="103.53,-44.5 93.53,-48 103.53,-51.5 103.53,-44.5"/>
<text text-anchor="middle" x="176.5" y="-51" font-family="Helvetica,sans-Serif" font-size="10.00"> &lt; v8::UnboundScript &gt;</text>
</g>
<!-- Node14 -->
<g id="node14" class="node">
<title>Node14</title>
<g id="a_node14"><a xlink:href="classv8_1_1Isolate.html" target="_top" xlink:title=" ">
<polygon fill="white" stroke="black" points="289.5,-0.5 289.5,-19.5 350.5,-19.5 350.5,-0.5 289.5,-0.5"/>
<text text-anchor="middle" x="320" y="-7.5" font-family="Helvetica,sans-Serif" font-size="10.00">v8::Isolate</text>
</a>
</g>
</g>
<!-- Node14&#45;&gt;Node8 -->
<g id="edge14" class="edge">
<title>Node14&#45;&gt;Node8</title>
<path fill="none" stroke="#9a32cd" stroke-dasharray="5,2" d="M360.58,-13.18C397.98,-17.48 454.79,-27.4 499,-50 528.62,-65.14 555.96,-94.16 568.99,-109.29"/>
<polygon fill="#9a32cd" stroke="#9a32cd" points="360.88,-9.7 350.57,-12.11 360.14,-16.66 360.88,-9.7"/>
<text text-anchor="middle" x="456.5" y="-53" font-family="Helvetica,sans-Serif" font-size="10.00"> isolate</text>
</g>
</g>
</svg>
