<?xml version="1.0" encoding="UTF-8" standalone="no"?>
<!DOCTYPE svg PUBLIC "-//W3C//DTD SVG 1.1//EN"
 "http://www.w3.org/Graphics/SVG/1.1/DTD/svg11.dtd">
<!-- Generated by graphviz version 2.44.0 ()
 -->
<!-- Title: v8::StdGlobalValueMap&lt; K, V, Traits &gt; Pages: 1 -->
<svg width="237pt" height="275pt"
 viewBox="0.00 0.00 236.50 275.00" xmlns="http://www.w3.org/2000/svg" xmlns:xlink="http://www.w3.org/1999/xlink">
<g id="graph0" class="graph" transform="scale(1 1) rotate(0) translate(4 271)">
<title>v8::StdGlobalValueMap&lt; K, V, Traits &gt;</title>
<polygon fill="white" stroke="transparent" points="-4,4 -4,-271 232.5,-271 232.5,4 -4,4"/>
<!-- Node1 -->
<g id="node1" class="node">
<title>Node1</title>
<g id="a_node1"><a xlink:title=" ">
<polygon fill="#bfbfbf" stroke="black" points="16.5,-0.5 16.5,-30.5 134.5,-30.5 134.5,-0.5 16.5,-0.5"/>
<text text-anchor="start" x="24.5" y="-18.5" font-family="Helvetica,sans-Serif" font-size="10.00">v8::StdGlobalValueMap</text>
<text text-anchor="middle" x="75.5" y="-7.5" font-family="Helvetica,sans-Serif" font-size="10.00">&lt; K, V, Traits &gt;</text>
</a>
</g>
</g>
<!-- Node2 -->
<g id="node2" class="node">
<title>Node2</title>
<g id="a_node2"><a xlink:href="classv8_1_1GlobalValueMap.html" target="_top" xlink:title=" ">
<polygon fill="white" stroke="black" points="0,-68.5 0,-109.5 151,-109.5 151,-68.5 0,-68.5"/>
<text text-anchor="start" x="8" y="-97.5" font-family="Helvetica,sans-Serif" font-size="10.00">v8::GlobalValueMap</text>
<text text-anchor="start" x="8" y="-86.5" font-family="Helvetica,sans-Serif" font-size="10.00">&lt; K, V, DefaultGlobalMapTraits</text>
<text text-anchor="middle" x="75.5" y="-75.5" font-family="Helvetica,sans-Serif" font-size="10.00">&lt; K, V &gt; &gt;</text>
</a>
</g>
</g>
<!-- Node2&#45;&gt;Node1 -->
<g id="edge1" class="edge">
<title>Node2&#45;&gt;Node1</title>
<path fill="none" stroke="midnightblue" d="M75.5,-58.16C75.5,-48.69 75.5,-38.65 75.5,-30.8"/>
<polygon fill="midnightblue" stroke="midnightblue" points="72,-58.46 75.5,-68.46 79,-58.46 72,-58.46"/>
</g>
<!-- Node3 -->
<g id="node3" class="node">
<title>Node3</title>
<g id="a_node3"><a xlink:href="classv8_1_1PersistentValueMapBase.html" target="_top" xlink:title=" ">
<polygon fill="white" stroke="black" points="0.5,-236.5 0.5,-266.5 142.5,-266.5 142.5,-236.5 0.5,-236.5"/>
<text text-anchor="start" x="8.5" y="-254.5" font-family="Helvetica,sans-Serif" font-size="10.00">v8::PersistentValueMapBase</text>
<text text-anchor="middle" x="71.5" y="-243.5" font-family="Helvetica,sans-Serif" font-size="10.00">&lt; K, V, Traits &gt;</text>
</a>
</g>
</g>
<!-- Node3&#45;&gt;Node2 -->
<g id="edge2" class="edge">
<title>Node3&#45;&gt;Node2</title>
<path fill="none" stroke="midnightblue" d="M72.11,-226.02C72.91,-194.12 74.28,-138.95 75.01,-109.63"/>
<polygon fill="midnightblue" stroke="midnightblue" points="68.61,-226.17 71.85,-236.26 75.6,-226.35 68.61,-226.17"/>
</g>
<!-- Node4 -->
<g id="node4" class="node">
<title>Node4</title>
<g id="a_node4"><a xlink:href="classv8_1_1GlobalValueMap.html" target="_top" xlink:title=" ">
<polygon fill="white" stroke="black" points="88,-168.5 88,-198.5 191,-198.5 191,-168.5 88,-168.5"/>
<text text-anchor="start" x="96" y="-186.5" font-family="Helvetica,sans-Serif" font-size="10.00">v8::GlobalValueMap</text>
<text text-anchor="middle" x="139.5" y="-175.5" font-family="Helvetica,sans-Serif" font-size="10.00">&lt; K, V, Traits &gt;</text>
</a>
</g>
</g>
<!-- Node3&#45;&gt;Node4 -->
<g id="edge4" class="edge">
<title>Node3&#45;&gt;Node4</title>
<path fill="none" stroke="midnightblue" d="M93.67,-228.99C103.87,-219.09 115.69,-207.61 124.77,-198.79"/>
<polygon fill="midnightblue" stroke="midnightblue" points="90.99,-226.7 86.25,-236.18 95.87,-231.73 90.99,-226.7"/>
</g>
<!-- Node4&#45;&gt;Node2 -->
<g id="edge3" class="edge">
<title>Node4&#45;&gt;Node2</title>
<path fill="none" stroke="orange" stroke-dasharray="5,2" d="M123.95,-160.03C113.31,-144.64 99.32,-124.43 89.12,-109.68"/>
<polygon fill="orange" stroke="orange" points="121.21,-162.22 129.78,-168.45 126.97,-158.24 121.21,-162.22"/>
<text text-anchor="start" x="116.5" y="-142" font-family="Helvetica,sans-Serif" font-size="10.00"> &lt; K, V, DefaultGlobalMap</text>
<text text-anchor="middle" x="172.5" y="-131" font-family="Helvetica,sans-Serif" font-size="10.00">Traits&lt; K, V &gt; &gt;</text>
</g>
</g>
</svg>
