<?xml version="1.0" encoding="UTF-8" standalone="no"?>
<!DOCTYPE svg PUBLIC "-//W3C//DTD SVG 1.1//EN"
 "http://www.w3.org/Graphics/SVG/1.1/DTD/svg11.dtd">
<!-- Generated by graphviz version 2.44.0 ()
 -->
<!-- Title: cppgc::internal::PersistentBase::GetValue Pages: 1 -->
<svg width="721pt" height="627pt"
 viewBox="0.00 0.00 721.00 627.00" xmlns="http://www.w3.org/2000/svg" xmlns:xlink="http://www.w3.org/1999/xlink">
<g id="graph0" class="graph" transform="scale(1 1) rotate(0) translate(4 623)">
<title>cppgc::internal::PersistentBase::GetValue</title>
<polygon fill="white" stroke="transparent" points="-4,4 -4,-623 717,-623 717,4 -4,4"/>
<!-- Node1 -->
<g id="node1" class="node">
<title>Node1</title>
<g id="a_node1"><a xlink:title=" ">
<polygon fill="#bfbfbf" stroke="black" points="585,-245.5 585,-275.5 713,-275.5 713,-245.5 585,-245.5"/>
<text text-anchor="start" x="593" y="-263.5" font-family="Helvetica,sans-Serif" font-size="10.00">cppgc::internal::Persistent</text>
<text text-anchor="middle" x="649" y="-252.5" font-family="Helvetica,sans-Serif" font-size="10.00">Base::GetValue</text>
</a>
</g>
</g>
<!-- Node2 -->
<g id="node2" class="node">
<title>Node2</title>
<g id="a_node2"><a xlink:href="classcppgc_1_1internal_1_1BasicPersistent.html#a0bd538038aa020da214af7fac0caf31c" target="_top" xlink:title=" ">
<polygon fill="white" stroke="black" points="188,-294.5 188,-324.5 340,-324.5 340,-294.5 188,-294.5"/>
<text text-anchor="start" x="196" y="-312.5" font-family="Helvetica,sans-Serif" font-size="10.00">cppgc::internal::BasicPersistent</text>
<text text-anchor="middle" x="264" y="-301.5" font-family="Helvetica,sans-Serif" font-size="10.00">::BasicPersistent</text>
</a>
</g>
</g>
<!-- Node1&#45;&gt;Node2 -->
<g id="edge1" class="edge">
<title>Node1&#45;&gt;Node2</title>
<path fill="none" stroke="midnightblue" d="M574.65,-269.88C507.34,-278.5 408.07,-291.2 340.18,-299.88"/>
<polygon fill="midnightblue" stroke="midnightblue" points="575.28,-273.33 584.76,-268.59 574.39,-266.39 575.28,-273.33"/>
</g>
<!-- Node3 -->
<g id="node3" class="node">
<title>Node3</title>
<g id="a_node3"><a xlink:href="classcppgc_1_1internal_1_1BasicCrossThreadPersistent.html#a8df84a9926b1bc95c305c213d14508c9" target="_top" xlink:title=" ">
<polygon fill="white" stroke="black" points="395.5,-441.5 395.5,-471.5 529.5,-471.5 529.5,-441.5 395.5,-441.5"/>
<text text-anchor="start" x="403.5" y="-459.5" font-family="Helvetica,sans-Serif" font-size="10.00">cppgc::internal::BasicCross</text>
<text text-anchor="middle" x="462.5" y="-448.5" font-family="Helvetica,sans-Serif" font-size="10.00">ThreadPersistent::Get</text>
</a>
</g>
</g>
<!-- Node1&#45;&gt;Node3 -->
<g id="edge2" class="edge">
<title>Node1&#45;&gt;Node3</title>
<path fill="none" stroke="midnightblue" d="M626.79,-283.03C588.77,-323.42 509.96,-407.14 477.72,-441.39"/>
<polygon fill="midnightblue" stroke="midnightblue" points="629.52,-285.23 633.83,-275.55 624.43,-280.44 629.52,-285.23"/>
</g>
<!-- Node11 -->
<g id="node11" class="node">
<title>Node11</title>
<g id="a_node11"><a xlink:href="classcppgc_1_1internal_1_1BasicPersistent.html#aaa0404c10a8ef5c911e91ce92869db83" target="_top" xlink:title=" ">
<polygon fill="white" stroke="black" points="376,-202 376,-221 549,-221 549,-202 376,-202"/>
<text text-anchor="middle" x="462.5" y="-209" font-family="Helvetica,sans-Serif" font-size="10.00">cppgc::internal::BasicPersistent::Get</text>
</a>
</g>
</g>
<!-- Node1&#45;&gt;Node11 -->
<g id="edge10" class="edge">
<title>Node1&#45;&gt;Node11</title>
<path fill="none" stroke="midnightblue" d="M581.36,-242.8C553.67,-235.45 522.64,-227.21 499.38,-221.03"/>
<polygon fill="midnightblue" stroke="midnightblue" points="580.83,-246.28 591.39,-245.47 582.62,-239.52 580.83,-246.28"/>
</g>
<!-- Node19 -->
<g id="node19" class="node">
<title>Node19</title>
<g id="a_node19"><a xlink:href="classcppgc_1_1internal_1_1BasicCrossThreadPersistent.html#a444de90db04aee7132566783b4a4113c" target="_top" xlink:title=" ">
<polygon fill="white" stroke="black" points="394,-152.5 394,-182.5 531,-182.5 531,-152.5 394,-152.5"/>
<text text-anchor="start" x="402" y="-170.5" font-family="Helvetica,sans-Serif" font-size="10.00">cppgc::internal::BasicCross</text>
<text text-anchor="middle" x="462.5" y="-159.5" font-family="Helvetica,sans-Serif" font-size="10.00">ThreadPersistent::operator=</text>
</a>
</g>
</g>
<!-- Node1&#45;&gt;Node19 -->
<g id="edge19" class="edge">
<title>Node1&#45;&gt;Node19</title>
<path fill="none" stroke="midnightblue" d="M621.79,-239.06C602.6,-224.25 575.42,-205.04 549,-192.5 541.18,-188.79 532.68,-185.5 524.19,-182.63"/>
<polygon fill="midnightblue" stroke="midnightblue" points="619.72,-241.88 629.75,-245.3 624.04,-236.38 619.72,-241.88"/>
</g>
<!-- Node4 -->
<g id="node4" class="node">
<title>Node4</title>
<g id="a_node4"><a xlink:href="classcppgc_1_1internal_1_1BasicCrossThreadPersistent.html#a84f83cc8d906976362b01e2549638d1b" target="_top" xlink:title=" ">
<polygon fill="white" stroke="black" points="188.5,-588.5 188.5,-618.5 339.5,-618.5 339.5,-588.5 188.5,-588.5"/>
<text text-anchor="start" x="196.5" y="-606.5" font-family="Helvetica,sans-Serif" font-size="10.00">cppgc::internal::BasicCross</text>
<text text-anchor="middle" x="264" y="-595.5" font-family="Helvetica,sans-Serif" font-size="10.00">ThreadPersistent::operator bool</text>
</a>
</g>
</g>
<!-- Node3&#45;&gt;Node4 -->
<g id="edge3" class="edge">
<title>Node3&#45;&gt;Node4</title>
<path fill="none" stroke="midnightblue" d="M444.16,-479.95C422.63,-507.51 383.39,-552.86 340,-579.5 334.52,-582.86 328.53,-585.8 322.4,-588.35"/>
<polygon fill="midnightblue" stroke="midnightblue" points="447.2,-481.74 450.52,-471.68 441.65,-477.48 447.2,-481.74"/>
</g>
<!-- Node5 -->
<g id="node5" class="node">
<title>Node5</title>
<g id="a_node5"><a xlink:href="classcppgc_1_1internal_1_1BasicCrossThreadPersistent.html#a1aec53f1cfad5e17e9eeec7b5dac1ac8" target="_top" xlink:title=" ">
<polygon fill="white" stroke="black" points="192.5,-539.5 192.5,-569.5 335.5,-569.5 335.5,-539.5 192.5,-539.5"/>
<text text-anchor="start" x="200.5" y="-557.5" font-family="Helvetica,sans-Serif" font-size="10.00">cppgc::internal::BasicCross</text>
<text text-anchor="middle" x="264" y="-546.5" font-family="Helvetica,sans-Serif" font-size="10.00">ThreadPersistent::operator T*</text>
</a>
</g>
</g>
<!-- Node3&#45;&gt;Node5 -->
<g id="edge4" class="edge">
<title>Node3&#45;&gt;Node5</title>
<path fill="none" stroke="midnightblue" d="M431.68,-477.43C407.74,-493.54 372.82,-515.51 340,-530.5 332.91,-533.74 325.26,-536.72 317.65,-539.41"/>
<polygon fill="midnightblue" stroke="midnightblue" points="433.68,-480.3 439.98,-471.78 429.74,-474.51 433.68,-480.3"/>
</g>
<!-- Node6 -->
<g id="node6" class="node">
<title>Node6</title>
<g id="a_node6"><a xlink:href="classcppgc_1_1internal_1_1BasicCrossThreadPersistent.html#a5222c8c62ffb482c011c701ef3860070" target="_top" xlink:title=" ">
<polygon fill="white" stroke="black" points="197,-490.5 197,-520.5 331,-520.5 331,-490.5 197,-490.5"/>
<text text-anchor="start" x="205" y="-508.5" font-family="Helvetica,sans-Serif" font-size="10.00">cppgc::internal::BasicCross</text>
<text text-anchor="middle" x="264" y="-497.5" font-family="Helvetica,sans-Serif" font-size="10.00">ThreadPersistent::operator*</text>
</a>
</g>
</g>
<!-- Node3&#45;&gt;Node6 -->
<g id="edge5" class="edge">
<title>Node3&#45;&gt;Node6</title>
<path fill="none" stroke="midnightblue" d="M391.41,-473.98C369.76,-479.38 346.1,-485.28 325.18,-490.49"/>
<polygon fill="midnightblue" stroke="midnightblue" points="392.35,-477.35 401.21,-471.53 390.66,-470.56 392.35,-477.35"/>
</g>
<!-- Node7 -->
<g id="node7" class="node">
<title>Node7</title>
<g id="a_node7"><a xlink:href="classcppgc_1_1internal_1_1BasicCrossThreadPersistent.html#a158195be1c9b221dc5f0c97d86cdbe48" target="_top" xlink:title=" ">
<polygon fill="white" stroke="black" points="194,-441.5 194,-471.5 334,-471.5 334,-441.5 194,-441.5"/>
<text text-anchor="start" x="202" y="-459.5" font-family="Helvetica,sans-Serif" font-size="10.00">cppgc::internal::BasicCross</text>
<text text-anchor="middle" x="264" y="-448.5" font-family="Helvetica,sans-Serif" font-size="10.00">ThreadPersistent::operator&#45;&gt;</text>
</a>
</g>
</g>
<!-- Node3&#45;&gt;Node7 -->
<g id="edge6" class="edge">
<title>Node3&#45;&gt;Node7</title>
<path fill="none" stroke="midnightblue" d="M384.99,-456.5C368.29,-456.5 350.72,-456.5 334.32,-456.5"/>
<polygon fill="midnightblue" stroke="midnightblue" points="385.25,-460 395.25,-456.5 385.25,-453 385.25,-460"/>
</g>
<!-- Node8 -->
<g id="node8" class="node">
<title>Node8</title>
<g id="a_node8"><a xlink:href="classcppgc_1_1internal_1_1BasicCrossThreadPersistent.html#a1179b3c5364c0cf7df8cd31f70b92d85" target="_top" xlink:title=" ">
<polygon fill="white" stroke="black" points="195.5,-392.5 195.5,-422.5 332.5,-422.5 332.5,-392.5 195.5,-392.5"/>
<text text-anchor="start" x="203.5" y="-410.5" font-family="Helvetica,sans-Serif" font-size="10.00">cppgc::internal::BasicCross</text>
<text text-anchor="middle" x="264" y="-399.5" font-family="Helvetica,sans-Serif" font-size="10.00">ThreadPersistent::operator=</text>
</a>
</g>
</g>
<!-- Node3&#45;&gt;Node8 -->
<g id="edge7" class="edge">
<title>Node3&#45;&gt;Node8</title>
<path fill="none" stroke="midnightblue" d="M391.41,-439.02C369.76,-433.62 346.1,-427.72 325.18,-422.51"/>
<polygon fill="midnightblue" stroke="midnightblue" points="390.66,-442.44 401.21,-441.47 392.35,-435.65 390.66,-442.44"/>
</g>
<!-- Node10 -->
<g id="node10" class="node">
<title>Node10</title>
<g id="a_node10"><a xlink:href="classcppgc_1_1internal_1_1BasicCrossThreadPersistent.html#a6e20aaa3cf3d3867f6c12fa44b89b057" target="_top" xlink:title=" ">
<polygon fill="white" stroke="black" points="197,-343.5 197,-373.5 331,-373.5 331,-343.5 197,-343.5"/>
<text text-anchor="start" x="205" y="-361.5" font-family="Helvetica,sans-Serif" font-size="10.00">cppgc::internal::BasicCross</text>
<text text-anchor="middle" x="264" y="-350.5" font-family="Helvetica,sans-Serif" font-size="10.00">ThreadPersistent::Release</text>
</a>
</g>
</g>
<!-- Node3&#45;&gt;Node10 -->
<g id="edge9" class="edge">
<title>Node3&#45;&gt;Node10</title>
<path fill="none" stroke="midnightblue" d="M431.68,-435.57C407.74,-419.46 372.82,-397.49 340,-382.5 332.91,-379.26 325.26,-376.28 317.65,-373.59"/>
<polygon fill="midnightblue" stroke="midnightblue" points="429.74,-438.49 439.98,-441.22 433.68,-432.7 429.74,-438.49"/>
</g>
<!-- Node9 -->
<g id="node9" class="node">
<title>Node9</title>
<g id="a_node9"><a xlink:href="classcppgc_1_1internal_1_1BasicCrossThreadPersistent.html#abd2b011af337c9ed478dfc015475018d" target="_top" xlink:title=" ">
<polygon fill="white" stroke="black" points="7.5,-392.5 7.5,-422.5 144.5,-422.5 144.5,-392.5 7.5,-392.5"/>
<text text-anchor="start" x="15.5" y="-410.5" font-family="Helvetica,sans-Serif" font-size="10.00">cppgc::internal::BasicCross</text>
<text text-anchor="middle" x="76" y="-399.5" font-family="Helvetica,sans-Serif" font-size="10.00">ThreadPersistent::operator=</text>
</a>
</g>
</g>
<!-- Node8&#45;&gt;Node9 -->
<g id="edge8" class="edge">
<title>Node8&#45;&gt;Node9</title>
<path fill="none" stroke="midnightblue" d="M185.14,-407.5C171.68,-407.5 157.78,-407.5 144.63,-407.5"/>
<polygon fill="midnightblue" stroke="midnightblue" points="185.32,-411 195.32,-407.5 185.32,-404 185.32,-411"/>
</g>
<!-- Node11&#45;&gt;Node2 -->
<g id="edge11" class="edge">
<title>Node11&#45;&gt;Node2</title>
<path fill="none" stroke="midnightblue" d="M439.54,-226.72C415.81,-242.67 376.47,-267.71 340,-284.5 332.15,-288.12 323.61,-291.47 315.22,-294.46"/>
<polygon fill="midnightblue" stroke="midnightblue" points="441.53,-229.6 447.83,-221.08 437.6,-223.81 441.53,-229.6"/>
</g>
<!-- Node12 -->
<g id="node12" class="node">
<title>Node12</title>
<g id="a_node12"><a xlink:href="classcppgc_1_1internal_1_1BasicPersistent.html#aa482ce311ee265edc2e0fa0133de8648" target="_top" xlink:title=" ">
<polygon fill="white" stroke="black" points="188,-196.5 188,-226.5 340,-226.5 340,-196.5 188,-196.5"/>
<text text-anchor="start" x="196" y="-214.5" font-family="Helvetica,sans-Serif" font-size="10.00">cppgc::internal::BasicPersistent</text>
<text text-anchor="middle" x="264" y="-203.5" font-family="Helvetica,sans-Serif" font-size="10.00">::operator bool</text>
</a>
</g>
</g>
<!-- Node11&#45;&gt;Node12 -->
<g id="edge12" class="edge">
<title>Node11&#45;&gt;Node12</title>
<path fill="none" stroke="midnightblue" d="M365.8,-211.5C357.2,-211.5 348.56,-211.5 340.16,-211.5"/>
<polygon fill="midnightblue" stroke="midnightblue" points="365.88,-215 375.88,-211.5 365.88,-208 365.88,-215"/>
</g>
<!-- Node13 -->
<g id="node13" class="node">
<title>Node13</title>
<g id="a_node13"><a xlink:href="classcppgc_1_1internal_1_1BasicPersistent.html#a5ef52055741895dd89ffc999f701bf2e" target="_top" xlink:title=" ">
<polygon fill="white" stroke="black" points="188,-147.5 188,-177.5 340,-177.5 340,-147.5 188,-147.5"/>
<text text-anchor="start" x="196" y="-165.5" font-family="Helvetica,sans-Serif" font-size="10.00">cppgc::internal::BasicPersistent</text>
<text text-anchor="middle" x="264" y="-154.5" font-family="Helvetica,sans-Serif" font-size="10.00">::operator T*</text>
</a>
</g>
</g>
<!-- Node11&#45;&gt;Node13 -->
<g id="edge13" class="edge">
<title>Node11&#45;&gt;Node13</title>
<path fill="none" stroke="midnightblue" d="M409.68,-199.6C398.56,-196.99 386.88,-194.19 376,-191.5 358.21,-187.1 338.87,-182.11 321.4,-177.53"/>
<polygon fill="midnightblue" stroke="midnightblue" points="409.17,-203.08 419.7,-201.95 410.76,-196.26 409.17,-203.08"/>
</g>
<!-- Node14 -->
<g id="node14" class="node">
<title>Node14</title>
<g id="a_node14"><a xlink:href="classcppgc_1_1internal_1_1BasicPersistent.html#a50295294d691b463d134b901900430c5" target="_top" xlink:title=" ">
<polygon fill="white" stroke="black" points="188,-98.5 188,-128.5 340,-128.5 340,-98.5 188,-98.5"/>
<text text-anchor="start" x="196" y="-116.5" font-family="Helvetica,sans-Serif" font-size="10.00">cppgc::internal::BasicPersistent</text>
<text text-anchor="middle" x="264" y="-105.5" font-family="Helvetica,sans-Serif" font-size="10.00">::operator*</text>
</a>
</g>
</g>
<!-- Node11&#45;&gt;Node14 -->
<g id="edge14" class="edge">
<title>Node11&#45;&gt;Node14</title>
<path fill="none" stroke="midnightblue" d="M387.24,-197.98C383.3,-196.09 379.52,-193.94 376,-191.5 352.3,-175.06 363.03,-154.87 340,-137.5 335.42,-134.04 330.32,-131.07 325,-128.53"/>
<polygon fill="midnightblue" stroke="midnightblue" points="386.1,-201.29 396.68,-201.93 388.81,-194.84 386.1,-201.29"/>
</g>
<!-- Node15 -->
<g id="node15" class="node">
<title>Node15</title>
<g id="a_node15"><a xlink:href="classcppgc_1_1internal_1_1BasicPersistent.html#ad18c3c53d02d51ea3efe99171be45088" target="_top" xlink:title=" ">
<polygon fill="white" stroke="black" points="188,-49.5 188,-79.5 340,-79.5 340,-49.5 188,-49.5"/>
<text text-anchor="start" x="196" y="-67.5" font-family="Helvetica,sans-Serif" font-size="10.00">cppgc::internal::BasicPersistent</text>
<text text-anchor="middle" x="264" y="-56.5" font-family="Helvetica,sans-Serif" font-size="10.00">::operator&#45;&gt;</text>
</a>
</g>
</g>
<!-- Node11&#45;&gt;Node15 -->
<g id="edge15" class="edge">
<title>Node11&#45;&gt;Node15</title>
<path fill="none" stroke="midnightblue" d="M383.15,-196.97C380.63,-195.32 378.23,-193.51 376,-191.5 339.93,-159.08 374.74,-122.33 340,-88.5 336.47,-85.07 332.46,-82.12 328.16,-79.6"/>
<polygon fill="midnightblue" stroke="midnightblue" points="381.68,-200.16 392.13,-201.91 385.06,-194.02 381.68,-200.16"/>
</g>
<!-- Node16 -->
<g id="node16" class="node">
<title>Node16</title>
<g id="a_node16"><a xlink:href="classcppgc_1_1internal_1_1BasicPersistent.html#adace5a81a02d2ff7fdf41fc64b800480" target="_top" xlink:title=" ">
<polygon fill="white" stroke="black" points="188,-0.5 188,-30.5 340,-30.5 340,-0.5 188,-0.5"/>
<text text-anchor="start" x="196" y="-18.5" font-family="Helvetica,sans-Serif" font-size="10.00">cppgc::internal::BasicPersistent</text>
<text text-anchor="middle" x="264" y="-7.5" font-family="Helvetica,sans-Serif" font-size="10.00">::operator=</text>
</a>
</g>
</g>
<!-- Node11&#45;&gt;Node16 -->
<g id="edge16" class="edge">
<title>Node11&#45;&gt;Node16</title>
<path fill="none" stroke="midnightblue" d="M381.9,-196.55C379.82,-195.02 377.84,-193.34 376,-191.5 326.84,-142.48 387.16,-90.45 340,-39.5 336.84,-36.09 333.2,-33.16 329.26,-30.65"/>
<polygon fill="midnightblue" stroke="midnightblue" points="380.07,-199.54 390.42,-201.8 383.74,-193.58 380.07,-199.54"/>
</g>
<!-- Node18 -->
<g id="node18" class="node">
<title>Node18</title>
<g id="a_node18"><a xlink:href="classcppgc_1_1internal_1_1BasicPersistent.html#a90d5684e32d8663a2a686331b7357402" target="_top" xlink:title=" ">
<polygon fill="white" stroke="black" points="188,-245.5 188,-275.5 340,-275.5 340,-245.5 188,-245.5"/>
<text text-anchor="start" x="196" y="-263.5" font-family="Helvetica,sans-Serif" font-size="10.00">cppgc::internal::BasicPersistent</text>
<text text-anchor="middle" x="264" y="-252.5" font-family="Helvetica,sans-Serif" font-size="10.00">::Release</text>
</a>
</g>
</g>
<!-- Node11&#45;&gt;Node18 -->
<g id="edge18" class="edge">
<title>Node11&#45;&gt;Node18</title>
<path fill="none" stroke="midnightblue" d="M413.32,-223.51C386.77,-230.14 353.56,-238.42 325.3,-245.46"/>
<polygon fill="midnightblue" stroke="midnightblue" points="414.29,-226.88 423.15,-221.06 412.6,-220.09 414.29,-226.88"/>
</g>
<!-- Node17 -->
<g id="node17" class="node">
<title>Node17</title>
<g id="a_node17"><a xlink:href="classcppgc_1_1internal_1_1BasicPersistent.html#a34c39e9fc9dc5eeb72b7217f3864b1ef" target="_top" xlink:title=" ">
<polygon fill="white" stroke="black" points="0,-0.5 0,-30.5 152,-30.5 152,-0.5 0,-0.5"/>
<text text-anchor="start" x="8" y="-18.5" font-family="Helvetica,sans-Serif" font-size="10.00">cppgc::internal::BasicPersistent</text>
<text text-anchor="middle" x="76" y="-7.5" font-family="Helvetica,sans-Serif" font-size="10.00">::operator=</text>
</a>
</g>
</g>
<!-- Node16&#45;&gt;Node17 -->
<g id="edge17" class="edge">
<title>Node16&#45;&gt;Node17</title>
<path fill="none" stroke="midnightblue" d="M177.85,-15.5C169.26,-15.5 160.57,-15.5 152.1,-15.5"/>
<polygon fill="midnightblue" stroke="midnightblue" points="177.88,-19 187.88,-15.5 177.88,-12 177.88,-19"/>
</g>
</g>
</svg>
