<?xml version="1.0" encoding="UTF-8" standalone="no"?>
<!DOCTYPE svg PUBLIC "-//W3C//DTD SVG 1.1//EN"
 "http://www.w3.org/Graphics/SVG/1.1/DTD/svg11.dtd">
<!-- Generated by graphviz version 2.44.0 ()
 -->
<!-- Title: v8::Isolate::CreateParams Pages: 1 -->
<svg width="1001pt" height="427pt"
 viewBox="0.00 0.00 1001.00 427.00" xmlns="http://www.w3.org/2000/svg" xmlns:xlink="http://www.w3.org/1999/xlink">
<g id="graph0" class="graph" transform="scale(1 1) rotate(0) translate(4 423)">
<title>v8::Isolate::CreateParams</title>
<polygon fill="white" stroke="transparent" points="-4,4 -4,-423 997,-423 997,4 -4,4"/>
<!-- Node1 -->
<g id="node1" class="node">
<title>Node1</title>
<g id="a_node1"><a xlink:title=" ">
<polygon fill="#bfbfbf" stroke="black" points="865,-264.5 865,-283.5 993,-283.5 993,-264.5 865,-264.5"/>
<text text-anchor="middle" x="929" y="-271.5" font-family="Helvetica,sans-Serif" font-size="10.00">v8::Isolate::CreateParams</text>
</a>
</g>
</g>
<!-- Node2 -->
<g id="node2" class="node">
<title>Node2</title>
<g id="a_node2"><a xlink:href="classv8_1_1ArrayBuffer_1_1Allocator.html" target="_top" xlink:title=" ">
<polygon fill="white" stroke="black" points="574,-395.5 574,-414.5 696,-414.5 696,-395.5 574,-395.5"/>
<text text-anchor="middle" x="635" y="-402.5" font-family="Helvetica,sans-Serif" font-size="10.00">v8::ArrayBuffer::Allocator</text>
</a>
</g>
</g>
<!-- Node2&#45;&gt;Node1 -->
<g id="edge1" class="edge">
<title>Node2&#45;&gt;Node1</title>
<path fill="none" stroke="#9a32cd" stroke-dasharray="5,2" d="M706.37,-409.13C749.56,-408.61 804.53,-402.22 847,-378 886.56,-355.44 913.56,-305.11 923.63,-283.82"/>
<polygon fill="#9a32cd" stroke="#9a32cd" points="706.22,-405.63 696.22,-409.15 706.23,-412.63 706.22,-405.63"/>
<text text-anchor="middle" x="783" y="-411" font-family="Helvetica,sans-Serif" font-size="10.00"> array_buffer_allocator</text>
</g>
<!-- Node3 -->
<g id="node3" class="node">
<title>Node3</title>
<g id="a_node3"><a xlink:href="classv8_1_1ResourceConstraints.html" target="_top" xlink:title=" ">
<polygon fill="white" stroke="black" points="574,-357.5 574,-376.5 696,-376.5 696,-357.5 574,-357.5"/>
<text text-anchor="middle" x="635" y="-364.5" font-family="Helvetica,sans-Serif" font-size="10.00">v8::ResourceConstraints</text>
</a>
</g>
</g>
<!-- Node3&#45;&gt;Node1 -->
<g id="edge2" class="edge">
<title>Node3&#45;&gt;Node1</title>
<path fill="none" stroke="#9a32cd" stroke-dasharray="5,2" d="M706.51,-364.96C748.67,-361.66 802.51,-353.7 847,-335 876.21,-322.72 904.39,-297.55 918.55,-283.69"/>
<polygon fill="#9a32cd" stroke="#9a32cd" points="706.05,-361.48 696.33,-365.69 706.55,-368.47 706.05,-361.48"/>
<text text-anchor="middle" x="783" y="-366" font-family="Helvetica,sans-Serif" font-size="10.00"> constraints</text>
</g>
<!-- Node4 -->
<g id="node4" class="node">
<title>Node4</title>
<g id="a_node4"><a xlink:title=" ">
<polygon fill="white" stroke="#bfbfbf" points="575,-308 575,-338 695,-338 695,-308 575,-308"/>
<text text-anchor="start" x="583" y="-326" font-family="Helvetica,sans-Serif" font-size="10.00">std::shared_ptr&lt; v8</text>
<text text-anchor="middle" x="635" y="-315" font-family="Helvetica,sans-Serif" font-size="10.00">::ArrayBuffer::Allocator &gt;</text>
</a>
</g>
</g>
<!-- Node4&#45;&gt;Node1 -->
<g id="edge3" class="edge">
<title>Node4&#45;&gt;Node1</title>
<path fill="none" stroke="#9a32cd" stroke-dasharray="5,2" d="M705.12,-312.28C746.35,-305.78 799.71,-297.19 847,-289 856.86,-287.29 867.39,-285.4 877.48,-283.54"/>
<polygon fill="#9a32cd" stroke="#9a32cd" points="704.51,-308.83 695.18,-313.84 705.6,-315.75 704.51,-308.83"/>
<text text-anchor="start" x="735.5" y="-323" font-family="Helvetica,sans-Serif" font-size="10.00"> array_buffer_allocator</text>
<text text-anchor="middle" x="783" y="-312" font-family="Helvetica,sans-Serif" font-size="10.00">_shared</text>
</g>
<!-- Node5 -->
<g id="node5" class="node">
<title>Node5</title>
<g id="a_node5"><a xlink:title=" ">
<polygon fill="white" stroke="#bfbfbf" points="268.5,-287.5 268.5,-306.5 371.5,-306.5 371.5,-287.5 268.5,-287.5"/>
<text text-anchor="middle" x="320" y="-294.5" font-family="Helvetica,sans-Serif" font-size="10.00">std::shared_ptr&lt; T &gt;</text>
</a>
</g>
</g>
<!-- Node5&#45;&gt;Node4 -->
<g id="edge4" class="edge">
<title>Node5&#45;&gt;Node4</title>
<path fill="none" stroke="orange" stroke-dasharray="5,2" d="M381.73,-302.04C437.5,-306.68 519.64,-313.5 574.89,-318.09"/>
<polygon fill="orange" stroke="orange" points="381.89,-298.55 371.64,-301.21 381.31,-305.52 381.89,-298.55"/>
<text text-anchor="start" x="443" y="-330" font-family="Helvetica,sans-Serif" font-size="10.00"> &lt; v8::ArrayBuffer::</text>
<text text-anchor="middle" x="482.5" y="-319" font-family="Helvetica,sans-Serif" font-size="10.00">Allocator &gt;</text>
</g>
<!-- Node7 -->
<g id="node7" class="node">
<title>Node7</title>
<g id="a_node7"><a xlink:title=" ">
<polygon fill="white" stroke="#bfbfbf" points="569,-259 569,-289 701,-289 701,-259 569,-259"/>
<text text-anchor="start" x="577" y="-277" font-family="Helvetica,sans-Serif" font-size="10.00">std::shared_ptr&lt; v8</text>
<text text-anchor="middle" x="635" y="-266" font-family="Helvetica,sans-Serif" font-size="10.00">::CppHeapCreateParams &gt;</text>
</a>
</g>
</g>
<!-- Node5&#45;&gt;Node7 -->
<g id="edge7" class="edge">
<title>Node5&#45;&gt;Node7</title>
<path fill="none" stroke="orange" stroke-dasharray="5,2" d="M381.82,-292.4C392.54,-291.6 403.6,-290.77 414,-290 465.94,-286.16 524.78,-281.88 568.54,-278.72"/>
<polygon fill="orange" stroke="orange" points="381.39,-288.92 371.68,-293.16 381.91,-295.9 381.39,-288.92"/>
<text text-anchor="middle" x="482.5" y="-293" font-family="Helvetica,sans-Serif" font-size="10.00"> &lt; v8::CppHeapCreateParams &gt;</text>
</g>
<!-- Node6 -->
<g id="node6" class="node">
<title>Node6</title>
<g id="a_node6"><a xlink:title=" ">
<polygon fill="white" stroke="#bfbfbf" points="40,-269.5 40,-288.5 69,-288.5 69,-269.5 40,-269.5"/>
<text text-anchor="middle" x="54.5" y="-276.5" font-family="Helvetica,sans-Serif" font-size="10.00">T</text>
</a>
</g>
</g>
<!-- Node6&#45;&gt;Node5 -->
<g id="edge5" class="edge">
<title>Node6&#45;&gt;Node5</title>
<path fill="none" stroke="#9a32cd" stroke-dasharray="5,2" d="M79.52,-280.64C122.08,-283.55 211.57,-289.66 268.29,-293.54"/>
<polygon fill="#9a32cd" stroke="#9a32cd" points="79.51,-277.13 69.3,-279.94 79.03,-284.12 79.51,-277.13"/>
<text text-anchor="middle" x="176.5" y="-293" font-family="Helvetica,sans-Serif" font-size="10.00"> ptr</text>
</g>
<!-- Node19 -->
<g id="node19" class="node">
<title>Node19</title>
<g id="a_node19"><a xlink:title=" ">
<polygon fill="white" stroke="#bfbfbf" points="278,-249.5 278,-268.5 362,-268.5 362,-249.5 278,-249.5"/>
<text text-anchor="middle" x="320" y="-256.5" font-family="Helvetica,sans-Serif" font-size="10.00">std::vector&lt; T &gt;</text>
</a>
</g>
</g>
<!-- Node6&#45;&gt;Node19 -->
<g id="edge21" class="edge">
<title>Node6&#45;&gt;Node19</title>
<path fill="none" stroke="#9a32cd" stroke-dasharray="5,2" d="M79.33,-275.14C93.2,-273.02 111.05,-270.53 127,-269 178.83,-264.03 238.79,-261.41 277.72,-260.11"/>
<polygon fill="#9a32cd" stroke="#9a32cd" points="78.5,-271.73 69.17,-276.73 79.59,-278.64 78.5,-271.73"/>
<text text-anchor="middle" x="176.5" y="-272" font-family="Helvetica,sans-Serif" font-size="10.00"> elements</text>
</g>
<!-- Node7&#45;&gt;Node1 -->
<g id="edge6" class="edge">
<title>Node7&#45;&gt;Node1</title>
<path fill="none" stroke="#9a32cd" stroke-dasharray="5,2" d="M711.4,-274C758.89,-274 819.51,-274 864.54,-274"/>
<polygon fill="#9a32cd" stroke="#9a32cd" points="711.17,-270.5 701.17,-274 711.17,-277.5 711.17,-270.5"/>
<text text-anchor="middle" x="783" y="-277" font-family="Helvetica,sans-Serif" font-size="10.00"> cpp_heap_params</text>
</g>
<!-- Node8 -->
<g id="node8" class="node">
<title>Node8</title>
<g id="a_node8"><a xlink:href="classv8_1_1StartupData.html" target="_top" xlink:title=" ">
<polygon fill="white" stroke="black" points="593.5,-182.5 593.5,-201.5 676.5,-201.5 676.5,-182.5 593.5,-182.5"/>
<text text-anchor="middle" x="635" y="-189.5" font-family="Helvetica,sans-Serif" font-size="10.00">v8::StartupData</text>
</a>
</g>
</g>
<!-- Node8&#45;&gt;Node1 -->
<g id="edge8" class="edge">
<title>Node8&#45;&gt;Node1</title>
<path fill="none" stroke="#9a32cd" stroke-dasharray="5,2" d="M686.91,-194.43C730.52,-197.8 794.43,-205.84 847,-225 873.25,-234.57 900.36,-253.04 915.61,-264.37"/>
<polygon fill="#9a32cd" stroke="#9a32cd" points="687.05,-190.93 676.83,-193.71 686.55,-197.91 687.05,-190.93"/>
<text text-anchor="middle" x="783" y="-228" font-family="Helvetica,sans-Serif" font-size="10.00"> snapshot_blob</text>
</g>
<!-- Node9 -->
<g id="node9" class="node">
<title>Node9</title>
<g id="a_node9"><a xlink:href="structv8_1_1JitCodeEvent.html" target="_top" xlink:title=" ">
<polygon fill="white" stroke="black" points="590.5,-117.5 590.5,-136.5 679.5,-136.5 679.5,-117.5 590.5,-117.5"/>
<text text-anchor="middle" x="635" y="-124.5" font-family="Helvetica,sans-Serif" font-size="10.00">v8::JitCodeEvent</text>
</a>
</g>
</g>
<!-- Node9&#45;&gt;Node1 -->
<g id="edge9" class="edge">
<title>Node9&#45;&gt;Node1</title>
<path fill="none" stroke="#9a32cd" stroke-dasharray="5,2" d="M689.85,-132.19C734.66,-138.49 798.7,-152.26 847,-182 882.15,-203.65 910.54,-245.32 922.23,-264.23"/>
<polygon fill="#9a32cd" stroke="#9a32cd" points="690.12,-128.69 679.75,-130.85 689.2,-135.63 690.12,-128.69"/>
<text text-anchor="middle" x="783" y="-185" font-family="Helvetica,sans-Serif" font-size="10.00"> code_event_handler</text>
</g>
<!-- Node10 -->
<g id="node10" class="node">
<title>Node10</title>
<g id="a_node10"><a xlink:href="structv8_1_1JitCodeEvent_1_1name__t.html" target="_top" xlink:title=" ">
<polygon fill="white" stroke="black" points="257,-173.5 257,-192.5 383,-192.5 383,-173.5 257,-173.5"/>
<text text-anchor="middle" x="320" y="-180.5" font-family="Helvetica,sans-Serif" font-size="10.00">v8::JitCodeEvent::name_t</text>
</a>
</g>
</g>
<!-- Node10&#45;&gt;Node9 -->
<g id="edge10" class="edge">
<title>Node10&#45;&gt;Node9</title>
<path fill="none" stroke="#9a32cd" stroke-dasharray="5,2" d="M393.32,-179.77C439.02,-176.59 499.04,-170.32 551,-158 572.7,-152.85 596.45,-143.59 612.96,-136.53"/>
<polygon fill="#9a32cd" stroke="#9a32cd" points="392.96,-176.28 383.21,-180.43 393.42,-183.27 392.96,-176.28"/>
<text text-anchor="middle" x="482.5" y="-181" font-family="Helvetica,sans-Serif" font-size="10.00"> name</text>
</g>
<!-- Node11 -->
<g id="node11" class="node">
<title>Node11</title>
<g id="a_node11"><a xlink:href="structv8_1_1JitCodeEvent_1_1line__info__t.html" target="_top" xlink:title=" ">
<polygon fill="white" stroke="black" points="0,-103 0,-133 109,-133 109,-103 0,-103"/>
<text text-anchor="start" x="8" y="-121" font-family="Helvetica,sans-Serif" font-size="10.00">v8::JitCodeEvent::line</text>
<text text-anchor="middle" x="54.5" y="-110" font-family="Helvetica,sans-Serif" font-size="10.00">_info_t</text>
</a>
</g>
</g>
<!-- Node11&#45;&gt;Node9 -->
<g id="edge11" class="edge">
<title>Node11&#45;&gt;Node9</title>
<path fill="none" stroke="#9a32cd" stroke-dasharray="5,2" d="M119.36,-124.51C121.94,-124.69 124.49,-124.86 127,-125 315.15,-135.83 362.57,-133.4 551,-130 563.69,-129.77 577.46,-129.34 590.07,-128.88"/>
<polygon fill="#9a32cd" stroke="#9a32cd" points="119.58,-121.02 109.34,-123.74 119.04,-128 119.58,-121.02"/>
<text text-anchor="middle" x="320" y="-135" font-family="Helvetica,sans-Serif" font-size="10.00"> line_info</text>
</g>
<!-- Node12 -->
<g id="node12" class="node">
<title>Node12</title>
<g id="a_node12"><a xlink:href="structv8_1_1JitCodeEvent_1_1wasm__source__info__t.html" target="_top" xlink:title=" ">
<polygon fill="white" stroke="black" points="260,-77 260,-107 380,-107 380,-77 260,-77"/>
<text text-anchor="start" x="268" y="-95" font-family="Helvetica,sans-Serif" font-size="10.00">v8::JitCodeEvent::wasm</text>
<text text-anchor="middle" x="320" y="-84" font-family="Helvetica,sans-Serif" font-size="10.00">_source_info_t</text>
</a>
</g>
</g>
<!-- Node11&#45;&gt;Node12 -->
<g id="edge13" class="edge">
<title>Node11&#45;&gt;Node12</title>
<path fill="none" stroke="#9a32cd" stroke-dasharray="5,2" d="M119.17,-111.72C162.01,-107.49 218.09,-101.96 259.93,-97.83"/>
<polygon fill="#9a32cd" stroke="#9a32cd" points="118.75,-108.24 109.14,-112.71 119.44,-115.21 118.75,-108.24"/>
<text text-anchor="middle" x="176.5" y="-113" font-family="Helvetica,sans-Serif" font-size="10.00"> line_number_table</text>
</g>
<!-- Node12&#45;&gt;Node9 -->
<g id="edge12" class="edge">
<title>Node12&#45;&gt;Node9</title>
<path fill="none" stroke="#9a32cd" stroke-dasharray="5,2" d="M390.56,-99.78C451.55,-106.6 538.34,-116.3 590.14,-122.1"/>
<polygon fill="#9a32cd" stroke="#9a32cd" points="390.57,-96.26 380.24,-98.62 389.79,-103.21 390.57,-96.26"/>
<text text-anchor="middle" x="482.5" y="-120" font-family="Helvetica,sans-Serif" font-size="10.00"> wasm_source_info</text>
</g>
<!-- Node13 -->
<g id="node13" class="node">
<title>Node13</title>
<g id="a_node13"><a xlink:href="classv8_1_1Local.html" target="_top" xlink:title=" ">
<polygon fill="white" stroke="black" points="244,-38.5 244,-57.5 396,-57.5 396,-38.5 244,-38.5"/>
<text text-anchor="middle" x="320" y="-45.5" font-family="Helvetica,sans-Serif" font-size="10.00">v8::Local&lt; v8::UnboundScript &gt;</text>
</a>
</g>
</g>
<!-- Node13&#45;&gt;Node9 -->
<g id="edge14" class="edge">
<title>Node13&#45;&gt;Node9</title>
<path fill="none" stroke="#9a32cd" stroke-dasharray="5,2" d="M406.08,-57.28C450.02,-63.45 504.12,-73.2 551,-88 574.84,-95.52 600.65,-108.49 617.06,-117.39"/>
<polygon fill="#9a32cd" stroke="#9a32cd" points="406.39,-53.79 396,-55.9 405.44,-60.72 406.39,-53.79"/>
<text text-anchor="middle" x="482.5" y="-91" font-family="Helvetica,sans-Serif" font-size="10.00"> script</text>
</g>
<!-- Node14 -->
<g id="node14" class="node">
<title>Node14</title>
<g id="a_node14"><a xlink:href="classv8_1_1Local.html" target="_top" xlink:title=" ">
<polygon fill="white" stroke="black" points="15.5,-38.5 15.5,-57.5 93.5,-57.5 93.5,-38.5 15.5,-38.5"/>
<text text-anchor="middle" x="54.5" y="-45.5" font-family="Helvetica,sans-Serif" font-size="10.00">v8::Local&lt; T &gt;</text>
</a>
</g>
</g>
<!-- Node14&#45;&gt;Node13 -->
<g id="edge15" class="edge">
<title>Node14&#45;&gt;Node13</title>
<path fill="none" stroke="orange" stroke-dasharray="5,2" d="M103.62,-48C142.83,-48 198.89,-48 243.99,-48"/>
<polygon fill="orange" stroke="orange" points="103.53,-44.5 93.53,-48 103.53,-51.5 103.53,-44.5"/>
<text text-anchor="middle" x="176.5" y="-51" font-family="Helvetica,sans-Serif" font-size="10.00"> &lt; v8::UnboundScript &gt;</text>
</g>
<!-- Node15 -->
<g id="node15" class="node">
<title>Node15</title>
<g id="a_node15"><a xlink:href="classv8_1_1Isolate.html" target="_top" xlink:title=" ">
<polygon fill="white" stroke="black" points="289.5,-0.5 289.5,-19.5 350.5,-19.5 350.5,-0.5 289.5,-0.5"/>
<text text-anchor="middle" x="320" y="-7.5" font-family="Helvetica,sans-Serif" font-size="10.00">v8::Isolate</text>
</a>
</g>
</g>
<!-- Node15&#45;&gt;Node9 -->
<g id="edge16" class="edge">
<title>Node15&#45;&gt;Node9</title>
<path fill="none" stroke="#9a32cd" stroke-dasharray="5,2" d="M360.98,-8.22C408.75,-7.72 489.88,-12.19 551,-43 586.33,-60.81 615.57,-99.51 627.81,-117.48"/>
<polygon fill="#9a32cd" stroke="#9a32cd" points="360.67,-4.72 350.73,-8.4 360.8,-11.72 360.67,-4.72"/>
<text text-anchor="middle" x="482.5" y="-46" font-family="Helvetica,sans-Serif" font-size="10.00"> isolate</text>
</g>
<!-- Node16 -->
<g id="node16" class="node">
<title>Node16</title>
<g id="a_node16"><a xlink:title=" ">
<polygon fill="white" stroke="#bfbfbf" points="575,-220.5 575,-239.5 695,-239.5 695,-220.5 575,-220.5"/>
<text text-anchor="middle" x="635" y="-227.5" font-family="Helvetica,sans-Serif" font-size="10.00">std::vector&lt; std::string &gt;</text>
</a>
</g>
</g>
<!-- Node16&#45;&gt;Node1 -->
<g id="edge17" class="edge">
<title>Node16&#45;&gt;Node1</title>
<path fill="none" stroke="#9a32cd" stroke-dasharray="5,2" d="M705.17,-238.68C746.42,-244.07 799.79,-251.39 847,-259 857.17,-260.64 868.02,-262.54 878.37,-264.43"/>
<polygon fill="#9a32cd" stroke="#9a32cd" points="705.59,-235.21 695.23,-237.39 704.69,-242.15 705.59,-235.21"/>
<text text-anchor="middle" x="783" y="-262" font-family="Helvetica,sans-Serif" font-size="10.00"> supported_import_assertions</text>
</g>
<!-- Node17 -->
<g id="node17" class="node">
<title>Node17</title>
<g id="a_node17"><a xlink:title=" ">
<polygon fill="white" stroke="#bfbfbf" points="290.5,-211.5 290.5,-230.5 349.5,-230.5 349.5,-211.5 290.5,-211.5"/>
<text text-anchor="middle" x="320" y="-218.5" font-family="Helvetica,sans-Serif" font-size="10.00">std::string</text>
</a>
</g>
</g>
<!-- Node17&#45;&gt;Node16 -->
<g id="edge18" class="edge">
<title>Node17&#45;&gt;Node16</title>
<path fill="none" stroke="#9a32cd" stroke-dasharray="5,2" d="M359.78,-220.09C405.53,-219.26 483.85,-218.62 551,-222 558.66,-222.39 566.71,-222.95 574.65,-223.61"/>
<polygon fill="#9a32cd" stroke="#9a32cd" points="359.64,-216.59 349.71,-220.28 359.77,-223.59 359.64,-216.59"/>
<text text-anchor="middle" x="482.5" y="-225" font-family="Helvetica,sans-Serif" font-size="10.00"> elements</text>
</g>
<!-- Node18 -->
<g id="node18" class="node">
<title>Node18</title>
<g id="a_node18"><a xlink:title=" ">
<polygon fill="white" stroke="#bfbfbf" points="8,-206 8,-236 101,-236 101,-206 8,-206"/>
<text text-anchor="start" x="16" y="-224" font-family="Helvetica,sans-Serif" font-size="10.00">std::basic_string&lt;</text>
<text text-anchor="middle" x="54.5" y="-213" font-family="Helvetica,sans-Serif" font-size="10.00"> Char &gt;</text>
</a>
</g>
</g>
<!-- Node18&#45;&gt;Node17 -->
<g id="edge19" class="edge">
<title>Node18&#45;&gt;Node17</title>
<path fill="none" stroke="midnightblue" d="M111.34,-221C166.09,-221 247.4,-221 290.22,-221"/>
<polygon fill="midnightblue" stroke="midnightblue" points="111.1,-217.5 101.1,-221 111.1,-224.5 111.1,-217.5"/>
</g>
<!-- Node19&#45;&gt;Node16 -->
<g id="edge20" class="edge">
<title>Node19&#45;&gt;Node16</title>
<path fill="none" stroke="orange" stroke-dasharray="5,2" d="M372.21,-254.26C427.74,-249.11 516.25,-240.91 574.75,-235.49"/>
<polygon fill="orange" stroke="orange" points="371.88,-250.77 362.24,-255.18 372.52,-257.74 371.88,-250.77"/>
<text text-anchor="middle" x="482.5" y="-252" font-family="Helvetica,sans-Serif" font-size="10.00"> &lt; std::string &gt;</text>
</g>
</g>
</svg>
