<?xml version="1.0" encoding="UTF-8" standalone="no"?>
<!DOCTYPE svg PUBLIC "-//W3C//DTD SVG 1.1//EN"
 "http://www.w3.org/Graphics/SVG/1.1/DTD/svg11.dtd">
<!-- Generated by graphviz version 2.44.0 ()
 -->
<!-- Title: cppgc::internal::BasicMember::Get Pages: 1 -->
<svg width="530pt" height="470pt"
 viewBox="0.00 0.00 530.00 470.00" xmlns="http://www.w3.org/2000/svg" xmlns:xlink="http://www.w3.org/1999/xlink">
<g id="graph0" class="graph" transform="scale(1 1) rotate(0) translate(4 466)">
<title>cppgc::internal::BasicMember::Get</title>
<polygon fill="white" stroke="transparent" points="-4,4 -4,-466 526,-466 526,4 -4,4"/>
<!-- Node1 -->
<g id="node1" class="node">
<title>Node1</title>
<g id="a_node1"><a xlink:title=" ">
<polygon fill="#bfbfbf" stroke="black" points="358,-216 358,-235 522,-235 522,-216 358,-216"/>
<text text-anchor="middle" x="440" y="-223" font-family="Helvetica,sans-Serif" font-size="10.00">cppgc::internal::BasicMember::Get</text>
</a>
</g>
</g>
<!-- Node2 -->
<g id="node2" class="node">
<title>Node2</title>
<g id="a_node2"><a xlink:href="classcppgc_1_1internal_1_1BasicMember.html#a04b6b0de171d43db9495b3bf9da05383" target="_top" xlink:title=" ">
<polygon fill="white" stroke="black" points="179,-431.5 179,-461.5 322,-461.5 322,-431.5 179,-431.5"/>
<text text-anchor="start" x="187" y="-449.5" font-family="Helvetica,sans-Serif" font-size="10.00">cppgc::internal::BasicMember</text>
<text text-anchor="middle" x="250.5" y="-438.5" font-family="Helvetica,sans-Serif" font-size="10.00">::BasicMember</text>
</a>
</g>
</g>
<!-- Node1&#45;&gt;Node2 -->
<g id="edge1" class="edge">
<title>Node1&#45;&gt;Node2</title>
<path fill="none" stroke="midnightblue" d="M432.63,-245.03C418.82,-284.36 382.43,-373.48 322,-422.5 317.78,-425.92 313.05,-428.87 308.09,-431.4"/>
<polygon fill="midnightblue" stroke="midnightblue" points="436.02,-245.93 435.92,-235.34 429.39,-243.68 436.02,-245.93"/>
</g>
<!-- Node3 -->
<g id="node3" class="node">
<title>Node3</title>
<g id="a_node3"><a xlink:href="classcppgc_1_1LivenessBroker.html#aee6371e43c399799c9ed0f3b84674cfa" target="_top" xlink:title=" ">
<polygon fill="white" stroke="black" points="192.5,-382.5 192.5,-412.5 308.5,-412.5 308.5,-382.5 192.5,-382.5"/>
<text text-anchor="start" x="200.5" y="-400.5" font-family="Helvetica,sans-Serif" font-size="10.00">cppgc::LivenessBroker</text>
<text text-anchor="middle" x="250.5" y="-389.5" font-family="Helvetica,sans-Serif" font-size="10.00">::IsHeapObjectAlive</text>
</a>
</g>
</g>
<!-- Node1&#45;&gt;Node3 -->
<g id="edge2" class="edge">
<title>Node1&#45;&gt;Node3</title>
<path fill="none" stroke="midnightblue" d="M429.18,-243.91C411.69,-275.02 372.21,-338.03 322,-373.5 317.14,-376.93 311.75,-379.9 306.18,-382.47"/>
<polygon fill="midnightblue" stroke="midnightblue" points="432.32,-245.46 434.07,-235.01 426.19,-242.09 432.32,-245.46"/>
</g>
<!-- Node4 -->
<g id="node4" class="node">
<title>Node4</title>
<g id="a_node4"><a xlink:href="classcppgc_1_1internal_1_1BasicMember.html#aa11d97f26b6d1076c5d38d3cd7aa3642" target="_top" xlink:title=" ">
<polygon fill="white" stroke="black" points="179,-333.5 179,-363.5 322,-363.5 322,-333.5 179,-333.5"/>
<text text-anchor="start" x="187" y="-351.5" font-family="Helvetica,sans-Serif" font-size="10.00">cppgc::internal::BasicMember</text>
<text text-anchor="middle" x="250.5" y="-340.5" font-family="Helvetica,sans-Serif" font-size="10.00">::operator bool</text>
</a>
</g>
</g>
<!-- Node1&#45;&gt;Node4 -->
<g id="edge3" class="edge">
<title>Node1&#45;&gt;Node4</title>
<path fill="none" stroke="midnightblue" d="M423,-242.52C401.77,-264.24 362.24,-301.72 322,-324.5 316.15,-327.81 309.77,-330.77 303.31,-333.38"/>
<polygon fill="midnightblue" stroke="midnightblue" points="425.8,-244.66 430.21,-235.03 420.75,-239.81 425.8,-244.66"/>
</g>
<!-- Node5 -->
<g id="node5" class="node">
<title>Node5</title>
<g id="a_node5"><a xlink:href="classcppgc_1_1internal_1_1BasicMember.html#ad581b62049b232e53bd60812295b9e89" target="_top" xlink:title=" ">
<polygon fill="white" stroke="black" points="179,-284.5 179,-314.5 322,-314.5 322,-284.5 179,-284.5"/>
<text text-anchor="start" x="187" y="-302.5" font-family="Helvetica,sans-Serif" font-size="10.00">cppgc::internal::BasicMember</text>
<text text-anchor="middle" x="250.5" y="-291.5" font-family="Helvetica,sans-Serif" font-size="10.00">::operator T*</text>
</a>
</g>
</g>
<!-- Node1&#45;&gt;Node5 -->
<g id="edge4" class="edge">
<title>Node1&#45;&gt;Node5</title>
<path fill="none" stroke="midnightblue" d="M408.65,-239.22C385.18,-249.64 351.78,-264.09 322,-275.5 314.15,-278.51 305.75,-281.54 297.57,-284.38"/>
<polygon fill="midnightblue" stroke="midnightblue" points="410.36,-242.29 418.06,-235.02 407.5,-235.9 410.36,-242.29"/>
</g>
<!-- Node6 -->
<g id="node6" class="node">
<title>Node6</title>
<g id="a_node6"><a xlink:href="classcppgc_1_1internal_1_1BasicMember.html#a2ffdbed44f32dbe4b4a37c81bc0d319a" target="_top" xlink:title=" ">
<polygon fill="white" stroke="black" points="179,-235.5 179,-265.5 322,-265.5 322,-235.5 179,-235.5"/>
<text text-anchor="start" x="187" y="-253.5" font-family="Helvetica,sans-Serif" font-size="10.00">cppgc::internal::BasicMember</text>
<text text-anchor="middle" x="250.5" y="-242.5" font-family="Helvetica,sans-Serif" font-size="10.00">::operator*</text>
</a>
</g>
</g>
<!-- Node1&#45;&gt;Node6 -->
<g id="edge5" class="edge">
<title>Node1&#45;&gt;Node6</title>
<path fill="none" stroke="midnightblue" d="M357.35,-236.39C345.6,-237.95 333.61,-239.55 322.1,-241.09"/>
<polygon fill="midnightblue" stroke="midnightblue" points="358.13,-239.81 367.58,-235.02 357.2,-232.88 358.13,-239.81"/>
</g>
<!-- Node7 -->
<g id="node7" class="node">
<title>Node7</title>
<g id="a_node7"><a xlink:href="classcppgc_1_1internal_1_1BasicMember.html#aaf8e4f3c0185a764e3da679e901ee4d2" target="_top" xlink:title=" ">
<polygon fill="white" stroke="black" points="179,-186.5 179,-216.5 322,-216.5 322,-186.5 179,-186.5"/>
<text text-anchor="start" x="187" y="-204.5" font-family="Helvetica,sans-Serif" font-size="10.00">cppgc::internal::BasicMember</text>
<text text-anchor="middle" x="250.5" y="-193.5" font-family="Helvetica,sans-Serif" font-size="10.00">::operator&#45;&gt;</text>
</a>
</g>
</g>
<!-- Node1&#45;&gt;Node7 -->
<g id="edge6" class="edge">
<title>Node1&#45;&gt;Node7</title>
<path fill="none" stroke="midnightblue" d="M354.69,-214.71C343.81,-213.32 332.75,-211.9 322.12,-210.54"/>
<polygon fill="midnightblue" stroke="midnightblue" points="354.26,-218.18 364.63,-215.98 355.15,-211.24 354.26,-218.18"/>
</g>
<!-- Node8 -->
<g id="node8" class="node">
<title>Node8</title>
<g id="a_node8"><a xlink:href="classcppgc_1_1internal_1_1BasicMember.html#a2bf3cba91349ba7c5c3d06c11bc4d7d0" target="_top" xlink:title=" ">
<polygon fill="white" stroke="black" points="179,-137.5 179,-167.5 322,-167.5 322,-137.5 179,-137.5"/>
<text text-anchor="start" x="187" y="-155.5" font-family="Helvetica,sans-Serif" font-size="10.00">cppgc::internal::BasicMember</text>
<text text-anchor="middle" x="250.5" y="-144.5" font-family="Helvetica,sans-Serif" font-size="10.00">::operator=</text>
</a>
</g>
</g>
<!-- Node1&#45;&gt;Node8 -->
<g id="edge7" class="edge">
<title>Node1&#45;&gt;Node8</title>
<path fill="none" stroke="midnightblue" d="M407.26,-211.99C383.82,-202.13 351.07,-188.61 322,-177.5 313.27,-174.16 303.87,-170.72 294.87,-167.51"/>
<polygon fill="midnightblue" stroke="midnightblue" points="406.12,-215.31 416.7,-215.97 408.85,-208.86 406.12,-215.31"/>
</g>
<!-- Node10 -->
<g id="node10" class="node">
<title>Node10</title>
<g id="a_node10"><a xlink:href="namespacecppgc_1_1internal.html#aab40a961a20aafa179a0935db476ef89" target="_top" xlink:title=" ">
<polygon fill="white" stroke="black" points="185,-99 185,-118 316,-118 316,-99 185,-99"/>
<text text-anchor="middle" x="250.5" y="-106" font-family="Helvetica,sans-Serif" font-size="10.00">cppgc::internal::operator==</text>
</a>
</g>
</g>
<!-- Node1&#45;&gt;Node10 -->
<g id="edge9" class="edge">
<title>Node1&#45;&gt;Node10</title>
<path fill="none" stroke="midnightblue" d="M423.11,-208.52C401.99,-186.92 362.58,-149.85 322,-128.5 313.89,-124.23 304.77,-120.79 295.84,-118.03"/>
<polygon fill="midnightblue" stroke="midnightblue" points="420.82,-211.19 430.27,-215.98 425.87,-206.34 420.82,-211.19"/>
</g>
<!-- Node11 -->
<g id="node11" class="node">
<title>Node11</title>
<g id="a_node11"><a xlink:href="classcppgc_1_1internal_1_1BasicMember.html#a63971bb466d9d4a4cf28346f9827d852" target="_top" xlink:title=" ">
<polygon fill="white" stroke="black" points="179,-49.5 179,-79.5 322,-79.5 322,-49.5 179,-49.5"/>
<text text-anchor="start" x="187" y="-67.5" font-family="Helvetica,sans-Serif" font-size="10.00">cppgc::internal::BasicMember</text>
<text text-anchor="middle" x="250.5" y="-56.5" font-family="Helvetica,sans-Serif" font-size="10.00">::Release</text>
</a>
</g>
</g>
<!-- Node1&#45;&gt;Node11 -->
<g id="edge10" class="edge">
<title>Node1&#45;&gt;Node11</title>
<path fill="none" stroke="midnightblue" d="M427.72,-207.05C409.12,-178.08 369.33,-121.92 322,-89.5 316.43,-85.68 310.21,-82.39 303.84,-79.55"/>
<polygon fill="midnightblue" stroke="midnightblue" points="424.9,-209.15 433.19,-215.75 430.83,-205.43 424.9,-209.15"/>
</g>
<!-- Node12 -->
<g id="node12" class="node">
<title>Node12</title>
<g id="a_node12"><a xlink:href="classcppgc_1_1internal_1_1BasicMember.html#a3c3517914f2c32b5e0375915d4cf843f" target="_top" xlink:title=" ">
<polygon fill="white" stroke="black" points="179,-0.5 179,-30.5 322,-30.5 322,-0.5 179,-0.5"/>
<text text-anchor="start" x="187" y="-18.5" font-family="Helvetica,sans-Serif" font-size="10.00">cppgc::internal::BasicMember</text>
<text text-anchor="middle" x="250.5" y="-7.5" font-family="Helvetica,sans-Serif" font-size="10.00">::Swap</text>
</a>
</g>
</g>
<!-- Node1&#45;&gt;Node12 -->
<g id="edge11" class="edge">
<title>Node1&#45;&gt;Node12</title>
<path fill="none" stroke="midnightblue" d="M431.84,-206.22C417.04,-168.91 379.57,-86.47 322,-40.5 317.23,-36.69 311.84,-33.44 306.21,-30.67"/>
<polygon fill="midnightblue" stroke="midnightblue" points="428.7,-207.8 435.56,-215.87 435.23,-205.28 428.7,-207.8"/>
</g>
<!-- Node9 -->
<g id="node9" class="node">
<title>Node9</title>
<g id="a_node9"><a xlink:href="classcppgc_1_1internal_1_1BasicMember.html#a047b1b0acf9234ced7516722a1802fa4" target="_top" xlink:title=" ">
<polygon fill="white" stroke="black" points="0,-137.5 0,-167.5 143,-167.5 143,-137.5 0,-137.5"/>
<text text-anchor="start" x="8" y="-155.5" font-family="Helvetica,sans-Serif" font-size="10.00">cppgc::internal::BasicMember</text>
<text text-anchor="middle" x="71.5" y="-144.5" font-family="Helvetica,sans-Serif" font-size="10.00">::operator=</text>
</a>
</g>
</g>
<!-- Node8&#45;&gt;Node9 -->
<g id="edge8" class="edge">
<title>Node8&#45;&gt;Node9</title>
<path fill="none" stroke="midnightblue" d="M168.51,-152.5C160.03,-152.5 151.46,-152.5 143.11,-152.5"/>
<polygon fill="midnightblue" stroke="midnightblue" points="168.78,-156 178.78,-152.5 168.78,-149 168.78,-156"/>
</g>
</g>
</svg>
