<?xml version="1.0" encoding="UTF-8" standalone="no"?>
<!DOCTYPE svg PUBLIC "-//W3C//DTD SVG 1.1//EN"
 "http://www.w3.org/Graphics/SVG/1.1/DTD/svg11.dtd">
<!-- Generated by graphviz version 2.44.0 ()
 -->
<!-- Title: cppgc::internal::PersistentBase::GetValue Pages: 1 -->
<svg width="721pt" height="333pt"
 viewBox="0.00 0.00 721.00 333.00" xmlns="http://www.w3.org/2000/svg" xmlns:xlink="http://www.w3.org/1999/xlink">
<g id="graph0" class="graph" transform="scale(1 1) rotate(0) translate(4 329)">
<title>cppgc::internal::PersistentBase::GetValue</title>
<polygon fill="white" stroke="transparent" points="-4,4 -4,-329 717,-329 717,4 -4,4"/>
<!-- Node1 -->
<g id="node1" class="node">
<title>Node1</title>
<g id="a_node1"><a xlink:title=" ">
<polygon fill="#bfbfbf" stroke="black" points="585,-190.5 585,-220.5 713,-220.5 713,-190.5 585,-190.5"/>
<text text-anchor="start" x="593" y="-208.5" font-family="Helvetica,sans-Serif" font-size="10.00">cppgc::internal::Persistent</text>
<text text-anchor="middle" x="649" y="-197.5" font-family="Helvetica,sans-Serif" font-size="10.00">Base::GetValue</text>
</a>
</g>
</g>
<!-- Node2 -->
<g id="node2" class="node">
<title>Node2</title>
<g id="a_node2"><a xlink:href="classcppgc_1_1internal_1_1BasicPersistent.html#a0bd538038aa020da214af7fac0caf31c" target="_top" xlink:title=" ">
<polygon fill="white" stroke="black" points="188,-294.5 188,-324.5 340,-324.5 340,-294.5 188,-294.5"/>
<text text-anchor="start" x="196" y="-312.5" font-family="Helvetica,sans-Serif" font-size="10.00">cppgc::internal::BasicPersistent</text>
<text text-anchor="middle" x="264" y="-301.5" font-family="Helvetica,sans-Serif" font-size="10.00">::BasicPersistent</text>
</a>
</g>
</g>
<!-- Node1&#45;&gt;Node2 -->
<g id="edge1" class="edge">
<title>Node1&#45;&gt;Node2</title>
<path fill="none" stroke="midnightblue" d="M583.05,-223.14C509.19,-243.19 389.85,-275.6 320.27,-294.49"/>
<polygon fill="midnightblue" stroke="midnightblue" points="583.98,-226.51 592.72,-220.51 582.15,-219.75 583.98,-226.51"/>
</g>
<!-- Node3 -->
<g id="node3" class="node">
<title>Node3</title>
<g id="a_node3"><a xlink:href="classcppgc_1_1internal_1_1BasicPersistent.html#aaa0404c10a8ef5c911e91ce92869db83" target="_top" xlink:title=" ">
<polygon fill="white" stroke="black" points="376,-177 376,-196 549,-196 549,-177 376,-177"/>
<text text-anchor="middle" x="462.5" y="-184" font-family="Helvetica,sans-Serif" font-size="10.00">cppgc::internal::BasicPersistent::Get</text>
</a>
</g>
</g>
<!-- Node1&#45;&gt;Node3 -->
<g id="edge2" class="edge">
<title>Node1&#45;&gt;Node3</title>
<path fill="none" stroke="midnightblue" d="M574.67,-197.95C566.28,-197.08 557.68,-196.2 549.16,-195.32"/>
<polygon fill="midnightblue" stroke="midnightblue" points="574.46,-201.44 584.76,-198.99 575.17,-194.48 574.46,-201.44"/>
</g>
<!-- Node3&#45;&gt;Node2 -->
<g id="edge3" class="edge">
<title>Node3&#45;&gt;Node2</title>
<path fill="none" stroke="midnightblue" d="M440.09,-202.24C422.55,-215.32 397.26,-234.61 376,-252.5 359.39,-266.48 358.77,-274.61 340,-285.5 334.21,-288.86 327.88,-291.82 321.44,-294.4"/>
<polygon fill="midnightblue" stroke="midnightblue" points="442.54,-204.78 448.49,-196.01 438.37,-199.16 442.54,-204.78"/>
</g>
<!-- Node4 -->
<g id="node4" class="node">
<title>Node4</title>
<g id="a_node4"><a xlink:href="classcppgc_1_1internal_1_1BasicPersistent.html#aa482ce311ee265edc2e0fa0133de8648" target="_top" xlink:title=" ">
<polygon fill="white" stroke="black" points="188,-245.5 188,-275.5 340,-275.5 340,-245.5 188,-245.5"/>
<text text-anchor="start" x="196" y="-263.5" font-family="Helvetica,sans-Serif" font-size="10.00">cppgc::internal::BasicPersistent</text>
<text text-anchor="middle" x="264" y="-252.5" font-family="Helvetica,sans-Serif" font-size="10.00">::operator bool</text>
</a>
</g>
</g>
<!-- Node3&#45;&gt;Node4 -->
<g id="edge4" class="edge">
<title>Node3&#45;&gt;Node4</title>
<path fill="none" stroke="midnightblue" d="M430.31,-200.15C405.93,-210.62 371.07,-225.16 340,-236.5 331.65,-239.55 322.71,-242.59 314.01,-245.45"/>
<polygon fill="midnightblue" stroke="midnightblue" points="431.97,-203.25 439.76,-196.07 429.19,-196.82 431.97,-203.25"/>
</g>
<!-- Node5 -->
<g id="node5" class="node">
<title>Node5</title>
<g id="a_node5"><a xlink:href="classcppgc_1_1internal_1_1BasicPersistent.html#a5ef52055741895dd89ffc999f701bf2e" target="_top" xlink:title=" ">
<polygon fill="white" stroke="black" points="188,-196.5 188,-226.5 340,-226.5 340,-196.5 188,-196.5"/>
<text text-anchor="start" x="196" y="-214.5" font-family="Helvetica,sans-Serif" font-size="10.00">cppgc::internal::BasicPersistent</text>
<text text-anchor="middle" x="264" y="-203.5" font-family="Helvetica,sans-Serif" font-size="10.00">::operator T*</text>
</a>
</g>
</g>
<!-- Node3&#45;&gt;Node5 -->
<g id="edge5" class="edge">
<title>Node3&#45;&gt;Node5</title>
<path fill="none" stroke="midnightblue" d="M376.59,-197.3C364.51,-198.84 352.17,-200.41 340.29,-201.92"/>
<polygon fill="midnightblue" stroke="midnightblue" points="377.17,-200.76 386.65,-196.02 376.29,-193.81 377.17,-200.76"/>
</g>
<!-- Node6 -->
<g id="node6" class="node">
<title>Node6</title>
<g id="a_node6"><a xlink:href="classcppgc_1_1internal_1_1BasicPersistent.html#a50295294d691b463d134b901900430c5" target="_top" xlink:title=" ">
<polygon fill="white" stroke="black" points="188,-147.5 188,-177.5 340,-177.5 340,-147.5 188,-147.5"/>
<text text-anchor="start" x="196" y="-165.5" font-family="Helvetica,sans-Serif" font-size="10.00">cppgc::internal::BasicPersistent</text>
<text text-anchor="middle" x="264" y="-154.5" font-family="Helvetica,sans-Serif" font-size="10.00">::operator*</text>
</a>
</g>
</g>
<!-- Node3&#45;&gt;Node6 -->
<g id="edge6" class="edge">
<title>Node3&#45;&gt;Node6</title>
<path fill="none" stroke="midnightblue" d="M373.45,-175.75C362.38,-174.39 351.14,-173.02 340.29,-171.7"/>
<polygon fill="midnightblue" stroke="midnightblue" points="373.21,-179.24 383.56,-176.98 374.05,-172.29 373.21,-179.24"/>
</g>
<!-- Node7 -->
<g id="node7" class="node">
<title>Node7</title>
<g id="a_node7"><a xlink:href="classcppgc_1_1internal_1_1BasicPersistent.html#ad18c3c53d02d51ea3efe99171be45088" target="_top" xlink:title=" ">
<polygon fill="white" stroke="black" points="188,-98.5 188,-128.5 340,-128.5 340,-98.5 188,-98.5"/>
<text text-anchor="start" x="196" y="-116.5" font-family="Helvetica,sans-Serif" font-size="10.00">cppgc::internal::BasicPersistent</text>
<text text-anchor="middle" x="264" y="-105.5" font-family="Helvetica,sans-Serif" font-size="10.00">::operator&#45;&gt;</text>
</a>
</g>
</g>
<!-- Node3&#45;&gt;Node7 -->
<g id="edge7" class="edge">
<title>Node3&#45;&gt;Node7</title>
<path fill="none" stroke="midnightblue" d="M428.88,-173.05C404.52,-163.15 370.35,-149.54 340,-138.5 330.84,-135.17 321,-131.76 311.55,-128.58"/>
<polygon fill="midnightblue" stroke="midnightblue" points="427.77,-176.38 438.35,-176.92 430.42,-169.9 427.77,-176.38"/>
</g>
<!-- Node8 -->
<g id="node8" class="node">
<title>Node8</title>
<g id="a_node8"><a xlink:href="classcppgc_1_1internal_1_1BasicPersistent.html#adace5a81a02d2ff7fdf41fc64b800480" target="_top" xlink:title=" ">
<polygon fill="white" stroke="black" points="188,-49.5 188,-79.5 340,-79.5 340,-49.5 188,-49.5"/>
<text text-anchor="start" x="196" y="-67.5" font-family="Helvetica,sans-Serif" font-size="10.00">cppgc::internal::BasicPersistent</text>
<text text-anchor="middle" x="264" y="-56.5" font-family="Helvetica,sans-Serif" font-size="10.00">::operator=</text>
</a>
</g>
</g>
<!-- Node3&#45;&gt;Node8 -->
<g id="edge8" class="edge">
<title>Node3&#45;&gt;Node8</title>
<path fill="none" stroke="midnightblue" d="M444.66,-169.8C422.41,-148.54 381.19,-111.88 340,-89.5 333.13,-85.76 325.59,-82.45 318.04,-79.56"/>
<polygon fill="midnightblue" stroke="midnightblue" points="442.35,-172.44 451.97,-176.88 447.23,-167.41 442.35,-172.44"/>
</g>
<!-- Node10 -->
<g id="node10" class="node">
<title>Node10</title>
<g id="a_node10"><a xlink:href="classcppgc_1_1internal_1_1BasicPersistent.html#a90d5684e32d8663a2a686331b7357402" target="_top" xlink:title=" ">
<polygon fill="white" stroke="black" points="188,-0.5 188,-30.5 340,-30.5 340,-0.5 188,-0.5"/>
<text text-anchor="start" x="196" y="-18.5" font-family="Helvetica,sans-Serif" font-size="10.00">cppgc::internal::BasicPersistent</text>
<text text-anchor="middle" x="264" y="-7.5" font-family="Helvetica,sans-Serif" font-size="10.00">::Release</text>
</a>
</g>
</g>
<!-- Node3&#45;&gt;Node10 -->
<g id="edge10" class="edge">
<title>Node3&#45;&gt;Node10</title>
<path fill="none" stroke="midnightblue" d="M450.81,-167.87C432.19,-137.01 390.86,-75.24 340,-40.5 334.45,-36.71 328.27,-33.45 321.92,-30.66"/>
<polygon fill="midnightblue" stroke="midnightblue" points="447.95,-169.9 456.05,-176.73 453.97,-166.34 447.95,-169.9"/>
</g>
<!-- Node9 -->
<g id="node9" class="node">
<title>Node9</title>
<g id="a_node9"><a xlink:href="classcppgc_1_1internal_1_1BasicPersistent.html#a34c39e9fc9dc5eeb72b7217f3864b1ef" target="_top" xlink:title=" ">
<polygon fill="white" stroke="black" points="0,-49.5 0,-79.5 152,-79.5 152,-49.5 0,-49.5"/>
<text text-anchor="start" x="8" y="-67.5" font-family="Helvetica,sans-Serif" font-size="10.00">cppgc::internal::BasicPersistent</text>
<text text-anchor="middle" x="76" y="-56.5" font-family="Helvetica,sans-Serif" font-size="10.00">::operator=</text>
</a>
</g>
</g>
<!-- Node8&#45;&gt;Node9 -->
<g id="edge9" class="edge">
<title>Node8&#45;&gt;Node9</title>
<path fill="none" stroke="midnightblue" d="M177.85,-64.5C169.26,-64.5 160.57,-64.5 152.1,-64.5"/>
<polygon fill="midnightblue" stroke="midnightblue" points="177.88,-68 187.88,-64.5 177.88,-61 177.88,-68"/>
</g>
</g>
</svg>
