<?xml version="1.0" encoding="UTF-8" standalone="no"?>
<!DOCTYPE svg PUBLIC "-//W3C//DTD SVG 1.1//EN"
 "http://www.w3.org/Graphics/SVG/1.1/DTD/svg11.dtd">
<!-- Generated by graphviz version 2.44.0 ()
 -->
<!-- Title: cppgc::internal::BasicMember::Get Pages: 1 -->
<svg width="530pt" height="421pt"
 viewBox="0.00 0.00 530.00 421.00" xmlns="http://www.w3.org/2000/svg" xmlns:xlink="http://www.w3.org/1999/xlink">
<g id="graph0" class="graph" transform="scale(1 1) rotate(0) translate(4 417)">
<title>cppgc::internal::BasicMember::Get</title>
<polygon fill="white" stroke="transparent" points="-4,4 -4,-417 526,-417 526,4 -4,4"/>
<!-- Node1 -->
<g id="node1" class="node">
<title>Node1</title>
<g id="a_node1"><a xlink:title=" ">
<polygon fill="#bfbfbf" stroke="black" points="358,-192 358,-211 522,-211 522,-192 358,-192"/>
<text text-anchor="middle" x="440" y="-199" font-family="Helvetica,sans-Serif" font-size="10.00">cppgc::internal::BasicMember::Get</text>
</a>
</g>
</g>
<!-- Node2 -->
<g id="node2" class="node">
<title>Node2</title>
<g id="a_node2"><a xlink:href="classcppgc_1_1LivenessBroker.html#a6d6b9f3609e18ef58d5caf93a3f3f95f" target="_top" xlink:title=" ">
<polygon fill="white" stroke="black" points="192.5,-382.5 192.5,-412.5 308.5,-412.5 308.5,-382.5 192.5,-382.5"/>
<text text-anchor="start" x="200.5" y="-400.5" font-family="Helvetica,sans-Serif" font-size="10.00">cppgc::LivenessBroker</text>
<text text-anchor="middle" x="250.5" y="-389.5" font-family="Helvetica,sans-Serif" font-size="10.00">::IsHeapObjectAlive</text>
</a>
</g>
</g>
<!-- Node1&#45;&gt;Node2 -->
<g id="edge1" class="edge">
<title>Node1&#45;&gt;Node2</title>
<path fill="none" stroke="midnightblue" d="M431.07,-220.47C415.41,-255.71 377.18,-331.48 322,-373.5 317.47,-376.95 312.42,-379.92 307.16,-382.47"/>
<polygon fill="midnightblue" stroke="midnightblue" points="434.29,-221.86 435.05,-211.3 427.86,-219.08 434.29,-221.86"/>
</g>
<!-- Node3 -->
<g id="node3" class="node">
<title>Node3</title>
<g id="a_node3"><a xlink:href="classcppgc_1_1internal_1_1BasicMember.html#aa11d97f26b6d1076c5d38d3cd7aa3642" target="_top" xlink:title=" ">
<polygon fill="white" stroke="black" points="179,-333.5 179,-363.5 322,-363.5 322,-333.5 179,-333.5"/>
<text text-anchor="start" x="187" y="-351.5" font-family="Helvetica,sans-Serif" font-size="10.00">cppgc::internal::BasicMember</text>
<text text-anchor="middle" x="250.5" y="-340.5" font-family="Helvetica,sans-Serif" font-size="10.00">::operator bool</text>
</a>
</g>
</g>
<!-- Node1&#45;&gt;Node3 -->
<g id="edge2" class="edge">
<title>Node1&#45;&gt;Node3</title>
<path fill="none" stroke="midnightblue" d="M426.23,-219.72C406.68,-246.33 366.86,-295.8 322,-324.5 316.66,-327.91 310.79,-330.9 304.77,-333.5"/>
<polygon fill="midnightblue" stroke="midnightblue" points="429.27,-221.49 432.27,-211.33 423.59,-217.39 429.27,-221.49"/>
</g>
<!-- Node4 -->
<g id="node4" class="node">
<title>Node4</title>
<g id="a_node4"><a xlink:href="classcppgc_1_1internal_1_1BasicMember.html#ad581b62049b232e53bd60812295b9e89" target="_top" xlink:title=" ">
<polygon fill="white" stroke="black" points="179,-284.5 179,-314.5 322,-314.5 322,-284.5 179,-284.5"/>
<text text-anchor="start" x="187" y="-302.5" font-family="Helvetica,sans-Serif" font-size="10.00">cppgc::internal::BasicMember</text>
<text text-anchor="middle" x="250.5" y="-291.5" font-family="Helvetica,sans-Serif" font-size="10.00">::operator T*</text>
</a>
</g>
</g>
<!-- Node1&#45;&gt;Node4 -->
<g id="edge3" class="edge">
<title>Node1&#45;&gt;Node4</title>
<path fill="none" stroke="midnightblue" d="M417.65,-217.18C394.85,-233.4 357.22,-258.66 322,-275.5 315.23,-278.74 307.92,-281.74 300.64,-284.44"/>
<polygon fill="midnightblue" stroke="midnightblue" points="419.83,-219.92 425.91,-211.24 415.75,-214.24 419.83,-219.92"/>
</g>
<!-- Node5 -->
<g id="node5" class="node">
<title>Node5</title>
<g id="a_node5"><a xlink:href="classcppgc_1_1internal_1_1BasicMember.html#a2ffdbed44f32dbe4b4a37c81bc0d319a" target="_top" xlink:title=" ">
<polygon fill="white" stroke="black" points="179,-235.5 179,-265.5 322,-265.5 322,-235.5 179,-235.5"/>
<text text-anchor="start" x="187" y="-253.5" font-family="Helvetica,sans-Serif" font-size="10.00">cppgc::internal::BasicMember</text>
<text text-anchor="middle" x="250.5" y="-242.5" font-family="Helvetica,sans-Serif" font-size="10.00">::operator*</text>
</a>
</g>
</g>
<!-- Node1&#45;&gt;Node5 -->
<g id="edge4" class="edge">
<title>Node1&#45;&gt;Node5</title>
<path fill="none" stroke="midnightblue" d="M392.69,-213.6C367.41,-220.21 335.89,-228.45 309.04,-235.46"/>
<polygon fill="midnightblue" stroke="midnightblue" points="393.61,-216.98 402.4,-211.06 391.84,-210.21 393.61,-216.98"/>
</g>
<!-- Node6 -->
<g id="node6" class="node">
<title>Node6</title>
<g id="a_node6"><a xlink:href="classcppgc_1_1internal_1_1BasicMember.html#aaf8e4f3c0185a764e3da679e901ee4d2" target="_top" xlink:title=" ">
<polygon fill="white" stroke="black" points="179,-186.5 179,-216.5 322,-216.5 322,-186.5 179,-186.5"/>
<text text-anchor="start" x="187" y="-204.5" font-family="Helvetica,sans-Serif" font-size="10.00">cppgc::internal::BasicMember</text>
<text text-anchor="middle" x="250.5" y="-193.5" font-family="Helvetica,sans-Serif" font-size="10.00">::operator&#45;&gt;</text>
</a>
</g>
</g>
<!-- Node1&#45;&gt;Node6 -->
<g id="edge5" class="edge">
<title>Node1&#45;&gt;Node6</title>
<path fill="none" stroke="midnightblue" d="M347.78,-201.5C339.18,-201.5 330.55,-201.5 322.18,-201.5"/>
<polygon fill="midnightblue" stroke="midnightblue" points="347.85,-205 357.85,-201.5 347.85,-198 347.85,-205"/>
</g>
<!-- Node7 -->
<g id="node7" class="node">
<title>Node7</title>
<g id="a_node7"><a xlink:href="classcppgc_1_1internal_1_1BasicMember.html#a2bf3cba91349ba7c5c3d06c11bc4d7d0" target="_top" xlink:title=" ">
<polygon fill="white" stroke="black" points="179,-137.5 179,-167.5 322,-167.5 322,-137.5 179,-137.5"/>
<text text-anchor="start" x="187" y="-155.5" font-family="Helvetica,sans-Serif" font-size="10.00">cppgc::internal::BasicMember</text>
<text text-anchor="middle" x="250.5" y="-144.5" font-family="Helvetica,sans-Serif" font-size="10.00">::operator=</text>
</a>
</g>
</g>
<!-- Node1&#45;&gt;Node7 -->
<g id="edge6" class="edge">
<title>Node1&#45;&gt;Node7</title>
<path fill="none" stroke="midnightblue" d="M392.69,-189.4C367.41,-182.79 335.89,-174.55 309.04,-167.54"/>
<polygon fill="midnightblue" stroke="midnightblue" points="391.84,-192.79 402.4,-191.94 393.61,-186.02 391.84,-192.79"/>
</g>
<!-- Node9 -->
<g id="node9" class="node">
<title>Node9</title>
<g id="a_node9"><a xlink:href="namespacecppgc_1_1internal.html#aab40a961a20aafa179a0935db476ef89" target="_top" xlink:title=" ">
<polygon fill="white" stroke="black" points="185,-99 185,-118 316,-118 316,-99 185,-99"/>
<text text-anchor="middle" x="250.5" y="-106" font-family="Helvetica,sans-Serif" font-size="10.00">cppgc::internal::operator==</text>
</a>
</g>
</g>
<!-- Node1&#45;&gt;Node9 -->
<g id="edge8" class="edge">
<title>Node1&#45;&gt;Node9</title>
<path fill="none" stroke="midnightblue" d="M418.16,-185.95C395.5,-169.68 357.75,-144.34 322,-128.5 312.69,-124.38 302.32,-120.88 292.45,-118.01"/>
<polygon fill="midnightblue" stroke="midnightblue" points="416.19,-188.85 426.34,-191.91 420.31,-183.19 416.19,-188.85"/>
</g>
<!-- Node12 -->
<g id="node12" class="node">
<title>Node12</title>
<g id="a_node12"><a xlink:href="classcppgc_1_1internal_1_1BasicMember.html#a63971bb466d9d4a4cf28346f9827d852" target="_top" xlink:title=" ">
<polygon fill="white" stroke="black" points="179,-49.5 179,-79.5 322,-79.5 322,-49.5 179,-49.5"/>
<text text-anchor="start" x="187" y="-67.5" font-family="Helvetica,sans-Serif" font-size="10.00">cppgc::internal::BasicMember</text>
<text text-anchor="middle" x="250.5" y="-56.5" font-family="Helvetica,sans-Serif" font-size="10.00">::Release</text>
</a>
</g>
</g>
<!-- Node1&#45;&gt;Node12 -->
<g id="edge11" class="edge">
<title>Node1&#45;&gt;Node12</title>
<path fill="none" stroke="midnightblue" d="M424.91,-183.96C404.54,-159.65 364.62,-115.76 322,-89.5 315.92,-85.75 309.2,-82.46 302.39,-79.61"/>
<polygon fill="midnightblue" stroke="midnightblue" points="422.21,-186.19 431.27,-191.68 427.61,-181.74 422.21,-186.19"/>
</g>
<!-- Node13 -->
<g id="node13" class="node">
<title>Node13</title>
<g id="a_node13"><a xlink:href="classcppgc_1_1internal_1_1BasicMember.html#a3c3517914f2c32b5e0375915d4cf843f" target="_top" xlink:title=" ">
<polygon fill="white" stroke="black" points="179,-0.5 179,-30.5 322,-30.5 322,-0.5 179,-0.5"/>
<text text-anchor="start" x="187" y="-18.5" font-family="Helvetica,sans-Serif" font-size="10.00">cppgc::internal::BasicMember</text>
<text text-anchor="middle" x="250.5" y="-7.5" font-family="Helvetica,sans-Serif" font-size="10.00">::Swap</text>
</a>
</g>
</g>
<!-- Node1&#45;&gt;Node13 -->
<g id="edge12" class="edge">
<title>Node1&#45;&gt;Node13</title>
<path fill="none" stroke="midnightblue" d="M430.33,-182.73C413.9,-149.18 375.09,-78.76 322,-39.5 317.43,-36.12 312.34,-33.19 307.06,-30.66"/>
<polygon fill="midnightblue" stroke="midnightblue" points="427.23,-184.37 434.7,-191.88 433.55,-181.35 427.23,-184.37"/>
</g>
<!-- Node8 -->
<g id="node8" class="node">
<title>Node8</title>
<g id="a_node8"><a xlink:href="classcppgc_1_1internal_1_1BasicMember.html#a047b1b0acf9234ced7516722a1802fa4" target="_top" xlink:title=" ">
<polygon fill="white" stroke="black" points="0,-137.5 0,-167.5 143,-167.5 143,-137.5 0,-137.5"/>
<text text-anchor="start" x="8" y="-155.5" font-family="Helvetica,sans-Serif" font-size="10.00">cppgc::internal::BasicMember</text>
<text text-anchor="middle" x="71.5" y="-144.5" font-family="Helvetica,sans-Serif" font-size="10.00">::operator=</text>
</a>
</g>
</g>
<!-- Node7&#45;&gt;Node8 -->
<g id="edge7" class="edge">
<title>Node7&#45;&gt;Node8</title>
<path fill="none" stroke="midnightblue" d="M168.51,-152.5C160.03,-152.5 151.46,-152.5 143.11,-152.5"/>
<polygon fill="midnightblue" stroke="midnightblue" points="168.78,-156 178.78,-152.5 168.78,-149 168.78,-156"/>
</g>
<!-- Node10 -->
<g id="node10" class="node">
<title>Node10</title>
<g id="a_node10"><a xlink:href="classv8_1_1Maybe.html#a4d4ac6c3387f7148ea3b6ec6864b4940" target="_top" xlink:title=" ">
<polygon fill="white" stroke="black" points="17,-99 17,-118 126,-118 126,-99 17,-99"/>
<text text-anchor="middle" x="71.5" y="-106" font-family="Helvetica,sans-Serif" font-size="10.00">v8::Maybe::operator!=</text>
</a>
</g>
</g>
<!-- Node9&#45;&gt;Node10 -->
<g id="edge9" class="edge">
<title>Node9&#45;&gt;Node10</title>
<path fill="none" stroke="midnightblue" d="M174.79,-108.5C158.48,-108.5 141.53,-108.5 126.23,-108.5"/>
<polygon fill="midnightblue" stroke="midnightblue" points="174.85,-112 184.85,-108.5 174.85,-105 174.85,-112"/>
</g>
<!-- Node11 -->
<g id="node11" class="node">
<title>Node11</title>
<g id="a_node11"><a xlink:href="classv8_1_1Maybe_3_01void_01_4.html#aaf837c2e394c2e9c13ee64589da50c7e" target="_top" xlink:title=" ">
<polygon fill="white" stroke="black" points="22,-49.5 22,-79.5 121,-79.5 121,-49.5 22,-49.5"/>
<text text-anchor="start" x="30" y="-67.5" font-family="Helvetica,sans-Serif" font-size="10.00">v8::Maybe&lt; void &gt;::</text>
<text text-anchor="middle" x="71.5" y="-56.5" font-family="Helvetica,sans-Serif" font-size="10.00">operator!=</text>
</a>
</g>
</g>
<!-- Node9&#45;&gt;Node11 -->
<g id="edge10" class="edge">
<title>Node9&#45;&gt;Node11</title>
<path fill="none" stroke="midnightblue" d="M201.17,-96.48C176.35,-90.31 146.17,-82.81 121.29,-76.63"/>
<polygon fill="midnightblue" stroke="midnightblue" points="200.54,-99.94 211.09,-98.95 202.23,-93.14 200.54,-99.94"/>
</g>
</g>
</svg>
