<?xml version="1.0" encoding="UTF-8" standalone="no"?>
<!DOCTYPE svg PUBLIC "-//W3C//DTD SVG 1.1//EN"
 "http://www.w3.org/Graphics/SVG/1.1/DTD/svg11.dtd">
<!-- Generated by graphviz version 2.44.0 ()
 -->
<!-- Title: cppgc::internal::BasicPersistent::Get Pages: 1 -->
<svg width="557pt" height="372pt"
 viewBox="0.00 0.00 557.00 371.50" xmlns="http://www.w3.org/2000/svg" xmlns:xlink="http://www.w3.org/1999/xlink">
<g id="graph0" class="graph" transform="scale(1 1) rotate(0) translate(4 367.5)">
<title>cppgc::internal::BasicPersistent::Get</title>
<polygon fill="white" stroke="transparent" points="-4,4 -4,-367.5 553,-367.5 553,4 -4,4"/>
<!-- Node1 -->
<g id="node1" class="node">
<title>Node1</title>
<g id="a_node1"><a xlink:title=" ">
<polygon fill="#bfbfbf" stroke="black" points="376,-166.5 376,-185.5 549,-185.5 549,-166.5 376,-166.5"/>
<text text-anchor="middle" x="462.5" y="-173.5" font-family="Helvetica,sans-Serif" font-size="10.00">cppgc::internal::BasicPersistent::Get</text>
</a>
</g>
</g>
<!-- Node2 -->
<g id="node2" class="node">
<title>Node2</title>
<g id="a_node2"><a xlink:href="classcppgc_1_1internal_1_1BasicPersistent.html#a0bd538038aa020da214af7fac0caf31c" target="_top" xlink:title=" ">
<polygon fill="white" stroke="black" points="188,-333 188,-363 340,-363 340,-333 188,-333"/>
<text text-anchor="start" x="196" y="-351" font-family="Helvetica,sans-Serif" font-size="10.00">cppgc::internal::BasicPersistent</text>
<text text-anchor="middle" x="264" y="-340" font-family="Helvetica,sans-Serif" font-size="10.00">::BasicPersistent</text>
</a>
</g>
</g>
<!-- Node1&#45;&gt;Node2 -->
<g id="edge1" class="edge">
<title>Node1&#45;&gt;Node2</title>
<path fill="none" stroke="midnightblue" d="M451.19,-194.5C432.86,-225.74 391.62,-288.95 340,-324 335.02,-327.38 329.54,-330.31 323.88,-332.84"/>
<polygon fill="midnightblue" stroke="midnightblue" points="454.38,-195.98 456.32,-185.56 448.31,-192.49 454.38,-195.98"/>
</g>
<!-- Node3 -->
<g id="node3" class="node">
<title>Node3</title>
<g id="a_node3"><a xlink:href="classcppgc_1_1internal_1_1BasicPersistent.html#aa482ce311ee265edc2e0fa0133de8648" target="_top" xlink:title=" ">
<polygon fill="white" stroke="black" points="188,-284 188,-314 340,-314 340,-284 188,-284"/>
<text text-anchor="start" x="196" y="-302" font-family="Helvetica,sans-Serif" font-size="10.00">cppgc::internal::BasicPersistent</text>
<text text-anchor="middle" x="264" y="-291" font-family="Helvetica,sans-Serif" font-size="10.00">::operator bool</text>
</a>
</g>
</g>
<!-- Node1&#45;&gt;Node3 -->
<g id="edge2" class="edge">
<title>Node1&#45;&gt;Node3</title>
<path fill="none" stroke="midnightblue" d="M445.11,-192.81C423.06,-214.57 381.76,-252.37 340,-275 333.87,-278.32 327.21,-281.27 320.46,-283.87"/>
<polygon fill="midnightblue" stroke="midnightblue" points="447.75,-195.13 452.33,-185.58 442.79,-190.18 447.75,-195.13"/>
</g>
<!-- Node4 -->
<g id="node4" class="node">
<title>Node4</title>
<g id="a_node4"><a xlink:href="classcppgc_1_1internal_1_1BasicPersistent.html#a5ef52055741895dd89ffc999f701bf2e" target="_top" xlink:title=" ">
<polygon fill="white" stroke="black" points="188,-235 188,-265 340,-265 340,-235 188,-235"/>
<text text-anchor="start" x="196" y="-253" font-family="Helvetica,sans-Serif" font-size="10.00">cppgc::internal::BasicPersistent</text>
<text text-anchor="middle" x="264" y="-242" font-family="Helvetica,sans-Serif" font-size="10.00">::operator T*</text>
</a>
</g>
</g>
<!-- Node1&#45;&gt;Node4 -->
<g id="edge3" class="edge">
<title>Node1&#45;&gt;Node4</title>
<path fill="none" stroke="midnightblue" d="M430.31,-189.65C405.93,-200.12 371.07,-214.66 340,-226 331.65,-229.05 322.71,-232.09 314.01,-234.95"/>
<polygon fill="midnightblue" stroke="midnightblue" points="431.97,-192.75 439.76,-185.57 429.19,-186.32 431.97,-192.75"/>
</g>
<!-- Node5 -->
<g id="node5" class="node">
<title>Node5</title>
<g id="a_node5"><a xlink:href="classcppgc_1_1internal_1_1BasicPersistent.html#a50295294d691b463d134b901900430c5" target="_top" xlink:title=" ">
<polygon fill="white" stroke="black" points="188,-186 188,-216 340,-216 340,-186 188,-186"/>
<text text-anchor="start" x="196" y="-204" font-family="Helvetica,sans-Serif" font-size="10.00">cppgc::internal::BasicPersistent</text>
<text text-anchor="middle" x="264" y="-193" font-family="Helvetica,sans-Serif" font-size="10.00">::operator*</text>
</a>
</g>
</g>
<!-- Node1&#45;&gt;Node5 -->
<g id="edge4" class="edge">
<title>Node1&#45;&gt;Node5</title>
<path fill="none" stroke="midnightblue" d="M376.59,-186.8C364.51,-188.34 352.17,-189.91 340.29,-191.42"/>
<polygon fill="midnightblue" stroke="midnightblue" points="377.17,-190.26 386.65,-185.52 376.29,-183.31 377.17,-190.26"/>
</g>
<!-- Node6 -->
<g id="node6" class="node">
<title>Node6</title>
<g id="a_node6"><a xlink:href="classcppgc_1_1internal_1_1BasicPersistent.html#ad18c3c53d02d51ea3efe99171be45088" target="_top" xlink:title=" ">
<polygon fill="white" stroke="black" points="188,-137 188,-167 340,-167 340,-137 188,-137"/>
<text text-anchor="start" x="196" y="-155" font-family="Helvetica,sans-Serif" font-size="10.00">cppgc::internal::BasicPersistent</text>
<text text-anchor="middle" x="264" y="-144" font-family="Helvetica,sans-Serif" font-size="10.00">::operator&#45;&gt;</text>
</a>
</g>
</g>
<!-- Node1&#45;&gt;Node6 -->
<g id="edge5" class="edge">
<title>Node1&#45;&gt;Node6</title>
<path fill="none" stroke="midnightblue" d="M373.45,-165.25C362.38,-163.89 351.14,-162.52 340.29,-161.2"/>
<polygon fill="midnightblue" stroke="midnightblue" points="373.21,-168.74 383.56,-166.48 374.05,-161.79 373.21,-168.74"/>
</g>
<!-- Node7 -->
<g id="node7" class="node">
<title>Node7</title>
<g id="a_node7"><a xlink:href="classcppgc_1_1internal_1_1BasicPersistent.html#adace5a81a02d2ff7fdf41fc64b800480" target="_top" xlink:title=" ">
<polygon fill="white" stroke="black" points="188,-88 188,-118 340,-118 340,-88 188,-88"/>
<text text-anchor="start" x="196" y="-106" font-family="Helvetica,sans-Serif" font-size="10.00">cppgc::internal::BasicPersistent</text>
<text text-anchor="middle" x="264" y="-95" font-family="Helvetica,sans-Serif" font-size="10.00">::operator=</text>
</a>
</g>
</g>
<!-- Node1&#45;&gt;Node7 -->
<g id="edge6" class="edge">
<title>Node1&#45;&gt;Node7</title>
<path fill="none" stroke="midnightblue" d="M428.88,-162.55C404.52,-152.65 370.35,-139.04 340,-128 330.84,-124.67 321,-121.26 311.55,-118.08"/>
<polygon fill="midnightblue" stroke="midnightblue" points="427.77,-165.88 438.35,-166.42 430.42,-159.4 427.77,-165.88"/>
</g>
<!-- Node9 -->
<g id="node9" class="node">
<title>Node9</title>
<g id="a_node9"><a xlink:href="classcppgc_1_1internal_1_1BasicPersistent.html#a90d5684e32d8663a2a686331b7357402" target="_top" xlink:title=" ">
<polygon fill="white" stroke="black" points="188,-39 188,-69 340,-69 340,-39 188,-39"/>
<text text-anchor="start" x="196" y="-57" font-family="Helvetica,sans-Serif" font-size="10.00">cppgc::internal::BasicPersistent</text>
<text text-anchor="middle" x="264" y="-46" font-family="Helvetica,sans-Serif" font-size="10.00">::Release</text>
</a>
</g>
</g>
<!-- Node1&#45;&gt;Node9 -->
<g id="edge8" class="edge">
<title>Node1&#45;&gt;Node9</title>
<path fill="none" stroke="midnightblue" d="M444.66,-159.3C422.41,-138.04 381.19,-101.38 340,-79 333.13,-75.26 325.59,-71.95 318.04,-69.06"/>
<polygon fill="midnightblue" stroke="midnightblue" points="442.35,-161.94 451.97,-166.38 447.23,-156.91 442.35,-161.94"/>
</g>
<!-- Node10 -->
<g id="node10" class="node">
<title>Node10</title>
<g id="a_node10"><a xlink:href="classcppgc_1_1Visitor.html#a71cf1f783583023912e4fb48d051bcd6" target="_top" xlink:title=" ">
<polygon fill="white" stroke="black" points="201.5,-0.5 201.5,-19.5 326.5,-19.5 326.5,-0.5 201.5,-0.5"/>
<text text-anchor="middle" x="264" y="-7.5" font-family="Helvetica,sans-Serif" font-size="10.00">cppgc::Visitor::TraceRoot</text>
</a>
</g>
</g>
<!-- Node1&#45;&gt;Node10 -->
<g id="edge9" class="edge">
<title>Node1&#45;&gt;Node10</title>
<path fill="none" stroke="midnightblue" d="M451.3,-157.48C433.14,-126.26 392.15,-63.33 340,-30 333.19,-25.65 325.45,-22.23 317.59,-19.56"/>
<polygon fill="midnightblue" stroke="midnightblue" points="448.4,-159.46 456.38,-166.42 454.49,-156 448.4,-159.46"/>
</g>
<!-- Node8 -->
<g id="node8" class="node">
<title>Node8</title>
<g id="a_node8"><a xlink:href="classcppgc_1_1internal_1_1BasicPersistent.html#a34c39e9fc9dc5eeb72b7217f3864b1ef" target="_top" xlink:title=" ">
<polygon fill="white" stroke="black" points="0,-88 0,-118 152,-118 152,-88 0,-88"/>
<text text-anchor="start" x="8" y="-106" font-family="Helvetica,sans-Serif" font-size="10.00">cppgc::internal::BasicPersistent</text>
<text text-anchor="middle" x="76" y="-95" font-family="Helvetica,sans-Serif" font-size="10.00">::operator=</text>
</a>
</g>
</g>
<!-- Node7&#45;&gt;Node8 -->
<g id="edge7" class="edge">
<title>Node7&#45;&gt;Node8</title>
<path fill="none" stroke="midnightblue" d="M177.85,-103C169.26,-103 160.57,-103 152.1,-103"/>
<polygon fill="midnightblue" stroke="midnightblue" points="177.88,-106.5 187.88,-103 177.88,-99.5 177.88,-106.5"/>
</g>
</g>
</svg>
