<?xml version="1.0" encoding="UTF-8" standalone="no"?>
<!DOCTYPE svg PUBLIC "-//W3C//DTD SVG 1.1//EN"
 "http://www.w3.org/Graphics/SVG/1.1/DTD/svg11.dtd">
<!-- Generated by graphviz version 2.44.0 ()
 -->
<!-- Title: cppgc::Heap::HeapOptions Pages: 1 -->
<svg width="318pt" height="327pt"
 viewBox="0.00 0.00 318.00 327.00" xmlns="http://www.w3.org/2000/svg" xmlns:xlink="http://www.w3.org/1999/xlink">
<g id="graph0" class="graph" transform="scale(1 1) rotate(0) translate(4 323)">
<title>cppgc::Heap::HeapOptions</title>
<polygon fill="white" stroke="transparent" points="-4,4 -4,-323 314,-323 314,4 -4,4"/>
<!-- Node1 -->
<g id="node1" class="node">
<title>Node1</title>
<g id="a_node1"><a xlink:title=" ">
<polygon fill="#bfbfbf" stroke="black" points="49,-0.5 49,-19.5 181,-19.5 181,-0.5 49,-0.5"/>
<text text-anchor="middle" x="115" y="-7.5" font-family="Helvetica,sans-Serif" font-size="10.00">cppgc::Heap::HeapOptions</text>
</a>
</g>
</g>
<!-- Node2 -->
<g id="node2" class="node">
<title>Node2</title>
<g id="a_node2"><a xlink:title=" ">
<polygon fill="white" stroke="#bfbfbf" points="28.5,-67.5 28.5,-97.5 201.5,-97.5 201.5,-67.5 28.5,-67.5"/>
<text text-anchor="start" x="36.5" y="-85.5" font-family="Helvetica,sans-Serif" font-size="10.00">std::vector&lt; std::unique</text>
<text text-anchor="middle" x="115" y="-74.5" font-family="Helvetica,sans-Serif" font-size="10.00">_ptr&lt; cppgc::CustomSpaceBase &gt; &gt;</text>
</a>
</g>
</g>
<!-- Node2&#45;&gt;Node1 -->
<g id="edge1" class="edge">
<title>Node2&#45;&gt;Node1</title>
<path fill="none" stroke="#9a32cd" stroke-dasharray="5,2" d="M115,-57.09C115,-44.21 115,-29.2 115,-19.89"/>
<polygon fill="#9a32cd" stroke="#9a32cd" points="111.5,-57.23 115,-67.23 118.5,-57.23 111.5,-57.23"/>
<text text-anchor="middle" x="151" y="-41" font-family="Helvetica,sans-Serif" font-size="10.00"> custom_spaces</text>
</g>
<!-- Node3 -->
<g id="node3" class="node">
<title>Node3</title>
<g id="a_node3"><a xlink:title=" ">
<polygon fill="white" stroke="#bfbfbf" points="0,-145.5 0,-175.5 114,-175.5 114,-145.5 0,-145.5"/>
<text text-anchor="start" x="8" y="-163.5" font-family="Helvetica,sans-Serif" font-size="10.00">std::unique_ptr&lt; cppgc</text>
<text text-anchor="middle" x="57" y="-152.5" font-family="Helvetica,sans-Serif" font-size="10.00">::CustomSpaceBase &gt;</text>
</a>
</g>
</g>
<!-- Node3&#45;&gt;Node2 -->
<g id="edge2" class="edge">
<title>Node3&#45;&gt;Node2</title>
<path fill="none" stroke="#9a32cd" stroke-dasharray="5,2" d="M74.22,-136.94C83.91,-124.23 95.73,-108.75 104.14,-97.73"/>
<polygon fill="#9a32cd" stroke="#9a32cd" points="71.19,-135.13 67.91,-145.2 76.76,-139.38 71.19,-135.13"/>
<text text-anchor="middle" x="111.5" y="-119" font-family="Helvetica,sans-Serif" font-size="10.00"> elements</text>
</g>
<!-- Node4 -->
<g id="node4" class="node">
<title>Node4</title>
<g id="a_node4"><a xlink:title=" ">
<polygon fill="white" stroke="#bfbfbf" points="13,-232.5 13,-251.5 115,-251.5 115,-232.5 13,-232.5"/>
<text text-anchor="middle" x="64" y="-239.5" font-family="Helvetica,sans-Serif" font-size="10.00">std::unique_ptr&lt; T &gt;</text>
</a>
</g>
</g>
<!-- Node4&#45;&gt;Node3 -->
<g id="edge3" class="edge">
<title>Node4&#45;&gt;Node3</title>
<path fill="none" stroke="orange" stroke-dasharray="5,2" d="M23.04,-227.57C17.46,-224.02 12.47,-219.57 9,-214 4.3,-206.46 4.83,-201.85 9,-194 12.96,-186.53 19.49,-180.47 26.48,-175.69"/>
<polygon fill="orange" stroke="orange" points="21.68,-230.82 32.15,-232.44 24.98,-224.64 21.68,-230.82"/>
<text text-anchor="middle" x="76" y="-201.5" font-family="Helvetica,sans-Serif" font-size="10.00"> &lt; cppgc::CustomSpaceBase &gt;</text>
</g>
<!-- Node5 -->
<g id="node5" class="node">
<title>Node5</title>
<g id="a_node5"><a xlink:title=" ">
<polygon fill="white" stroke="#bfbfbf" points="113.5,-299.5 113.5,-318.5 142.5,-318.5 142.5,-299.5 113.5,-299.5"/>
<text text-anchor="middle" x="128" y="-306.5" font-family="Helvetica,sans-Serif" font-size="10.00">T</text>
</a>
</g>
</g>
<!-- Node5&#45;&gt;Node4 -->
<g id="edge4" class="edge">
<title>Node5&#45;&gt;Node4</title>
<path fill="none" stroke="#9a32cd" stroke-dasharray="5,2" d="M112.24,-292C99.69,-279.25 82.6,-261.89 72.49,-251.63"/>
<polygon fill="#9a32cd" stroke="#9a32cd" points="109.86,-294.56 119.37,-299.23 114.85,-289.65 109.86,-294.56"/>
<text text-anchor="middle" x="107" y="-273" font-family="Helvetica,sans-Serif" font-size="10.00"> ptr</text>
</g>
<!-- Node6 -->
<g id="node6" class="node">
<title>Node6</title>
<g id="a_node6"><a xlink:title=" ">
<polygon fill="white" stroke="#bfbfbf" points="152,-194.5 152,-213.5 236,-213.5 236,-194.5 152,-194.5"/>
<text text-anchor="middle" x="194" y="-201.5" font-family="Helvetica,sans-Serif" font-size="10.00">std::vector&lt; T &gt;</text>
</a>
</g>
</g>
<!-- Node5&#45;&gt;Node6 -->
<g id="edge6" class="edge">
<title>Node5&#45;&gt;Node6</title>
<path fill="none" stroke="#9a32cd" stroke-dasharray="5,2" d="M139.05,-290.76C153.28,-268.54 177.49,-230.77 188.39,-213.76"/>
<polygon fill="#9a32cd" stroke="#9a32cd" points="136.08,-288.91 133.63,-299.22 141.97,-292.69 136.08,-288.91"/>
<text text-anchor="middle" x="172.5" y="-273" font-family="Helvetica,sans-Serif" font-size="10.00"> elements</text>
</g>
<!-- Node6&#45;&gt;Node2 -->
<g id="edge5" class="edge">
<title>Node6&#45;&gt;Node2</title>
<path fill="none" stroke="orange" stroke-dasharray="5,2" d="M182.79,-185.72C171.35,-168.13 153.05,-140.09 137,-116 133,-109.99 128.54,-103.38 124.68,-97.71"/>
<polygon fill="orange" stroke="orange" points="180,-187.85 188.38,-194.33 185.87,-184.04 180,-187.85"/>
<text text-anchor="start" x="176" y="-163.5" font-family="Helvetica,sans-Serif" font-size="10.00"> &lt; std::unique_ptr&lt;</text>
<text text-anchor="middle" x="243" y="-152.5" font-family="Helvetica,sans-Serif" font-size="10.00"> cppgc::CustomSpaceBase &gt; &gt;</text>
</g>
</g>
</svg>
