<?xml version="1.0" encoding="UTF-8" standalone="no"?>
<!DOCTYPE svg PUBLIC "-//W3C//DTD SVG 1.1//EN"
 "http://www.w3.org/Graphics/SVG/1.1/DTD/svg11.dtd">
<!-- Generated by graphviz version 2.44.0 ()
 -->
<!-- Title: v8::Handle&lt; T &gt; Pages: 1 -->
<svg width="595pt" height="451pt"
 viewBox="0.00 0.00 595.00 451.45" xmlns="http://www.w3.org/2000/svg" xmlns:xlink="http://www.w3.org/1999/xlink">
<g id="graph0" class="graph" transform="scale(1 1) rotate(0) translate(4 447.45)">
<title>v8::Handle&lt; T &gt;</title>
<polygon fill="white" stroke="transparent" points="-4,4 -4,-447.45 591,-447.45 591,4 -4,4"/>
<!-- Node1 -->
<g id="node1" class="node">
<title>Node1</title>
<g id="a_node1"><a xlink:title=" ">
<polygon fill="#bfbfbf" stroke="black" points="0,-192.88 0,-211.88 85,-211.88 85,-192.88 0,-192.88"/>
<text text-anchor="middle" x="42.5" y="-199.88" font-family="Helvetica,sans-Serif" font-size="10.00">v8::Handle&lt; T &gt;</text>
</a>
</g>
</g>
<!-- Node2 -->
<g id="node2" class="node">
<title>Node2</title>
<g id="a_node2"><a xlink:href="classv8_1_1Local.html" target="_top" xlink:title=" ">
<polygon fill="white" stroke="black" points="474,-417.88 474,-436.88 587,-436.88 587,-417.88 474,-417.88"/>
<text text-anchor="middle" x="530.5" y="-424.88" font-family="Helvetica,sans-Serif" font-size="10.00">v8::Local&lt; v8::String &gt;</text>
</a>
</g>
</g>
<!-- Node1&#45;&gt;Node2 -->
<g id="edge1" class="edge">
<title>Node1&#45;&gt;Node2</title>
<path fill="none" stroke="midnightblue" d="M44.99,-222.15C48.64,-256.21 61.1,-325.89 103,-363.38 206.51,-455.99 383.95,-447.99 473.83,-436.56"/>
<polygon fill="midnightblue" stroke="midnightblue" points="48.46,-221.7 44.06,-212.06 41.49,-222.34 48.46,-221.7"/>
</g>
<!-- Node3 -->
<g id="node3" class="node">
<title>Node3</title>
<g id="a_node3"><a xlink:href="classv8_1_1Local.html" target="_top" xlink:title=" ">
<polygon fill="white" stroke="black" points="481.5,-363.88 481.5,-382.88 579.5,-382.88 579.5,-363.88 481.5,-363.88"/>
<text text-anchor="middle" x="530.5" y="-370.88" font-family="Helvetica,sans-Serif" font-size="10.00">v8::Local&lt; Name &gt;</text>
</a>
</g>
</g>
<!-- Node1&#45;&gt;Node3 -->
<g id="edge2" class="edge">
<title>Node1&#45;&gt;Node3</title>
<path fill="none" stroke="midnightblue" d="M54.72,-220.83C65.24,-236.48 82.39,-258.27 103,-270.38 148.85,-297.32 167.67,-285.92 220,-295.38 324.34,-314.24 355.97,-295.19 456,-330.38 478.87,-338.42 502.6,-353.81 516.71,-363.83"/>
<polygon fill="midnightblue" stroke="midnightblue" points="57.41,-218.54 49.07,-212.02 51.52,-222.32 57.41,-218.54"/>
</g>
<!-- Node4 -->
<g id="node4" class="node">
<title>Node4</title>
<g id="a_node4"><a xlink:href="classv8_1_1Local.html" target="_top" xlink:title=" ">
<polygon fill="white" stroke="black" points="482,-294.88 482,-313.88 579,-313.88 579,-294.88 482,-294.88"/>
<text text-anchor="middle" x="530.5" y="-301.88" font-family="Helvetica,sans-Serif" font-size="10.00">v8::Local&lt; Value &gt;</text>
</a>
</g>
</g>
<!-- Node1&#45;&gt;Node4 -->
<g id="edge3" class="edge">
<title>Node1&#45;&gt;Node4</title>
<path fill="none" stroke="midnightblue" d="M61.2,-218.74C72.36,-228.1 87.54,-239.17 103,-245.38 171.07,-272.7 385.42,-292.8 481.77,-300.7"/>
<polygon fill="midnightblue" stroke="midnightblue" points="63.35,-215.97 53.51,-212.03 58.75,-221.24 63.35,-215.97"/>
</g>
<!-- Node5 -->
<g id="node5" class="node">
<title>Node5</title>
<g id="a_node5"><a xlink:href="classv8_1_1Local.html" target="_top" xlink:title=" ">
<polygon fill="white" stroke="black" points="260,-363.88 260,-382.88 338,-382.88 338,-363.88 260,-363.88"/>
<text text-anchor="middle" x="299" y="-370.88" font-family="Helvetica,sans-Serif" font-size="10.00">v8::Local&lt; T &gt;</text>
</a>
</g>
</g>
<!-- Node1&#45;&gt;Node5 -->
<g id="edge4" class="edge">
<title>Node1&#45;&gt;Node5</title>
<path fill="none" stroke="midnightblue" d="M47.01,-222.18C53.14,-250.65 68.58,-302.75 103,-330.38 148.01,-366.51 216.96,-373.83 259.67,-374.53"/>
<polygon fill="midnightblue" stroke="midnightblue" points="50.41,-221.33 45.04,-212.2 43.55,-222.69 50.41,-221.33"/>
</g>
<!-- Node6 -->
<g id="node6" class="node">
<title>Node6</title>
<g id="a_node6"><a xlink:href="classv8_1_1Handle.html" target="_top" xlink:title=" ">
<polygon fill="white" stroke="black" points="227,-230.88 227,-249.88 371,-249.88 371,-230.88 227,-230.88"/>
<text text-anchor="middle" x="299" y="-237.88" font-family="Helvetica,sans-Serif" font-size="10.00">v8::Handle&lt; v8::StackTrace &gt;</text>
</a>
</g>
</g>
<!-- Node1&#45;&gt;Node6 -->
<g id="edge8" class="edge">
<title>Node1&#45;&gt;Node6</title>
<path fill="none" stroke="orange" stroke-dasharray="5,2" d="M88.29,-214.33C93.23,-215.45 98.21,-216.5 103,-217.38 143.73,-224.88 189.73,-230.44 226.81,-234.22"/>
<polygon fill="orange" stroke="orange" points="88.8,-210.85 78.26,-211.94 87.18,-217.66 88.8,-210.85"/>
<text text-anchor="middle" x="152.5" y="-233.38" font-family="Helvetica,sans-Serif" font-size="10.00"> &lt; v8::StackTrace &gt;</text>
</g>
<!-- Node7 -->
<g id="node7" class="node">
<title>Node7</title>
<g id="a_node7"><a xlink:href="classv8_1_1Handle.html" target="_top" xlink:title=" ">
<polygon fill="white" stroke="black" points="234,-192.88 234,-211.88 364,-211.88 364,-192.88 234,-192.88"/>
<text text-anchor="middle" x="299" y="-199.88" font-family="Helvetica,sans-Serif" font-size="10.00">v8::Handle&lt; v8::Promise &gt;</text>
</a>
</g>
</g>
<!-- Node1&#45;&gt;Node7 -->
<g id="edge9" class="edge">
<title>Node1&#45;&gt;Node7</title>
<path fill="none" stroke="orange" stroke-dasharray="5,2" d="M95.32,-202.38C135.35,-202.38 190.96,-202.38 233.81,-202.38"/>
<polygon fill="orange" stroke="orange" points="95.24,-198.88 85.24,-202.38 95.24,-205.88 95.24,-198.88"/>
<text text-anchor="middle" x="152.5" y="-205.38" font-family="Helvetica,sans-Serif" font-size="10.00"> &lt; v8::Promise &gt;</text>
</g>
<!-- Node8 -->
<g id="node8" class="node">
<title>Node8</title>
<g id="a_node8"><a xlink:href="classv8_1_1Handle.html" target="_top" xlink:title=" ">
<polygon fill="white" stroke="black" points="234.5,-154.88 234.5,-173.88 363.5,-173.88 363.5,-154.88 234.5,-154.88"/>
<text text-anchor="middle" x="299" y="-161.88" font-family="Helvetica,sans-Serif" font-size="10.00">v8::Handle&lt; v8::Boolean &gt;</text>
</a>
</g>
</g>
<!-- Node1&#45;&gt;Node8 -->
<g id="edge10" class="edge">
<title>Node1&#45;&gt;Node8</title>
<path fill="none" stroke="orange" stroke-dasharray="5,2" d="M88.29,-190.43C93.23,-189.31 98.21,-188.26 103,-187.38 146.58,-179.35 196.19,-173.54 234.46,-169.77"/>
<polygon fill="orange" stroke="orange" points="87.18,-187.1 78.26,-192.81 88.8,-193.91 87.18,-187.1"/>
<text text-anchor="middle" x="152.5" y="-190.38" font-family="Helvetica,sans-Serif" font-size="10.00"> &lt; v8::Boolean &gt;</text>
</g>
<!-- Node9 -->
<g id="node9" class="node">
<title>Node9</title>
<g id="a_node9"><a xlink:href="classv8_1_1Handle.html" target="_top" xlink:title=" ">
<polygon fill="white" stroke="black" points="239.5,-116.88 239.5,-135.88 358.5,-135.88 358.5,-116.88 239.5,-116.88"/>
<text text-anchor="middle" x="299" y="-123.88" font-family="Helvetica,sans-Serif" font-size="10.00">v8::Handle&lt; v8::Value &gt;</text>
</a>
</g>
</g>
<!-- Node1&#45;&gt;Node9 -->
<g id="edge11" class="edge">
<title>Node1&#45;&gt;Node9</title>
<path fill="none" stroke="orange" stroke-dasharray="5,2" d="M61.27,-186.18C72.45,-176.88 87.64,-165.81 103,-159.38 146.54,-141.14 199.57,-132.97 239.33,-129.32"/>
<polygon fill="orange" stroke="orange" points="58.84,-183.65 53.56,-192.84 63.42,-188.95 58.84,-183.65"/>
<text text-anchor="middle" x="152.5" y="-162.38" font-family="Helvetica,sans-Serif" font-size="10.00"> &lt; v8::Value &gt;</text>
</g>
<!-- Node10 -->
<g id="node10" class="node">
<title>Node10</title>
<g id="a_node10"><a xlink:href="classv8_1_1Handle.html" target="_top" xlink:title=" ">
<polygon fill="white" stroke="black" points="237,-78.88 237,-97.88 361,-97.88 361,-78.88 237,-78.88"/>
<text text-anchor="middle" x="299" y="-85.88" font-family="Helvetica,sans-Serif" font-size="10.00">v8::Handle&lt; v8::Integer &gt;</text>
</a>
</g>
</g>
<!-- Node1&#45;&gt;Node10 -->
<g id="edge12" class="edge">
<title>Node1&#45;&gt;Node10</title>
<path fill="none" stroke="orange" stroke-dasharray="5,2" d="M51.53,-183.67C60.91,-164.24 78.34,-134.61 103,-119.38 142.96,-94.7 195.99,-87.56 236.67,-86.25"/>
<polygon fill="orange" stroke="orange" points="48.35,-182.21 47.37,-192.76 54.71,-185.13 48.35,-182.21"/>
<text text-anchor="middle" x="152.5" y="-122.38" font-family="Helvetica,sans-Serif" font-size="10.00"> &lt; v8::Integer &gt;</text>
</g>
<!-- Node11 -->
<g id="node11" class="node">
<title>Node11</title>
<g id="a_node11"><a xlink:href="classv8_1_1Handle.html" target="_top" xlink:title=" ">
<polygon fill="white" stroke="black" points="235.5,-40.88 235.5,-59.88 362.5,-59.88 362.5,-40.88 235.5,-40.88"/>
<text text-anchor="middle" x="299" y="-47.88" font-family="Helvetica,sans-Serif" font-size="10.00">v8::Handle&lt; v8::Context &gt;</text>
</a>
</g>
</g>
<!-- Node1&#45;&gt;Node11 -->
<g id="edge13" class="edge">
<title>Node1&#45;&gt;Node11</title>
<path fill="none" stroke="orange" stroke-dasharray="5,2" d="M46.6,-182.56C52.25,-153.64 67.14,-100.47 103,-74.38 140.79,-46.88 193.97,-41.94 235.26,-43.29"/>
<polygon fill="orange" stroke="orange" points="43.1,-182.22 44.81,-192.68 49.99,-183.44 43.1,-182.22"/>
<text text-anchor="middle" x="152.5" y="-77.38" font-family="Helvetica,sans-Serif" font-size="10.00"> &lt; v8::Context &gt;</text>
</g>
<!-- Node12 -->
<g id="node12" class="node">
<title>Node12</title>
<g id="a_node12"><a xlink:href="classv8_1_1Handle.html" target="_top" xlink:title=" ">
<polygon fill="white" stroke="black" points="220,-2.88 220,-21.88 378,-21.88 378,-2.88 220,-2.88"/>
<text text-anchor="middle" x="299" y="-9.88" font-family="Helvetica,sans-Serif" font-size="10.00">v8::Handle&lt; v8::UnboundScript &gt;</text>
</a>
</g>
</g>
<!-- Node1&#45;&gt;Node12 -->
<g id="edge14" class="edge">
<title>Node1&#45;&gt;Node12</title>
<path fill="none" stroke="orange" stroke-dasharray="5,2" d="M43.78,-182.46C45.49,-145.57 54.92,-66.95 103,-29.38 143.97,2.63 205.62,2.45 248.6,-2.87"/>
<polygon fill="orange" stroke="orange" points="40.28,-182.37 43.47,-192.48 47.28,-182.59 40.28,-182.37"/>
<text text-anchor="middle" x="152.5" y="-32.38" font-family="Helvetica,sans-Serif" font-size="10.00"> &lt; v8::UnboundScript &gt;</text>
</g>
<!-- Node5&#45;&gt;Node2 -->
<g id="edge5" class="edge">
<title>Node5&#45;&gt;Node2</title>
<path fill="none" stroke="orange" stroke-dasharray="5,2" d="M348.09,-384.69C389.82,-394.51 449.57,-408.57 488.93,-417.83"/>
<polygon fill="orange" stroke="orange" points="348.69,-381.24 338.15,-382.36 347.09,-388.05 348.69,-381.24"/>
<text text-anchor="middle" x="426" y="-412.38" font-family="Helvetica,sans-Serif" font-size="10.00"> &lt; v8::String &gt;</text>
</g>
<!-- Node5&#45;&gt;Node3 -->
<g id="edge6" class="edge">
<title>Node5&#45;&gt;Node3</title>
<path fill="none" stroke="orange" stroke-dasharray="5,2" d="M348.24,-373.38C387.34,-373.38 442.18,-373.38 481.27,-373.38"/>
<polygon fill="orange" stroke="orange" points="348.15,-369.88 338.15,-373.38 348.15,-376.88 348.15,-369.88"/>
<text text-anchor="middle" x="426" y="-376.38" font-family="Helvetica,sans-Serif" font-size="10.00"> &lt; Name &gt;</text>
</g>
<!-- Node5&#45;&gt;Node4 -->
<g id="edge7" class="edge">
<title>Node5&#45;&gt;Node4</title>
<path fill="none" stroke="orange" stroke-dasharray="5,2" d="M341.65,-360.86C386.61,-347.34 457.23,-326.11 497.86,-313.89"/>
<polygon fill="orange" stroke="orange" points="340.48,-357.55 331.91,-363.78 342.5,-364.26 340.48,-357.55"/>
<text text-anchor="middle" x="426" y="-345.38" font-family="Helvetica,sans-Serif" font-size="10.00"> &lt; Value &gt;</text>
</g>
</g>
</svg>
