<?xml version="1.0" encoding="UTF-8" standalone="no"?>
<!DOCTYPE svg PUBLIC "-//W3C//DTD SVG 1.1//EN"
 "http://www.w3.org/Graphics/SVG/1.1/DTD/svg11.dtd">
<!-- Generated by graphviz version 2.44.0 ()
 -->
<!-- Title: v8::NamedPropertyHandlerConfiguration Pages: 1 -->
<svg width="368pt" height="293pt"
 viewBox="0.00 0.00 368.00 293.00" xmlns="http://www.w3.org/2000/svg" xmlns:xlink="http://www.w3.org/1999/xlink">
<g id="graph0" class="graph" transform="scale(1 1) rotate(0) translate(4 289)">
<title>v8::NamedPropertyHandlerConfiguration</title>
<polygon fill="white" stroke="transparent" points="-4,4 -4,-289 364,-289 364,4 -4,4"/>
<!-- Node1 -->
<g id="node1" class="node">
<title>Node1</title>
<g id="a_node1"><a xlink:title=" ">
<polygon fill="#bfbfbf" stroke="black" points="109.5,-0.5 109.5,-30.5 242.5,-30.5 242.5,-0.5 109.5,-0.5"/>
<text text-anchor="start" x="117.5" y="-18.5" font-family="Helvetica,sans-Serif" font-size="10.00">v8::NamedPropertyHandler</text>
<text text-anchor="middle" x="176" y="-7.5" font-family="Helvetica,sans-Serif" font-size="10.00">Configuration</text>
</a>
</g>
</g>
<!-- Node2 -->
<g id="node2" class="node">
<title>Node2</title>
<g id="a_node2"><a xlink:href="classv8_1_1PropertyCallbackInfo.html" target="_top" xlink:title=" ">
<polygon fill="white" stroke="black" points="16,-111.5 16,-141.5 138,-141.5 138,-111.5 16,-111.5"/>
<text text-anchor="start" x="24" y="-129.5" font-family="Helvetica,sans-Serif" font-size="10.00">v8::PropertyCallbackInfo</text>
<text text-anchor="middle" x="77" y="-118.5" font-family="Helvetica,sans-Serif" font-size="10.00">&lt; Array &gt;</text>
</a>
</g>
</g>
<!-- Node2&#45;&gt;Node1 -->
<g id="edge1" class="edge">
<title>Node2&#45;&gt;Node1</title>
<path fill="none" stroke="#9a32cd" stroke-dasharray="5,2" d="M82.65,-101.46C87.55,-85.01 96.1,-63.62 110,-49 117.22,-41.41 126.58,-35.35 135.98,-30.61"/>
<polygon fill="#9a32cd" stroke="#9a32cd" points="79.18,-100.87 79.93,-111.43 85.94,-102.7 79.18,-100.87"/>
<text text-anchor="middle" x="136" y="-68.5" font-family="Helvetica,sans-Serif" font-size="10.00"> enumerator</text>
</g>
<!-- Node3 -->
<g id="node3" class="node">
<title>Node3</title>
<g id="a_node3"><a xlink:href="classv8_1_1PropertyCallbackInfo.html" target="_top" xlink:title=" ">
<polygon fill="white" stroke="black" points="0,-198.5 0,-217.5 144,-217.5 144,-198.5 0,-198.5"/>
<text text-anchor="middle" x="72" y="-205.5" font-family="Helvetica,sans-Serif" font-size="10.00">v8::PropertyCallbackInfo&lt; T &gt;</text>
</a>
</g>
</g>
<!-- Node3&#45;&gt;Node2 -->
<g id="edge2" class="edge">
<title>Node3&#45;&gt;Node2</title>
<path fill="none" stroke="orange" stroke-dasharray="5,2" d="M68.81,-187.86C68.47,-185.23 68.19,-182.55 68,-180 67.35,-171.14 66.8,-168.81 68,-160 68.84,-153.85 70.52,-147.22 72.21,-141.56"/>
<polygon fill="orange" stroke="orange" points="65.39,-188.67 70.33,-198.04 72.31,-187.63 65.39,-188.67"/>
<text text-anchor="middle" x="89" y="-167.5" font-family="Helvetica,sans-Serif" font-size="10.00"> &lt; Array &gt;</text>
</g>
<!-- Node4 -->
<g id="node4" class="node">
<title>Node4</title>
<g id="a_node4"><a xlink:href="classv8_1_1Handle.html" target="_top" xlink:title=" ">
<polygon fill="white" stroke="black" points="119.5,-160.5 119.5,-179.5 238.5,-179.5 238.5,-160.5 119.5,-160.5"/>
<text text-anchor="middle" x="179" y="-167.5" font-family="Helvetica,sans-Serif" font-size="10.00">v8::Handle&lt; v8::Value &gt;</text>
</a>
</g>
</g>
<!-- Node4&#45;&gt;Node1 -->
<g id="edge3" class="edge">
<title>Node4&#45;&gt;Node1</title>
<path fill="none" stroke="#9a32cd" stroke-dasharray="5,2" d="M178.63,-150.07C178.02,-119.03 176.82,-58.02 176.28,-30.52"/>
<polygon fill="#9a32cd" stroke="#9a32cd" points="175.13,-150.43 178.83,-160.36 182.13,-150.3 175.13,-150.43"/>
<text text-anchor="middle" x="190" y="-124" font-family="Helvetica,sans-Serif" font-size="10.00"> data</text>
</g>
<!-- Node5 -->
<g id="node5" class="node">
<title>Node5</title>
<g id="a_node5"><a xlink:href="classv8_1_1Handle.html" target="_top" xlink:title=" ">
<polygon fill="white" stroke="black" points="211.5,-265.5 211.5,-284.5 296.5,-284.5 296.5,-265.5 211.5,-265.5"/>
<text text-anchor="middle" x="254" y="-272.5" font-family="Helvetica,sans-Serif" font-size="10.00">v8::Handle&lt; T &gt;</text>
</a>
</g>
</g>
<!-- Node5&#45;&gt;Node4 -->
<g id="edge4" class="edge">
<title>Node5&#45;&gt;Node4</title>
<path fill="none" stroke="orange" stroke-dasharray="5,2" d="M201.94,-263.59C193.75,-259.69 186.26,-254.34 181,-247 166.55,-226.82 172.25,-195.29 176.29,-179.97"/>
<polygon fill="orange" stroke="orange" points="200.83,-266.92 211.42,-267.4 203.45,-260.42 200.83,-266.92"/>
<text text-anchor="middle" x="210.5" y="-239" font-family="Helvetica,sans-Serif" font-size="10.00"> &lt; v8::Value &gt;</text>
</g>
<!-- Node6 -->
<g id="node6" class="node">
<title>Node6</title>
<g id="a_node6"><a xlink:href="classv8_1_1Local.html" target="_top" xlink:title=" ">
<polygon fill="white" stroke="black" points="216,-117 216,-136 314,-136 314,-117 216,-117"/>
<text text-anchor="middle" x="265" y="-124" font-family="Helvetica,sans-Serif" font-size="10.00">v8::Local&lt; Name &gt;</text>
</a>
</g>
</g>
<!-- Node5&#45;&gt;Node6 -->
<g id="edge6" class="edge">
<title>Node5&#45;&gt;Node6</title>
<path fill="none" stroke="midnightblue" d="M255.42,-255.06C257.82,-223.1 262.58,-159.68 264.33,-136.37"/>
<polygon fill="midnightblue" stroke="midnightblue" points="251.91,-255.04 254.66,-265.27 258.89,-255.56 251.91,-255.04"/>
</g>
<!-- Node7 -->
<g id="node7" class="node">
<title>Node7</title>
<g id="a_node7"><a xlink:href="classv8_1_1Local.html" target="_top" xlink:title=" ">
<polygon fill="white" stroke="black" points="282,-198.5 282,-217.5 360,-217.5 360,-198.5 282,-198.5"/>
<text text-anchor="middle" x="321" y="-205.5" font-family="Helvetica,sans-Serif" font-size="10.00">v8::Local&lt; T &gt;</text>
</a>
</g>
</g>
<!-- Node5&#45;&gt;Node7 -->
<g id="edge8" class="edge">
<title>Node5&#45;&gt;Node7</title>
<path fill="none" stroke="midnightblue" d="M270.5,-258C283.64,-245.25 301.52,-227.89 312.11,-217.63"/>
<polygon fill="midnightblue" stroke="midnightblue" points="267.78,-255.76 263.04,-265.23 272.65,-260.78 267.78,-255.76"/>
</g>
<!-- Node6&#45;&gt;Node1 -->
<g id="edge5" class="edge">
<title>Node6&#45;&gt;Node1</title>
<path fill="none" stroke="#9a32cd" stroke-dasharray="5,2" d="M251.62,-109.11C234.22,-87.8 204.11,-50.93 187.62,-30.74"/>
<polygon fill="#9a32cd" stroke="#9a32cd" points="248.98,-111.41 258.02,-116.95 254.4,-106.99 248.98,-111.41"/>
<text text-anchor="middle" x="253" y="-85" font-family="Helvetica,sans-Serif" font-size="10.00"> deleter</text>
<text text-anchor="middle" x="253" y="-74" font-family="Helvetica,sans-Serif" font-size="10.00">getter</text>
<text text-anchor="middle" x="253" y="-63" font-family="Helvetica,sans-Serif" font-size="10.00">query</text>
<text text-anchor="middle" x="253" y="-52" font-family="Helvetica,sans-Serif" font-size="10.00">setter</text>
</g>
<!-- Node7&#45;&gt;Node6 -->
<g id="edge7" class="edge">
<title>Node7&#45;&gt;Node6</title>
<path fill="none" stroke="orange" stroke-dasharray="5,2" d="M309.22,-190.27C297.58,-173.75 280.24,-149.14 271.12,-136.19"/>
<polygon fill="orange" stroke="orange" points="306.39,-192.33 315.01,-198.49 312.11,-188.3 306.39,-192.33"/>
<text text-anchor="middle" x="325" y="-167.5" font-family="Helvetica,sans-Serif" font-size="10.00"> &lt; Name &gt;</text>
</g>
</g>
</svg>
