<?xml version="1.0" encoding="UTF-8" standalone="no"?>
<!DOCTYPE svg PUBLIC "-//W3C//DTD SVG 1.1//EN"
 "http://www.w3.org/Graphics/SVG/1.1/DTD/svg11.dtd">
<!-- Generated by graphviz version 2.44.0 ()
 -->
<!-- Title: include/cppgc/internal/atomic&#45;entry&#45;flag.h Pages: 1 -->
<svg width="670pt" height="609pt"
 viewBox="0.00 0.00 670.00 609.00" xmlns="http://www.w3.org/2000/svg" xmlns:xlink="http://www.w3.org/1999/xlink">
<g id="graph0" class="graph" transform="scale(1 1) rotate(0) translate(4 605)">
<title>include/cppgc/internal/atomic&#45;entry&#45;flag.h</title>
<polygon fill="white" stroke="transparent" points="-4,4 -4,-605 666,-605 666,4 -4,4"/>
<!-- Node1 -->
<g id="node1" class="node">
<title>Node1</title>
<g id="a_node1"><a xlink:title=" ">
<polygon fill="#bfbfbf" stroke="black" points="527.5,-570.5 527.5,-600.5 638.5,-600.5 638.5,-570.5 527.5,-570.5"/>
<text text-anchor="start" x="535.5" y="-588.5" font-family="Helvetica,sans-Serif" font-size="10.00">include/cppgc/internal</text>
<text text-anchor="middle" x="583" y="-577.5" font-family="Helvetica,sans-Serif" font-size="10.00">/atomic&#45;entry&#45;flag.h</text>
</a>
</g>
</g>
<!-- Node2 -->
<g id="node2" class="node">
<title>Node2</title>
<g id="a_node2"><a xlink:href="process-heap_8h.html" target="_top" xlink:title=" ">
<polygon fill="white" stroke="black" points="527.5,-503.5 527.5,-533.5 638.5,-533.5 638.5,-503.5 527.5,-503.5"/>
<text text-anchor="start" x="535.5" y="-521.5" font-family="Helvetica,sans-Serif" font-size="10.00">include/cppgc/internal</text>
<text text-anchor="middle" x="583" y="-510.5" font-family="Helvetica,sans-Serif" font-size="10.00">/process&#45;heap.h</text>
</a>
</g>
</g>
<!-- Node1&#45;&gt;Node2 -->
<g id="edge1" class="edge">
<title>Node1&#45;&gt;Node2</title>
<path fill="none" stroke="midnightblue" d="M583,-560.11C583,-551.15 583,-541.32 583,-533.58"/>
<polygon fill="midnightblue" stroke="midnightblue" points="579.5,-560.4 583,-570.4 586.5,-560.4 579.5,-560.4"/>
</g>
<!-- Node3 -->
<g id="node3" class="node">
<title>Node3</title>
<g id="a_node3"><a xlink:href="write-barrier_8h.html" target="_top" xlink:title=" ">
<polygon fill="white" stroke="black" points="485.5,-436.5 485.5,-466.5 596.5,-466.5 596.5,-436.5 485.5,-436.5"/>
<text text-anchor="start" x="493.5" y="-454.5" font-family="Helvetica,sans-Serif" font-size="10.00">include/cppgc/internal</text>
<text text-anchor="middle" x="541" y="-443.5" font-family="Helvetica,sans-Serif" font-size="10.00">/write&#45;barrier.h</text>
</a>
</g>
</g>
<!-- Node2&#45;&gt;Node3 -->
<g id="edge2" class="edge">
<title>Node2&#45;&gt;Node3</title>
<path fill="none" stroke="midnightblue" d="M568.38,-494.87C562.3,-485.46 555.43,-474.83 550.1,-466.58"/>
<polygon fill="midnightblue" stroke="midnightblue" points="565.52,-496.9 573.89,-503.4 571.4,-493.1 565.52,-496.9"/>
</g>
<!-- Node11 -->
<g id="node11" class="node">
<title>Node11</title>
<g id="a_node11"><a xlink:href="v8-cppgc_8h.html" target="_top" xlink:title=" ">
<polygon fill="white" stroke="black" points="494,-67.5 494,-86.5 592,-86.5 592,-67.5 494,-67.5"/>
<text text-anchor="middle" x="543" y="-74.5" font-family="Helvetica,sans-Serif" font-size="10.00">include/v8&#45;cppgc.h</text>
</a>
</g>
</g>
<!-- Node2&#45;&gt;Node11 -->
<g id="edge23" class="edge">
<title>Node2&#45;&gt;Node11</title>
<path fill="none" stroke="midnightblue" d="M605.8,-496.08C629.13,-471.73 662,-429.6 662,-385.5 662,-385.5 662,-385.5 662,-193.5 662,-139.23 597.48,-102.26 563.46,-86.54"/>
<polygon fill="midnightblue" stroke="midnightblue" points="603.16,-493.77 598.61,-503.34 608.13,-498.7 603.16,-493.77"/>
</g>
<!-- Node4 -->
<g id="node4" class="node">
<title>Node4</title>
<g id="a_node4"><a xlink:href="heap-consistency_8h.html" target="_top" xlink:title=" ">
<polygon fill="white" stroke="black" points="532.5,-369.5 532.5,-399.5 633.5,-399.5 633.5,-369.5 532.5,-369.5"/>
<text text-anchor="start" x="540.5" y="-387.5" font-family="Helvetica,sans-Serif" font-size="10.00">include/cppgc/heap</text>
<text text-anchor="middle" x="583" y="-376.5" font-family="Helvetica,sans-Serif" font-size="10.00">&#45;consistency.h</text>
</a>
</g>
</g>
<!-- Node3&#45;&gt;Node4 -->
<g id="edge3" class="edge">
<title>Node3&#45;&gt;Node4</title>
<path fill="none" stroke="midnightblue" d="M555.62,-427.87C561.7,-418.46 568.57,-407.83 573.9,-399.58"/>
<polygon fill="midnightblue" stroke="midnightblue" points="552.6,-426.1 550.11,-436.4 558.48,-429.9 552.6,-426.1"/>
</g>
<!-- Node5 -->
<g id="node5" class="node">
<title>Node5</title>
<g id="a_node5"><a xlink:href="pointer-policies_8h.html" target="_top" xlink:title=" ">
<polygon fill="white" stroke="black" points="112.5,-369.5 112.5,-399.5 223.5,-399.5 223.5,-369.5 112.5,-369.5"/>
<text text-anchor="start" x="120.5" y="-387.5" font-family="Helvetica,sans-Serif" font-size="10.00">include/cppgc/internal</text>
<text text-anchor="middle" x="168" y="-376.5" font-family="Helvetica,sans-Serif" font-size="10.00">/pointer&#45;policies.h</text>
</a>
</g>
</g>
<!-- Node3&#45;&gt;Node5 -->
<g id="edge4" class="edge">
<title>Node3&#45;&gt;Node5</title>
<path fill="none" stroke="midnightblue" d="M474.92,-438.98C403.44,-426.53 290.73,-406.89 223.61,-395.19"/>
<polygon fill="midnightblue" stroke="midnightblue" points="474.71,-442.5 485.16,-440.77 475.91,-435.6 474.71,-442.5"/>
</g>
<!-- Node3&#45;&gt;Node11 -->
<g id="edge22" class="edge">
<title>Node3&#45;&gt;Node11</title>
<path fill="none" stroke="midnightblue" d="M529.82,-427.13C518.93,-402.18 504,-361.21 504,-324 504,-324 504,-324 504,-193.5 504,-151.59 527.33,-105.42 537.9,-86.65"/>
<polygon fill="midnightblue" stroke="midnightblue" points="526.73,-428.8 534.04,-436.47 533.11,-425.92 526.73,-428.8"/>
</g>
<!-- Node6 -->
<g id="node6" class="node">
<title>Node6</title>
<g id="a_node6"><a xlink:href="cross-thread-persistent_8h.html" target="_top" xlink:title=" ">
<polygon fill="white" stroke="black" points="163,-0.5 163,-30.5 267,-30.5 267,-0.5 163,-0.5"/>
<text text-anchor="start" x="171" y="-18.5" font-family="Helvetica,sans-Serif" font-size="10.00">include/cppgc/cross</text>
<text text-anchor="middle" x="215" y="-7.5" font-family="Helvetica,sans-Serif" font-size="10.00">&#45;thread&#45;persistent.h</text>
</a>
</g>
</g>
<!-- Node5&#45;&gt;Node6 -->
<g id="edge5" class="edge">
<title>Node5&#45;&gt;Node6</title>
<path fill="none" stroke="midnightblue" d="M233.58,-370.61C321.32,-351.45 466,-312.3 466,-262.5 466,-262.5 466,-262.5 466,-132 466,-45.18 340.53,-23.39 267.01,-18.08"/>
<polygon fill="midnightblue" stroke="midnightblue" points="232.74,-367.21 223.7,-372.73 234.21,-374.05 232.74,-367.21"/>
</g>
<!-- Node7 -->
<g id="node7" class="node">
<title>Node7</title>
<g id="a_node7"><a xlink:href="member_8h.html" target="_top" xlink:title=" ">
<polygon fill="white" stroke="black" points="107,-313.5 107,-332.5 229,-332.5 229,-313.5 107,-313.5"/>
<text text-anchor="middle" x="168" y="-320.5" font-family="Helvetica,sans-Serif" font-size="10.00">include/cppgc/member.h</text>
</a>
</g>
</g>
<!-- Node5&#45;&gt;Node7 -->
<g id="edge6" class="edge">
<title>Node5&#45;&gt;Node7</title>
<path fill="none" stroke="midnightblue" d="M168,-359.29C168,-349.86 168,-339.65 168,-332.66"/>
<polygon fill="midnightblue" stroke="midnightblue" points="164.5,-359.4 168,-369.4 171.5,-359.4 164.5,-359.4"/>
</g>
<!-- Node9 -->
<g id="node9" class="node">
<title>Node9</title>
<g id="a_node9"><a xlink:href="visitor_8h.html" target="_top" xlink:title=" ">
<polygon fill="white" stroke="black" points="111.5,-123.5 111.5,-142.5 224.5,-142.5 224.5,-123.5 111.5,-123.5"/>
<text text-anchor="middle" x="168" y="-130.5" font-family="Helvetica,sans-Serif" font-size="10.00">include/cppgc/visitor.h</text>
</a>
</g>
</g>
<!-- Node5&#45;&gt;Node9 -->
<g id="edge21" class="edge">
<title>Node5&#45;&gt;Node9</title>
<path fill="none" stroke="midnightblue" d="M128.99,-363.97C117.07,-356.02 105.22,-345.68 98,-333 64.05,-273.37 52.2,-238.14 87,-179 97.77,-160.7 118.97,-149.31 136.98,-142.56"/>
<polygon fill="midnightblue" stroke="midnightblue" points="127.27,-367.02 137.62,-369.33 130.97,-361.08 127.27,-367.02"/>
</g>
<!-- Node10 -->
<g id="node10" class="node">
<title>Node10</title>
<g id="a_node10"><a xlink:href="persistent_8h.html" target="_top" xlink:title=" ">
<polygon fill="white" stroke="black" points="57,-67.5 57,-86.5 187,-86.5 187,-67.5 57,-67.5"/>
<text text-anchor="middle" x="122" y="-74.5" font-family="Helvetica,sans-Serif" font-size="10.00">include/cppgc/persistent.h</text>
</a>
</g>
</g>
<!-- Node5&#45;&gt;Node10 -->
<g id="edge20" class="edge">
<title>Node5&#45;&gt;Node10</title>
<path fill="none" stroke="midnightblue" d="M105.14,-366.07C57.44,-348.56 0,-316.3 0,-262.5 0,-262.5 0,-262.5 0,-193.5 0,-138.67 65.8,-102.08 100.75,-86.51"/>
<polygon fill="midnightblue" stroke="midnightblue" points="104.25,-369.46 114.84,-369.48 106.57,-362.86 104.25,-369.46"/>
</g>
<!-- Node8 -->
<g id="node8" class="node">
<title>Node8</title>
<g id="a_node8"><a xlink:href="ephemeron-pair_8h.html" target="_top" xlink:title=" ">
<polygon fill="white" stroke="black" points="104,-179.5 104,-209.5 232,-209.5 232,-179.5 104,-179.5"/>
<text text-anchor="start" x="112" y="-197.5" font-family="Helvetica,sans-Serif" font-size="10.00">include/cppgc/ephemeron</text>
<text text-anchor="middle" x="168" y="-186.5" font-family="Helvetica,sans-Serif" font-size="10.00">&#45;pair.h</text>
</a>
</g>
</g>
<!-- Node7&#45;&gt;Node8 -->
<g id="edge7" class="edge">
<title>Node7&#45;&gt;Node8</title>
<path fill="none" stroke="midnightblue" d="M168,-303.11C168,-277.63 168,-232.81 168,-209.89"/>
<polygon fill="midnightblue" stroke="midnightblue" points="164.5,-303.31 168,-313.31 171.5,-303.31 164.5,-303.31"/>
</g>
<!-- Node7&#45;&gt;Node9 -->
<g id="edge19" class="edge">
<title>Node7&#45;&gt;Node9</title>
<path fill="none" stroke="midnightblue" d="M153.06,-305.88C135.21,-285.41 106.33,-248.13 95,-210 91.08,-196.79 88.28,-191.03 95,-179 104.94,-161.19 125.15,-149.56 141.79,-142.59"/>
<polygon fill="midnightblue" stroke="midnightblue" points="150.46,-308.22 159.74,-313.34 155.68,-303.56 150.46,-308.22"/>
</g>
<!-- Node12 -->
<g id="node12" class="node">
<title>Node12</title>
<g id="a_node12"><a xlink:href="liveness-broker_8h.html" target="_top" xlink:title=" ">
<polygon fill="white" stroke="black" points="202,-246.5 202,-276.5 318,-276.5 318,-246.5 202,-246.5"/>
<text text-anchor="start" x="210" y="-264.5" font-family="Helvetica,sans-Serif" font-size="10.00">include/cppgc/liveness</text>
<text text-anchor="middle" x="260" y="-253.5" font-family="Helvetica,sans-Serif" font-size="10.00">&#45;broker.h</text>
</a>
</g>
</g>
<!-- Node7&#45;&gt;Node12 -->
<g id="edge13" class="edge">
<title>Node7&#45;&gt;Node12</title>
<path fill="none" stroke="midnightblue" d="M189.63,-308.01C204.31,-298.52 223.63,-286.02 238.32,-276.52"/>
<polygon fill="midnightblue" stroke="midnightblue" points="187.68,-305.11 181.18,-313.48 191.48,-310.98 187.68,-305.11"/>
</g>
<!-- Node8&#45;&gt;Node9 -->
<g id="edge8" class="edge">
<title>Node8&#45;&gt;Node9</title>
<path fill="none" stroke="midnightblue" d="M168,-169.29C168,-159.86 168,-149.65 168,-142.66"/>
<polygon fill="midnightblue" stroke="midnightblue" points="164.5,-169.4 168,-179.4 171.5,-169.4 164.5,-169.4"/>
</g>
<!-- Node9&#45;&gt;Node6 -->
<g id="edge9" class="edge">
<title>Node9&#45;&gt;Node6</title>
<path fill="none" stroke="midnightblue" d="M180.11,-115.18C185.57,-106.99 191.74,-96.81 196,-87 204.13,-68.28 209.55,-45.22 212.45,-30.69"/>
<polygon fill="midnightblue" stroke="midnightblue" points="177.2,-113.24 174.38,-123.46 182.95,-117.23 177.2,-113.24"/>
</g>
<!-- Node9&#45;&gt;Node10 -->
<g id="edge10" class="edge">
<title>Node9&#45;&gt;Node10</title>
<path fill="none" stroke="midnightblue" d="M153.89,-115.43C145.82,-105.97 136.04,-94.48 129.45,-86.75"/>
<polygon fill="midnightblue" stroke="midnightblue" points="151.25,-117.74 160.4,-123.08 156.58,-113.2 151.25,-117.74"/>
</g>
<!-- Node9&#45;&gt;Node11 -->
<g id="edge12" class="edge">
<title>Node9&#45;&gt;Node11</title>
<path fill="none" stroke="midnightblue" d="M234.73,-122.39C309.05,-111.69 427.43,-94.64 493.78,-85.09"/>
<polygon fill="midnightblue" stroke="midnightblue" points="233.95,-118.97 224.55,-123.86 234.94,-125.9 233.95,-118.97"/>
</g>
<!-- Node10&#45;&gt;Node6 -->
<g id="edge11" class="edge">
<title>Node10&#45;&gt;Node6</title>
<path fill="none" stroke="midnightblue" d="M143.87,-62.01C158.7,-52.52 178.24,-40.02 193.08,-30.52"/>
<polygon fill="midnightblue" stroke="midnightblue" points="141.86,-59.14 135.32,-67.48 145.63,-65.03 141.86,-59.14"/>
</g>
<!-- Node12&#45;&gt;Node8 -->
<g id="edge14" class="edge">
<title>Node12&#45;&gt;Node8</title>
<path fill="none" stroke="midnightblue" d="M231.62,-240.45C217.47,-230.45 200.69,-218.6 187.92,-209.58"/>
<polygon fill="midnightblue" stroke="midnightblue" points="229.85,-243.48 240.04,-246.4 233.89,-237.77 229.85,-243.48"/>
</g>
<!-- Node12&#45;&gt;Node9 -->
<g id="edge18" class="edge">
<title>Node12&#45;&gt;Node9</title>
<path fill="none" stroke="midnightblue" d="M259.19,-236.04C257.52,-218.69 252.97,-195.64 241,-179 228.65,-161.84 207.54,-149.87 191.19,-142.61"/>
<polygon fill="midnightblue" stroke="midnightblue" points="255.73,-236.75 259.92,-246.49 262.71,-236.27 255.73,-236.75"/>
</g>
<!-- Node13 -->
<g id="node13" class="node">
<title>Node13</title>
<g id="a_node13"><a xlink:href="prefinalizer-handler_8h.html" target="_top" xlink:title=" ">
<polygon fill="white" stroke="black" points="288.5,-179.5 288.5,-209.5 399.5,-209.5 399.5,-179.5 288.5,-179.5"/>
<text text-anchor="start" x="296.5" y="-197.5" font-family="Helvetica,sans-Serif" font-size="10.00">include/cppgc/internal</text>
<text text-anchor="middle" x="344" y="-186.5" font-family="Helvetica,sans-Serif" font-size="10.00">/prefinalizer&#45;handler.h</text>
</a>
</g>
</g>
<!-- Node12&#45;&gt;Node13 -->
<g id="edge15" class="edge">
<title>Node12&#45;&gt;Node13</title>
<path fill="none" stroke="midnightblue" d="M286.28,-240.17C299.12,-230.23 314.26,-218.51 325.81,-209.58"/>
<polygon fill="midnightblue" stroke="midnightblue" points="283.99,-237.51 278.23,-246.4 288.28,-243.04 283.99,-237.51"/>
</g>
<!-- Node14 -->
<g id="node14" class="node">
<title>Node14</title>
<g id="a_node14"><a xlink:href="prefinalizer_8h.html" target="_top" xlink:title=" ">
<polygon fill="white" stroke="black" points="290.5,-123.5 290.5,-142.5 423.5,-142.5 423.5,-123.5 290.5,-123.5"/>
<text text-anchor="middle" x="357" y="-130.5" font-family="Helvetica,sans-Serif" font-size="10.00">include/cppgc/prefinalizer.h</text>
</a>
</g>
</g>
<!-- Node12&#45;&gt;Node14 -->
<g id="edge17" class="edge">
<title>Node12&#45;&gt;Node14</title>
<path fill="none" stroke="midnightblue" d="M328.01,-254.67C357.63,-248.36 389.69,-235.59 408,-210 416.02,-198.79 413.67,-191.56 408,-179 400.81,-163.07 384.89,-150.52 372.73,-142.76"/>
<polygon fill="midnightblue" stroke="midnightblue" points="327.25,-251.26 318.09,-256.58 328.57,-258.13 327.25,-251.26"/>
</g>
<!-- Node13&#45;&gt;Node14 -->
<g id="edge16" class="edge">
<title>Node13&#45;&gt;Node14</title>
<path fill="none" stroke="midnightblue" d="M349.22,-169.59C351.3,-160.08 353.56,-149.73 355.11,-142.66"/>
<polygon fill="midnightblue" stroke="midnightblue" points="345.8,-168.88 347.08,-179.4 352.63,-170.38 345.8,-168.88"/>
</g>
</g>
</svg>
