<?xml version="1.0" encoding="UTF-8" standalone="no"?>
<!DOCTYPE svg PUBLIC "-//W3C//DTD SVG 1.1//EN"
 "http://www.w3.org/Graphics/SVG/1.1/DTD/svg11.dtd">
<!-- Generated by graphviz version 2.44.0 ()
 -->
<!-- Title: cppgc::internal::BasicMember&lt; T, WeaknessTag, WriteBarrierPolicy, CheckingPolicy &gt; Pages: 1 -->
<svg width="360pt" height="174pt"
 viewBox="0.00 0.00 360.00 174.00" xmlns="http://www.w3.org/2000/svg" xmlns:xlink="http://www.w3.org/1999/xlink">
<g id="graph0" class="graph" transform="scale(1 1) rotate(0) translate(4 170)">
<title>cppgc::internal::BasicMember&lt; T, WeaknessTag, WriteBarrierPolicy, CheckingPolicy &gt;</title>
<polygon fill="white" stroke="transparent" points="-4,4 -4,-170 356,-170 356,4 -4,4"/>
<!-- Node1 -->
<g id="node1" class="node">
<title>Node1</title>
<g id="a_node1"><a xlink:title=" ">
<polygon fill="#bfbfbf" stroke="black" points="83.5,-67.5 83.5,-108.5 267.5,-108.5 267.5,-67.5 83.5,-67.5"/>
<text text-anchor="start" x="91.5" y="-96.5" font-family="Helvetica,sans-Serif" font-size="10.00">cppgc::internal::BasicMember</text>
<text text-anchor="start" x="91.5" y="-85.5" font-family="Helvetica,sans-Serif" font-size="10.00">&lt; T, WeaknessTag, WriteBarrierPolicy,</text>
<text text-anchor="middle" x="175.5" y="-74.5" font-family="Helvetica,sans-Serif" font-size="10.00"> CheckingPolicy &gt;</text>
</a>
</g>
</g>
<!-- Node4 -->
<g id="node4" class="node">
<title>Node4</title>
<g id="a_node4"><a xlink:href="classcppgc_1_1internal_1_1BasicMember.html" target="_top" xlink:title=" ">
<polygon fill="white" stroke="black" points="0,-0.5 0,-19.5 167,-19.5 167,-0.5 0,-0.5"/>
<text text-anchor="middle" x="83.5" y="-7.5" font-family="Helvetica,sans-Serif" font-size="10.00">cppgc::internal::BasicMember&lt; V &gt;</text>
</a>
</g>
</g>
<!-- Node1&#45;&gt;Node4 -->
<g id="edge3" class="edge">
<title>Node1&#45;&gt;Node4</title>
<path fill="none" stroke="orange" stroke-dasharray="5,2" d="M144.04,-61.01C126.56,-46.57 105.96,-29.55 93.85,-19.55"/>
<polygon fill="orange" stroke="orange" points="141.87,-63.76 151.81,-67.43 146.33,-58.36 141.87,-63.76"/>
<text text-anchor="middle" x="142.5" y="-41" font-family="Helvetica,sans-Serif" font-size="10.00"> &lt; V &gt;</text>
</g>
<!-- Node5 -->
<g id="node5" class="node">
<title>Node5</title>
<g id="a_node5"><a xlink:href="classcppgc_1_1internal_1_1BasicMember.html" target="_top" xlink:title=" ">
<polygon fill="white" stroke="black" points="185,-0.5 185,-19.5 352,-19.5 352,-0.5 185,-0.5"/>
<text text-anchor="middle" x="268.5" y="-7.5" font-family="Helvetica,sans-Serif" font-size="10.00">cppgc::internal::BasicMember&lt; K &gt;</text>
</a>
</g>
</g>
<!-- Node1&#45;&gt;Node5 -->
<g id="edge4" class="edge">
<title>Node1&#45;&gt;Node5</title>
<path fill="none" stroke="orange" stroke-dasharray="5,2" d="M207.3,-61.01C224.97,-46.57 245.8,-29.55 258.04,-19.55"/>
<polygon fill="orange" stroke="orange" points="204.98,-58.39 199.45,-67.43 209.41,-63.81 204.98,-58.39"/>
<text text-anchor="middle" x="245.5" y="-41" font-family="Helvetica,sans-Serif" font-size="10.00"> &lt; K &gt;</text>
</g>
<!-- Node2 -->
<g id="node2" class="node">
<title>Node2</title>
<g id="a_node2"><a xlink:href="classcppgc_1_1internal_1_1MemberBase.html" target="_top" xlink:title=" ">
<polygon fill="white" stroke="black" points="40,-146.5 40,-165.5 181,-165.5 181,-146.5 40,-146.5"/>
<text text-anchor="middle" x="110.5" y="-153.5" font-family="Helvetica,sans-Serif" font-size="10.00">cppgc::internal::MemberBase</text>
</a>
</g>
</g>
<!-- Node2&#45;&gt;Node1 -->
<g id="edge1" class="edge">
<title>Node2&#45;&gt;Node1</title>
<path fill="none" stroke="#8b1a1a" d="M126.18,-139.08C135.16,-129.96 146.52,-118.43 156.06,-108.74"/>
<polygon fill="#8b1a1a" stroke="#8b1a1a" points="123.52,-136.79 119,-146.37 128.51,-141.7 123.52,-136.79"/>
</g>
<!-- Node3 -->
<g id="node3" class="node">
<title>Node3</title>
<g id="a_node3"><a xlink:title=" ">
<polygon fill="white" stroke="#bfbfbf" points="199,-146.5 199,-165.5 282,-165.5 282,-146.5 199,-146.5"/>
<text text-anchor="middle" x="240.5" y="-153.5" font-family="Helvetica,sans-Serif" font-size="10.00">CheckingPolicy</text>
</a>
</g>
</g>
<!-- Node3&#45;&gt;Node1 -->
<g id="edge2" class="edge">
<title>Node3&#45;&gt;Node1</title>
<path fill="none" stroke="#8b1a1a" d="M224.82,-139.08C215.84,-129.96 204.48,-118.43 194.94,-108.74"/>
<polygon fill="#8b1a1a" stroke="#8b1a1a" points="222.49,-141.7 232,-146.37 227.48,-136.79 222.49,-141.7"/>
</g>
</g>
</svg>
