<?xml version="1.0" encoding="UTF-8" standalone="no"?>
<!DOCTYPE svg PUBLIC "-//W3C//DTD SVG 1.1//EN"
 "http://www.w3.org/Graphics/SVG/1.1/DTD/svg11.dtd">
<!-- Generated by graphviz version 2.44.0 ()
 -->
<!-- Title: cppgc::DefaultPlatform Pages: 1 -->
<svg width="288pt" height="240pt"
 viewBox="0.00 0.00 287.50 240.00" xmlns="http://www.w3.org/2000/svg" xmlns:xlink="http://www.w3.org/1999/xlink">
<g id="graph0" class="graph" transform="scale(1 1) rotate(0) translate(4 236)">
<title>cppgc::DefaultPlatform</title>
<polygon fill="white" stroke="transparent" points="-4,4 -4,-236 283.5,-236 283.5,4 -4,4"/>
<!-- Node1 -->
<g id="node1" class="node">
<title>Node1</title>
<g id="a_node1"><a xlink:title=" ">
<polygon fill="#bfbfbf" stroke="black" points="93.5,-0.5 93.5,-19.5 208.5,-19.5 208.5,-0.5 93.5,-0.5"/>
<text text-anchor="middle" x="151" y="-7.5" font-family="Helvetica,sans-Serif" font-size="10.00">cppgc::DefaultPlatform</text>
</a>
</g>
</g>
<!-- Node2 -->
<g id="node2" class="node">
<title>Node2</title>
<g id="a_node2"><a xlink:href="classcppgc_1_1Platform.html" target="_top" xlink:title=" ">
<polygon fill="white" stroke="black" points="0,-73 0,-92 84,-92 84,-73 0,-73"/>
<text text-anchor="middle" x="42" y="-80" font-family="Helvetica,sans-Serif" font-size="10.00">cppgc::Platform</text>
</a>
</g>
</g>
<!-- Node2&#45;&gt;Node1 -->
<g id="edge1" class="edge">
<title>Node2&#45;&gt;Node1</title>
<path fill="none" stroke="midnightblue" d="M64.04,-67.24C86.05,-53.01 119.16,-31.59 137.53,-19.72"/>
<polygon fill="midnightblue" stroke="midnightblue" points="61.86,-64.49 55.37,-72.86 65.66,-70.36 61.86,-64.49"/>
</g>
<!-- Node3 -->
<g id="node3" class="node">
<title>Node3</title>
<g id="a_node3"><a xlink:title=" ">
<polygon fill="white" stroke="#bfbfbf" points="102,-67.5 102,-97.5 200,-97.5 200,-67.5 102,-67.5"/>
<text text-anchor="start" x="110" y="-85.5" font-family="Helvetica,sans-Serif" font-size="10.00">std::unique_ptr&lt; v8</text>
<text text-anchor="middle" x="151" y="-74.5" font-family="Helvetica,sans-Serif" font-size="10.00">::Platform &gt;</text>
</a>
</g>
</g>
<!-- Node3&#45;&gt;Node1 -->
<g id="edge2" class="edge">
<title>Node3&#45;&gt;Node1</title>
<path fill="none" stroke="#9a32cd" stroke-dasharray="5,2" d="M151,-57.09C151,-44.21 151,-29.2 151,-19.89"/>
<polygon fill="#9a32cd" stroke="#9a32cd" points="147.5,-57.23 151,-67.23 154.5,-57.23 147.5,-57.23"/>
<text text-anchor="middle" x="180.5" y="-41" font-family="Helvetica,sans-Serif" font-size="10.00"> v8_platform_</text>
</g>
<!-- Node4 -->
<g id="node4" class="node">
<title>Node4</title>
<g id="a_node4"><a xlink:title=" ">
<polygon fill="white" stroke="#bfbfbf" points="100,-145.5 100,-164.5 202,-164.5 202,-145.5 100,-145.5"/>
<text text-anchor="middle" x="151" y="-152.5" font-family="Helvetica,sans-Serif" font-size="10.00">std::unique_ptr&lt; T &gt;</text>
</a>
</g>
</g>
<!-- Node4&#45;&gt;Node3 -->
<g id="edge3" class="edge">
<title>Node4&#45;&gt;Node3</title>
<path fill="none" stroke="orange" stroke-dasharray="5,2" d="M151,-135.24C151,-123.41 151,-108.38 151,-97.58"/>
<polygon fill="orange" stroke="orange" points="147.5,-135.36 151,-145.36 154.5,-135.36 147.5,-135.36"/>
<text text-anchor="middle" x="186.5" y="-119" font-family="Helvetica,sans-Serif" font-size="10.00"> &lt; v8::Platform &gt;</text>
</g>
<!-- Node5 -->
<g id="node5" class="node">
<title>Node5</title>
<g id="a_node5"><a xlink:title=" ">
<polygon fill="white" stroke="#bfbfbf" points="136.5,-212.5 136.5,-231.5 165.5,-231.5 165.5,-212.5 136.5,-212.5"/>
<text text-anchor="middle" x="151" y="-219.5" font-family="Helvetica,sans-Serif" font-size="10.00">T</text>
</a>
</g>
</g>
<!-- Node5&#45;&gt;Node4 -->
<g id="edge4" class="edge">
<title>Node5&#45;&gt;Node4</title>
<path fill="none" stroke="#9a32cd" stroke-dasharray="5,2" d="M151,-202.04C151,-189.67 151,-174.12 151,-164.63"/>
<polygon fill="#9a32cd" stroke="#9a32cd" points="147.5,-202.23 151,-212.23 154.5,-202.23 147.5,-202.23"/>
<text text-anchor="middle" x="158" y="-186" font-family="Helvetica,sans-Serif" font-size="10.00"> ptr</text>
</g>
<!-- Node6 -->
<g id="node6" class="node">
<title>Node6</title>
<g id="a_node6"><a xlink:href="classv8_1_1Isolate.html" target="_top" xlink:title=" ">
<polygon fill="white" stroke="black" points="218.5,-73 218.5,-92 279.5,-92 279.5,-73 218.5,-73"/>
<text text-anchor="middle" x="249" y="-80" font-family="Helvetica,sans-Serif" font-size="10.00">v8::Isolate</text>
</a>
</g>
</g>
<!-- Node6&#45;&gt;Node1 -->
<g id="edge5" class="edge">
<title>Node6&#45;&gt;Node1</title>
<path fill="none" stroke="#9a32cd" stroke-dasharray="5,2" d="M238.2,-64.36C231.98,-55.56 223.51,-45.22 214,-38 203.57,-30.09 190.47,-23.99 178.93,-19.61"/>
<polygon fill="#9a32cd" stroke="#9a32cd" points="235.35,-66.39 243.82,-72.76 241.17,-62.5 235.35,-66.39"/>
<text text-anchor="middle" x="250" y="-41" font-family="Helvetica,sans-Serif" font-size="10.00"> kNoIsolate</text>
</g>
</g>
</svg>
