<?xml version="1.0" encoding="UTF-8" standalone="no"?>
<!DOCTYPE svg PUBLIC "-//W3C//DTD SVG 1.1//EN"
 "http://www.w3.org/Graphics/SVG/1.1/DTD/svg11.dtd">
<!-- Generated by graphviz version 2.44.0 ()
 -->
<!-- Title: cppgc::internal::PersistentBase::GetValue Pages: 1 -->
<svg width="750pt" height="921pt"
 viewBox="0.00 0.00 750.00 921.00" xmlns="http://www.w3.org/2000/svg" xmlns:xlink="http://www.w3.org/1999/xlink">
<g id="graph0" class="graph" transform="scale(1 1) rotate(0) translate(4 917)">
<title>cppgc::internal::PersistentBase::GetValue</title>
<polygon fill="white" stroke="transparent" points="-4,4 -4,-917 746,-917 746,4 -4,4"/>
<!-- Node1 -->
<g id="node1" class="node">
<title>Node1</title>
<g id="a_node1"><a xlink:title=" ">
<polygon fill="#bfbfbf" stroke="black" points="614,-545.5 614,-575.5 742,-575.5 742,-545.5 614,-545.5"/>
<text text-anchor="start" x="622" y="-563.5" font-family="Helvetica,sans-Serif" font-size="10.00">cppgc::internal::Persistent</text>
<text text-anchor="middle" x="678" y="-552.5" font-family="Helvetica,sans-Serif" font-size="10.00">Base::GetValue</text>
</a>
</g>
</g>
<!-- Node2 -->
<g id="node2" class="node">
<title>Node2</title>
<g id="a_node2"><a xlink:href="classcppgc_1_1internal_1_1BasicPersistent.html#a0bd538038aa020da214af7fac0caf31c" target="_top" xlink:title=" ">
<polygon fill="white" stroke="black" points="202.5,-735.5 202.5,-765.5 354.5,-765.5 354.5,-735.5 202.5,-735.5"/>
<text text-anchor="start" x="210.5" y="-753.5" font-family="Helvetica,sans-Serif" font-size="10.00">cppgc::internal::BasicPersistent</text>
<text text-anchor="middle" x="278.5" y="-742.5" font-family="Helvetica,sans-Serif" font-size="10.00">::BasicPersistent</text>
</a>
</g>
</g>
<!-- Node1&#45;&gt;Node2 -->
<g id="edge1" class="edge">
<title>Node1&#45;&gt;Node2</title>
<path fill="none" stroke="midnightblue" d="M648.36,-581.6C628.98,-595.43 602.54,-613.49 578,-627.5 488.74,-678.45 465.47,-691.05 369,-726.5 360.24,-729.72 350.86,-732.71 341.58,-735.41"/>
<polygon fill="midnightblue" stroke="midnightblue" points="650.66,-584.25 656.73,-575.56 646.57,-578.57 650.66,-584.25"/>
</g>
<!-- Node3 -->
<g id="node3" class="node">
<title>Node3</title>
<g id="a_node3"><a xlink:href="classcppgc_1_1internal_1_1BasicCrossThreadPersistent.html#a4101c15a02138c88ea1d29ef95b10b34" target="_top" xlink:title=" ">
<polygon fill="white" stroke="black" points="424.5,-375.5 424.5,-405.5 558.5,-405.5 558.5,-375.5 424.5,-375.5"/>
<text text-anchor="start" x="432.5" y="-393.5" font-family="Helvetica,sans-Serif" font-size="10.00">cppgc::internal::BasicCross</text>
<text text-anchor="middle" x="491.5" y="-382.5" font-family="Helvetica,sans-Serif" font-size="10.00">ThreadPersistent::Clear</text>
</a>
</g>
</g>
<!-- Node1&#45;&gt;Node3 -->
<g id="edge2" class="edge">
<title>Node1&#45;&gt;Node3</title>
<path fill="none" stroke="midnightblue" d="M658.68,-537.61C639.72,-514.6 608.63,-478.72 578,-451.5 558.51,-434.18 534.12,-417.17 516.38,-405.54"/>
<polygon fill="midnightblue" stroke="midnightblue" points="656.06,-539.93 665.1,-545.47 661.49,-535.51 656.06,-539.93"/>
</g>
<!-- Node4 -->
<g id="node4" class="node">
<title>Node4</title>
<g id="a_node4"><a xlink:href="classcppgc_1_1internal_1_1BasicCrossThreadPersistent.html#a444de90db04aee7132566783b4a4113c" target="_top" xlink:title=" ">
<polygon fill="white" stroke="black" points="210,-402.5 210,-432.5 347,-432.5 347,-402.5 210,-402.5"/>
<text text-anchor="start" x="218" y="-420.5" font-family="Helvetica,sans-Serif" font-size="10.00">cppgc::internal::BasicCross</text>
<text text-anchor="middle" x="278.5" y="-409.5" font-family="Helvetica,sans-Serif" font-size="10.00">ThreadPersistent::operator=</text>
</a>
</g>
</g>
<!-- Node1&#45;&gt;Node4 -->
<g id="edge29" class="edge">
<title>Node1&#45;&gt;Node4</title>
<path fill="none" stroke="midnightblue" d="M631.38,-541.48C571.68,-516.95 463.51,-473.73 369,-442.5 358.58,-439.06 347.39,-435.68 336.56,-432.58"/>
<polygon fill="midnightblue" stroke="midnightblue" points="630.31,-544.83 640.89,-545.4 632.98,-538.35 630.31,-544.83"/>
</g>
<!-- Node7 -->
<g id="node7" class="node">
<title>Node7</title>
<g id="a_node7"><a xlink:href="classcppgc_1_1internal_1_1BasicPersistent.html#a74dde4359237ebdcc5056566265ad8be" target="_top" xlink:title=" ">
<polygon fill="white" stroke="black" points="415.5,-808.5 415.5,-838.5 567.5,-838.5 567.5,-808.5 415.5,-808.5"/>
<text text-anchor="start" x="423.5" y="-826.5" font-family="Helvetica,sans-Serif" font-size="10.00">cppgc::internal::BasicPersistent</text>
<text text-anchor="middle" x="491.5" y="-815.5" font-family="Helvetica,sans-Serif" font-size="10.00">::Clear</text>
</a>
</g>
</g>
<!-- Node1&#45;&gt;Node7 -->
<g id="edge6" class="edge">
<title>Node1&#45;&gt;Node7</title>
<path fill="none" stroke="midnightblue" d="M662.2,-584.49C643.33,-614.77 609.37,-668.27 578,-712.5 553.09,-747.62 521.76,-787.24 504.79,-808.35"/>
<polygon fill="midnightblue" stroke="midnightblue" points="665.25,-586.21 667.55,-575.87 659.3,-582.51 665.25,-586.21"/>
</g>
<!-- Node11 -->
<g id="node11" class="node">
<title>Node11</title>
<g id="a_node11"><a xlink:href="classcppgc_1_1internal_1_1BasicCrossThreadPersistent.html#a8df84a9926b1bc95c305c213d14508c9" target="_top" xlink:title=" ">
<polygon fill="white" stroke="black" points="424.5,-172.5 424.5,-202.5 558.5,-202.5 558.5,-172.5 424.5,-172.5"/>
<text text-anchor="start" x="432.5" y="-190.5" font-family="Helvetica,sans-Serif" font-size="10.00">cppgc::internal::BasicCross</text>
<text text-anchor="middle" x="491.5" y="-179.5" font-family="Helvetica,sans-Serif" font-size="10.00">ThreadPersistent::Get</text>
</a>
</g>
</g>
<!-- Node1&#45;&gt;Node11 -->
<g id="edge10" class="edge">
<title>Node1&#45;&gt;Node11</title>
<path fill="none" stroke="midnightblue" d="M665.06,-536.36C630.1,-465.68 528.61,-260.5 500.05,-202.77"/>
<polygon fill="midnightblue" stroke="midnightblue" points="661.97,-538 669.54,-545.42 668.24,-534.9 661.97,-538"/>
</g>
<!-- Node19 -->
<g id="node19" class="node">
<title>Node19</title>
<g id="a_node19"><a xlink:href="classcppgc_1_1internal_1_1BasicPersistent.html#aaa0404c10a8ef5c911e91ce92869db83" target="_top" xlink:title=" ">
<polygon fill="white" stroke="black" points="405,-599 405,-618 578,-618 578,-599 405,-599"/>
<text text-anchor="middle" x="491.5" y="-606" font-family="Helvetica,sans-Serif" font-size="10.00">cppgc::internal::BasicPersistent::Get</text>
</a>
</g>
</g>
<!-- Node1&#45;&gt;Node19 -->
<g id="edge19" class="edge">
<title>Node1&#45;&gt;Node19</title>
<path fill="none" stroke="midnightblue" d="M609.31,-578.11C582.25,-585.15 552.13,-592.99 529.26,-598.94"/>
<polygon fill="midnightblue" stroke="midnightblue" points="610.33,-581.46 619.13,-575.56 608.57,-574.69 610.33,-581.46"/>
</g>
<!-- Node3&#45;&gt;Node4 -->
<g id="edge3" class="edge">
<title>Node3&#45;&gt;Node4</title>
<path fill="none" stroke="midnightblue" d="M414.38,-400.24C392.44,-403.05 368.66,-406.09 347.27,-408.83"/>
<polygon fill="midnightblue" stroke="midnightblue" points="414.84,-403.71 424.32,-398.97 413.95,-396.77 414.84,-403.71"/>
</g>
<!-- Node5 -->
<g id="node5" class="node">
<title>Node5</title>
<g id="a_node5"><a xlink:href="classcppgc_1_1internal_1_1BasicCrossThreadPersistent.html#a6e20aaa3cf3d3867f6c12fa44b89b057" target="_top" xlink:title=" ">
<polygon fill="white" stroke="black" points="211.5,-294.5 211.5,-324.5 345.5,-324.5 345.5,-294.5 211.5,-294.5"/>
<text text-anchor="start" x="219.5" y="-312.5" font-family="Helvetica,sans-Serif" font-size="10.00">cppgc::internal::BasicCross</text>
<text text-anchor="middle" x="278.5" y="-301.5" font-family="Helvetica,sans-Serif" font-size="10.00">ThreadPersistent::Release</text>
</a>
</g>
</g>
<!-- Node3&#45;&gt;Node5 -->
<g id="edge4" class="edge">
<title>Node3&#45;&gt;Node5</title>
<path fill="none" stroke="midnightblue" d="M453.16,-370.88C429.49,-358.97 397.98,-344.09 369,-333.5 360.24,-330.3 350.85,-327.31 341.57,-324.62"/>
<polygon fill="midnightblue" stroke="midnightblue" points="451.64,-374.04 462.14,-375.44 454.81,-367.79 451.64,-374.04"/>
</g>
<!-- Node6 -->
<g id="node6" class="node">
<title>Node6</title>
<g id="a_node6"><a xlink:href="classcppgc_1_1internal_1_1BasicCrossThreadPersistent.html#a4a9f99e98580ac06fdcdfbab0eae4977" target="_top" xlink:title=" ">
<polygon fill="white" stroke="black" points="188,-343 188,-384 369,-384 369,-343 188,-343"/>
<text text-anchor="start" x="196" y="-372" font-family="Helvetica,sans-Serif" font-size="10.00">cppgc::internal::BasicCross</text>
<text text-anchor="start" x="196" y="-361" font-family="Helvetica,sans-Serif" font-size="10.00">ThreadPersistent::~BasicCrossThread</text>
<text text-anchor="middle" x="278.5" y="-350" font-family="Helvetica,sans-Serif" font-size="10.00">Persistent</text>
</a>
</g>
</g>
<!-- Node3&#45;&gt;Node6 -->
<g id="edge5" class="edge">
<title>Node3&#45;&gt;Node6</title>
<path fill="none" stroke="midnightblue" d="M414.3,-380.75C399.61,-378.87 384.1,-376.89 369.04,-374.96"/>
<polygon fill="midnightblue" stroke="midnightblue" points="413.95,-384.23 424.32,-382.03 414.84,-377.29 413.95,-384.23"/>
</g>
<!-- Node8 -->
<g id="node8" class="node">
<title>Node8</title>
<g id="a_node8"><a xlink:href="classcppgc_1_1internal_1_1BasicPersistent.html#a5b72d8de5df4821c169b2eb522a2d253" target="_top" xlink:title=" ">
<polygon fill="white" stroke="black" points="202.5,-833.5 202.5,-863.5 354.5,-863.5 354.5,-833.5 202.5,-833.5"/>
<text text-anchor="start" x="210.5" y="-851.5" font-family="Helvetica,sans-Serif" font-size="10.00">cppgc::internal::BasicPersistent</text>
<text text-anchor="middle" x="278.5" y="-840.5" font-family="Helvetica,sans-Serif" font-size="10.00">::operator=</text>
</a>
</g>
</g>
<!-- Node7&#45;&gt;Node8 -->
<g id="edge7" class="edge">
<title>Node7&#45;&gt;Node8</title>
<path fill="none" stroke="midnightblue" d="M404.97,-833.63C388.34,-835.6 371.02,-837.66 354.75,-839.58"/>
<polygon fill="midnightblue" stroke="midnightblue" points="405.7,-837.07 415.22,-832.42 404.88,-830.12 405.7,-837.07"/>
</g>
<!-- Node9 -->
<g id="node9" class="node">
<title>Node9</title>
<g id="a_node9"><a xlink:href="classcppgc_1_1internal_1_1BasicPersistent.html#a90d5684e32d8663a2a686331b7357402" target="_top" xlink:title=" ">
<polygon fill="white" stroke="black" points="202.5,-784.5 202.5,-814.5 354.5,-814.5 354.5,-784.5 202.5,-784.5"/>
<text text-anchor="start" x="210.5" y="-802.5" font-family="Helvetica,sans-Serif" font-size="10.00">cppgc::internal::BasicPersistent</text>
<text text-anchor="middle" x="278.5" y="-791.5" font-family="Helvetica,sans-Serif" font-size="10.00">::Release</text>
</a>
</g>
</g>
<!-- Node7&#45;&gt;Node9 -->
<g id="edge8" class="edge">
<title>Node7&#45;&gt;Node9</title>
<path fill="none" stroke="midnightblue" d="M404.97,-813.77C388.34,-811.88 371.02,-809.91 354.75,-808.06"/>
<polygon fill="midnightblue" stroke="midnightblue" points="404.89,-817.28 415.22,-814.94 405.68,-810.33 404.89,-817.28"/>
</g>
<!-- Node10 -->
<g id="node10" class="node">
<title>Node10</title>
<g id="a_node10"><a xlink:href="classcppgc_1_1internal_1_1BasicPersistent.html#a72c5fa34d75229671de4e28c2164434d" target="_top" xlink:title=" ">
<polygon fill="white" stroke="black" points="202.5,-882.5 202.5,-912.5 354.5,-912.5 354.5,-882.5 202.5,-882.5"/>
<text text-anchor="start" x="210.5" y="-900.5" font-family="Helvetica,sans-Serif" font-size="10.00">cppgc::internal::BasicPersistent</text>
<text text-anchor="middle" x="278.5" y="-889.5" font-family="Helvetica,sans-Serif" font-size="10.00">::~BasicPersistent</text>
</a>
</g>
</g>
<!-- Node7&#45;&gt;Node10 -->
<g id="edge9" class="edge">
<title>Node7&#45;&gt;Node10</title>
<path fill="none" stroke="midnightblue" d="M447.99,-842.57C424.89,-852.52 395.68,-864.47 369,-873.5 359.7,-876.64 349.76,-879.65 340,-882.41"/>
<polygon fill="midnightblue" stroke="midnightblue" points="449.38,-845.78 457.16,-838.58 446.59,-839.36 449.38,-845.78"/>
</g>
<!-- Node11&#45;&gt;Node5 -->
<g id="edge17" class="edge">
<title>Node11&#45;&gt;Node5</title>
<path fill="none" stroke="midnightblue" d="M468.71,-209.88C445.84,-232.14 407.85,-265.75 369,-285.5 361.69,-289.22 353.73,-292.41 345.69,-295.13"/>
<polygon fill="midnightblue" stroke="midnightblue" points="471.22,-212.32 475.87,-202.8 466.3,-207.34 471.22,-212.32"/>
</g>
<!-- Node12 -->
<g id="node12" class="node">
<title>Node12</title>
<g id="a_node12"><a xlink:href="classcppgc_1_1internal_1_1BasicCrossThreadPersistent.html#a84f83cc8d906976362b01e2549638d1b" target="_top" xlink:title=" ">
<polygon fill="white" stroke="black" points="203,-98.5 203,-128.5 354,-128.5 354,-98.5 203,-98.5"/>
<text text-anchor="start" x="211" y="-116.5" font-family="Helvetica,sans-Serif" font-size="10.00">cppgc::internal::BasicCross</text>
<text text-anchor="middle" x="278.5" y="-105.5" font-family="Helvetica,sans-Serif" font-size="10.00">ThreadPersistent::operator bool</text>
</a>
</g>
</g>
<!-- Node11&#45;&gt;Node12 -->
<g id="edge11" class="edge">
<title>Node11&#45;&gt;Node12</title>
<path fill="none" stroke="midnightblue" d="M446.61,-168.43C423.71,-158.83 395.1,-147.38 369,-138.5 358.77,-135.02 347.76,-131.65 337.08,-128.57"/>
<polygon fill="midnightblue" stroke="midnightblue" points="445.48,-171.75 456.06,-172.42 448.21,-165.3 445.48,-171.75"/>
</g>
<!-- Node13 -->
<g id="node13" class="node">
<title>Node13</title>
<g id="a_node13"><a xlink:href="classcppgc_1_1internal_1_1BasicCrossThreadPersistent.html#a1aec53f1cfad5e17e9eeec7b5dac1ac8" target="_top" xlink:title=" ">
<polygon fill="white" stroke="black" points="207,-49.5 207,-79.5 350,-79.5 350,-49.5 207,-49.5"/>
<text text-anchor="start" x="215" y="-67.5" font-family="Helvetica,sans-Serif" font-size="10.00">cppgc::internal::BasicCross</text>
<text text-anchor="middle" x="278.5" y="-56.5" font-family="Helvetica,sans-Serif" font-size="10.00">ThreadPersistent::operator T*</text>
</a>
</g>
</g>
<!-- Node11&#45;&gt;Node13 -->
<g id="edge12" class="edge">
<title>Node11&#45;&gt;Node13</title>
<path fill="none" stroke="midnightblue" d="M468.67,-165.21C445.76,-143.01 407.75,-109.45 369,-89.5 361.54,-85.66 353.42,-82.35 345.21,-79.51"/>
<polygon fill="midnightblue" stroke="midnightblue" points="466.26,-167.74 475.84,-172.26 471.17,-162.75 466.26,-167.74"/>
</g>
<!-- Node14 -->
<g id="node14" class="node">
<title>Node14</title>
<g id="a_node14"><a xlink:href="classcppgc_1_1internal_1_1BasicCrossThreadPersistent.html#a5222c8c62ffb482c011c701ef3860070" target="_top" xlink:title=" ">
<polygon fill="white" stroke="black" points="211.5,-0.5 211.5,-30.5 345.5,-30.5 345.5,-0.5 211.5,-0.5"/>
<text text-anchor="start" x="219.5" y="-18.5" font-family="Helvetica,sans-Serif" font-size="10.00">cppgc::internal::BasicCross</text>
<text text-anchor="middle" x="278.5" y="-7.5" font-family="Helvetica,sans-Serif" font-size="10.00">ThreadPersistent::operator*</text>
</a>
</g>
</g>
<!-- Node11&#45;&gt;Node14 -->
<g id="edge13" class="edge">
<title>Node11&#45;&gt;Node14</title>
<path fill="none" stroke="midnightblue" d="M477.13,-163.53C457.62,-130.8 418.27,-72.52 369,-40.5 361.83,-35.84 353.79,-32.04 345.55,-28.94"/>
<polygon fill="midnightblue" stroke="midnightblue" points="474.25,-165.55 482.31,-172.43 480.3,-162.03 474.25,-165.55"/>
</g>
<!-- Node15 -->
<g id="node15" class="node">
<title>Node15</title>
<g id="a_node15"><a xlink:href="classcppgc_1_1internal_1_1BasicCrossThreadPersistent.html#a158195be1c9b221dc5f0c97d86cdbe48" target="_top" xlink:title=" ">
<polygon fill="white" stroke="black" points="208.5,-245.5 208.5,-275.5 348.5,-275.5 348.5,-245.5 208.5,-245.5"/>
<text text-anchor="start" x="216.5" y="-263.5" font-family="Helvetica,sans-Serif" font-size="10.00">cppgc::internal::BasicCross</text>
<text text-anchor="middle" x="278.5" y="-252.5" font-family="Helvetica,sans-Serif" font-size="10.00">ThreadPersistent::operator&#45;&gt;</text>
</a>
</g>
</g>
<!-- Node11&#45;&gt;Node15 -->
<g id="edge14" class="edge">
<title>Node11&#45;&gt;Node15</title>
<path fill="none" stroke="midnightblue" d="M446.9,-206.58C423.97,-216.23 395.24,-227.73 369,-236.5 359.54,-239.66 349.41,-242.7 339.5,-245.49"/>
<polygon fill="midnightblue" stroke="midnightblue" points="448.51,-209.7 456.35,-202.57 445.78,-203.25 448.51,-209.7"/>
</g>
<!-- Node16 -->
<g id="node16" class="node">
<title>Node16</title>
<g id="a_node16"><a xlink:href="classcppgc_1_1internal_1_1BasicCrossThreadPersistent.html#a1179b3c5364c0cf7df8cd31f70b92d85" target="_top" xlink:title=" ">
<polygon fill="white" stroke="black" points="210,-196.5 210,-226.5 347,-226.5 347,-196.5 210,-196.5"/>
<text text-anchor="start" x="218" y="-214.5" font-family="Helvetica,sans-Serif" font-size="10.00">cppgc::internal::BasicCross</text>
<text text-anchor="middle" x="278.5" y="-203.5" font-family="Helvetica,sans-Serif" font-size="10.00">ThreadPersistent::operator=</text>
</a>
</g>
</g>
<!-- Node11&#45;&gt;Node16 -->
<g id="edge15" class="edge">
<title>Node11&#45;&gt;Node16</title>
<path fill="none" stroke="midnightblue" d="M414.09,-196.19C392.23,-198.68 368.57,-201.37 347.27,-203.79"/>
<polygon fill="midnightblue" stroke="midnightblue" points="414.78,-199.64 424.32,-195.03 413.99,-192.68 414.78,-199.64"/>
</g>
<!-- Node18 -->
<g id="node18" class="node">
<title>Node18</title>
<g id="a_node18"><a xlink:href="classcppgc_1_1internal_1_1BasicCrossThreadPersistent.html#a5ec4cdc7f82f0172bb03c46c22291bf0" target="_top" xlink:title=" ">
<polygon fill="white" stroke="black" points="211.5,-147.5 211.5,-177.5 345.5,-177.5 345.5,-147.5 211.5,-147.5"/>
<text text-anchor="start" x="219.5" y="-165.5" font-family="Helvetica,sans-Serif" font-size="10.00">cppgc::internal::BasicCross</text>
<text text-anchor="middle" x="278.5" y="-154.5" font-family="Helvetica,sans-Serif" font-size="10.00">ThreadPersistent::To</text>
</a>
</g>
</g>
<!-- Node11&#45;&gt;Node18 -->
<g id="edge18" class="edge">
<title>Node11&#45;&gt;Node18</title>
<path fill="none" stroke="midnightblue" d="M414.18,-178.46C391.8,-175.81 367.52,-172.93 345.81,-170.36"/>
<polygon fill="midnightblue" stroke="midnightblue" points="413.97,-181.96 424.32,-179.66 414.8,-175.01 413.97,-181.96"/>
</g>
<!-- Node17 -->
<g id="node17" class="node">
<title>Node17</title>
<g id="a_node17"><a xlink:href="classcppgc_1_1internal_1_1BasicCrossThreadPersistent.html#abd2b011af337c9ed478dfc015475018d" target="_top" xlink:title=" ">
<polygon fill="white" stroke="black" points="7.5,-196.5 7.5,-226.5 144.5,-226.5 144.5,-196.5 7.5,-196.5"/>
<text text-anchor="start" x="15.5" y="-214.5" font-family="Helvetica,sans-Serif" font-size="10.00">cppgc::internal::BasicCross</text>
<text text-anchor="middle" x="76" y="-203.5" font-family="Helvetica,sans-Serif" font-size="10.00">ThreadPersistent::operator=</text>
</a>
</g>
</g>
<!-- Node16&#45;&gt;Node17 -->
<g id="edge16" class="edge">
<title>Node16&#45;&gt;Node17</title>
<path fill="none" stroke="midnightblue" d="M199.65,-211.5C181.5,-211.5 162.31,-211.5 144.65,-211.5"/>
<polygon fill="midnightblue" stroke="midnightblue" points="199.9,-215 209.9,-211.5 199.9,-208 199.9,-215"/>
</g>
<!-- Node19&#45;&gt;Node2 -->
<g id="edge20" class="edge">
<title>Node19&#45;&gt;Node2</title>
<path fill="none" stroke="midnightblue" d="M470.74,-624.74C452.96,-639.66 426.41,-662.7 405,-684.5 387.77,-702.04 389.8,-713.4 369,-726.5 363.56,-729.93 357.63,-732.87 351.5,-735.4"/>
<polygon fill="midnightblue" stroke="midnightblue" points="473.26,-627.2 478.71,-618.11 468.78,-621.82 473.26,-627.2"/>
</g>
<!-- Node19&#45;&gt;Node9 -->
<g id="edge27" class="edge">
<title>Node19&#45;&gt;Node9</title>
<path fill="none" stroke="midnightblue" d="M481.95,-627.71C465.39,-662.68 425.51,-736.68 369,-775.5 363.96,-778.96 358.45,-781.92 352.71,-784.46"/>
<polygon fill="midnightblue" stroke="midnightblue" points="485.33,-628.74 486.34,-618.2 478.97,-625.81 485.33,-628.74"/>
</g>
<!-- Node20 -->
<g id="node20" class="node">
<title>Node20</title>
<g id="a_node20"><a xlink:href="classcppgc_1_1internal_1_1BasicPersistent.html#aa482ce311ee265edc2e0fa0133de8648" target="_top" xlink:title=" ">
<polygon fill="white" stroke="black" points="202.5,-549.5 202.5,-579.5 354.5,-579.5 354.5,-549.5 202.5,-549.5"/>
<text text-anchor="start" x="210.5" y="-567.5" font-family="Helvetica,sans-Serif" font-size="10.00">cppgc::internal::BasicPersistent</text>
<text text-anchor="middle" x="278.5" y="-556.5" font-family="Helvetica,sans-Serif" font-size="10.00">::operator bool</text>
</a>
</g>
</g>
<!-- Node19&#45;&gt;Node20 -->
<g id="edge21" class="edge">
<title>Node19&#45;&gt;Node20</title>
<path fill="none" stroke="midnightblue" d="M434.87,-596.9C409.42,-591.59 378.94,-585.24 351.75,-579.57"/>
<polygon fill="midnightblue" stroke="midnightblue" points="434.21,-600.34 444.72,-598.95 435.64,-593.48 434.21,-600.34"/>
</g>
<!-- Node21 -->
<g id="node21" class="node">
<title>Node21</title>
<g id="a_node21"><a xlink:href="classcppgc_1_1internal_1_1BasicPersistent.html#a5ef52055741895dd89ffc999f701bf2e" target="_top" xlink:title=" ">
<polygon fill="white" stroke="black" points="202.5,-500.5 202.5,-530.5 354.5,-530.5 354.5,-500.5 202.5,-500.5"/>
<text text-anchor="start" x="210.5" y="-518.5" font-family="Helvetica,sans-Serif" font-size="10.00">cppgc::internal::BasicPersistent</text>
<text text-anchor="middle" x="278.5" y="-507.5" font-family="Helvetica,sans-Serif" font-size="10.00">::operator T*</text>
</a>
</g>
</g>
<!-- Node19&#45;&gt;Node21 -->
<g id="edge22" class="edge">
<title>Node19&#45;&gt;Node21</title>
<path fill="none" stroke="midnightblue" d="M467.44,-593.4C443.6,-578.32 404.9,-555.31 369,-540.5 360.05,-536.81 350.38,-533.47 340.82,-530.53"/>
<polygon fill="midnightblue" stroke="midnightblue" points="465.8,-596.5 476.11,-598.95 469.57,-590.61 465.8,-596.5"/>
</g>
<!-- Node22 -->
<g id="node22" class="node">
<title>Node22</title>
<g id="a_node22"><a xlink:href="classcppgc_1_1internal_1_1BasicPersistent.html#a50295294d691b463d134b901900430c5" target="_top" xlink:title=" ">
<polygon fill="white" stroke="black" points="202.5,-451.5 202.5,-481.5 354.5,-481.5 354.5,-451.5 202.5,-451.5"/>
<text text-anchor="start" x="210.5" y="-469.5" font-family="Helvetica,sans-Serif" font-size="10.00">cppgc::internal::BasicPersistent</text>
<text text-anchor="middle" x="278.5" y="-458.5" font-family="Helvetica,sans-Serif" font-size="10.00">::operator*</text>
</a>
</g>
</g>
<!-- Node19&#45;&gt;Node22 -->
<g id="edge23" class="edge">
<title>Node19&#45;&gt;Node22</title>
<path fill="none" stroke="midnightblue" d="M477.07,-590.9C456.56,-565.24 414.93,-517.77 369,-491.5 362.28,-487.66 354.93,-484.37 347.43,-481.58"/>
<polygon fill="midnightblue" stroke="midnightblue" points="474.49,-593.29 483.42,-599 480,-588.97 474.49,-593.29"/>
</g>
<!-- Node23 -->
<g id="node23" class="node">
<title>Node23</title>
<g id="a_node23"><a xlink:href="classcppgc_1_1internal_1_1BasicPersistent.html#ad18c3c53d02d51ea3efe99171be45088" target="_top" xlink:title=" ">
<polygon fill="white" stroke="black" points="202.5,-686.5 202.5,-716.5 354.5,-716.5 354.5,-686.5 202.5,-686.5"/>
<text text-anchor="start" x="210.5" y="-704.5" font-family="Helvetica,sans-Serif" font-size="10.00">cppgc::internal::BasicPersistent</text>
<text text-anchor="middle" x="278.5" y="-693.5" font-family="Helvetica,sans-Serif" font-size="10.00">::operator&#45;&gt;</text>
</a>
</g>
</g>
<!-- Node19&#45;&gt;Node23 -->
<g id="edge24" class="edge">
<title>Node19&#45;&gt;Node23</title>
<path fill="none" stroke="midnightblue" d="M467.9,-623.67C444.14,-639.05 405.26,-662.63 369,-677.5 360.96,-680.8 352.33,-683.77 343.72,-686.41"/>
<polygon fill="midnightblue" stroke="midnightblue" points="470.07,-626.43 476.51,-618.02 466.23,-620.58 470.07,-626.43"/>
</g>
<!-- Node24 -->
<g id="node24" class="node">
<title>Node24</title>
<g id="a_node24"><a xlink:href="classcppgc_1_1internal_1_1BasicPersistent.html#adace5a81a02d2ff7fdf41fc64b800480" target="_top" xlink:title=" ">
<polygon fill="white" stroke="black" points="202.5,-637.5 202.5,-667.5 354.5,-667.5 354.5,-637.5 202.5,-637.5"/>
<text text-anchor="start" x="210.5" y="-655.5" font-family="Helvetica,sans-Serif" font-size="10.00">cppgc::internal::BasicPersistent</text>
<text text-anchor="middle" x="278.5" y="-644.5" font-family="Helvetica,sans-Serif" font-size="10.00">::operator=</text>
</a>
</g>
</g>
<!-- Node19&#45;&gt;Node24 -->
<g id="edge25" class="edge">
<title>Node19&#45;&gt;Node24</title>
<path fill="none" stroke="midnightblue" d="M434.87,-620.1C409.42,-625.41 378.94,-631.76 351.75,-637.43"/>
<polygon fill="midnightblue" stroke="midnightblue" points="435.64,-623.52 444.72,-618.05 434.21,-616.66 435.64,-623.52"/>
</g>
<!-- Node26 -->
<g id="node26" class="node">
<title>Node26</title>
<g id="a_node26"><a xlink:href="classcppgc_1_1internal_1_1BasicPersistent.html#a628a1ecf8ca2dc61ed6f886f78e311a9" target="_top" xlink:title=" ">
<polygon fill="white" stroke="black" points="194.5,-599 194.5,-618 362.5,-618 362.5,-599 194.5,-599"/>
<text text-anchor="middle" x="278.5" y="-606" font-family="Helvetica,sans-Serif" font-size="10.00">cppgc::internal::BasicPersistent::To</text>
</a>
</g>
</g>
<!-- Node19&#45;&gt;Node26 -->
<g id="edge28" class="edge">
<title>Node19&#45;&gt;Node26</title>
<path fill="none" stroke="midnightblue" d="M394.79,-608.5C384.09,-608.5 373.26,-608.5 362.74,-608.5"/>
<polygon fill="midnightblue" stroke="midnightblue" points="394.98,-612 404.98,-608.5 394.98,-605 394.98,-612"/>
</g>
<!-- Node25 -->
<g id="node25" class="node">
<title>Node25</title>
<g id="a_node25"><a xlink:href="classcppgc_1_1internal_1_1BasicPersistent.html#a34c39e9fc9dc5eeb72b7217f3864b1ef" target="_top" xlink:title=" ">
<polygon fill="white" stroke="black" points="0,-637.5 0,-667.5 152,-667.5 152,-637.5 0,-637.5"/>
<text text-anchor="start" x="8" y="-655.5" font-family="Helvetica,sans-Serif" font-size="10.00">cppgc::internal::BasicPersistent</text>
<text text-anchor="middle" x="76" y="-644.5" font-family="Helvetica,sans-Serif" font-size="10.00">::operator=</text>
</a>
</g>
</g>
<!-- Node24&#45;&gt;Node25 -->
<g id="edge26" class="edge">
<title>Node24&#45;&gt;Node25</title>
<path fill="none" stroke="midnightblue" d="M192.22,-652.5C178.95,-652.5 165.34,-652.5 152.32,-652.5"/>
<polygon fill="midnightblue" stroke="midnightblue" points="192.27,-656 202.27,-652.5 192.27,-649 192.27,-656"/>
</g>
</g>
</svg>
