<?xml version="1.0" encoding="UTF-8" standalone="no"?>
<!DOCTYPE svg PUBLIC "-//W3C//DTD SVG 1.1//EN"
 "http://www.w3.org/Graphics/SVG/1.1/DTD/svg11.dtd">
<!-- Generated by graphviz version 2.44.0 ()
 -->
<!-- Title: cppgc::internal::BasicPersistent::Get Pages: 1 -->
<svg width="573pt" height="372pt"
 viewBox="0.00 0.00 573.00 371.50" xmlns="http://www.w3.org/2000/svg" xmlns:xlink="http://www.w3.org/1999/xlink">
<g id="graph0" class="graph" transform="scale(1 1) rotate(0) translate(4 367.5)">
<title>cppgc::internal::BasicPersistent::Get</title>
<polygon fill="white" stroke="transparent" points="-4,4 -4,-367.5 569,-367.5 569,4 -4,4"/>
<!-- Node1 -->
<g id="node1" class="node">
<title>Node1</title>
<g id="a_node1"><a xlink:title=" ">
<polygon fill="#bfbfbf" stroke="black" points="392,-166.5 392,-185.5 565,-185.5 565,-166.5 392,-166.5"/>
<text text-anchor="middle" x="478.5" y="-173.5" font-family="Helvetica,sans-Serif" font-size="10.00">cppgc::internal::BasicPersistent::Get</text>
</a>
</g>
</g>
<!-- Node2 -->
<g id="node2" class="node">
<title>Node2</title>
<g id="a_node2"><a xlink:href="classcppgc_1_1internal_1_1BasicPersistent.html#a0bd538038aa020da214af7fac0caf31c" target="_top" xlink:title=" ">
<polygon fill="white" stroke="black" points="196,-333 196,-363 348,-363 348,-333 196,-333"/>
<text text-anchor="start" x="204" y="-351" font-family="Helvetica,sans-Serif" font-size="10.00">cppgc::internal::BasicPersistent</text>
<text text-anchor="middle" x="272" y="-340" font-family="Helvetica,sans-Serif" font-size="10.00">::BasicPersistent</text>
</a>
</g>
</g>
<!-- Node1&#45;&gt;Node2 -->
<g id="edge1" class="edge">
<title>Node1&#45;&gt;Node2</title>
<path fill="none" stroke="midnightblue" d="M467.29,-194.66C449.12,-226.13 408.11,-289.68 356,-324 350.74,-327.47 344.97,-330.44 339,-332.99"/>
<polygon fill="midnightblue" stroke="midnightblue" points="470.51,-196.08 472.38,-185.65 464.42,-192.64 470.51,-196.08"/>
</g>
<!-- Node3 -->
<g id="node3" class="node">
<title>Node3</title>
<g id="a_node3"><a xlink:href="classcppgc_1_1internal_1_1BasicPersistent.html#aa482ce311ee265edc2e0fa0133de8648" target="_top" xlink:title=" ">
<polygon fill="white" stroke="black" points="196,-284 196,-314 348,-314 348,-284 196,-284"/>
<text text-anchor="start" x="204" y="-302" font-family="Helvetica,sans-Serif" font-size="10.00">cppgc::internal::BasicPersistent</text>
<text text-anchor="middle" x="272" y="-291" font-family="Helvetica,sans-Serif" font-size="10.00">::operator bool</text>
</a>
</g>
</g>
<!-- Node1&#45;&gt;Node3 -->
<g id="edge2" class="edge">
<title>Node1&#45;&gt;Node3</title>
<path fill="none" stroke="midnightblue" d="M461.21,-192.99C439.26,-214.94 398.07,-252.96 356,-275 349.49,-278.41 342.43,-281.4 335.27,-283.99"/>
<polygon fill="midnightblue" stroke="midnightblue" points="463.87,-195.27 468.39,-185.69 458.88,-190.36 463.87,-195.27"/>
</g>
<!-- Node4 -->
<g id="node4" class="node">
<title>Node4</title>
<g id="a_node4"><a xlink:href="classcppgc_1_1internal_1_1BasicPersistent.html#a5ef52055741895dd89ffc999f701bf2e" target="_top" xlink:title=" ">
<polygon fill="white" stroke="black" points="196,-235 196,-265 348,-265 348,-235 196,-235"/>
<text text-anchor="start" x="204" y="-253" font-family="Helvetica,sans-Serif" font-size="10.00">cppgc::internal::BasicPersistent</text>
<text text-anchor="middle" x="272" y="-242" font-family="Helvetica,sans-Serif" font-size="10.00">::operator T*</text>
</a>
</g>
</g>
<!-- Node1&#45;&gt;Node4 -->
<g id="edge3" class="edge">
<title>Node1&#45;&gt;Node4</title>
<path fill="none" stroke="midnightblue" d="M446.84,-189.7C422.49,-200.32 387.42,-215.03 356,-226 347.08,-229.12 337.52,-232.15 328.18,-234.96"/>
<polygon fill="midnightblue" stroke="midnightblue" points="448.51,-192.79 456.26,-185.57 445.7,-186.38 448.51,-192.79"/>
</g>
<!-- Node5 -->
<g id="node5" class="node">
<title>Node5</title>
<g id="a_node5"><a xlink:href="classcppgc_1_1internal_1_1BasicPersistent.html#a50295294d691b463d134b901900430c5" target="_top" xlink:title=" ">
<polygon fill="white" stroke="black" points="196,-186 196,-216 348,-216 348,-186 196,-186"/>
<text text-anchor="start" x="204" y="-204" font-family="Helvetica,sans-Serif" font-size="10.00">cppgc::internal::BasicPersistent</text>
<text text-anchor="middle" x="272" y="-193" font-family="Helvetica,sans-Serif" font-size="10.00">::operator*</text>
</a>
</g>
</g>
<!-- Node1&#45;&gt;Node5 -->
<g id="edge4" class="edge">
<title>Node1&#45;&gt;Node5</title>
<path fill="none" stroke="midnightblue" d="M389.66,-186.74C375.89,-188.42 361.77,-190.15 348.32,-191.79"/>
<polygon fill="midnightblue" stroke="midnightblue" points="390.1,-190.21 399.6,-185.52 389.25,-183.26 390.1,-190.21"/>
</g>
<!-- Node6 -->
<g id="node6" class="node">
<title>Node6</title>
<g id="a_node6"><a xlink:href="classcppgc_1_1internal_1_1BasicPersistent.html#ad18c3c53d02d51ea3efe99171be45088" target="_top" xlink:title=" ">
<polygon fill="white" stroke="black" points="196,-137 196,-167 348,-167 348,-137 196,-137"/>
<text text-anchor="start" x="204" y="-155" font-family="Helvetica,sans-Serif" font-size="10.00">cppgc::internal::BasicPersistent</text>
<text text-anchor="middle" x="272" y="-144" font-family="Helvetica,sans-Serif" font-size="10.00">::operator&#45;&gt;</text>
</a>
</g>
</g>
<!-- Node1&#45;&gt;Node6 -->
<g id="edge5" class="edge">
<title>Node1&#45;&gt;Node6</title>
<path fill="none" stroke="midnightblue" d="M386.21,-165.29C373.45,-163.79 360.45,-162.26 348.04,-160.81"/>
<polygon fill="midnightblue" stroke="midnightblue" points="386.04,-168.79 396.38,-166.48 386.86,-161.84 386.04,-168.79"/>
</g>
<!-- Node7 -->
<g id="node7" class="node">
<title>Node7</title>
<g id="a_node7"><a xlink:href="classcppgc_1_1internal_1_1BasicPersistent.html#adace5a81a02d2ff7fdf41fc64b800480" target="_top" xlink:title=" ">
<polygon fill="white" stroke="black" points="196,-88 196,-118 348,-118 348,-88 196,-88"/>
<text text-anchor="start" x="204" y="-106" font-family="Helvetica,sans-Serif" font-size="10.00">cppgc::internal::BasicPersistent</text>
<text text-anchor="middle" x="272" y="-95" font-family="Helvetica,sans-Serif" font-size="10.00">::operator=</text>
</a>
</g>
</g>
<!-- Node1&#45;&gt;Node7 -->
<g id="edge6" class="edge">
<title>Node1&#45;&gt;Node7</title>
<path fill="none" stroke="midnightblue" d="M445.42,-162.48C421.08,-152.42 386.69,-138.66 356,-128 346.19,-124.59 335.64,-121.2 325.46,-118.08"/>
<polygon fill="midnightblue" stroke="midnightblue" points="444.29,-165.8 454.87,-166.4 446.98,-159.33 444.29,-165.8"/>
</g>
<!-- Node9 -->
<g id="node9" class="node">
<title>Node9</title>
<g id="a_node9"><a xlink:href="classcppgc_1_1internal_1_1BasicPersistent.html#a90d5684e32d8663a2a686331b7357402" target="_top" xlink:title=" ">
<polygon fill="white" stroke="black" points="196,-39 196,-69 348,-69 348,-39 196,-39"/>
<text text-anchor="start" x="204" y="-57" font-family="Helvetica,sans-Serif" font-size="10.00">cppgc::internal::BasicPersistent</text>
<text text-anchor="middle" x="272" y="-46" font-family="Helvetica,sans-Serif" font-size="10.00">::Release</text>
</a>
</g>
</g>
<!-- Node1&#45;&gt;Node9 -->
<g id="edge8" class="edge">
<title>Node1&#45;&gt;Node9</title>
<path fill="none" stroke="midnightblue" d="M460.76,-159.11C438.62,-137.65 397.51,-100.78 356,-79 348.8,-75.22 340.95,-71.93 333.04,-69.08"/>
<polygon fill="midnightblue" stroke="midnightblue" points="458.45,-161.75 468.03,-166.27 463.36,-156.76 458.45,-161.75"/>
</g>
<!-- Node10 -->
<g id="node10" class="node">
<title>Node10</title>
<g id="a_node10"><a xlink:href="classcppgc_1_1internal_1_1BasicPersistent.html#a628a1ecf8ca2dc61ed6f886f78e311a9" target="_top" xlink:title=" ">
<polygon fill="white" stroke="black" points="188,-0.5 188,-19.5 356,-19.5 356,-0.5 188,-0.5"/>
<text text-anchor="middle" x="272" y="-7.5" font-family="Helvetica,sans-Serif" font-size="10.00">cppgc::internal::BasicPersistent::To</text>
</a>
</g>
</g>
<!-- Node1&#45;&gt;Node10 -->
<g id="edge9" class="edge">
<title>Node1&#45;&gt;Node10</title>
<path fill="none" stroke="midnightblue" d="M467.39,-157.34C449.35,-125.93 408.55,-62.7 356,-30 348.95,-25.61 341.02,-22.19 332.92,-19.52"/>
<polygon fill="midnightblue" stroke="midnightblue" points="464.49,-159.33 472.43,-166.35 470.6,-155.91 464.49,-159.33"/>
</g>
<!-- Node8 -->
<g id="node8" class="node">
<title>Node8</title>
<g id="a_node8"><a xlink:href="classcppgc_1_1internal_1_1BasicPersistent.html#a34c39e9fc9dc5eeb72b7217f3864b1ef" target="_top" xlink:title=" ">
<polygon fill="white" stroke="black" points="0,-88 0,-118 152,-118 152,-88 0,-88"/>
<text text-anchor="start" x="8" y="-106" font-family="Helvetica,sans-Serif" font-size="10.00">cppgc::internal::BasicPersistent</text>
<text text-anchor="middle" x="76" y="-95" font-family="Helvetica,sans-Serif" font-size="10.00">::operator=</text>
</a>
</g>
</g>
<!-- Node7&#45;&gt;Node8 -->
<g id="edge7" class="edge">
<title>Node7&#45;&gt;Node8</title>
<path fill="none" stroke="midnightblue" d="M185.78,-103C174.57,-103 163.15,-103 152.13,-103"/>
<polygon fill="midnightblue" stroke="midnightblue" points="185.99,-106.5 195.99,-103 185.99,-99.5 185.99,-106.5"/>
</g>
</g>
</svg>
