<?xml version="1.0" encoding="UTF-8" standalone="no"?>
<!DOCTYPE svg PUBLIC "-//W3C//DTD SVG 1.1//EN"
 "http://www.w3.org/Graphics/SVG/1.1/DTD/svg11.dtd">
<!-- Generated by graphviz version 2.44.0 ()
 -->
<!-- Title: include/cppgc/cross&#45;thread&#45;persistent.h Pages: 1 -->
<svg width="1861pt" height="643pt"
 viewBox="0.00 0.00 1861.00 643.00" xmlns="http://www.w3.org/2000/svg" xmlns:xlink="http://www.w3.org/1999/xlink">
<g id="graph0" class="graph" transform="scale(1 1) rotate(0) translate(4 639)">
<title>include/cppgc/cross&#45;thread&#45;persistent.h</title>
<polygon fill="white" stroke="transparent" points="-4,4 -4,-639 1857,-639 1857,4 -4,4"/>
<!-- Node1 -->
<g id="node1" class="node">
<title>Node1</title>
<g id="a_node1"><a xlink:title=" ">
<polygon fill="#bfbfbf" stroke="black" points="238,-604.5 238,-634.5 342,-634.5 342,-604.5 238,-604.5"/>
<text text-anchor="start" x="246" y="-622.5" font-family="Helvetica,sans-Serif" font-size="10.00">include/cppgc/cross</text>
<text text-anchor="middle" x="290" y="-611.5" font-family="Helvetica,sans-Serif" font-size="10.00">&#45;thread&#45;persistent.h</text>
</a>
</g>
</g>
<!-- Node2 -->
<g id="node2" class="node">
<title>Node2</title>
<g id="a_node2"><a xlink:title=" ">
<polygon fill="white" stroke="#bfbfbf" points="232,-0.5 232,-19.5 278,-19.5 278,-0.5 232,-0.5"/>
<text text-anchor="middle" x="255" y="-7.5" font-family="Helvetica,sans-Serif" font-size="10.00">atomic</text>
</a>
</g>
</g>
<!-- Node1&#45;&gt;Node2 -->
<g id="edge1" class="edge">
<title>Node1&#45;&gt;Node2</title>
<path fill="none" stroke="midnightblue" d="M237.79,-613.53C192.44,-607.56 126.05,-594.78 74,-568 35.08,-547.97 0,-546.77 0,-503 0,-503 0,-503 0,-137.5 0,-39.69 152.41,-17.51 221.57,-12.48"/>
<polygon fill="midnightblue" stroke="midnightblue" points="222.17,-15.95 231.92,-11.81 221.72,-8.96 222.17,-15.95"/>
</g>
<!-- Node3 -->
<g id="node3" class="node">
<title>Node3</title>
<g id="a_node3"><a xlink:href="persistent-node_8h.html" target="_top" xlink:title=" ">
<polygon fill="white" stroke="black" points="556.5,-257.5 556.5,-287.5 679.5,-287.5 679.5,-257.5 556.5,-257.5"/>
<text text-anchor="start" x="564.5" y="-275.5" font-family="Helvetica,sans-Serif" font-size="10.00">cppgc/internal/persistent</text>
<text text-anchor="middle" x="618" y="-264.5" font-family="Helvetica,sans-Serif" font-size="10.00">&#45;node.h</text>
</a>
</g>
</g>
<!-- Node1&#45;&gt;Node3 -->
<g id="edge2" class="edge">
<title>Node1&#45;&gt;Node3</title>
<path fill="none" stroke="midnightblue" d="M290,-604.28C290,-582.48 290,-539.49 290,-503 290,-503 290,-503 290,-389 290,-335.06 449.78,-300.15 546.31,-283.98"/>
<polygon fill="midnightblue" stroke="midnightblue" points="547.01,-287.42 556.31,-282.34 545.87,-280.51 547.01,-287.42"/>
</g>
<!-- Node14 -->
<g id="node14" class="node">
<title>Node14</title>
<g id="a_node14"><a xlink:href="pointer-policies_8h.html" target="_top" xlink:title=" ">
<polygon fill="white" stroke="black" points="354,-257.5 354,-287.5 464,-287.5 464,-257.5 354,-257.5"/>
<text text-anchor="start" x="362" y="-275.5" font-family="Helvetica,sans-Serif" font-size="10.00">cppgc/internal/pointer</text>
<text text-anchor="middle" x="409" y="-264.5" font-family="Helvetica,sans-Serif" font-size="10.00">&#45;policies.h</text>
</a>
</g>
</g>
<!-- Node1&#45;&gt;Node14 -->
<g id="edge17" class="edge">
<title>Node1&#45;&gt;Node14</title>
<path fill="none" stroke="midnightblue" d="M237.98,-614.7C170.69,-606.62 62,-581.43 62,-503 62,-503 62,-503 62,-389 62,-330.3 243.02,-296.14 343.57,-281.7"/>
<polygon fill="midnightblue" stroke="midnightblue" points="344.22,-285.14 353.63,-280.28 343.24,-278.21 344.22,-285.14"/>
</g>
<!-- Node24 -->
<g id="node24" class="node">
<title>Node24</title>
<g id="a_node24"><a xlink:href="persistent_8h.html" target="_top" xlink:title=" ">
<polygon fill="white" stroke="black" points="570,-548.5 570,-567.5 666,-567.5 666,-548.5 570,-548.5"/>
<text text-anchor="middle" x="618" y="-555.5" font-family="Helvetica,sans-Serif" font-size="10.00">cppgc/persistent.h</text>
</a>
</g>
</g>
<!-- Node1&#45;&gt;Node24 -->
<g id="edge37" class="edge">
<title>Node1&#45;&gt;Node24</title>
<path fill="none" stroke="midnightblue" d="M342.34,-609.01C402.04,-598.18 499.36,-580.52 560.96,-569.35"/>
<polygon fill="midnightblue" stroke="midnightblue" points="561.69,-572.77 570.9,-567.54 560.44,-565.88 561.69,-572.77"/>
</g>
<!-- Node25 -->
<g id="node25" class="node">
<title>Node25</title>
<g id="a_node25"><a xlink:href="visitor_8h.html" target="_top" xlink:title=" ">
<polygon fill="white" stroke="black" points="977,-492.5 977,-511.5 1057,-511.5 1057,-492.5 977,-492.5"/>
<text text-anchor="middle" x="1017" y="-499.5" font-family="Helvetica,sans-Serif" font-size="10.00">cppgc/visitor.h</text>
</a>
</g>
</g>
<!-- Node1&#45;&gt;Node25 -->
<g id="edge90" class="edge">
<title>Node1&#45;&gt;Node25</title>
<path fill="none" stroke="midnightblue" d="M342.13,-612.62C416.28,-604.05 556.35,-587.04 675,-568 779.08,-551.3 900.09,-527.18 966.65,-513.51"/>
<polygon fill="midnightblue" stroke="midnightblue" points="967.77,-516.85 976.86,-511.4 966.35,-509.99 967.77,-516.85"/>
</g>
<!-- Node4 -->
<g id="node4" class="node">
<title>Node4</title>
<g id="a_node4"><a xlink:title=" ">
<polygon fill="white" stroke="#bfbfbf" points="318,-196 318,-215 356,-215 356,-196 318,-196"/>
<text text-anchor="middle" x="337" y="-203" font-family="Helvetica,sans-Serif" font-size="10.00">array</text>
</a>
</g>
</g>
<!-- Node3&#45;&gt;Node4 -->
<g id="edge3" class="edge">
<title>Node3&#45;&gt;Node4</title>
<path fill="none" stroke="midnightblue" d="M556.43,-262.71C505.68,-254.58 432.19,-240.75 370,-221 368.08,-220.39 366.11,-219.7 364.15,-218.97"/>
<polygon fill="midnightblue" stroke="midnightblue" points="365.12,-215.58 354.54,-215.04 362.47,-222.06 365.12,-215.58"/>
</g>
<!-- Node5 -->
<g id="node5" class="node">
<title>Node5</title>
<g id="a_node5"><a xlink:title=" ">
<polygon fill="white" stroke="#bfbfbf" points="1102.5,-62 1102.5,-81 1153.5,-81 1153.5,-62 1102.5,-62"/>
<text text-anchor="middle" x="1128" y="-69" font-family="Helvetica,sans-Serif" font-size="10.00">memory</text>
</a>
</g>
</g>
<!-- Node3&#45;&gt;Node5 -->
<g id="edge4" class="edge">
<title>Node3&#45;&gt;Node5</title>
<path fill="none" stroke="midnightblue" d="M617.71,-257.34C618.11,-239.53 621.42,-208.98 638,-190 698.45,-120.8 989.63,-86.05 1092.17,-75.81"/>
<polygon fill="midnightblue" stroke="midnightblue" points="1092.72,-79.27 1102.33,-74.81 1092.04,-72.3 1092.72,-79.27"/>
</g>
<!-- Node6 -->
<g id="node6" class="node">
<title>Node6</title>
<g id="a_node6"><a xlink:title=" ">
<polygon fill="white" stroke="#bfbfbf" points="822,-196 822,-215 866,-215 866,-196 822,-196"/>
<text text-anchor="middle" x="844" y="-203" font-family="Helvetica,sans-Serif" font-size="10.00">vector</text>
</a>
</g>
</g>
<!-- Node3&#45;&gt;Node6 -->
<g id="edge5" class="edge">
<title>Node3&#45;&gt;Node6</title>
<path fill="none" stroke="midnightblue" d="M666.76,-257.48C710.65,-244.85 773.89,-226.66 811.77,-215.77"/>
<polygon fill="midnightblue" stroke="midnightblue" points="813.1,-219.03 821.74,-212.9 811.16,-212.3 813.1,-219.03"/>
</g>
<!-- Node7 -->
<g id="node7" class="node">
<title>Node7</title>
<g id="a_node7"><a xlink:href="logging_8h.html" target="_top" xlink:title=" ">
<polygon fill="white" stroke="black" points="646.5,-196 646.5,-215 765.5,-215 765.5,-196 646.5,-196"/>
<text text-anchor="middle" x="706" y="-203" font-family="Helvetica,sans-Serif" font-size="10.00">cppgc/internal/logging.h</text>
</a>
</g>
</g>
<!-- Node3&#45;&gt;Node7 -->
<g id="edge6" class="edge">
<title>Node3&#45;&gt;Node7</title>
<path fill="none" stroke="midnightblue" d="M637.09,-257.4C651.58,-246.7 671.43,-232.03 686.11,-221.19"/>
<polygon fill="midnightblue" stroke="midnightblue" points="688.52,-223.76 694.48,-215.01 684.36,-218.13 688.52,-223.76"/>
</g>
<!-- Node10 -->
<g id="node10" class="node">
<title>Node10</title>
<g id="a_node10"><a xlink:href="v8config_8h.html" target="_top" xlink:title=" ">
<polygon fill="white" stroke="black" points="783,-62 783,-81 843,-81 843,-62 783,-62"/>
<text text-anchor="middle" x="813" y="-69" font-family="Helvetica,sans-Serif" font-size="10.00">v8config.h</text>
</a>
</g>
</g>
<!-- Node3&#45;&gt;Node10 -->
<g id="edge16" class="edge">
<title>Node3&#45;&gt;Node10</title>
<path fill="none" stroke="midnightblue" d="M556.23,-260.93C496.49,-250.07 413.58,-233.1 404,-221 395.45,-210.2 398.25,-202.52 404,-190 406.38,-184.81 476.81,-125.38 482,-123 579.33,-78.3 708.01,-71.78 772.5,-71.64"/>
<polygon fill="midnightblue" stroke="midnightblue" points="772.65,-75.14 782.66,-71.67 772.67,-68.14 772.65,-75.14"/>
</g>
<!-- Node11 -->
<g id="node11" class="node">
<title>Node11</title>
<g id="a_node11"><a xlink:href="trace-trait_8h.html" target="_top" xlink:title=" ">
<polygon fill="white" stroke="black" points="1501.5,-129 1501.5,-148 1596.5,-148 1596.5,-129 1501.5,-129"/>
<text text-anchor="middle" x="1549" y="-136" font-family="Helvetica,sans-Serif" font-size="10.00">cppgc/trace&#45;trait.h</text>
</a>
</g>
</g>
<!-- Node3&#45;&gt;Node11 -->
<g id="edge11" class="edge">
<title>Node3&#45;&gt;Node11</title>
<path fill="none" stroke="midnightblue" d="M679.72,-258.74C765.89,-241.27 927.29,-209.83 1066,-190 1218.62,-168.19 1257.67,-170.05 1411,-154 1437.43,-151.23 1466.7,-148.16 1491.46,-145.55"/>
<polygon fill="midnightblue" stroke="midnightblue" points="1491.84,-149.03 1501.42,-144.51 1491.11,-142.07 1491.84,-149.03"/>
</g>
<!-- Node8 -->
<g id="node8" class="node">
<title>Node8</title>
<g id="a_node8"><a xlink:href="source-location_8h.html" target="_top" xlink:title=" ">
<polygon fill="white" stroke="black" points="816.5,-129 816.5,-148 935.5,-148 935.5,-129 816.5,-129"/>
<text text-anchor="middle" x="876" y="-136" font-family="Helvetica,sans-Serif" font-size="10.00">cppgc/source&#45;location.h</text>
</a>
</g>
</g>
<!-- Node7&#45;&gt;Node8 -->
<g id="edge7" class="edge">
<title>Node7&#45;&gt;Node8</title>
<path fill="none" stroke="midnightblue" d="M728.57,-195.87C758.25,-184.52 810.55,-164.52 844.22,-151.65"/>
<polygon fill="midnightblue" stroke="midnightblue" points="845.51,-154.9 853.6,-148.06 843.01,-148.37 845.51,-154.9"/>
</g>
<!-- Node7&#45;&gt;Node10 -->
<g id="edge10" class="edge">
<title>Node7&#45;&gt;Node10</title>
<path fill="none" stroke="midnightblue" d="M707.35,-195.77C710.2,-179.82 718.08,-145.55 736,-123 748.72,-106.99 767.95,-94.38 784.01,-85.76"/>
<polygon fill="midnightblue" stroke="midnightblue" points="785.72,-88.81 793.03,-81.15 782.53,-82.58 785.72,-88.81"/>
</g>
<!-- Node9 -->
<g id="node9" class="node">
<title>Node9</title>
<g id="a_node9"><a xlink:title=" ">
<polygon fill="white" stroke="#bfbfbf" points="1171.5,-62 1171.5,-81 1212.5,-81 1212.5,-62 1171.5,-62"/>
<text text-anchor="middle" x="1192" y="-69" font-family="Helvetica,sans-Serif" font-size="10.00">string</text>
</a>
</g>
</g>
<!-- Node8&#45;&gt;Node9 -->
<g id="edge8" class="edge">
<title>Node8&#45;&gt;Node9</title>
<path fill="none" stroke="midnightblue" d="M935.77,-132.08C994.69,-125.55 1086.74,-112.18 1163,-87 1164.62,-86.47 1166.26,-85.86 1167.89,-85.19"/>
<polygon fill="midnightblue" stroke="midnightblue" points="1169.36,-88.37 1177,-81.03 1166.45,-82 1169.36,-88.37"/>
</g>
<!-- Node8&#45;&gt;Node10 -->
<g id="edge9" class="edge">
<title>Node8&#45;&gt;Node10</title>
<path fill="none" stroke="midnightblue" d="M867.5,-128.73C857.49,-118.4 840.66,-101.04 828.34,-88.33"/>
<polygon fill="midnightblue" stroke="midnightblue" points="830.83,-85.87 821.36,-81.13 825.81,-90.74 830.83,-85.87"/>
</g>
<!-- Node11&#45;&gt;Node10 -->
<g id="edge15" class="edge">
<title>Node11&#45;&gt;Node10</title>
<path fill="none" stroke="midnightblue" d="M1501.44,-132.26C1474.85,-129.39 1441.1,-125.85 1411,-123 1201.3,-103.13 949.86,-83.15 853.38,-75.62"/>
<polygon fill="midnightblue" stroke="midnightblue" points="853.44,-72.12 843.2,-74.83 852.9,-79.1 853.44,-72.12"/>
</g>
<!-- Node12 -->
<g id="node12" class="node">
<title>Node12</title>
<g id="a_node12"><a xlink:title=" ">
<polygon fill="white" stroke="#bfbfbf" points="1565,-0.5 1565,-19.5 1627,-19.5 1627,-0.5 1565,-0.5"/>
<text text-anchor="middle" x="1596" y="-7.5" font-family="Helvetica,sans-Serif" font-size="10.00">type_traits</text>
</a>
</g>
</g>
<!-- Node11&#45;&gt;Node12 -->
<g id="edge12" class="edge">
<title>Node11&#45;&gt;Node12</title>
<path fill="none" stroke="midnightblue" d="M1552.23,-128.81C1559.81,-108.4 1578.87,-57.1 1589.16,-29.41"/>
<polygon fill="midnightblue" stroke="midnightblue" points="1592.54,-30.35 1592.75,-19.76 1585.98,-27.91 1592.54,-30.35"/>
</g>
<!-- Node13 -->
<g id="node13" class="node">
<title>Node13</title>
<g id="a_node13"><a xlink:href="type-traits_8h.html" target="_top" xlink:title=" ">
<polygon fill="white" stroke="black" points="1672,-62 1672,-81 1768,-81 1768,-62 1672,-62"/>
<text text-anchor="middle" x="1720" y="-69" font-family="Helvetica,sans-Serif" font-size="10.00">cppgc/type&#45;traits.h</text>
</a>
</g>
</g>
<!-- Node11&#45;&gt;Node13 -->
<g id="edge13" class="edge">
<title>Node11&#45;&gt;Node13</title>
<path fill="none" stroke="midnightblue" d="M1571.71,-128.87C1601.56,-117.52 1654.17,-97.52 1688.03,-84.65"/>
<polygon fill="midnightblue" stroke="midnightblue" points="1689.37,-87.89 1697.47,-81.06 1686.88,-81.35 1689.37,-87.89"/>
</g>
<!-- Node13&#45;&gt;Node12 -->
<g id="edge14" class="edge">
<title>Node13&#45;&gt;Node12</title>
<path fill="none" stroke="midnightblue" d="M1702.23,-61.98C1681.52,-52.03 1647.05,-35.49 1623.01,-23.96"/>
<polygon fill="midnightblue" stroke="midnightblue" points="1624.26,-20.68 1613.73,-19.51 1621.23,-26.99 1624.26,-20.68"/>
</g>
<!-- Node14&#45;&gt;Node8 -->
<g id="edge35" class="edge">
<title>Node14&#45;&gt;Node8</title>
<path fill="none" stroke="midnightblue" d="M450.94,-257.47C480.41,-247.52 520.72,-233.73 556,-221 592.65,-207.78 600.61,-200.96 638,-190 697.22,-172.63 766.37,-158.64 814.82,-149.83"/>
<polygon fill="midnightblue" stroke="midnightblue" points="815.61,-153.24 824.84,-148.03 814.37,-146.35 815.61,-153.24"/>
</g>
<!-- Node14&#45;&gt;Node10 -->
<g id="edge36" class="edge">
<title>Node14&#45;&gt;Node10</title>
<path fill="none" stroke="midnightblue" d="M449.48,-257.42C472.08,-248.64 500.18,-236.13 523,-221 539.77,-209.88 539.3,-201.22 556,-190 558.58,-188.27 718.04,-115.68 784.45,-85.48"/>
<polygon fill="midnightblue" stroke="midnightblue" points="786.26,-88.5 793.91,-81.18 783.36,-82.13 786.26,-88.5"/>
</g>
<!-- Node14&#45;&gt;Node12 -->
<g id="edge19" class="edge">
<title>Node14&#45;&gt;Node12</title>
<path fill="none" stroke="midnightblue" d="M356.31,-257.45C338.09,-249.79 319.6,-238.23 309,-221 270.56,-158.53 260.27,-108 312,-56 356.81,-10.95 1339.45,-10.45 1554.61,-10.88"/>
<polygon fill="midnightblue" stroke="midnightblue" points="1554.84,-14.38 1564.85,-10.9 1554.85,-7.38 1554.84,-14.38"/>
</g>
<!-- Node15 -->
<g id="node15" class="node">
<title>Node15</title>
<g id="a_node15"><a xlink:title=" ">
<polygon fill="white" stroke="#bfbfbf" points="109,-62 109,-81 155,-81 155,-62 109,-62"/>
<text text-anchor="middle" x="132" y="-69" font-family="Helvetica,sans-Serif" font-size="10.00">cstdint</text>
</a>
</g>
</g>
<!-- Node14&#45;&gt;Node15 -->
<g id="edge18" class="edge">
<title>Node14&#45;&gt;Node15</title>
<path fill="none" stroke="midnightblue" d="M353.82,-263.77C300.06,-255.27 223.16,-240.23 200,-221 163.27,-190.5 176.03,-166.34 156,-123 150.98,-112.13 145.22,-100.01 140.61,-90.36"/>
<polygon fill="midnightblue" stroke="midnightblue" points="143.62,-88.55 136.13,-81.05 137.31,-91.58 143.62,-88.55"/>
</g>
<!-- Node16 -->
<g id="node16" class="node">
<title>Node16</title>
<g id="a_node16"><a xlink:href="write-barrier_8h.html" target="_top" xlink:title=" ">
<polygon fill="white" stroke="black" points="412.5,-190.5 412.5,-220.5 513.5,-220.5 513.5,-190.5 412.5,-190.5"/>
<text text-anchor="start" x="420.5" y="-208.5" font-family="Helvetica,sans-Serif" font-size="10.00">cppgc/internal/write</text>
<text text-anchor="middle" x="463" y="-197.5" font-family="Helvetica,sans-Serif" font-size="10.00">&#45;barrier.h</text>
</a>
</g>
</g>
<!-- Node14&#45;&gt;Node16 -->
<g id="edge20" class="edge">
<title>Node14&#45;&gt;Node16</title>
<path fill="none" stroke="midnightblue" d="M420.72,-257.4C427.72,-248.96 436.77,-238.07 444.71,-228.52"/>
<polygon fill="midnightblue" stroke="midnightblue" points="447.61,-230.51 451.31,-220.58 442.22,-226.03 447.61,-230.51"/>
</g>
<!-- Node16&#45;&gt;Node10 -->
<g id="edge34" class="edge">
<title>Node16&#45;&gt;Node10</title>
<path fill="none" stroke="midnightblue" d="M510.3,-190.42C537.09,-181.6 570.78,-169.06 599,-154 619.79,-142.91 620.85,-133.37 642,-123 684.5,-102.16 737.23,-88.2 772.82,-80.33"/>
<polygon fill="midnightblue" stroke="midnightblue" points="773.78,-83.71 782.83,-78.18 772.31,-76.86 773.78,-83.71"/>
</g>
<!-- Node16&#45;&gt;Node11 -->
<g id="edge33" class="edge">
<title>Node16&#45;&gt;Node11</title>
<path fill="none" stroke="midnightblue" d="M513.51,-199.83C548.44,-196.72 596.02,-192.72 638,-190 981.21,-167.8 1068.05,-179.98 1411,-154 1437.5,-151.99 1466.78,-149.02 1491.53,-146.29"/>
<polygon fill="midnightblue" stroke="midnightblue" points="1491.93,-149.77 1501.48,-145.18 1491.15,-142.81 1491.93,-149.77"/>
</g>
<!-- Node17 -->
<g id="node17" class="node">
<title>Node17</title>
<g id="a_node17"><a xlink:href="heap-state_8h.html" target="_top" xlink:title=" ">
<polygon fill="white" stroke="black" points="490.5,-129 490.5,-148 589.5,-148 589.5,-129 490.5,-129"/>
<text text-anchor="middle" x="540" y="-136" font-family="Helvetica,sans-Serif" font-size="10.00">cppgc/heap&#45;state.h</text>
</a>
</g>
</g>
<!-- Node16&#45;&gt;Node17 -->
<g id="edge21" class="edge">
<title>Node16&#45;&gt;Node17</title>
<path fill="none" stroke="midnightblue" d="M479.71,-190.4C492.19,-179.86 509.23,-165.48 522.01,-154.69"/>
<polygon fill="midnightblue" stroke="midnightblue" points="524.32,-157.32 529.7,-148.19 519.8,-151.97 524.32,-157.32"/>
</g>
<!-- Node18 -->
<g id="node18" class="node">
<title>Node18</title>
<g id="a_node18"><a xlink:href="api-constants_8h.html" target="_top" xlink:title=" ">
<polygon fill="white" stroke="black" points="1308.5,-123.5 1308.5,-153.5 1401.5,-153.5 1401.5,-123.5 1308.5,-123.5"/>
<text text-anchor="start" x="1316.5" y="-141.5" font-family="Helvetica,sans-Serif" font-size="10.00">cppgc/internal/api</text>
<text text-anchor="middle" x="1355" y="-130.5" font-family="Helvetica,sans-Serif" font-size="10.00">&#45;constants.h</text>
</a>
</g>
</g>
<!-- Node16&#45;&gt;Node18 -->
<g id="edge23" class="edge">
<title>Node16&#45;&gt;Node18</title>
<path fill="none" stroke="midnightblue" d="M513.51,-199.93C548.45,-196.87 596.03,-192.88 638,-190 928.66,-170.06 1007.17,-199.13 1298.33,-154.06"/>
<polygon fill="midnightblue" stroke="midnightblue" points="1298.99,-157.5 1308.33,-152.49 1297.91,-150.58 1298.99,-157.5"/>
</g>
<!-- Node21 -->
<g id="node21" class="node">
<title>Node21</title>
<g id="a_node21"><a xlink:href="process-heap_8h.html" target="_top" xlink:title=" ">
<polygon fill="white" stroke="black" points="318.5,-123.5 318.5,-153.5 433.5,-153.5 433.5,-123.5 318.5,-123.5"/>
<text text-anchor="start" x="326.5" y="-141.5" font-family="Helvetica,sans-Serif" font-size="10.00">cppgc/internal/process</text>
<text text-anchor="middle" x="376" y="-130.5" font-family="Helvetica,sans-Serif" font-size="10.00">&#45;heap.h</text>
</a>
</g>
</g>
<!-- Node16&#45;&gt;Node21 -->
<g id="edge27" class="edge">
<title>Node16&#45;&gt;Node21</title>
<path fill="none" stroke="midnightblue" d="M444.12,-190.4C432.15,-181.45 416.47,-169.74 403.17,-159.8"/>
<polygon fill="midnightblue" stroke="midnightblue" points="404.95,-156.76 394.84,-153.58 400.76,-162.37 404.95,-156.76"/>
</g>
<!-- Node23 -->
<g id="node23" class="node">
<title>Node23</title>
<g id="a_node23"><a xlink:href="sentinel-pointer_8h.html" target="_top" xlink:title=" ">
<polygon fill="white" stroke="black" points="28.5,-129 28.5,-148 147.5,-148 147.5,-129 28.5,-129"/>
<text text-anchor="middle" x="88" y="-136" font-family="Helvetica,sans-Serif" font-size="10.00">cppgc/sentinel&#45;pointer.h</text>
</a>
</g>
</g>
<!-- Node16&#45;&gt;Node23 -->
<g id="edge31" class="edge">
<title>Node16&#45;&gt;Node23</title>
<path fill="none" stroke="midnightblue" d="M412.43,-195.73C343.5,-183.79 220.28,-162.43 147.15,-149.75"/>
<polygon fill="midnightblue" stroke="midnightblue" points="147.63,-146.28 137.18,-148.02 146.43,-153.18 147.63,-146.28"/>
</g>
<!-- Node17&#45;&gt;Node10 -->
<g id="edge22" class="edge">
<title>Node17&#45;&gt;Node10</title>
<path fill="none" stroke="midnightblue" d="M575.97,-128.94C626.98,-116.79 720.01,-94.64 773.09,-82"/>
<polygon fill="midnightblue" stroke="midnightblue" points="773.91,-85.4 782.83,-79.68 772.29,-78.59 773.91,-85.4"/>
</g>
<!-- Node18&#45;&gt;Node10 -->
<g id="edge26" class="edge">
<title>Node18&#45;&gt;Node10</title>
<path fill="none" stroke="midnightblue" d="M1308.3,-124.66C1305.5,-124.06 1302.72,-123.5 1300,-123 1135.81,-93.03 936.99,-79.33 853.25,-74.57"/>
<polygon fill="midnightblue" stroke="midnightblue" points="853.33,-71.06 843.15,-74 852.94,-78.05 853.33,-71.06"/>
</g>
<!-- Node19 -->
<g id="node19" class="node">
<title>Node19</title>
<g id="a_node19"><a xlink:title=" ">
<polygon fill="white" stroke="#bfbfbf" points="1362.5,-62 1362.5,-81 1413.5,-81 1413.5,-62 1362.5,-62"/>
<text text-anchor="middle" x="1388" y="-69" font-family="Helvetica,sans-Serif" font-size="10.00">stddef.h</text>
</a>
</g>
</g>
<!-- Node18&#45;&gt;Node19 -->
<g id="edge24" class="edge">
<title>Node18&#45;&gt;Node19</title>
<path fill="none" stroke="midnightblue" d="M1362.16,-123.4C1367.1,-113.66 1373.71,-100.65 1379.01,-90.21"/>
<polygon fill="midnightblue" stroke="midnightblue" points="1382.18,-91.7 1383.59,-81.19 1375.94,-88.53 1382.18,-91.7"/>
</g>
<!-- Node20 -->
<g id="node20" class="node">
<title>Node20</title>
<g id="a_node20"><a xlink:title=" ">
<polygon fill="white" stroke="#bfbfbf" points="1296,-62 1296,-81 1344,-81 1344,-62 1296,-62"/>
<text text-anchor="middle" x="1320" y="-69" font-family="Helvetica,sans-Serif" font-size="10.00">stdint.h</text>
</a>
</g>
</g>
<!-- Node18&#45;&gt;Node20 -->
<g id="edge25" class="edge">
<title>Node18&#45;&gt;Node20</title>
<path fill="none" stroke="midnightblue" d="M1347.41,-123.4C1342.16,-113.66 1335.16,-100.65 1329.54,-90.21"/>
<polygon fill="midnightblue" stroke="midnightblue" points="1332.5,-88.34 1324.68,-81.19 1326.34,-91.66 1332.5,-88.34"/>
</g>
<!-- Node21&#45;&gt;Node10 -->
<g id="edge30" class="edge">
<title>Node21&#45;&gt;Node10</title>
<path fill="none" stroke="midnightblue" d="M433.71,-125.55C438.54,-124.65 443.35,-123.79 448,-123 565.34,-103.09 704.91,-85.45 772.42,-77.29"/>
<polygon fill="midnightblue" stroke="midnightblue" points="773.11,-80.73 782.62,-76.06 772.27,-73.78 773.11,-80.73"/>
</g>
<!-- Node22 -->
<g id="node22" class="node">
<title>Node22</title>
<g id="a_node22"><a xlink:href="atomic-entry-flag_8h.html" target="_top" xlink:title=" ">
<polygon fill="white" stroke="black" points="321,-56.5 321,-86.5 431,-86.5 431,-56.5 321,-56.5"/>
<text text-anchor="start" x="329" y="-74.5" font-family="Helvetica,sans-Serif" font-size="10.00">cppgc/internal/atomic</text>
<text text-anchor="middle" x="376" y="-63.5" font-family="Helvetica,sans-Serif" font-size="10.00">&#45;entry&#45;flag.h</text>
</a>
</g>
</g>
<!-- Node21&#45;&gt;Node22 -->
<g id="edge28" class="edge">
<title>Node21&#45;&gt;Node22</title>
<path fill="none" stroke="midnightblue" d="M376,-123.4C376,-115.64 376,-105.81 376,-96.86"/>
<polygon fill="midnightblue" stroke="midnightblue" points="379.5,-96.58 376,-86.58 372.5,-96.58 379.5,-96.58"/>
</g>
<!-- Node22&#45;&gt;Node2 -->
<g id="edge29" class="edge">
<title>Node22&#45;&gt;Node2</title>
<path fill="none" stroke="midnightblue" d="M347.32,-56.4C327.48,-46.64 301.24,-33.74 281.81,-24.18"/>
<polygon fill="midnightblue" stroke="midnightblue" points="283.12,-20.93 272.61,-19.66 280.04,-27.21 283.12,-20.93"/>
</g>
<!-- Node23&#45;&gt;Node15 -->
<g id="edge32" class="edge">
<title>Node23&#45;&gt;Node15</title>
<path fill="none" stroke="midnightblue" d="M93.93,-128.73C100.73,-118.7 112.02,-102.01 120.55,-89.42"/>
<polygon fill="midnightblue" stroke="midnightblue" points="123.45,-91.37 126.16,-81.13 117.66,-87.45 123.45,-91.37"/>
</g>
<!-- Node24&#45;&gt;Node3 -->
<g id="edge39" class="edge">
<title>Node24&#45;&gt;Node3</title>
<path fill="none" stroke="midnightblue" d="M618,-548.44C618,-529.94 618,-484.81 618,-447 618,-447 618,-447 618,-389 618,-357.49 618,-321.16 618,-297.78"/>
<polygon fill="midnightblue" stroke="midnightblue" points="621.5,-297.72 618,-287.72 614.5,-297.72 621.5,-297.72"/>
</g>
<!-- Node24&#45;&gt;Node8 -->
<g id="edge42" class="edge">
<title>Node24&#45;&gt;Node8</title>
<path fill="none" stroke="midnightblue" d="M666.09,-548.4C718.2,-535.99 794,-507.53 794,-447 794,-447 794,-447 794,-271.5 794,-234.31 793.18,-221.47 813,-190 822.47,-174.97 838.01,-162.44 851.28,-153.62"/>
<polygon fill="midnightblue" stroke="midnightblue" points="853.41,-156.42 860.01,-148.13 849.68,-150.49 853.41,-156.42"/>
</g>
<!-- Node24&#45;&gt;Node10 -->
<g id="edge89" class="edge">
<title>Node24&#45;&gt;Node10</title>
<path fill="none" stroke="midnightblue" d="M569.78,-556.56C470.39,-552.84 252,-528.97 252,-391 252,-391 252,-391 252,-204.5 252,-160.04 271.56,-145.33 310,-123 388.33,-77.51 667.35,-72.55 772.51,-72.33"/>
<polygon fill="midnightblue" stroke="midnightblue" points="772.71,-75.83 782.71,-72.32 772.71,-68.83 772.71,-75.83"/>
</g>
<!-- Node24&#45;&gt;Node12 -->
<g id="edge38" class="edge">
<title>Node24&#45;&gt;Node12</title>
<path fill="none" stroke="midnightblue" d="M666.42,-557.02C803.32,-556.57 1204.64,-551.69 1535,-512 1678.23,-494.79 1853,-591.26 1853,-447 1853,-447 1853,-447 1853,-137.5 1853,-42.46 1709.79,-18.82 1637.18,-12.94"/>
<polygon fill="midnightblue" stroke="midnightblue" points="1637.23,-9.44 1627,-12.2 1636.72,-16.42 1637.23,-9.44"/>
</g>
<!-- Node24&#45;&gt;Node13 -->
<g id="edge43" class="edge">
<title>Node24&#45;&gt;Node13</title>
<path fill="none" stroke="midnightblue" d="M666.03,-555.15C889.32,-546.23 1815,-505.73 1815,-447 1815,-447 1815,-447 1815,-204.5 1815,-153.84 1768.33,-109.34 1740.41,-87.26"/>
<polygon fill="midnightblue" stroke="midnightblue" points="1742.49,-84.45 1732.42,-81.15 1738.23,-90.01 1742.49,-84.45"/>
</g>
<!-- Node24&#45;&gt;Node14 -->
<g id="edge40" class="edge">
<title>Node24&#45;&gt;Node14</title>
<path fill="none" stroke="midnightblue" d="M570.64,-548.42C518.82,-535.99 443,-507.47 443,-447 443,-447 443,-447 443,-389 443,-356.04 430.1,-319.87 420.2,-296.94"/>
<polygon fill="midnightblue" stroke="midnightblue" points="423.33,-295.38 416.04,-287.69 416.94,-298.25 423.33,-295.38"/>
</g>
<!-- Node24&#45;&gt;Node23 -->
<g id="edge41" class="edge">
<title>Node24&#45;&gt;Node23</title>
<path fill="none" stroke="midnightblue" d="M569.73,-556.93C441.14,-555.44 100,-542.5 100,-447 100,-447 100,-447 100,-271.5 100,-230.99 94.33,-183.78 90.78,-158.23"/>
<polygon fill="midnightblue" stroke="midnightblue" points="94.22,-157.53 89.33,-148.12 87.29,-158.52 94.22,-157.53"/>
</g>
<!-- Node24&#45;&gt;Node25 -->
<g id="edge44" class="edge">
<title>Node24&#45;&gt;Node25</title>
<path fill="none" stroke="midnightblue" d="M666.13,-550.49C742.2,-540.19 889.51,-520.25 966.83,-509.79"/>
<polygon fill="midnightblue" stroke="midnightblue" points="967.37,-513.25 976.81,-508.44 966.43,-506.31 967.37,-513.25"/>
</g>
<!-- Node25&#45;&gt;Node7 -->
<g id="edge82" class="edge">
<title>Node25&#45;&gt;Node7</title>
<path fill="none" stroke="midnightblue" d="M976.77,-494.16C898.21,-479.66 732,-442.84 732,-391 732,-391 732,-391 732,-333 732,-293.92 719.95,-249.41 712.25,-224.99"/>
<polygon fill="midnightblue" stroke="midnightblue" points="715.51,-223.69 709.08,-215.27 708.86,-225.86 715.51,-223.69"/>
</g>
<!-- Node25&#45;&gt;Node8 -->
<g id="edge86" class="edge">
<title>Node25&#45;&gt;Node8</title>
<path fill="none" stroke="midnightblue" d="M1027.39,-492.26C1049.16,-472.82 1096.24,-424.25 1080,-380 1042.32,-277.34 939.25,-188.47 895.77,-154.37"/>
<polygon fill="midnightblue" stroke="midnightblue" points="897.72,-151.45 887.67,-148.11 893.45,-156.99 897.72,-151.45"/>
</g>
<!-- Node25&#45;&gt;Node11 -->
<g id="edge87" class="edge">
<title>Node25&#45;&gt;Node11</title>
<path fill="none" stroke="midnightblue" d="M1057.08,-500.48C1139.73,-498.69 1334.72,-490.8 1494,-456 1579.55,-437.31 1680,-478.57 1680,-391 1680,-391 1680,-391 1680,-333 1680,-254.51 1605.17,-184.13 1568.62,-154.44"/>
<polygon fill="midnightblue" stroke="midnightblue" points="1570.64,-151.57 1560.63,-148.1 1566.29,-157.05 1570.64,-151.57"/>
</g>
<!-- Node25&#45;&gt;Node13 -->
<g id="edge88" class="edge">
<title>Node25&#45;&gt;Node13</title>
<path fill="none" stroke="midnightblue" d="M1057.17,-501.38C1151.46,-501.52 1393.89,-497.44 1591,-456 1676.7,-437.98 1777,-478.57 1777,-391 1777,-391 1777,-391 1777,-204.5 1777,-160.21 1749.61,-113.9 1732.81,-89.65"/>
<polygon fill="midnightblue" stroke="midnightblue" points="1735.43,-87.3 1726.76,-81.21 1729.74,-91.38 1735.43,-87.3"/>
</g>
<!-- Node25&#45;&gt;Node14 -->
<g id="edge83" class="edge">
<title>Node25&#45;&gt;Node14</title>
<path fill="none" stroke="midnightblue" d="M976.64,-499.8C918.07,-496.98 806.79,-487.55 718,-456 604.51,-415.67 486.22,-332.18 435.09,-293.71"/>
<polygon fill="midnightblue" stroke="midnightblue" points="436.99,-290.76 426.91,-287.51 432.76,-296.34 436.99,-290.76"/>
</g>
<!-- Node26 -->
<g id="node26" class="node">
<title>Node26</title>
<g id="a_node26"><a xlink:href="custom-space_8h.html" target="_top" xlink:title=" ">
<polygon fill="white" stroke="black" points="1329.5,-196 1329.5,-215 1444.5,-215 1444.5,-196 1329.5,-196"/>
<text text-anchor="middle" x="1387" y="-203" font-family="Helvetica,sans-Serif" font-size="10.00">cppgc/custom&#45;space.h</text>
</a>
</g>
</g>
<!-- Node25&#45;&gt;Node26 -->
<g id="edge45" class="edge">
<title>Node25&#45;&gt;Node26</title>
<path fill="none" stroke="midnightblue" d="M1057.12,-499.49C1165.49,-494.31 1456,-472.81 1456,-391 1456,-391 1456,-391 1456,-333 1456,-288.66 1422.93,-245.08 1402.58,-222.46"/>
<polygon fill="midnightblue" stroke="midnightblue" points="1405.11,-220.05 1395.74,-215.12 1399.99,-224.82 1405.11,-220.05"/>
</g>
<!-- Node27 -->
<g id="node27" class="node">
<title>Node27</title>
<g id="a_node27"><a xlink:href="ephemeron-pair_8h.html" target="_top" xlink:title=" ">
<polygon fill="white" stroke="black" points="913,-436.5 913,-455.5 1033,-455.5 1033,-436.5 913,-436.5"/>
<text text-anchor="middle" x="973" y="-443.5" font-family="Helvetica,sans-Serif" font-size="10.00">cppgc/ephemeron&#45;pair.h</text>
</a>
</g>
</g>
<!-- Node25&#45;&gt;Node27 -->
<g id="edge47" class="edge">
<title>Node25&#45;&gt;Node27</title>
<path fill="none" stroke="midnightblue" d="M1009.73,-492.08C1003.46,-484.38 994.21,-473.03 986.57,-463.65"/>
<polygon fill="midnightblue" stroke="midnightblue" points="989.16,-461.29 980.13,-455.75 983.73,-465.71 989.16,-461.29"/>
</g>
<!-- Node28 -->
<g id="node28" class="node">
<title>Node28</title>
<g id="a_node28"><a xlink:href="liveness-broker_8h.html" target="_top" xlink:title=" ">
<polygon fill="white" stroke="black" points="951.5,-380.5 951.5,-399.5 1070.5,-399.5 1070.5,-380.5 951.5,-380.5"/>
<text text-anchor="middle" x="1011" y="-387.5" font-family="Helvetica,sans-Serif" font-size="10.00">cppgc/liveness&#45;broker.h</text>
</a>
</g>
</g>
<!-- Node25&#45;&gt;Node28 -->
<g id="edge84" class="edge">
<title>Node25&#45;&gt;Node28</title>
<path fill="none" stroke="midnightblue" d="M1024.33,-492.3C1033.81,-479.95 1048.39,-456.55 1042,-436 1038.77,-425.62 1032.22,-415.52 1025.98,-407.53"/>
<polygon fill="midnightblue" stroke="midnightblue" points="1028.58,-405.19 1019.48,-399.77 1023.21,-409.68 1028.58,-405.19"/>
</g>
<!-- Node34 -->
<g id="node34" class="node">
<title>Node34</title>
<g id="a_node34"><a xlink:href="member_8h.html" target="_top" xlink:title=" ">
<polygon fill="white" stroke="black" points="854.5,-324.5 854.5,-343.5 943.5,-343.5 943.5,-324.5 854.5,-324.5"/>
<text text-anchor="middle" x="899" y="-331.5" font-family="Helvetica,sans-Serif" font-size="10.00">cppgc/member.h</text>
</a>
</g>
</g>
<!-- Node25&#45;&gt;Node34 -->
<g id="edge85" class="edge">
<title>Node25&#45;&gt;Node34</title>
<path fill="none" stroke="midnightblue" d="M976.74,-496.05C951.46,-490.67 920.61,-479.43 904,-456 882.4,-425.52 888.38,-379.05 894.05,-353.48"/>
<polygon fill="midnightblue" stroke="midnightblue" points="897.49,-354.16 896.47,-343.62 890.69,-352.5 897.49,-354.16"/>
</g>
<!-- Node36 -->
<g id="node36" class="node">
<title>Node36</title>
<g id="a_node36"><a xlink:href="garbage-collected_8h.html" target="_top" xlink:title=" ">
<polygon fill="white" stroke="black" points="1484,-263 1484,-282 1614,-282 1614,-263 1484,-263"/>
<text text-anchor="middle" x="1549" y="-270" font-family="Helvetica,sans-Serif" font-size="10.00">cppgc/garbage&#45;collected.h</text>
</a>
</g>
</g>
<!-- Node25&#45;&gt;Node36 -->
<g id="edge76" class="edge">
<title>Node25&#45;&gt;Node36</title>
<path fill="none" stroke="midnightblue" d="M1057.18,-499.32C1161.84,-494.62 1437.01,-480.09 1470,-456 1524.58,-416.15 1541.88,-330.54 1547,-292.45"/>
<polygon fill="midnightblue" stroke="midnightblue" points="1550.51,-292.6 1548.23,-282.25 1543.56,-291.76 1550.51,-292.6"/>
</g>
<!-- Node26&#45;&gt;Node19 -->
<g id="edge46" class="edge">
<title>Node26&#45;&gt;Node19</title>
<path fill="none" stroke="midnightblue" d="M1392.5,-195.99C1398.42,-186.29 1407.45,-169.72 1411,-154 1414.03,-140.56 1413.92,-136.46 1411,-123 1408.48,-111.4 1403.06,-99.27 1398.11,-89.81"/>
<polygon fill="midnightblue" stroke="midnightblue" points="1401.17,-88.1 1393.27,-81.04 1395.04,-91.49 1401.17,-88.1"/>
</g>
<!-- Node27&#45;&gt;Node28 -->
<g id="edge48" class="edge">
<title>Node27&#45;&gt;Node28</title>
<path fill="none" stroke="midnightblue" d="M979.27,-436.08C984.64,-428.46 992.52,-417.26 999.08,-407.94"/>
<polygon fill="midnightblue" stroke="midnightblue" points="1001.95,-409.94 1004.84,-399.75 996.22,-405.91 1001.95,-409.94"/>
</g>
<!-- Node27&#45;&gt;Node34 -->
<g id="edge75" class="edge">
<title>Node27&#45;&gt;Node34</title>
<path fill="none" stroke="midnightblue" d="M967.19,-436.37C954.98,-418.22 926.45,-375.8 910.43,-351.99"/>
<polygon fill="midnightblue" stroke="midnightblue" points="913.27,-349.94 904.78,-343.59 907.46,-353.84 913.27,-349.94"/>
</g>
<!-- Node28&#45;&gt;Node10 -->
<g id="edge74" class="edge">
<title>Node28&#45;&gt;Node10</title>
<path fill="none" stroke="midnightblue" d="M1011.52,-380.36C1013.22,-344.05 1014.99,-202.11 945,-123 921.58,-96.53 882.74,-83.86 853.23,-77.84"/>
<polygon fill="midnightblue" stroke="midnightblue" points="853.7,-74.37 843.23,-75.98 852.42,-81.25 853.7,-74.37"/>
</g>
<!-- Node28&#45;&gt;Node11 -->
<g id="edge73" class="edge">
<title>Node28&#45;&gt;Node11</title>
<path fill="none" stroke="midnightblue" d="M1069.08,-380.49C1146.16,-367.71 1285.18,-339.37 1394,-288 1440.07,-266.25 1450.51,-256.55 1487,-221 1507.52,-201.01 1526.78,-173.89 1538.23,-156.54"/>
<polygon fill="midnightblue" stroke="midnightblue" points="1541.25,-158.31 1543.74,-148.01 1535.37,-154.51 1541.25,-158.31"/>
</g>
<!-- Node29 -->
<g id="node29" class="node">
<title>Node29</title>
<g id="a_node29"><a xlink:href="heap_8h.html" target="_top" xlink:title=" ">
<polygon fill="white" stroke="black" points="1083,-263 1083,-282 1157,-282 1157,-263 1083,-263"/>
<text text-anchor="middle" x="1120" y="-270" font-family="Helvetica,sans-Serif" font-size="10.00">cppgc/heap.h</text>
</a>
</g>
</g>
<!-- Node28&#45;&gt;Node29 -->
<g id="edge49" class="edge">
<title>Node28&#45;&gt;Node29</title>
<path fill="none" stroke="midnightblue" d="M1014.34,-380.21C1019.7,-366.92 1031.24,-341.41 1047,-324 1060.53,-309.05 1079.3,-296.19 1094.42,-287.19"/>
<polygon fill="midnightblue" stroke="midnightblue" points="1096.35,-290.12 1103.28,-282.1 1092.87,-284.05 1096.35,-290.12"/>
</g>
<!-- Node28&#45;&gt;Node34 -->
<g id="edge65" class="edge">
<title>Node28&#45;&gt;Node34</title>
<path fill="none" stroke="midnightblue" d="M993.01,-380.32C974.96,-371.62 946.95,-358.12 926.2,-348.11"/>
<polygon fill="midnightblue" stroke="midnightblue" points="927.48,-344.84 916.95,-343.65 924.44,-351.15 927.48,-344.84"/>
</g>
<!-- Node29&#45;&gt;Node5 -->
<g id="edge50" class="edge">
<title>Node29&#45;&gt;Node5</title>
<path fill="none" stroke="midnightblue" d="M1134.9,-262.88C1148.22,-254.22 1166.86,-239.51 1175,-221 1195.23,-174.96 1161.26,-117.44 1141.17,-89.42"/>
<polygon fill="midnightblue" stroke="midnightblue" points="1143.76,-87.04 1134.98,-81.11 1138.14,-91.22 1143.76,-87.04"/>
</g>
<!-- Node29&#45;&gt;Node6 -->
<g id="edge51" class="edge">
<title>Node29&#45;&gt;Node6</title>
<path fill="none" stroke="midnightblue" d="M1083.63,-262.94C1029.27,-250.13 927.68,-226.21 875.98,-214.03"/>
<polygon fill="midnightblue" stroke="midnightblue" points="876.58,-210.58 866.04,-211.69 874.97,-217.39 876.58,-210.58"/>
</g>
<!-- Node29&#45;&gt;Node10 -->
<g id="edge64" class="edge">
<title>Node29&#45;&gt;Node10</title>
<path fill="none" stroke="midnightblue" d="M1110.1,-262.9C1099,-253.12 1080.65,-236.48 1066,-221 1026.97,-179.75 1031.49,-154.15 984,-123 943.95,-96.73 889.85,-83.77 853.31,-77.62"/>
<polygon fill="midnightblue" stroke="midnightblue" points="853.46,-74.1 843.03,-76 852.36,-81.02 853.46,-74.1"/>
</g>
<!-- Node29&#45;&gt;Node26 -->
<g id="edge54" class="edge">
<title>Node29&#45;&gt;Node26</title>
<path fill="none" stroke="midnightblue" d="M1155.18,-262.94C1203.2,-251.24 1289.32,-230.28 1341.99,-217.46"/>
<polygon fill="midnightblue" stroke="midnightblue" points="1342.85,-220.85 1351.74,-215.08 1341.2,-214.05 1342.85,-220.85"/>
</g>
<!-- Node30 -->
<g id="node30" class="node">
<title>Node30</title>
<g id="a_node30"><a xlink:href="common_8h.html" target="_top" xlink:title=" ">
<polygon fill="white" stroke="black" points="1074.5,-196 1074.5,-215 1165.5,-215 1165.5,-196 1074.5,-196"/>
<text text-anchor="middle" x="1120" y="-203" font-family="Helvetica,sans-Serif" font-size="10.00">cppgc/common.h</text>
</a>
</g>
</g>
<!-- Node29&#45;&gt;Node30 -->
<g id="edge52" class="edge">
<title>Node29&#45;&gt;Node30</title>
<path fill="none" stroke="midnightblue" d="M1120,-262.73C1120,-253.18 1120,-237.62 1120,-225.28"/>
<polygon fill="midnightblue" stroke="midnightblue" points="1123.5,-225.13 1120,-215.13 1116.5,-225.13 1123.5,-225.13"/>
</g>
<!-- Node31 -->
<g id="node31" class="node">
<title>Node31</title>
<g id="a_node31"><a xlink:href="platform_8h.html" target="_top" xlink:title=" ">
<polygon fill="white" stroke="black" points="1222.5,-196 1222.5,-215 1311.5,-215 1311.5,-196 1222.5,-196"/>
<text text-anchor="middle" x="1267" y="-203" font-family="Helvetica,sans-Serif" font-size="10.00">cppgc/platform.h</text>
</a>
</g>
</g>
<!-- Node29&#45;&gt;Node31 -->
<g id="edge55" class="edge">
<title>Node29&#45;&gt;Node31</title>
<path fill="none" stroke="midnightblue" d="M1139.52,-262.87C1164.78,-251.7 1209,-232.15 1238.14,-219.26"/>
<polygon fill="midnightblue" stroke="midnightblue" points="1239.67,-222.41 1247.4,-215.17 1236.84,-216.01 1239.67,-222.41"/>
</g>
<!-- Node30&#45;&gt;Node10 -->
<g id="edge53" class="edge">
<title>Node30&#45;&gt;Node10</title>
<path fill="none" stroke="midnightblue" d="M1116.32,-195.97C1108.57,-179.08 1088.86,-141.46 1060,-123 996.01,-82.08 905.27,-73.43 853.45,-72.11"/>
<polygon fill="midnightblue" stroke="midnightblue" points="853.38,-68.6 843.32,-71.93 853.25,-75.6 853.38,-68.6"/>
</g>
<!-- Node31&#45;&gt;Node10 -->
<g id="edge63" class="edge">
<title>Node31&#45;&gt;Node10</title>
<path fill="none" stroke="midnightblue" d="M1251.8,-195.96C1221.68,-179.4 1151.89,-142.81 1089,-123 1007.38,-97.29 907.8,-83.08 853.36,-76.7"/>
<polygon fill="midnightblue" stroke="midnightblue" points="853.74,-73.22 843.41,-75.56 852.95,-80.18 853.74,-73.22"/>
</g>
<!-- Node32 -->
<g id="node32" class="node">
<title>Node32</title>
<g id="a_node32"><a xlink:href="v8-platform_8h.html" target="_top" xlink:title=" ">
<polygon fill="white" stroke="black" points="1217.5,-129 1217.5,-148 1290.5,-148 1290.5,-129 1217.5,-129"/>
<text text-anchor="middle" x="1254" y="-136" font-family="Helvetica,sans-Serif" font-size="10.00">v8&#45;platform.h</text>
</a>
</g>
</g>
<!-- Node31&#45;&gt;Node32 -->
<g id="edge56" class="edge">
<title>Node31&#45;&gt;Node32</title>
<path fill="none" stroke="midnightblue" d="M1265.25,-195.73C1263.34,-186.18 1260.22,-170.62 1257.76,-158.28"/>
<polygon fill="midnightblue" stroke="midnightblue" points="1261.12,-157.25 1255.73,-148.13 1254.25,-158.62 1261.12,-157.25"/>
</g>
<!-- Node32&#45;&gt;Node5 -->
<g id="edge60" class="edge">
<title>Node32&#45;&gt;Node5</title>
<path fill="none" stroke="midnightblue" d="M1237.27,-128.87C1215.9,-117.84 1178.7,-98.66 1153.72,-85.77"/>
<polygon fill="midnightblue" stroke="midnightblue" points="1155.29,-82.64 1144.8,-81.17 1152.08,-88.86 1155.29,-82.64"/>
</g>
<!-- Node32&#45;&gt;Node9 -->
<g id="edge61" class="edge">
<title>Node32&#45;&gt;Node9</title>
<path fill="none" stroke="midnightblue" d="M1245.64,-128.73C1235.88,-118.5 1219.53,-101.36 1207.45,-88.69"/>
<polygon fill="midnightblue" stroke="midnightblue" points="1209.66,-85.95 1200.23,-81.13 1204.6,-90.78 1209.66,-85.95"/>
</g>
<!-- Node32&#45;&gt;Node10 -->
<g id="edge62" class="edge">
<title>Node32&#45;&gt;Node10</title>
<path fill="none" stroke="midnightblue" d="M1217.15,-131.97C1199.04,-129.26 1176.88,-125.94 1157,-123 1047.27,-106.74 917.81,-87.8 853.5,-78.41"/>
<polygon fill="midnightblue" stroke="midnightblue" points="853.78,-74.91 843.37,-76.93 852.76,-81.84 853.78,-74.91"/>
</g>
<!-- Node32&#45;&gt;Node19 -->
<g id="edge57" class="edge">
<title>Node32&#45;&gt;Node19</title>
<path fill="none" stroke="midnightblue" d="M1271.79,-128.87C1294.62,-117.8 1334.43,-98.49 1361,-85.6"/>
<polygon fill="midnightblue" stroke="midnightblue" points="1362.66,-88.68 1370.13,-81.17 1359.61,-82.38 1362.66,-88.68"/>
</g>
<!-- Node32&#45;&gt;Node20 -->
<g id="edge58" class="edge">
<title>Node32&#45;&gt;Node20</title>
<path fill="none" stroke="midnightblue" d="M1262.9,-128.73C1273.39,-118.4 1291.02,-101.04 1303.92,-88.33"/>
<polygon fill="midnightblue" stroke="midnightblue" points="1306.57,-90.64 1311.24,-81.13 1301.66,-85.65 1306.57,-90.64"/>
</g>
<!-- Node33 -->
<g id="node33" class="node">
<title>Node33</title>
<g id="a_node33"><a xlink:title=" ">
<polygon fill="white" stroke="#bfbfbf" points="1230.5,-62 1230.5,-81 1277.5,-81 1277.5,-62 1230.5,-62"/>
<text text-anchor="middle" x="1254" y="-69" font-family="Helvetica,sans-Serif" font-size="10.00">stdlib.h</text>
</a>
</g>
</g>
<!-- Node32&#45;&gt;Node33 -->
<g id="edge59" class="edge">
<title>Node32&#45;&gt;Node33</title>
<path fill="none" stroke="midnightblue" d="M1254,-128.73C1254,-119.18 1254,-103.62 1254,-91.28"/>
<polygon fill="midnightblue" stroke="midnightblue" points="1257.5,-91.13 1254,-81.13 1250.5,-91.13 1257.5,-91.13"/>
</g>
<!-- Node34&#45;&gt;Node2 -->
<g id="edge66" class="edge">
<title>Node34&#45;&gt;Node2</title>
<path fill="none" stroke="midnightblue" d="M854.22,-331.05C786.8,-327.26 655.62,-316.6 548,-288 513.14,-278.74 507.41,-267.8 473,-257 401.8,-234.66 362.7,-272.82 309,-221 255.14,-169.02 252.37,-71.1 253.82,-29.96"/>
<polygon fill="midnightblue" stroke="midnightblue" points="257.33,-29.9 254.31,-19.74 250.33,-29.56 257.33,-29.9"/>
</g>
<!-- Node34&#45;&gt;Node10 -->
<g id="edge72" class="edge">
<title>Node34&#45;&gt;Node10</title>
<path fill="none" stroke="midnightblue" d="M898.54,-324.48C896.92,-297.11 890.69,-211.89 875,-190 855.3,-162.53 825.35,-183.01 808,-154 796.49,-134.76 801.11,-108.18 806.33,-90.68"/>
<polygon fill="midnightblue" stroke="midnightblue" points="809.68,-91.69 809.51,-81.1 803.03,-89.49 809.68,-91.69"/>
</g>
<!-- Node34&#45;&gt;Node12 -->
<g id="edge68" class="edge">
<title>Node34&#45;&gt;Node12</title>
<path fill="none" stroke="midnightblue" d="M943.74,-329.55C1061.6,-319.62 1376.87,-287.34 1454,-221 1489.54,-190.43 1468.05,-162.69 1493,-123 1517.31,-84.33 1555.77,-46.8 1578.17,-26.52"/>
<polygon fill="midnightblue" stroke="midnightblue" points="1580.78,-28.88 1585.91,-19.62 1576.12,-23.66 1580.78,-28.88"/>
</g>
<!-- Node34&#45;&gt;Node13 -->
<g id="edge71" class="edge">
<title>Node34&#45;&gt;Node13</title>
<path fill="none" stroke="midnightblue" d="M943.51,-332.58C1092.05,-330.85 1564.72,-322.66 1623,-288 1683.42,-252.07 1682.3,-219.81 1707,-154 1714.69,-133.51 1717.83,-108.46 1719.11,-91.58"/>
<polygon fill="midnightblue" stroke="midnightblue" points="1722.62,-91.55 1719.74,-81.36 1715.64,-91.13 1722.62,-91.55"/>
</g>
<!-- Node34&#45;&gt;Node14 -->
<g id="edge69" class="edge">
<title>Node34&#45;&gt;Node14</title>
<path fill="none" stroke="midnightblue" d="M854.25,-329.71C777.13,-323.7 614.32,-309.55 478,-288 476.74,-287.8 475.47,-287.59 474.19,-287.38"/>
<polygon fill="midnightblue" stroke="midnightblue" points="474.73,-283.92 464.27,-285.63 473.51,-290.81 474.73,-283.92"/>
</g>
<!-- Node34&#45;&gt;Node23 -->
<g id="edge70" class="edge">
<title>Node34&#45;&gt;Node23</title>
<path fill="none" stroke="midnightblue" d="M854.17,-333.72C759.04,-334.31 530.49,-330.7 345,-288 265.05,-269.6 242.16,-265.13 173,-221 144.56,-202.86 117.47,-174.24 101.81,-156.2"/>
<polygon fill="midnightblue" stroke="midnightblue" points="104.22,-153.63 95.08,-148.28 98.88,-158.16 104.22,-153.63"/>
</g>
<!-- Node35 -->
<g id="node35" class="node">
<title>Node35</title>
<g id="a_node35"><a xlink:title=" ">
<polygon fill="white" stroke="#bfbfbf" points="907.5,-263 907.5,-282 956.5,-282 956.5,-263 907.5,-263"/>
<text text-anchor="middle" x="932" y="-270" font-family="Helvetica,sans-Serif" font-size="10.00">cstddef</text>
</a>
</g>
</g>
<!-- Node34&#45;&gt;Node35 -->
<g id="edge67" class="edge">
<title>Node34&#45;&gt;Node35</title>
<path fill="none" stroke="midnightblue" d="M903.73,-324.48C908.58,-315.73 916.27,-301.87 922.4,-290.81"/>
<polygon fill="midnightblue" stroke="midnightblue" points="925.49,-292.45 927.28,-282.01 919.37,-289.06 925.49,-292.45"/>
</g>
<!-- Node36&#45;&gt;Node11 -->
<g id="edge80" class="edge">
<title>Node36&#45;&gt;Node11</title>
<path fill="none" stroke="midnightblue" d="M1552.22,-262.71C1555.68,-252.76 1560.96,-235.96 1563,-221 1564.86,-207.35 1564.86,-203.65 1563,-190 1561.52,-179.13 1558.33,-167.29 1555.36,-157.81"/>
<polygon fill="midnightblue" stroke="midnightblue" points="1558.68,-156.69 1552.22,-148.29 1552.03,-158.88 1558.68,-156.69"/>
</g>
<!-- Node36&#45;&gt;Node12 -->
<g id="edge77" class="edge">
<title>Node36&#45;&gt;Node12</title>
<path fill="none" stroke="midnightblue" d="M1555.05,-262.91C1567.78,-244.21 1596.89,-197.96 1606,-154 1615.09,-110.09 1606.43,-57.15 1600.51,-29.65"/>
<polygon fill="midnightblue" stroke="midnightblue" points="1603.9,-28.79 1598.26,-19.82 1597.07,-30.34 1603.9,-28.79"/>
</g>
<!-- Node36&#45;&gt;Node13 -->
<g id="edge81" class="edge">
<title>Node36&#45;&gt;Node13</title>
<path fill="none" stroke="midnightblue" d="M1572.01,-262.86C1591.72,-254.54 1619.86,-240.37 1639,-221 1677.42,-182.12 1702.79,-121.27 1713.78,-90.95"/>
<polygon fill="midnightblue" stroke="midnightblue" points="1717.17,-91.86 1717.17,-81.26 1710.56,-89.54 1717.17,-91.86"/>
</g>
<!-- Node36&#45;&gt;Node18 -->
<g id="edge78" class="edge">
<title>Node36&#45;&gt;Node18</title>
<path fill="none" stroke="midnightblue" d="M1540.41,-262.87C1524.39,-247.1 1488.48,-213.11 1454,-190 1435.98,-177.93 1414.7,-166.72 1396.5,-157.95"/>
<polygon fill="midnightblue" stroke="midnightblue" points="1397.82,-154.7 1387.29,-153.59 1394.83,-161.03 1397.82,-154.7"/>
</g>
<!-- Node36&#45;&gt;Node31 -->
<g id="edge79" class="edge">
<title>Node36&#45;&gt;Node31</title>
<path fill="none" stroke="midnightblue" d="M1507.68,-262.92C1461.91,-253.29 1385.98,-236.91 1321,-221 1316.64,-219.93 1312.09,-218.78 1307.57,-217.6"/>
<polygon fill="midnightblue" stroke="midnightblue" points="1308.34,-214.19 1297.78,-215.02 1306.56,-220.95 1308.34,-214.19"/>
</g>
</g>
</svg>
