<?xml version="1.0" encoding="UTF-8" standalone="no"?>
<!DOCTYPE svg PUBLIC "-//W3C//DTD SVG 1.1//EN"
 "http://www.w3.org/Graphics/SVG/1.1/DTD/svg11.dtd">
<!-- Generated by graphviz version 2.44.0 ()
 -->
<!-- Title: include/cppgc/ephemeron&#45;pair.h Pages: 1 -->
<svg width="1526pt" height="475pt"
 viewBox="0.00 0.00 1526.00 475.00" xmlns="http://www.w3.org/2000/svg" xmlns:xlink="http://www.w3.org/1999/xlink">
<g id="graph0" class="graph" transform="scale(1 1) rotate(0) translate(4 471)">
<title>include/cppgc/ephemeron&#45;pair.h</title>
<polygon fill="white" stroke="transparent" points="-4,4 -4,-471 1522,-471 1522,4 -4,4"/>
<!-- Node1 -->
<g id="node1" class="node">
<title>Node1</title>
<g id="a_node1"><a xlink:title=" ">
<polygon fill="#bfbfbf" stroke="black" points="797.5,-436.5 797.5,-466.5 925.5,-466.5 925.5,-436.5 797.5,-436.5"/>
<text text-anchor="start" x="805.5" y="-454.5" font-family="Helvetica,sans-Serif" font-size="10.00">include/cppgc/ephemeron</text>
<text text-anchor="middle" x="861.5" y="-443.5" font-family="Helvetica,sans-Serif" font-size="10.00">&#45;pair.h</text>
</a>
</g>
</g>
<!-- Node2 -->
<g id="node2" class="node">
<title>Node2</title>
<g id="a_node2"><a xlink:href="liveness-broker_8h.html" target="_top" xlink:title=" ">
<polygon fill="white" stroke="black" points="758,-380.5 758,-399.5 877,-399.5 877,-380.5 758,-380.5"/>
<text text-anchor="middle" x="817.5" y="-387.5" font-family="Helvetica,sans-Serif" font-size="10.00">cppgc/liveness&#45;broker.h</text>
</a>
</g>
</g>
<!-- Node1&#45;&gt;Node2 -->
<g id="edge1" class="edge">
<title>Node1&#45;&gt;Node2</title>
<path fill="none" stroke="midnightblue" d="M851.07,-436.4C844.74,-427.84 836.63,-416.87 829.97,-407.86"/>
<polygon fill="midnightblue" stroke="midnightblue" points="832.66,-405.62 823.9,-399.66 827.03,-409.78 832.66,-405.62"/>
</g>
<!-- Node15 -->
<g id="node15" class="node">
<title>Node15</title>
<g id="a_node15"><a xlink:href="member_8h.html" target="_top" xlink:title=" ">
<polygon fill="white" stroke="black" points="894,-324.5 894,-343.5 983,-343.5 983,-324.5 894,-324.5"/>
<text text-anchor="middle" x="938.5" y="-331.5" font-family="Helvetica,sans-Serif" font-size="10.00">cppgc/member.h</text>
</a>
</g>
</g>
<!-- Node1&#45;&gt;Node15 -->
<g id="edge54" class="edge">
<title>Node1&#45;&gt;Node15</title>
<path fill="none" stroke="midnightblue" d="M870.94,-436.34C885.13,-415.05 911.91,-374.89 927.14,-352.03"/>
<polygon fill="midnightblue" stroke="midnightblue" points="930.09,-353.93 932.72,-343.67 924.26,-350.05 930.09,-353.93"/>
</g>
<!-- Node3 -->
<g id="node3" class="node">
<title>Node3</title>
<g id="a_node3"><a xlink:href="heap_8h.html" target="_top" xlink:title=" ">
<polygon fill="white" stroke="black" points="330.5,-263 330.5,-282 404.5,-282 404.5,-263 330.5,-263"/>
<text text-anchor="middle" x="367.5" y="-270" font-family="Helvetica,sans-Serif" font-size="10.00">cppgc/heap.h</text>
</a>
</g>
</g>
<!-- Node2&#45;&gt;Node3 -->
<g id="edge2" class="edge">
<title>Node2&#45;&gt;Node3</title>
<path fill="none" stroke="midnightblue" d="M774.3,-380.43C732.48,-371.93 667.39,-358.16 611.5,-344 537.48,-325.24 451.94,-299.6 404.35,-284.97"/>
<polygon fill="midnightblue" stroke="midnightblue" points="405.37,-281.63 394.78,-282.02 403.31,-288.31 405.37,-281.63"/>
</g>
<!-- Node7 -->
<g id="node7" class="node">
<title>Node7</title>
<g id="a_node7"><a xlink:href="v8config_8h.html" target="_top" xlink:title=" ">
<polygon fill="white" stroke="black" points="595.5,-62 595.5,-81 655.5,-81 655.5,-62 595.5,-62"/>
<text text-anchor="middle" x="625.5" y="-69" font-family="Helvetica,sans-Serif" font-size="10.00">v8config.h</text>
</a>
</g>
</g>
<!-- Node2&#45;&gt;Node7 -->
<g id="edge53" class="edge">
<title>Node2&#45;&gt;Node7</title>
<path fill="none" stroke="midnightblue" d="M764.53,-380.49C707.7,-368 625.5,-338.66 625.5,-273.5 625.5,-273.5 625.5,-273.5 625.5,-204.5 625.5,-164.16 625.5,-116.88 625.5,-91.28"/>
<polygon fill="midnightblue" stroke="midnightblue" points="629,-91.15 625.5,-81.15 622,-91.15 629,-91.15"/>
</g>
<!-- Node2&#45;&gt;Node15 -->
<g id="edge19" class="edge">
<title>Node2&#45;&gt;Node15</title>
<path fill="none" stroke="midnightblue" d="M836.67,-380.44C856.41,-371.64 887.39,-357.81 909.99,-347.72"/>
<polygon fill="midnightblue" stroke="midnightblue" points="911.71,-350.79 919.42,-343.52 908.86,-344.4 911.71,-350.79"/>
</g>
<!-- Node27 -->
<g id="node27" class="node">
<title>Node27</title>
<g id="a_node27"><a xlink:href="trace-trait_8h.html" target="_top" xlink:title=" ">
<polygon fill="white" stroke="black" points="1019,-129 1019,-148 1114,-148 1114,-129 1019,-129"/>
<text text-anchor="middle" x="1066.5" y="-136" font-family="Helvetica,sans-Serif" font-size="10.00">cppgc/trace&#45;trait.h</text>
</a>
</g>
</g>
<!-- Node2&#45;&gt;Node27 -->
<g id="edge52" class="edge">
<title>Node2&#45;&gt;Node27</title>
<path fill="none" stroke="midnightblue" d="M819.32,-380.31C824.43,-357.65 840.8,-295.84 874.5,-257 919.19,-205.49 992.17,-169.6 1034.11,-151.98"/>
<polygon fill="midnightblue" stroke="midnightblue" points="1035.64,-155.13 1043.56,-148.09 1032.98,-148.66 1035.64,-155.13"/>
</g>
<!-- Node4 -->
<g id="node4" class="node">
<title>Node4</title>
<g id="a_node4"><a xlink:title=" ">
<polygon fill="white" stroke="#bfbfbf" points="0,-62 0,-81 51,-81 51,-62 0,-62"/>
<text text-anchor="middle" x="25.5" y="-69" font-family="Helvetica,sans-Serif" font-size="10.00">memory</text>
</a>
</g>
</g>
<!-- Node3&#45;&gt;Node4 -->
<g id="edge3" class="edge">
<title>Node3&#45;&gt;Node4</title>
<path fill="none" stroke="midnightblue" d="M330.35,-268.67C265.14,-263.03 133.55,-248.53 97.5,-221 54.52,-188.18 35.78,-123.03 28.9,-91.07"/>
<polygon fill="midnightblue" stroke="midnightblue" points="32.33,-90.37 26.94,-81.25 25.46,-91.74 32.33,-90.37"/>
</g>
<!-- Node5 -->
<g id="node5" class="node">
<title>Node5</title>
<g id="a_node5"><a xlink:title=" ">
<polygon fill="white" stroke="#bfbfbf" points="261.5,-196 261.5,-215 305.5,-215 305.5,-196 261.5,-196"/>
<text text-anchor="middle" x="283.5" y="-203" font-family="Helvetica,sans-Serif" font-size="10.00">vector</text>
</a>
</g>
</g>
<!-- Node3&#45;&gt;Node5 -->
<g id="edge4" class="edge">
<title>Node3&#45;&gt;Node5</title>
<path fill="none" stroke="midnightblue" d="M356.17,-262.73C342.44,-252.11 319.1,-234.05 302.58,-221.26"/>
<polygon fill="midnightblue" stroke="midnightblue" points="304.7,-218.48 294.65,-215.13 300.42,-224.02 304.7,-218.48"/>
</g>
<!-- Node6 -->
<g id="node6" class="node">
<title>Node6</title>
<g id="a_node6"><a xlink:href="common_8h.html" target="_top" xlink:title=" ">
<polygon fill="white" stroke="black" points="430,-196 430,-215 521,-215 521,-196 430,-196"/>
<text text-anchor="middle" x="475.5" y="-203" font-family="Helvetica,sans-Serif" font-size="10.00">cppgc/common.h</text>
</a>
</g>
</g>
<!-- Node3&#45;&gt;Node6 -->
<g id="edge5" class="edge">
<title>Node3&#45;&gt;Node6</title>
<path fill="none" stroke="midnightblue" d="M382.07,-262.73C400.12,-251.87 431.11,-233.22 452.42,-220.39"/>
<polygon fill="midnightblue" stroke="midnightblue" points="454.4,-223.28 461.17,-215.13 450.79,-217.29 454.4,-223.28"/>
</g>
<!-- Node3&#45;&gt;Node7 -->
<g id="edge18" class="edge">
<title>Node3&#45;&gt;Node7</title>
<path fill="none" stroke="midnightblue" d="M404.58,-267.29C439.75,-261.71 492.55,-249.06 529.5,-221 575.64,-185.95 605.93,-121.86 618.66,-90.61"/>
<polygon fill="midnightblue" stroke="midnightblue" points="622.03,-91.61 622.43,-81.02 615.51,-89.05 622.03,-91.61"/>
</g>
<!-- Node8 -->
<g id="node8" class="node">
<title>Node8</title>
<g id="a_node8"><a xlink:href="custom-space_8h.html" target="_top" xlink:title=" ">
<polygon fill="white" stroke="black" points="107,-196 107,-215 222,-215 222,-196 107,-196"/>
<text text-anchor="middle" x="164.5" y="-203" font-family="Helvetica,sans-Serif" font-size="10.00">cppgc/custom&#45;space.h</text>
</a>
</g>
</g>
<!-- Node3&#45;&gt;Node8 -->
<g id="edge7" class="edge">
<title>Node3&#45;&gt;Node8</title>
<path fill="none" stroke="midnightblue" d="M340.54,-262.87C304.65,-251.38 241.04,-231.01 200.91,-218.16"/>
<polygon fill="midnightblue" stroke="midnightblue" points="201.84,-214.78 191.25,-215.06 199.7,-221.45 201.84,-214.78"/>
</g>
<!-- Node10 -->
<g id="node10" class="node">
<title>Node10</title>
<g id="a_node10"><a xlink:href="platform_8h.html" target="_top" xlink:title=" ">
<polygon fill="white" stroke="black" points="323,-196 323,-215 412,-215 412,-196 323,-196"/>
<text text-anchor="middle" x="367.5" y="-203" font-family="Helvetica,sans-Serif" font-size="10.00">cppgc/platform.h</text>
</a>
</g>
</g>
<!-- Node3&#45;&gt;Node10 -->
<g id="edge9" class="edge">
<title>Node3&#45;&gt;Node10</title>
<path fill="none" stroke="midnightblue" d="M367.5,-262.73C367.5,-253.18 367.5,-237.62 367.5,-225.28"/>
<polygon fill="midnightblue" stroke="midnightblue" points="371,-225.13 367.5,-215.13 364,-225.13 371,-225.13"/>
</g>
<!-- Node6&#45;&gt;Node7 -->
<g id="edge6" class="edge">
<title>Node6&#45;&gt;Node7</title>
<path fill="none" stroke="midnightblue" d="M485.34,-195.84C510.35,-173.83 576.6,-115.54 608.22,-87.7"/>
<polygon fill="midnightblue" stroke="midnightblue" points="610.62,-90.25 615.82,-81.02 606,-85 610.62,-90.25"/>
</g>
<!-- Node9 -->
<g id="node9" class="node">
<title>Node9</title>
<g id="a_node9"><a xlink:title=" ">
<polygon fill="white" stroke="#bfbfbf" points="69,-62 69,-81 120,-81 120,-62 69,-62"/>
<text text-anchor="middle" x="94.5" y="-69" font-family="Helvetica,sans-Serif" font-size="10.00">stddef.h</text>
</a>
</g>
</g>
<!-- Node8&#45;&gt;Node9 -->
<g id="edge8" class="edge">
<title>Node8&#45;&gt;Node9</title>
<path fill="none" stroke="midnightblue" d="M152.47,-195.86C140.72,-186.78 123.23,-171.4 113.5,-154 102.56,-134.42 97.9,-108.82 95.93,-91.58"/>
<polygon fill="midnightblue" stroke="midnightblue" points="99.37,-90.78 94.95,-81.15 92.4,-91.44 99.37,-90.78"/>
</g>
<!-- Node10&#45;&gt;Node7 -->
<g id="edge17" class="edge">
<title>Node10&#45;&gt;Node7</title>
<path fill="none" stroke="midnightblue" d="M394.02,-195.86C419.74,-187 459.47,-171.97 491.5,-154 511.73,-142.65 513.95,-135.5 533.5,-123 554.94,-109.29 580.37,-95.51 599.05,-85.82"/>
<polygon fill="midnightblue" stroke="midnightblue" points="600.85,-88.82 608.15,-81.14 597.65,-82.6 600.85,-88.82"/>
</g>
<!-- Node11 -->
<g id="node11" class="node">
<title>Node11</title>
<g id="a_node11"><a xlink:href="v8-platform_8h.html" target="_top" xlink:title=" ">
<polygon fill="white" stroke="black" points="123,-129 123,-148 196,-148 196,-129 123,-129"/>
<text text-anchor="middle" x="159.5" y="-136" font-family="Helvetica,sans-Serif" font-size="10.00">v8&#45;platform.h</text>
</a>
</g>
</g>
<!-- Node10&#45;&gt;Node11 -->
<g id="edge10" class="edge">
<title>Node10&#45;&gt;Node11</title>
<path fill="none" stroke="midnightblue" d="M339.88,-195.87C303.02,-184.35 237.65,-163.92 196.55,-151.08"/>
<polygon fill="midnightblue" stroke="midnightblue" points="197.49,-147.71 186.9,-148.06 195.4,-154.39 197.49,-147.71"/>
</g>
<!-- Node11&#45;&gt;Node4 -->
<g id="edge14" class="edge">
<title>Node11&#45;&gt;Node4</title>
<path fill="none" stroke="midnightblue" d="M141.71,-128.87C118.88,-117.8 79.07,-98.49 52.5,-85.6"/>
<polygon fill="midnightblue" stroke="midnightblue" points="53.89,-82.38 43.37,-81.17 50.84,-88.68 53.89,-82.38"/>
</g>
<!-- Node11&#45;&gt;Node7 -->
<g id="edge16" class="edge">
<title>Node11&#45;&gt;Node7</title>
<path fill="none" stroke="midnightblue" d="M196.25,-130.83C210.92,-128.25 227.99,-125.36 243.5,-123 367.74,-104.07 515.34,-85.73 585.12,-77.31"/>
<polygon fill="midnightblue" stroke="midnightblue" points="585.72,-80.76 595.24,-76.09 584.89,-73.81 585.72,-80.76"/>
</g>
<!-- Node11&#45;&gt;Node9 -->
<g id="edge11" class="edge">
<title>Node11&#45;&gt;Node9</title>
<path fill="none" stroke="midnightblue" d="M150.73,-128.73C140.4,-118.4 123.04,-101.04 110.33,-88.33"/>
<polygon fill="midnightblue" stroke="midnightblue" points="112.67,-85.72 103.13,-81.13 107.72,-90.67 112.67,-85.72"/>
</g>
<!-- Node12 -->
<g id="node12" class="node">
<title>Node12</title>
<g id="a_node12"><a xlink:title=" ">
<polygon fill="white" stroke="#bfbfbf" points="203.5,-62 203.5,-81 251.5,-81 251.5,-62 203.5,-62"/>
<text text-anchor="middle" x="227.5" y="-69" font-family="Helvetica,sans-Serif" font-size="10.00">stdint.h</text>
</a>
</g>
</g>
<!-- Node11&#45;&gt;Node12 -->
<g id="edge12" class="edge">
<title>Node11&#45;&gt;Node12</title>
<path fill="none" stroke="midnightblue" d="M168.67,-128.73C179.48,-118.4 197.65,-101.04 210.94,-88.33"/>
<polygon fill="midnightblue" stroke="midnightblue" points="213.66,-90.57 218.47,-81.13 208.83,-85.51 213.66,-90.57"/>
</g>
<!-- Node13 -->
<g id="node13" class="node">
<title>Node13</title>
<g id="a_node13"><a xlink:title=" ">
<polygon fill="white" stroke="#bfbfbf" points="138,-62 138,-81 185,-81 185,-62 138,-62"/>
<text text-anchor="middle" x="161.5" y="-69" font-family="Helvetica,sans-Serif" font-size="10.00">stdlib.h</text>
</a>
</g>
</g>
<!-- Node11&#45;&gt;Node13 -->
<g id="edge13" class="edge">
<title>Node11&#45;&gt;Node13</title>
<path fill="none" stroke="midnightblue" d="M159.77,-128.73C160.06,-119.18 160.54,-103.62 160.92,-91.28"/>
<polygon fill="midnightblue" stroke="midnightblue" points="164.43,-91.23 161.23,-81.13 157.43,-91.01 164.43,-91.23"/>
</g>
<!-- Node14 -->
<g id="node14" class="node">
<title>Node14</title>
<g id="a_node14"><a xlink:title=" ">
<polygon fill="white" stroke="#bfbfbf" points="270,-62 270,-81 311,-81 311,-62 270,-62"/>
<text text-anchor="middle" x="290.5" y="-69" font-family="Helvetica,sans-Serif" font-size="10.00">string</text>
</a>
</g>
</g>
<!-- Node11&#45;&gt;Node14 -->
<g id="edge15" class="edge">
<title>Node11&#45;&gt;Node14</title>
<path fill="none" stroke="midnightblue" d="M176.9,-128.87C199.11,-117.84 237.79,-98.66 263.76,-85.77"/>
<polygon fill="midnightblue" stroke="midnightblue" points="265.63,-88.75 273.03,-81.17 262.52,-82.48 265.63,-88.75"/>
</g>
<!-- Node15&#45;&gt;Node7 -->
<g id="edge51" class="edge">
<title>Node15&#45;&gt;Node7</title>
<path fill="none" stroke="midnightblue" d="M920.13,-324.42C884.49,-307.36 804.2,-266.81 744.5,-221 711.09,-195.36 703.87,-186.83 677.5,-154 660.81,-133.22 644.81,-106.85 635.07,-89.83"/>
<polygon fill="midnightblue" stroke="midnightblue" points="638.06,-88 630.1,-81 631.96,-91.43 638.06,-88"/>
</g>
<!-- Node16 -->
<g id="node16" class="node">
<title>Node16</title>
<g id="a_node16"><a xlink:title=" ">
<polygon fill="white" stroke="#bfbfbf" points="1286.5,-0.5 1286.5,-19.5 1332.5,-19.5 1332.5,-0.5 1286.5,-0.5"/>
<text text-anchor="middle" x="1309.5" y="-7.5" font-family="Helvetica,sans-Serif" font-size="10.00">atomic</text>
</a>
</g>
</g>
<!-- Node15&#45;&gt;Node16 -->
<g id="edge20" class="edge">
<title>Node15&#45;&gt;Node16</title>
<path fill="none" stroke="midnightblue" d="M983.05,-331.27C1105.91,-325.3 1440.5,-300.42 1440.5,-206.5 1440.5,-206.5 1440.5,-206.5 1440.5,-137.5 1440.5,-100.31 1445.71,-84.23 1421.5,-56 1401.6,-32.79 1368,-21.42 1342.79,-15.93"/>
<polygon fill="midnightblue" stroke="midnightblue" points="1343.39,-12.48 1332.9,-13.98 1342.03,-19.35 1343.39,-12.48"/>
</g>
<!-- Node17 -->
<g id="node17" class="node">
<title>Node17</title>
<g id="a_node17"><a xlink:title=" ">
<polygon fill="white" stroke="#bfbfbf" points="1469,-263 1469,-282 1518,-282 1518,-263 1469,-263"/>
<text text-anchor="middle" x="1493.5" y="-270" font-family="Helvetica,sans-Serif" font-size="10.00">cstddef</text>
</a>
</g>
</g>
<!-- Node15&#45;&gt;Node17 -->
<g id="edge21" class="edge">
<title>Node15&#45;&gt;Node17</title>
<path fill="none" stroke="midnightblue" d="M983.29,-333.11C1073.58,-332.47 1283.43,-326.52 1454.5,-288 1457.57,-287.31 1460.73,-286.43 1463.85,-285.45"/>
<polygon fill="midnightblue" stroke="midnightblue" points="1465.27,-288.67 1473.57,-282.08 1462.98,-282.05 1465.27,-288.67"/>
</g>
<!-- Node18 -->
<g id="node18" class="node">
<title>Node18</title>
<g id="a_node18"><a xlink:title=" ">
<polygon fill="white" stroke="#bfbfbf" points="1046.5,-0.5 1046.5,-19.5 1108.5,-19.5 1108.5,-0.5 1046.5,-0.5"/>
<text text-anchor="middle" x="1077.5" y="-7.5" font-family="Helvetica,sans-Serif" font-size="10.00">type_traits</text>
</a>
</g>
</g>
<!-- Node15&#45;&gt;Node18 -->
<g id="edge22" class="edge">
<title>Node15&#45;&gt;Node18</title>
<path fill="none" stroke="midnightblue" d="M909.67,-324.47C880.5,-315.72 834.17,-301.52 794.5,-288 675.64,-247.48 651.48,-219.81 529.5,-190 467.27,-174.79 285.87,-202.04 243.5,-154 234.39,-143.67 234.74,-133.64 243.5,-123 294.62,-60.93 874.67,-22.78 1036.06,-13.32"/>
<polygon fill="midnightblue" stroke="midnightblue" points="1036.29,-16.81 1046.07,-12.74 1035.89,-9.82 1036.29,-16.81"/>
</g>
<!-- Node19 -->
<g id="node19" class="node">
<title>Node19</title>
<g id="a_node19"><a xlink:href="pointer-policies_8h.html" target="_top" xlink:title=" ">
<polygon fill="white" stroke="black" points="883.5,-257.5 883.5,-287.5 993.5,-287.5 993.5,-257.5 883.5,-257.5"/>
<text text-anchor="start" x="891.5" y="-275.5" font-family="Helvetica,sans-Serif" font-size="10.00">cppgc/internal/pointer</text>
<text text-anchor="middle" x="938.5" y="-264.5" font-family="Helvetica,sans-Serif" font-size="10.00">&#45;policies.h</text>
</a>
</g>
</g>
<!-- Node15&#45;&gt;Node19 -->
<g id="edge23" class="edge">
<title>Node15&#45;&gt;Node19</title>
<path fill="none" stroke="midnightblue" d="M938.5,-324.48C938.5,-317.47 938.5,-307.19 938.5,-297.7"/>
<polygon fill="midnightblue" stroke="midnightblue" points="942,-297.52 938.5,-287.52 935,-297.52 942,-297.52"/>
</g>
<!-- Node26 -->
<g id="node26" class="node">
<title>Node26</title>
<g id="a_node26"><a xlink:href="sentinel-pointer_8h.html" target="_top" xlink:title=" ">
<polygon fill="white" stroke="black" points="1171,-129 1171,-148 1290,-148 1290,-129 1171,-129"/>
<text text-anchor="middle" x="1230.5" y="-136" font-family="Helvetica,sans-Serif" font-size="10.00">cppgc/sentinel&#45;pointer.h</text>
</a>
</g>
</g>
<!-- Node15&#45;&gt;Node26 -->
<g id="edge49" class="edge">
<title>Node15&#45;&gt;Node26</title>
<path fill="none" stroke="midnightblue" d="M961.38,-324.44C1002.87,-308.26 1092.17,-270.32 1156.5,-221 1181.3,-201.99 1204.61,-174.02 1218.21,-156.29"/>
<polygon fill="midnightblue" stroke="midnightblue" points="1221.19,-158.15 1224.4,-148.05 1215.59,-153.94 1221.19,-158.15"/>
</g>
<!-- Node28 -->
<g id="node28" class="node">
<title>Node28</title>
<g id="a_node28"><a xlink:href="type-traits_8h.html" target="_top" xlink:title=" ">
<polygon fill="white" stroke="black" points="1316.5,-62 1316.5,-81 1412.5,-81 1412.5,-62 1316.5,-62"/>
<text text-anchor="middle" x="1364.5" y="-69" font-family="Helvetica,sans-Serif" font-size="10.00">cppgc/type&#45;traits.h</text>
</a>
</g>
</g>
<!-- Node15&#45;&gt;Node28 -->
<g id="edge50" class="edge">
<title>Node15&#45;&gt;Node28</title>
<path fill="none" stroke="midnightblue" d="M974.87,-324.45C1048.1,-305.54 1214.94,-253.76 1315.5,-154 1334.31,-135.34 1348.8,-108.04 1356.98,-90.27"/>
<polygon fill="midnightblue" stroke="midnightblue" points="1360.22,-91.61 1361.06,-81.05 1353.82,-88.78 1360.22,-91.61"/>
</g>
<!-- Node19&#45;&gt;Node7 -->
<g id="edge48" class="edge">
<title>Node19&#45;&gt;Node7</title>
<path fill="none" stroke="midnightblue" d="M884.97,-257.47C845.89,-246.69 796.7,-231.86 778.5,-221 778.25,-220.85 681.69,-127.08 642.12,-88.64"/>
<polygon fill="midnightblue" stroke="midnightblue" points="644.21,-85.79 634.59,-81.33 639.33,-90.81 644.21,-85.79"/>
</g>
<!-- Node19&#45;&gt;Node18 -->
<g id="edge25" class="edge">
<title>Node19&#45;&gt;Node18</title>
<path fill="none" stroke="midnightblue" d="M982.77,-257.39C1027.15,-240.6 1093,-207.85 1122.5,-154 1134.57,-131.97 1102.85,-61.86 1086.52,-28.7"/>
<polygon fill="midnightblue" stroke="midnightblue" points="1089.62,-27.07 1082.01,-19.69 1083.36,-30.2 1089.62,-27.07"/>
</g>
<!-- Node20 -->
<g id="node20" class="node">
<title>Node20</title>
<g id="a_node20"><a xlink:title=" ">
<polygon fill="white" stroke="#bfbfbf" points="1252.5,-62 1252.5,-81 1298.5,-81 1298.5,-62 1252.5,-62"/>
<text text-anchor="middle" x="1275.5" y="-69" font-family="Helvetica,sans-Serif" font-size="10.00">cstdint</text>
</a>
</g>
</g>
<!-- Node19&#45;&gt;Node20 -->
<g id="edge24" class="edge">
<title>Node19&#45;&gt;Node20</title>
<path fill="none" stroke="midnightblue" d="M993.61,-262.23C1086.2,-245.35 1266.17,-206.42 1299.5,-154 1312.19,-134.05 1299.57,-107.12 1288.37,-89.78"/>
<polygon fill="midnightblue" stroke="midnightblue" points="1291.03,-87.48 1282.46,-81.24 1285.27,-91.46 1291.03,-87.48"/>
</g>
<!-- Node21 -->
<g id="node21" class="node">
<title>Node21</title>
<g id="a_node21"><a xlink:href="write-barrier_8h.html" target="_top" xlink:title=" ">
<polygon fill="white" stroke="black" points="788,-190.5 788,-220.5 889,-220.5 889,-190.5 788,-190.5"/>
<text text-anchor="start" x="796" y="-208.5" font-family="Helvetica,sans-Serif" font-size="10.00">cppgc/internal/write</text>
<text text-anchor="middle" x="838.5" y="-197.5" font-family="Helvetica,sans-Serif" font-size="10.00">&#45;barrier.h</text>
</a>
</g>
</g>
<!-- Node19&#45;&gt;Node21 -->
<g id="edge26" class="edge">
<title>Node19&#45;&gt;Node21</title>
<path fill="none" stroke="midnightblue" d="M916.8,-257.4C902.78,-248.28 884.33,-236.29 868.86,-226.24"/>
<polygon fill="midnightblue" stroke="midnightblue" points="870.45,-223.09 860.16,-220.58 866.63,-228.96 870.45,-223.09"/>
</g>
<!-- Node29 -->
<g id="node29" class="node">
<title>Node29</title>
<g id="a_node29"><a xlink:href="source-location_8h.html" target="_top" xlink:title=" ">
<polygon fill="white" stroke="black" points="364,-129 364,-148 483,-148 483,-129 364,-129"/>
<text text-anchor="middle" x="423.5" y="-136" font-family="Helvetica,sans-Serif" font-size="10.00">cppgc/source&#45;location.h</text>
</a>
</g>
</g>
<!-- Node19&#45;&gt;Node29 -->
<g id="edge45" class="edge">
<title>Node19&#45;&gt;Node29</title>
<path fill="none" stroke="midnightblue" d="M883.22,-258.89C840.16,-248.94 778.92,-234.54 725.5,-221 631.39,-197.15 521.45,-166.87 463.68,-150.77"/>
<polygon fill="midnightblue" stroke="midnightblue" points="464.43,-147.34 453.85,-148.02 462.54,-154.08 464.43,-147.34"/>
</g>
<!-- Node21&#45;&gt;Node7 -->
<g id="edge44" class="edge">
<title>Node21&#45;&gt;Node7</title>
<path fill="none" stroke="midnightblue" d="M843.07,-190.38C847.87,-172.62 852.79,-142.12 837.5,-123 816.35,-96.56 721.16,-82.41 665.79,-76.28"/>
<polygon fill="midnightblue" stroke="midnightblue" points="665.93,-72.78 655.61,-75.2 665.19,-79.74 665.93,-72.78"/>
</g>
<!-- Node22 -->
<g id="node22" class="node">
<title>Node22</title>
<g id="a_node22"><a xlink:href="heap-state_8h.html" target="_top" xlink:title=" ">
<polygon fill="white" stroke="black" points="730,-129 730,-148 829,-148 829,-129 730,-129"/>
<text text-anchor="middle" x="779.5" y="-136" font-family="Helvetica,sans-Serif" font-size="10.00">cppgc/heap&#45;state.h</text>
</a>
</g>
</g>
<!-- Node21&#45;&gt;Node22 -->
<g id="edge27" class="edge">
<title>Node21&#45;&gt;Node22</title>
<path fill="none" stroke="midnightblue" d="M825.7,-190.4C816.41,-180.16 803.82,-166.3 794.13,-155.62"/>
<polygon fill="midnightblue" stroke="midnightblue" points="796.7,-153.25 787.39,-148.19 791.52,-157.95 796.7,-153.25"/>
</g>
<!-- Node23 -->
<g id="node23" class="node">
<title>Node23</title>
<g id="a_node23"><a xlink:href="api-constants_8h.html" target="_top" xlink:title=" ">
<polygon fill="white" stroke="black" points="253,-123.5 253,-153.5 346,-153.5 346,-123.5 253,-123.5"/>
<text text-anchor="start" x="261" y="-141.5" font-family="Helvetica,sans-Serif" font-size="10.00">cppgc/internal/api</text>
<text text-anchor="middle" x="299.5" y="-130.5" font-family="Helvetica,sans-Serif" font-size="10.00">&#45;constants.h</text>
</a>
</g>
</g>
<!-- Node21&#45;&gt;Node23 -->
<g id="edge29" class="edge">
<title>Node21&#45;&gt;Node23</title>
<path fill="none" stroke="midnightblue" d="M787.97,-201.79C701.34,-196.6 518.84,-183.21 356.37,-154.18"/>
<polygon fill="midnightblue" stroke="midnightblue" points="356.66,-150.67 346.2,-152.33 355.41,-157.56 356.66,-150.67"/>
</g>
<!-- Node24 -->
<g id="node24" class="node">
<title>Node24</title>
<g id="a_node24"><a xlink:href="process-heap_8h.html" target="_top" xlink:title=" ">
<polygon fill="white" stroke="black" points="886,-123.5 886,-153.5 1001,-153.5 1001,-123.5 886,-123.5"/>
<text text-anchor="start" x="894" y="-141.5" font-family="Helvetica,sans-Serif" font-size="10.00">cppgc/internal/process</text>
<text text-anchor="middle" x="943.5" y="-130.5" font-family="Helvetica,sans-Serif" font-size="10.00">&#45;heap.h</text>
</a>
</g>
</g>
<!-- Node21&#45;&gt;Node24 -->
<g id="edge33" class="edge">
<title>Node21&#45;&gt;Node24</title>
<path fill="none" stroke="midnightblue" d="M861.28,-190.4C876.14,-181.2 895.74,-169.07 912.07,-158.95"/>
<polygon fill="midnightblue" stroke="midnightblue" points="914.1,-161.82 920.76,-153.58 910.42,-155.86 914.1,-161.82"/>
</g>
<!-- Node21&#45;&gt;Node26 -->
<g id="edge37" class="edge">
<title>Node21&#45;&gt;Node26</title>
<path fill="none" stroke="midnightblue" d="M889.35,-196.07C961.11,-184.17 1091.96,-162.47 1169.07,-149.69"/>
<polygon fill="midnightblue" stroke="midnightblue" points="1169.83,-153.11 1179.12,-148.02 1168.68,-146.2 1169.83,-153.11"/>
</g>
<!-- Node21&#45;&gt;Node27 -->
<g id="edge39" class="edge">
<title>Node21&#45;&gt;Node27</title>
<path fill="none" stroke="midnightblue" d="M887.69,-190.48C929.27,-178.62 988.07,-161.86 1026.73,-150.84"/>
<polygon fill="midnightblue" stroke="midnightblue" points="1027.93,-154.14 1036.58,-148.03 1026.01,-147.4 1027.93,-154.14"/>
</g>
<!-- Node22&#45;&gt;Node7 -->
<g id="edge28" class="edge">
<title>Node22&#45;&gt;Node7</title>
<path fill="none" stroke="midnightblue" d="M759.05,-128.87C732.47,-117.65 685.86,-97.98 655.33,-85.09"/>
<polygon fill="midnightblue" stroke="midnightblue" points="656.61,-81.83 646.03,-81.17 653.89,-88.28 656.61,-81.83"/>
</g>
<!-- Node23&#45;&gt;Node7 -->
<g id="edge32" class="edge">
<title>Node23&#45;&gt;Node7</title>
<path fill="none" stroke="midnightblue" d="M346.25,-124.92C349.04,-124.25 351.8,-123.61 354.5,-123 435.92,-104.71 532.16,-87.9 585.25,-79.05"/>
<polygon fill="midnightblue" stroke="midnightblue" points="585.98,-82.47 595.28,-77.39 584.84,-75.57 585.98,-82.47"/>
</g>
<!-- Node23&#45;&gt;Node9 -->
<g id="edge30" class="edge">
<title>Node23&#45;&gt;Node9</title>
<path fill="none" stroke="midnightblue" d="M252.94,-125.32C218.29,-115.88 170.01,-101.92 128.5,-87 126.64,-86.33 124.74,-85.62 122.83,-84.87"/>
<polygon fill="midnightblue" stroke="midnightblue" points="123.99,-81.56 113.41,-81.02 121.34,-88.04 123.99,-81.56"/>
</g>
<!-- Node23&#45;&gt;Node12 -->
<g id="edge31" class="edge">
<title>Node23&#45;&gt;Node12</title>
<path fill="none" stroke="midnightblue" d="M283.88,-123.4C272.32,-112.96 256.58,-98.75 244.67,-88"/>
<polygon fill="midnightblue" stroke="midnightblue" points="246.9,-85.3 237.13,-81.19 242.21,-90.49 246.9,-85.3"/>
</g>
<!-- Node24&#45;&gt;Node7 -->
<g id="edge36" class="edge">
<title>Node24&#45;&gt;Node7</title>
<path fill="none" stroke="midnightblue" d="M885.91,-125.73C822.22,-112.71 721.27,-92.08 665.62,-80.7"/>
<polygon fill="midnightblue" stroke="midnightblue" points="666.27,-77.26 655.77,-78.69 664.87,-84.12 666.27,-77.26"/>
</g>
<!-- Node25 -->
<g id="node25" class="node">
<title>Node25</title>
<g id="a_node25"><a xlink:href="atomic-entry-flag_8h.html" target="_top" xlink:title=" ">
<polygon fill="white" stroke="black" points="1124.5,-56.5 1124.5,-86.5 1234.5,-86.5 1234.5,-56.5 1124.5,-56.5"/>
<text text-anchor="start" x="1132.5" y="-74.5" font-family="Helvetica,sans-Serif" font-size="10.00">cppgc/internal/atomic</text>
<text text-anchor="middle" x="1179.5" y="-63.5" font-family="Helvetica,sans-Serif" font-size="10.00">&#45;entry&#45;flag.h</text>
</a>
</g>
</g>
<!-- Node24&#45;&gt;Node25 -->
<g id="edge34" class="edge">
<title>Node24&#45;&gt;Node25</title>
<path fill="none" stroke="midnightblue" d="M994.42,-123.48C1030.74,-113.47 1079.76,-99.97 1118.22,-89.38"/>
<polygon fill="midnightblue" stroke="midnightblue" points="1119.55,-92.64 1128.27,-86.61 1117.7,-85.89 1119.55,-92.64"/>
</g>
<!-- Node25&#45;&gt;Node16 -->
<g id="edge35" class="edge">
<title>Node25&#45;&gt;Node16</title>
<path fill="none" stroke="midnightblue" d="M1210.31,-56.4C1231.83,-46.55 1260.34,-33.5 1281.27,-23.92"/>
<polygon fill="midnightblue" stroke="midnightblue" points="1282.95,-27 1290.58,-19.66 1280.03,-20.64 1282.95,-27"/>
</g>
<!-- Node26&#45;&gt;Node20 -->
<g id="edge38" class="edge">
<title>Node26&#45;&gt;Node20</title>
<path fill="none" stroke="midnightblue" d="M1236.57,-128.73C1243.52,-118.7 1255.07,-102.01 1263.79,-89.42"/>
<polygon fill="midnightblue" stroke="midnightblue" points="1266.71,-91.34 1269.53,-81.13 1260.96,-87.36 1266.71,-91.34"/>
</g>
<!-- Node27&#45;&gt;Node7 -->
<g id="edge43" class="edge">
<title>Node27&#45;&gt;Node7</title>
<path fill="none" stroke="midnightblue" d="M1035.59,-128.93C1027.17,-126.79 1018.02,-124.64 1009.5,-123 885.14,-99.09 735.93,-83.03 665.74,-76.21"/>
<polygon fill="midnightblue" stroke="midnightblue" points="665.86,-72.7 655.57,-75.23 665.19,-79.67 665.86,-72.7"/>
</g>
<!-- Node27&#45;&gt;Node18 -->
<g id="edge40" class="edge">
<title>Node27&#45;&gt;Node18</title>
<path fill="none" stroke="midnightblue" d="M1067.26,-128.81C1069.02,-108.49 1073.45,-57.55 1075.87,-29.78"/>
<polygon fill="midnightblue" stroke="midnightblue" points="1079.36,-30.02 1076.74,-19.76 1072.39,-29.41 1079.36,-30.02"/>
</g>
<!-- Node27&#45;&gt;Node28 -->
<g id="edge41" class="edge">
<title>Node27&#45;&gt;Node28</title>
<path fill="none" stroke="midnightblue" d="M1110.16,-128.93C1158.53,-119.3 1238.79,-102.93 1307.5,-87 1312.22,-85.9 1317.16,-84.72 1322.06,-83.51"/>
<polygon fill="midnightblue" stroke="midnightblue" points="1323.15,-86.84 1332,-81.02 1321.45,-80.05 1323.15,-86.84"/>
</g>
<!-- Node28&#45;&gt;Node18 -->
<g id="edge42" class="edge">
<title>Node28&#45;&gt;Node18</title>
<path fill="none" stroke="midnightblue" d="M1332.32,-61.98C1324.24,-59.93 1315.57,-57.81 1307.5,-56 1241.81,-41.23 1164.94,-26.75 1118.79,-18.36"/>
<polygon fill="midnightblue" stroke="midnightblue" points="1119.33,-14.9 1108.87,-16.56 1118.08,-21.79 1119.33,-14.9"/>
</g>
<!-- Node29&#45;&gt;Node7 -->
<g id="edge47" class="edge">
<title>Node29&#45;&gt;Node7</title>
<path fill="none" stroke="midnightblue" d="M450.32,-128.87C486.04,-117.38 549.34,-97.01 589.27,-84.16"/>
<polygon fill="midnightblue" stroke="midnightblue" points="590.44,-87.46 598.89,-81.06 588.3,-80.8 590.44,-87.46"/>
</g>
<!-- Node29&#45;&gt;Node14 -->
<g id="edge46" class="edge">
<title>Node29&#45;&gt;Node14</title>
<path fill="none" stroke="midnightblue" d="M405.84,-128.87C383.18,-117.8 343.67,-98.49 317.3,-85.6"/>
<polygon fill="midnightblue" stroke="midnightblue" points="318.76,-82.41 308.23,-81.17 315.68,-88.7 318.76,-82.41"/>
</g>
</g>
</svg>
