<?xml version="1.0" encoding="UTF-8" standalone="no"?>
<!DOCTYPE svg PUBLIC "-//W3C//DTD SVG 1.1//EN"
 "http://www.w3.org/Graphics/SVG/1.1/DTD/svg11.dtd">
<!-- Generated by graphviz version 2.44.0 ()
 -->
<!-- Title: include/cppgc/heap&#45;consistency.h Pages: 1 -->
<svg width="852pt" height="296pt"
 viewBox="0.00 0.00 852.00 296.00" xmlns="http://www.w3.org/2000/svg" xmlns:xlink="http://www.w3.org/1999/xlink">
<g id="graph0" class="graph" transform="scale(1 1) rotate(0) translate(4 292)">
<title>include/cppgc/heap&#45;consistency.h</title>
<polygon fill="white" stroke="transparent" points="-4,4 -4,-292 848,-292 848,4 -4,4"/>
<!-- Node1 -->
<g id="node1" class="node">
<title>Node1</title>
<g id="a_node1"><a xlink:title=" ">
<polygon fill="#bfbfbf" stroke="black" points="385,-257.5 385,-287.5 486,-287.5 486,-257.5 385,-257.5"/>
<text text-anchor="start" x="393" y="-275.5" font-family="Helvetica,sans-Serif" font-size="10.00">include/cppgc/heap</text>
<text text-anchor="middle" x="435.5" y="-264.5" font-family="Helvetica,sans-Serif" font-size="10.00">&#45;consistency.h</text>
</a>
</g>
</g>
<!-- Node2 -->
<g id="node2" class="node">
<title>Node2</title>
<g id="a_node2"><a xlink:title=" ">
<polygon fill="white" stroke="#bfbfbf" points="239,-196 239,-215 288,-215 288,-196 239,-196"/>
<text text-anchor="middle" x="263.5" y="-203" font-family="Helvetica,sans-Serif" font-size="10.00">cstddef</text>
</a>
</g>
</g>
<!-- Node1&#45;&gt;Node2 -->
<g id="edge1" class="edge">
<title>Node1&#45;&gt;Node2</title>
<path fill="none" stroke="midnightblue" d="M395.43,-257.46C367.78,-247.62 330.23,-233.96 297.5,-221 295.9,-220.37 294.26,-219.71 292.61,-219.03"/>
<polygon fill="midnightblue" stroke="midnightblue" points="293.78,-215.73 283.2,-215.11 291.09,-222.19 293.78,-215.73"/>
</g>
<!-- Node3 -->
<g id="node3" class="node">
<title>Node3</title>
<g id="a_node3"><a xlink:href="write-barrier_8h.html" target="_top" xlink:title=" ">
<polygon fill="white" stroke="black" points="306,-190.5 306,-220.5 407,-220.5 407,-190.5 306,-190.5"/>
<text text-anchor="start" x="314" y="-208.5" font-family="Helvetica,sans-Serif" font-size="10.00">cppgc/internal/write</text>
<text text-anchor="middle" x="356.5" y="-197.5" font-family="Helvetica,sans-Serif" font-size="10.00">&#45;barrier.h</text>
</a>
</g>
</g>
<!-- Node1&#45;&gt;Node3 -->
<g id="edge2" class="edge">
<title>Node1&#45;&gt;Node3</title>
<path fill="none" stroke="midnightblue" d="M418.36,-257.4C407.59,-248.54 393.52,-236.96 381.52,-227.09"/>
<polygon fill="midnightblue" stroke="midnightblue" points="383.55,-224.23 373.61,-220.58 379.11,-229.63 383.55,-224.23"/>
</g>
<!-- Node5 -->
<g id="node5" class="node">
<title>Node5</title>
<g id="a_node5"><a xlink:href="v8config_8h.html" target="_top" xlink:title=" ">
<polygon fill="white" stroke="black" points="382.5,-62 382.5,-81 442.5,-81 442.5,-62 382.5,-62"/>
<text text-anchor="middle" x="412.5" y="-69" font-family="Helvetica,sans-Serif" font-size="10.00">v8config.h</text>
</a>
</g>
</g>
<!-- Node1&#45;&gt;Node5 -->
<g id="edge25" class="edge">
<title>Node1&#45;&gt;Node5</title>
<path fill="none" stroke="midnightblue" d="M433.85,-257.19C429.78,-221.99 419.28,-131.17 414.7,-91.51"/>
<polygon fill="midnightblue" stroke="midnightblue" points="418.15,-90.89 413.52,-81.36 411.2,-91.7 418.15,-90.89"/>
</g>
<!-- Node14 -->
<g id="node14" class="node">
<title>Node14</title>
<g id="a_node14"><a xlink:href="trace-trait_8h.html" target="_top" xlink:title=" ">
<polygon fill="white" stroke="black" points="575,-129 575,-148 670,-148 670,-129 575,-129"/>
<text text-anchor="middle" x="622.5" y="-136" font-family="Helvetica,sans-Serif" font-size="10.00">cppgc/trace&#45;trait.h</text>
</a>
</g>
</g>
<!-- Node1&#45;&gt;Node14 -->
<g id="edge24" class="edge">
<title>Node1&#45;&gt;Node14</title>
<path fill="none" stroke="midnightblue" d="M455.51,-257.37C491.3,-232.11 565.88,-179.46 602.01,-153.96"/>
<polygon fill="midnightblue" stroke="midnightblue" points="604.17,-156.72 610.32,-148.1 600.13,-151 604.17,-156.72"/>
</g>
<!-- Node17 -->
<g id="node17" class="node">
<title>Node17</title>
<g id="a_node17"><a xlink:href="macros_8h.html" target="_top" xlink:title=" ">
<polygon fill="white" stroke="black" points="655.5,-196 655.5,-215 741.5,-215 741.5,-196 655.5,-196"/>
<text text-anchor="middle" x="698.5" y="-203" font-family="Helvetica,sans-Serif" font-size="10.00">cppgc/macros.h</text>
</a>
</g>
</g>
<!-- Node1&#45;&gt;Node17 -->
<g id="edge21" class="edge">
<title>Node1&#45;&gt;Node17</title>
<path fill="none" stroke="midnightblue" d="M486.21,-258.97C534.88,-246.94 607.66,-228.95 654.1,-217.47"/>
<polygon fill="midnightblue" stroke="midnightblue" points="655.01,-220.85 663.88,-215.06 653.33,-214.06 655.01,-220.85"/>
</g>
<!-- Node4 -->
<g id="node4" class="node">
<title>Node4</title>
<g id="a_node4"><a xlink:href="heap-state_8h.html" target="_top" xlink:title=" ">
<polygon fill="white" stroke="black" points="270,-129 270,-148 369,-148 369,-129 270,-129"/>
<text text-anchor="middle" x="319.5" y="-136" font-family="Helvetica,sans-Serif" font-size="10.00">cppgc/heap&#45;state.h</text>
</a>
</g>
</g>
<!-- Node3&#45;&gt;Node4 -->
<g id="edge3" class="edge">
<title>Node3&#45;&gt;Node4</title>
<path fill="none" stroke="midnightblue" d="M348.47,-190.4C342.87,-180.56 335.37,-167.38 329.4,-156.89"/>
<polygon fill="midnightblue" stroke="midnightblue" points="332.44,-155.15 324.45,-148.19 326.35,-158.62 332.44,-155.15"/>
</g>
<!-- Node3&#45;&gt;Node5 -->
<g id="edge20" class="edge">
<title>Node3&#45;&gt;Node5</title>
<path fill="none" stroke="midnightblue" d="M362.72,-190.38C367.16,-180.26 373.25,-166.32 378.5,-154 387.77,-132.25 398.21,-107.13 405.05,-90.59"/>
<polygon fill="midnightblue" stroke="midnightblue" points="408.39,-91.66 408.97,-81.08 401.92,-88.99 408.39,-91.66"/>
</g>
<!-- Node6 -->
<g id="node6" class="node">
<title>Node6</title>
<g id="a_node6"><a xlink:href="api-constants_8h.html" target="_top" xlink:title=" ">
<polygon fill="white" stroke="black" points="464,-123.5 464,-153.5 557,-153.5 557,-123.5 464,-123.5"/>
<text text-anchor="start" x="472" y="-141.5" font-family="Helvetica,sans-Serif" font-size="10.00">cppgc/internal/api</text>
<text text-anchor="middle" x="510.5" y="-130.5" font-family="Helvetica,sans-Serif" font-size="10.00">&#45;constants.h</text>
</a>
</g>
</g>
<!-- Node3&#45;&gt;Node6 -->
<g id="edge5" class="edge">
<title>Node3&#45;&gt;Node6</title>
<path fill="none" stroke="midnightblue" d="M389.92,-190.4C412.72,-180.77 443.13,-167.94 467.7,-157.56"/>
<polygon fill="midnightblue" stroke="midnightblue" points="469.3,-160.69 477.15,-153.58 466.58,-154.24 469.3,-160.69"/>
</g>
<!-- Node9 -->
<g id="node9" class="node">
<title>Node9</title>
<g id="a_node9"><a xlink:href="process-heap_8h.html" target="_top" xlink:title=" ">
<polygon fill="white" stroke="black" points="137,-123.5 137,-153.5 252,-153.5 252,-123.5 137,-123.5"/>
<text text-anchor="start" x="145" y="-141.5" font-family="Helvetica,sans-Serif" font-size="10.00">cppgc/internal/process</text>
<text text-anchor="middle" x="194.5" y="-130.5" font-family="Helvetica,sans-Serif" font-size="10.00">&#45;heap.h</text>
</a>
</g>
</g>
<!-- Node3&#45;&gt;Node9 -->
<g id="edge9" class="edge">
<title>Node3&#45;&gt;Node9</title>
<path fill="none" stroke="midnightblue" d="M321.35,-190.4C297.25,-180.73 265.09,-167.82 239.18,-157.43"/>
<polygon fill="midnightblue" stroke="midnightblue" points="240.17,-154.05 229.58,-153.58 237.56,-160.55 240.17,-154.05"/>
</g>
<!-- Node12 -->
<g id="node12" class="node">
<title>Node12</title>
<g id="a_node12"><a xlink:href="sentinel-pointer_8h.html" target="_top" xlink:title=" ">
<polygon fill="white" stroke="black" points="0,-129 0,-148 119,-148 119,-129 0,-129"/>
<text text-anchor="middle" x="59.5" y="-136" font-family="Helvetica,sans-Serif" font-size="10.00">cppgc/sentinel&#45;pointer.h</text>
</a>
</g>
</g>
<!-- Node3&#45;&gt;Node12 -->
<g id="edge13" class="edge">
<title>Node3&#45;&gt;Node12</title>
<path fill="none" stroke="midnightblue" d="M305.99,-191.98C303.12,-191.3 300.28,-190.64 297.5,-190 279.45,-185.87 174.44,-163.7 110.09,-150.14"/>
<polygon fill="midnightblue" stroke="midnightblue" points="110.63,-146.68 100.13,-148.05 109.19,-153.53 110.63,-146.68"/>
</g>
<!-- Node3&#45;&gt;Node14 -->
<g id="edge15" class="edge">
<title>Node3&#45;&gt;Node14</title>
<path fill="none" stroke="midnightblue" d="M407.05,-192.6C449.63,-182.52 512.11,-167.58 566.5,-154 570.89,-152.9 575.48,-151.74 580.05,-150.57"/>
<polygon fill="midnightblue" stroke="midnightblue" points="581.14,-153.91 589.95,-148.03 579.39,-147.13 581.14,-153.91"/>
</g>
<!-- Node4&#45;&gt;Node5 -->
<g id="edge4" class="edge">
<title>Node4&#45;&gt;Node5</title>
<path fill="none" stroke="midnightblue" d="M332.04,-128.73C347.38,-118.01 373.56,-99.72 391.88,-86.91"/>
<polygon fill="midnightblue" stroke="midnightblue" points="393.96,-89.72 400.16,-81.13 389.95,-83.99 393.96,-89.72"/>
</g>
<!-- Node6&#45;&gt;Node5 -->
<g id="edge8" class="edge">
<title>Node6&#45;&gt;Node5</title>
<path fill="none" stroke="midnightblue" d="M489.24,-123.4C472.8,-112.5 450.16,-97.48 433.73,-86.58"/>
<polygon fill="midnightblue" stroke="midnightblue" points="435.59,-83.62 425.33,-81.01 431.72,-89.45 435.59,-83.62"/>
</g>
<!-- Node7 -->
<g id="node7" class="node">
<title>Node7</title>
<g id="a_node7"><a xlink:title=" ">
<polygon fill="white" stroke="#bfbfbf" points="543,-62 543,-81 594,-81 594,-62 543,-62"/>
<text text-anchor="middle" x="568.5" y="-69" font-family="Helvetica,sans-Serif" font-size="10.00">stddef.h</text>
</a>
</g>
</g>
<!-- Node6&#45;&gt;Node7 -->
<g id="edge6" class="edge">
<title>Node6&#45;&gt;Node7</title>
<path fill="none" stroke="midnightblue" d="M523.09,-123.4C532.13,-113.26 544.35,-99.57 553.83,-88.94"/>
<polygon fill="midnightblue" stroke="midnightblue" points="556.7,-90.99 560.74,-81.19 551.47,-86.33 556.7,-90.99"/>
</g>
<!-- Node8 -->
<g id="node8" class="node">
<title>Node8</title>
<g id="a_node8"><a xlink:title=" ">
<polygon fill="white" stroke="#bfbfbf" points="476.5,-62 476.5,-81 524.5,-81 524.5,-62 476.5,-62"/>
<text text-anchor="middle" x="500.5" y="-69" font-family="Helvetica,sans-Serif" font-size="10.00">stdint.h</text>
</a>
</g>
</g>
<!-- Node6&#45;&gt;Node8 -->
<g id="edge7" class="edge">
<title>Node6&#45;&gt;Node8</title>
<path fill="none" stroke="midnightblue" d="M508.33,-123.4C506.88,-113.96 504.95,-101.45 503.38,-91.19"/>
<polygon fill="midnightblue" stroke="midnightblue" points="506.82,-90.55 501.84,-81.19 499.9,-91.61 506.82,-90.55"/>
</g>
<!-- Node9&#45;&gt;Node5 -->
<g id="edge12" class="edge">
<title>Node9&#45;&gt;Node5</title>
<path fill="none" stroke="midnightblue" d="M241.53,-123.48C281.12,-111.67 337.04,-95 374,-83.98"/>
<polygon fill="midnightblue" stroke="midnightblue" points="375.31,-87.24 383.9,-81.03 373.31,-80.53 375.31,-87.24"/>
</g>
<!-- Node10 -->
<g id="node10" class="node">
<title>Node10</title>
<g id="a_node10"><a xlink:href="atomic-entry-flag_8h.html" target="_top" xlink:title=" ">
<polygon fill="white" stroke="black" points="139.5,-56.5 139.5,-86.5 249.5,-86.5 249.5,-56.5 139.5,-56.5"/>
<text text-anchor="start" x="147.5" y="-74.5" font-family="Helvetica,sans-Serif" font-size="10.00">cppgc/internal/atomic</text>
<text text-anchor="middle" x="194.5" y="-63.5" font-family="Helvetica,sans-Serif" font-size="10.00">&#45;entry&#45;flag.h</text>
</a>
</g>
</g>
<!-- Node9&#45;&gt;Node10 -->
<g id="edge10" class="edge">
<title>Node9&#45;&gt;Node10</title>
<path fill="none" stroke="midnightblue" d="M194.5,-123.4C194.5,-115.64 194.5,-105.81 194.5,-96.86"/>
<polygon fill="midnightblue" stroke="midnightblue" points="198,-96.58 194.5,-86.58 191,-96.58 198,-96.58"/>
</g>
<!-- Node11 -->
<g id="node11" class="node">
<title>Node11</title>
<g id="a_node11"><a xlink:title=" ">
<polygon fill="white" stroke="#bfbfbf" points="171.5,-0.5 171.5,-19.5 217.5,-19.5 217.5,-0.5 171.5,-0.5"/>
<text text-anchor="middle" x="194.5" y="-7.5" font-family="Helvetica,sans-Serif" font-size="10.00">atomic</text>
</a>
</g>
</g>
<!-- Node10&#45;&gt;Node11 -->
<g id="edge11" class="edge">
<title>Node10&#45;&gt;Node11</title>
<path fill="none" stroke="midnightblue" d="M194.5,-56.4C194.5,-48.47 194.5,-38.46 194.5,-29.86"/>
<polygon fill="midnightblue" stroke="midnightblue" points="198,-29.66 194.5,-19.66 191,-29.66 198,-29.66"/>
</g>
<!-- Node13 -->
<g id="node13" class="node">
<title>Node13</title>
<g id="a_node13"><a xlink:title=" ">
<polygon fill="white" stroke="#bfbfbf" points="36.5,-62 36.5,-81 82.5,-81 82.5,-62 36.5,-62"/>
<text text-anchor="middle" x="59.5" y="-69" font-family="Helvetica,sans-Serif" font-size="10.00">cstdint</text>
</a>
</g>
</g>
<!-- Node12&#45;&gt;Node13 -->
<g id="edge14" class="edge">
<title>Node12&#45;&gt;Node13</title>
<path fill="none" stroke="midnightblue" d="M59.5,-128.73C59.5,-119.18 59.5,-103.62 59.5,-91.28"/>
<polygon fill="midnightblue" stroke="midnightblue" points="63,-91.13 59.5,-81.13 56,-91.13 63,-91.13"/>
</g>
<!-- Node14&#45;&gt;Node5 -->
<g id="edge19" class="edge">
<title>Node14&#45;&gt;Node5</title>
<path fill="none" stroke="midnightblue" d="M594.61,-128.87C557.4,-117.35 491.4,-96.92 449.9,-84.08"/>
<polygon fill="midnightblue" stroke="midnightblue" points="450.76,-80.68 440.17,-81.06 448.69,-87.36 450.76,-80.68"/>
</g>
<!-- Node15 -->
<g id="node15" class="node">
<title>Node15</title>
<g id="a_node15"><a xlink:title=" ">
<polygon fill="white" stroke="#bfbfbf" points="629.5,-0.5 629.5,-19.5 691.5,-19.5 691.5,-0.5 629.5,-0.5"/>
<text text-anchor="middle" x="660.5" y="-7.5" font-family="Helvetica,sans-Serif" font-size="10.00">type_traits</text>
</a>
</g>
</g>
<!-- Node14&#45;&gt;Node15 -->
<g id="edge16" class="edge">
<title>Node14&#45;&gt;Node15</title>
<path fill="none" stroke="midnightblue" d="M624.02,-128.8C626.77,-113.75 633.06,-81.98 641.5,-56 644.45,-46.93 648.48,-37.14 652.06,-29.01"/>
<polygon fill="midnightblue" stroke="midnightblue" points="655.3,-30.35 656.26,-19.79 648.93,-27.45 655.3,-30.35"/>
</g>
<!-- Node16 -->
<g id="node16" class="node">
<title>Node16</title>
<g id="a_node16"><a xlink:href="type-traits_8h.html" target="_top" xlink:title=" ">
<polygon fill="white" stroke="black" points="650.5,-62 650.5,-81 746.5,-81 746.5,-62 650.5,-62"/>
<text text-anchor="middle" x="698.5" y="-69" font-family="Helvetica,sans-Serif" font-size="10.00">cppgc/type&#45;traits.h</text>
</a>
</g>
</g>
<!-- Node14&#45;&gt;Node16 -->
<g id="edge17" class="edge">
<title>Node14&#45;&gt;Node16</title>
<path fill="none" stroke="midnightblue" d="M632.75,-128.73C644.94,-118.31 665.52,-100.71 680.41,-87.97"/>
<polygon fill="midnightblue" stroke="midnightblue" points="683.09,-90.29 688.41,-81.13 678.54,-84.97 683.09,-90.29"/>
</g>
<!-- Node16&#45;&gt;Node15 -->
<g id="edge18" class="edge">
<title>Node16&#45;&gt;Node15</title>
<path fill="none" stroke="midnightblue" d="M693.06,-61.98C687.41,-53.14 678.44,-39.09 671.34,-27.98"/>
<polygon fill="midnightblue" stroke="midnightblue" points="674.27,-26.05 665.93,-19.51 668.37,-29.82 674.27,-26.05"/>
</g>
<!-- Node17&#45;&gt;Node7 -->
<g id="edge22" class="edge">
<title>Node17&#45;&gt;Node7</title>
<path fill="none" stroke="midnightblue" d="M698.85,-195.81C699.03,-179.63 697.18,-144.58 679.5,-123 660.51,-99.83 628.6,-86.84 603.86,-79.86"/>
<polygon fill="midnightblue" stroke="midnightblue" points="604.65,-76.45 594.09,-77.31 602.88,-83.22 604.65,-76.45"/>
</g>
<!-- Node18 -->
<g id="node18" class="node">
<title>Node18</title>
<g id="a_node18"><a xlink:href="compiler-specific_8h.html" target="_top" xlink:title=" ">
<polygon fill="white" stroke="black" points="727,-123.5 727,-153.5 844,-153.5 844,-123.5 727,-123.5"/>
<text text-anchor="start" x="735" y="-141.5" font-family="Helvetica,sans-Serif" font-size="10.00">cppgc/internal/compiler</text>
<text text-anchor="middle" x="785.5" y="-130.5" font-family="Helvetica,sans-Serif" font-size="10.00">&#45;specific.h</text>
</a>
</g>
</g>
<!-- Node17&#45;&gt;Node18 -->
<g id="edge23" class="edge">
<title>Node17&#45;&gt;Node18</title>
<path fill="none" stroke="midnightblue" d="M710.23,-195.73C722.56,-186.53 742.36,-171.73 758.56,-159.63"/>
<polygon fill="midnightblue" stroke="midnightblue" points="760.73,-162.38 766.64,-153.59 756.54,-156.77 760.73,-162.38"/>
</g>
</g>
</svg>
