<?xml version="1.0" encoding="UTF-8" standalone="no"?>
<!DOCTYPE svg PUBLIC "-//W3C//DTD SVG 1.1//EN"
 "http://www.w3.org/Graphics/SVG/1.1/DTD/svg11.dtd">
<!-- Generated by graphviz version 2.44.0 ()
 -->
<!-- Title: include/cppgc/liveness&#45;broker.h Pages: 1 -->
<svg width="1354pt" height="419pt"
 viewBox="0.00 0.00 1353.83 419.00" xmlns="http://www.w3.org/2000/svg" xmlns:xlink="http://www.w3.org/1999/xlink">
<g id="graph0" class="graph" transform="scale(1 1) rotate(0) translate(4 415)">
<title>include/cppgc/liveness&#45;broker.h</title>
<polygon fill="white" stroke="transparent" points="-4,4 -4,-415 1349.83,-415 1349.83,4 -4,4"/>
<!-- Node1 -->
<g id="node1" class="node">
<title>Node1</title>
<g id="a_node1"><a xlink:title=" ">
<polygon fill="#bfbfbf" stroke="black" points="805.5,-380.5 805.5,-410.5 921.5,-410.5 921.5,-380.5 805.5,-380.5"/>
<text text-anchor="start" x="813.5" y="-398.5" font-family="Helvetica,sans-Serif" font-size="10.00">include/cppgc/liveness</text>
<text text-anchor="middle" x="863.5" y="-387.5" font-family="Helvetica,sans-Serif" font-size="10.00">&#45;broker.h</text>
</a>
</g>
</g>
<!-- Node2 -->
<g id="node2" class="node">
<title>Node2</title>
<g id="a_node2"><a xlink:href="heap_8h.html" target="_top" xlink:title=" ">
<polygon fill="white" stroke="black" points="266.5,-263 266.5,-282 340.5,-282 340.5,-263 266.5,-263"/>
<text text-anchor="middle" x="303.5" y="-270" font-family="Helvetica,sans-Serif" font-size="10.00">cppgc/heap.h</text>
</a>
</g>
</g>
<!-- Node1&#45;&gt;Node2 -->
<g id="edge1" class="edge">
<title>Node1&#45;&gt;Node2</title>
<path fill="none" stroke="midnightblue" d="M805.48,-387.75C740.67,-379.67 632.86,-364.6 541.5,-344 468.02,-327.43 383.94,-300.63 337.98,-285.28"/>
<polygon fill="midnightblue" stroke="midnightblue" points="338.82,-281.87 328.23,-282.01 336.59,-288.51 338.82,-281.87"/>
</g>
<!-- Node6 -->
<g id="node6" class="node">
<title>Node6</title>
<g id="a_node6"><a xlink:href="v8config_8h.html" target="_top" xlink:title=" ">
<polygon fill="white" stroke="black" points="525.5,-62 525.5,-81 585.5,-81 585.5,-62 525.5,-62"/>
<text text-anchor="middle" x="555.5" y="-69" font-family="Helvetica,sans-Serif" font-size="10.00">v8config.h</text>
</a>
</g>
</g>
<!-- Node1&#45;&gt;Node6 -->
<g id="edge52" class="edge">
<title>Node1&#45;&gt;Node6</title>
<path fill="none" stroke="midnightblue" d="M805.21,-383.93C715.91,-366.06 555.5,-326.57 555.5,-273.5 555.5,-273.5 555.5,-273.5 555.5,-204.5 555.5,-164.16 555.5,-116.88 555.5,-91.28"/>
<polygon fill="midnightblue" stroke="midnightblue" points="559,-91.15 555.5,-81.15 552,-91.15 559,-91.15"/>
</g>
<!-- Node14 -->
<g id="node14" class="node">
<title>Node14</title>
<g id="a_node14"><a xlink:href="member_8h.html" target="_top" xlink:title=" ">
<polygon fill="white" stroke="black" points="1090,-324.5 1090,-343.5 1179,-343.5 1179,-324.5 1090,-324.5"/>
<text text-anchor="middle" x="1134.5" y="-331.5" font-family="Helvetica,sans-Serif" font-size="10.00">cppgc/member.h</text>
</a>
</g>
</g>
<!-- Node1&#45;&gt;Node14 -->
<g id="edge18" class="edge">
<title>Node1&#45;&gt;Node14</title>
<path fill="none" stroke="midnightblue" d="M921.64,-381.74C970.51,-371.01 1039.57,-355.84 1085.63,-345.73"/>
<polygon fill="midnightblue" stroke="midnightblue" points="1086.65,-349.09 1095.67,-343.53 1085.15,-342.25 1086.65,-349.09"/>
</g>
<!-- Node26 -->
<g id="node26" class="node">
<title>Node26</title>
<g id="a_node26"><a xlink:href="trace-trait_8h.html" target="_top" xlink:title=" ">
<polygon fill="white" stroke="black" points="1201,-129 1201,-148 1296,-148 1296,-129 1201,-129"/>
<text text-anchor="middle" x="1248.5" y="-136" font-family="Helvetica,sans-Serif" font-size="10.00">cppgc/trace&#45;trait.h</text>
</a>
</g>
</g>
<!-- Node1&#45;&gt;Node26 -->
<g id="edge51" class="edge">
<title>Node1&#45;&gt;Node26</title>
<path fill="none" stroke="midnightblue" d="M921.55,-394.23C988.36,-391.97 1100.09,-382.12 1187.5,-344 1224.34,-327.93 1240.97,-324.16 1258.5,-288 1279.29,-245.12 1264.93,-186.94 1255.28,-157.77"/>
<polygon fill="midnightblue" stroke="midnightblue" points="1258.5,-156.38 1251.9,-148.1 1251.9,-158.7 1258.5,-156.38"/>
</g>
<!-- Node3 -->
<g id="node3" class="node">
<title>Node3</title>
<g id="a_node3"><a xlink:title=" ">
<polygon fill="white" stroke="#bfbfbf" points="0,-62 0,-81 51,-81 51,-62 0,-62"/>
<text text-anchor="middle" x="25.5" y="-69" font-family="Helvetica,sans-Serif" font-size="10.00">memory</text>
</a>
</g>
</g>
<!-- Node2&#45;&gt;Node3 -->
<g id="edge2" class="edge">
<title>Node2&#45;&gt;Node3</title>
<path fill="none" stroke="midnightblue" d="M266.48,-268.89C204.75,-263.76 84.68,-250.23 55.5,-221 20.58,-186.02 20.76,-122.38 23.33,-91"/>
<polygon fill="midnightblue" stroke="midnightblue" points="26.81,-91.31 24.32,-81.01 19.85,-90.62 26.81,-91.31"/>
</g>
<!-- Node4 -->
<g id="node4" class="node">
<title>Node4</title>
<g id="a_node4"><a xlink:title=" ">
<polygon fill="white" stroke="#bfbfbf" points="64.5,-196 64.5,-215 108.5,-215 108.5,-196 64.5,-196"/>
<text text-anchor="middle" x="86.5" y="-203" font-family="Helvetica,sans-Serif" font-size="10.00">vector</text>
</a>
</g>
</g>
<!-- Node2&#45;&gt;Node4 -->
<g id="edge3" class="edge">
<title>Node2&#45;&gt;Node4</title>
<path fill="none" stroke="midnightblue" d="M266.31,-263.61C228.11,-255.02 167.23,-239.92 116.5,-221 115.08,-220.47 113.63,-219.9 112.18,-219.29"/>
<polygon fill="midnightblue" stroke="midnightblue" points="113.32,-215.97 102.76,-215.04 110.44,-222.35 113.32,-215.97"/>
</g>
<!-- Node5 -->
<g id="node5" class="node">
<title>Node5</title>
<g id="a_node5"><a xlink:href="common_8h.html" target="_top" xlink:title=" ">
<polygon fill="white" stroke="black" points="436,-196 436,-215 527,-215 527,-196 436,-196"/>
<text text-anchor="middle" x="481.5" y="-203" font-family="Helvetica,sans-Serif" font-size="10.00">cppgc/common.h</text>
</a>
</g>
</g>
<!-- Node2&#45;&gt;Node5 -->
<g id="edge4" class="edge">
<title>Node2&#45;&gt;Node5</title>
<path fill="none" stroke="midnightblue" d="M327.14,-262.87C358.21,-251.52 412.97,-231.52 448.22,-218.65"/>
<polygon fill="midnightblue" stroke="midnightblue" points="449.86,-221.78 458.05,-215.06 447.45,-215.21 449.86,-221.78"/>
</g>
<!-- Node2&#45;&gt;Node6 -->
<g id="edge17" class="edge">
<title>Node2&#45;&gt;Node6</title>
<path fill="none" stroke="midnightblue" d="M315.42,-262.89C341.77,-243.77 406.81,-196.15 459.5,-154 487.61,-131.52 519.27,-104.24 538.29,-87.64"/>
<polygon fill="midnightblue" stroke="midnightblue" points="540.63,-90.24 545.85,-81.02 536.02,-84.98 540.63,-90.24"/>
</g>
<!-- Node7 -->
<g id="node7" class="node">
<title>Node7</title>
<g id="a_node7"><a xlink:href="custom-space_8h.html" target="_top" xlink:title=" ">
<polygon fill="white" stroke="black" points="126,-196 126,-215 241,-215 241,-196 126,-196"/>
<text text-anchor="middle" x="183.5" y="-203" font-family="Helvetica,sans-Serif" font-size="10.00">cppgc/custom&#45;space.h</text>
</a>
</g>
</g>
<!-- Node2&#45;&gt;Node7 -->
<g id="edge6" class="edge">
<title>Node2&#45;&gt;Node7</title>
<path fill="none" stroke="midnightblue" d="M287.32,-262.73C267.07,-251.77 232.2,-232.88 208.51,-220.05"/>
<polygon fill="midnightblue" stroke="midnightblue" points="209.89,-216.81 199.43,-215.13 206.55,-222.97 209.89,-216.81"/>
</g>
<!-- Node9 -->
<g id="node9" class="node">
<title>Node9</title>
<g id="a_node9"><a xlink:href="platform_8h.html" target="_top" xlink:title=" ">
<polygon fill="white" stroke="black" points="259,-196 259,-215 348,-215 348,-196 259,-196"/>
<text text-anchor="middle" x="303.5" y="-203" font-family="Helvetica,sans-Serif" font-size="10.00">cppgc/platform.h</text>
</a>
</g>
</g>
<!-- Node2&#45;&gt;Node9 -->
<g id="edge8" class="edge">
<title>Node2&#45;&gt;Node9</title>
<path fill="none" stroke="midnightblue" d="M303.5,-262.73C303.5,-253.18 303.5,-237.62 303.5,-225.28"/>
<polygon fill="midnightblue" stroke="midnightblue" points="307,-225.13 303.5,-215.13 300,-225.13 307,-225.13"/>
</g>
<!-- Node5&#45;&gt;Node6 -->
<g id="edge5" class="edge">
<title>Node5&#45;&gt;Node6</title>
<path fill="none" stroke="midnightblue" d="M486.36,-195.84C498.38,-174.39 529.72,-118.49 545.75,-89.9"/>
<polygon fill="midnightblue" stroke="midnightblue" points="548.89,-91.46 550.72,-81.02 542.78,-88.03 548.89,-91.46"/>
</g>
<!-- Node8 -->
<g id="node8" class="node">
<title>Node8</title>
<g id="a_node8"><a xlink:title=" ">
<polygon fill="white" stroke="#bfbfbf" points="135,-62 135,-81 186,-81 186,-62 135,-62"/>
<text text-anchor="middle" x="160.5" y="-69" font-family="Helvetica,sans-Serif" font-size="10.00">stddef.h</text>
</a>
</g>
</g>
<!-- Node7&#45;&gt;Node8 -->
<g id="edge7" class="edge">
<title>Node7&#45;&gt;Node8</title>
<path fill="none" stroke="midnightblue" d="M144.31,-195.95C121.74,-188.8 95.2,-176.08 81.5,-154 74.23,-142.29 74.88,-135.08 81.5,-123 87.36,-112.29 113.49,-96.79 134.11,-85.79"/>
<polygon fill="midnightblue" stroke="midnightblue" points="135.86,-88.82 143.1,-81.09 132.62,-82.62 135.86,-88.82"/>
</g>
<!-- Node9&#45;&gt;Node6 -->
<g id="edge16" class="edge">
<title>Node9&#45;&gt;Node6</title>
<path fill="none" stroke="midnightblue" d="M302.77,-195.95C301.86,-179.38 302.41,-142.77 322.5,-123 349.35,-96.57 455.86,-82.19 515.14,-76.09"/>
<polygon fill="midnightblue" stroke="midnightblue" points="515.68,-79.55 525.28,-75.08 514.99,-72.59 515.68,-79.55"/>
</g>
<!-- Node10 -->
<g id="node10" class="node">
<title>Node10</title>
<g id="a_node10"><a xlink:href="v8-platform_8h.html" target="_top" xlink:title=" ">
<polygon fill="white" stroke="black" points="91,-129 91,-148 164,-148 164,-129 91,-129"/>
<text text-anchor="middle" x="127.5" y="-136" font-family="Helvetica,sans-Serif" font-size="10.00">v8&#45;platform.h</text>
</a>
</g>
</g>
<!-- Node9&#45;&gt;Node10 -->
<g id="edge9" class="edge">
<title>Node9&#45;&gt;Node10</title>
<path fill="none" stroke="midnightblue" d="M280.13,-195.87C249.41,-184.52 195.26,-164.52 160.4,-151.65"/>
<polygon fill="midnightblue" stroke="midnightblue" points="161.28,-148.24 150.69,-148.06 158.86,-154.81 161.28,-148.24"/>
</g>
<!-- Node10&#45;&gt;Node3 -->
<g id="edge13" class="edge">
<title>Node10&#45;&gt;Node3</title>
<path fill="none" stroke="midnightblue" d="M113.74,-128.73C96.77,-117.92 67.69,-99.38 47.57,-86.57"/>
<polygon fill="midnightblue" stroke="midnightblue" points="49.35,-83.55 39.04,-81.13 45.59,-89.45 49.35,-83.55"/>
</g>
<!-- Node10&#45;&gt;Node6 -->
<g id="edge15" class="edge">
<title>Node10&#45;&gt;Node6</title>
<path fill="none" stroke="midnightblue" d="M151.57,-128.86C158.28,-126.7 165.61,-124.55 172.5,-123 295.73,-95.26 444.93,-81 515.2,-75.41"/>
<polygon fill="midnightblue" stroke="midnightblue" points="515.68,-78.88 525.38,-74.61 515.14,-71.9 515.68,-78.88"/>
</g>
<!-- Node10&#45;&gt;Node8 -->
<g id="edge10" class="edge">
<title>Node10&#45;&gt;Node8</title>
<path fill="none" stroke="midnightblue" d="M131.95,-128.73C136.95,-118.89 145.19,-102.66 151.53,-90.16"/>
<polygon fill="midnightblue" stroke="midnightblue" points="154.71,-91.63 156.12,-81.13 148.47,-88.46 154.71,-91.63"/>
</g>
<!-- Node11 -->
<g id="node11" class="node">
<title>Node11</title>
<g id="a_node11"><a xlink:title=" ">
<polygon fill="white" stroke="#bfbfbf" points="204.5,-62 204.5,-81 252.5,-81 252.5,-62 204.5,-62"/>
<text text-anchor="middle" x="228.5" y="-69" font-family="Helvetica,sans-Serif" font-size="10.00">stdint.h</text>
</a>
</g>
</g>
<!-- Node10&#45;&gt;Node11 -->
<g id="edge11" class="edge">
<title>Node10&#45;&gt;Node11</title>
<path fill="none" stroke="midnightblue" d="M141.12,-128.73C157.93,-117.92 186.73,-99.38 206.64,-86.57"/>
<polygon fill="midnightblue" stroke="midnightblue" points="208.58,-89.48 215.09,-81.13 204.79,-83.6 208.58,-89.48"/>
</g>
<!-- Node12 -->
<g id="node12" class="node">
<title>Node12</title>
<g id="a_node12"><a xlink:title=" ">
<polygon fill="white" stroke="#bfbfbf" points="70,-62 70,-81 117,-81 117,-62 70,-62"/>
<text text-anchor="middle" x="93.5" y="-69" font-family="Helvetica,sans-Serif" font-size="10.00">stdlib.h</text>
</a>
</g>
</g>
<!-- Node10&#45;&gt;Node12 -->
<g id="edge12" class="edge">
<title>Node10&#45;&gt;Node12</title>
<path fill="none" stroke="midnightblue" d="M122.91,-128.73C117.77,-118.89 109.28,-102.66 102.74,-90.16"/>
<polygon fill="midnightblue" stroke="midnightblue" points="105.75,-88.37 98.01,-81.13 99.55,-91.61 105.75,-88.37"/>
</g>
<!-- Node13 -->
<g id="node13" class="node">
<title>Node13</title>
<g id="a_node13"><a xlink:title=" ">
<polygon fill="white" stroke="#bfbfbf" points="321,-62 321,-81 362,-81 362,-62 321,-62"/>
<text text-anchor="middle" x="341.5" y="-69" font-family="Helvetica,sans-Serif" font-size="10.00">string</text>
</a>
</g>
</g>
<!-- Node10&#45;&gt;Node13 -->
<g id="edge14" class="edge">
<title>Node10&#45;&gt;Node13</title>
<path fill="none" stroke="midnightblue" d="M153.64,-128.97C159.82,-126.99 166.39,-124.9 172.5,-123 220.87,-107.98 277.28,-91.29 311.15,-81.36"/>
<polygon fill="midnightblue" stroke="midnightblue" points="312.29,-84.67 320.91,-78.5 310.32,-77.95 312.29,-84.67"/>
</g>
<!-- Node14&#45;&gt;Node6 -->
<g id="edge50" class="edge">
<title>Node14&#45;&gt;Node6</title>
<path fill="none" stroke="midnightblue" d="M1089.89,-333.18C1024.53,-332.08 899.86,-324.77 801.5,-288 703.34,-251.31 679.28,-230.34 607.5,-154 589.14,-134.48 573.46,-107.6 564.25,-90.14"/>
<polygon fill="midnightblue" stroke="midnightblue" points="567.28,-88.38 559.61,-81.08 561.05,-91.57 567.28,-88.38"/>
</g>
<!-- Node15 -->
<g id="node15" class="node">
<title>Node15</title>
<g id="a_node15"><a xlink:title=" ">
<polygon fill="white" stroke="#bfbfbf" points="1289.5,-0.5 1289.5,-19.5 1335.5,-19.5 1335.5,-0.5 1289.5,-0.5"/>
<text text-anchor="middle" x="1312.5" y="-7.5" font-family="Helvetica,sans-Serif" font-size="10.00">atomic</text>
</a>
</g>
</g>
<!-- Node14&#45;&gt;Node15 -->
<g id="edge19" class="edge">
<title>Node14&#45;&gt;Node15</title>
<path fill="none" stroke="midnightblue" d="M1179.1,-329.11C1211.94,-324.2 1256.01,-313.1 1286.5,-288 1358.2,-228.99 1335.95,-179.55 1343.5,-87 1344.62,-73.27 1347.59,-69.16 1343.5,-56 1340.27,-45.62 1333.72,-35.52 1327.48,-27.53"/>
<polygon fill="midnightblue" stroke="midnightblue" points="1330.08,-25.19 1320.98,-19.77 1324.71,-29.68 1330.08,-25.19"/>
</g>
<!-- Node16 -->
<g id="node16" class="node">
<title>Node16</title>
<g id="a_node16"><a xlink:title=" ">
<polygon fill="white" stroke="#bfbfbf" points="1201,-263 1201,-282 1250,-282 1250,-263 1201,-263"/>
<text text-anchor="middle" x="1225.5" y="-270" font-family="Helvetica,sans-Serif" font-size="10.00">cstddef</text>
</a>
</g>
</g>
<!-- Node14&#45;&gt;Node16 -->
<g id="edge20" class="edge">
<title>Node14&#45;&gt;Node16</title>
<path fill="none" stroke="midnightblue" d="M1147.54,-324.48C1162.27,-314.84 1186.47,-299.02 1204.01,-287.55"/>
<polygon fill="midnightblue" stroke="midnightblue" points="1206.03,-290.41 1212.49,-282.01 1202.2,-284.55 1206.03,-290.41"/>
</g>
<!-- Node17 -->
<g id="node17" class="node">
<title>Node17</title>
<g id="a_node17"><a xlink:title=" ">
<polygon fill="white" stroke="#bfbfbf" points="1160.5,-0.5 1160.5,-19.5 1222.5,-19.5 1222.5,-0.5 1160.5,-0.5"/>
<text text-anchor="middle" x="1191.5" y="-7.5" font-family="Helvetica,sans-Serif" font-size="10.00">type_traits</text>
</a>
</g>
</g>
<!-- Node14&#45;&gt;Node17 -->
<g id="edge21" class="edge">
<title>Node14&#45;&gt;Node17</title>
<path fill="none" stroke="midnightblue" d="M1139.01,-324.37C1149.07,-304.29 1172.5,-252.59 1172.5,-206.5 1172.5,-206.5 1172.5,-206.5 1172.5,-137.5 1172.5,-98.77 1181.32,-54.11 1186.94,-29.57"/>
<polygon fill="midnightblue" stroke="midnightblue" points="1190.42,-30.06 1189.32,-19.52 1183.61,-28.44 1190.42,-30.06"/>
</g>
<!-- Node18 -->
<g id="node18" class="node">
<title>Node18</title>
<g id="a_node18"><a xlink:href="pointer-policies_8h.html" target="_top" xlink:title=" ">
<polygon fill="white" stroke="black" points="810.5,-257.5 810.5,-287.5 920.5,-287.5 920.5,-257.5 810.5,-257.5"/>
<text text-anchor="start" x="818.5" y="-275.5" font-family="Helvetica,sans-Serif" font-size="10.00">cppgc/internal/pointer</text>
<text text-anchor="middle" x="865.5" y="-264.5" font-family="Helvetica,sans-Serif" font-size="10.00">&#45;policies.h</text>
</a>
</g>
</g>
<!-- Node14&#45;&gt;Node18 -->
<g id="edge22" class="edge">
<title>Node14&#45;&gt;Node18</title>
<path fill="none" stroke="midnightblue" d="M1095.96,-324.48C1052.92,-314.96 982.53,-299.39 930.85,-287.96"/>
<polygon fill="midnightblue" stroke="midnightblue" points="931.3,-284.47 920.78,-285.73 929.79,-291.3 931.3,-284.47"/>
</g>
<!-- Node25 -->
<g id="node25" class="node">
<title>Node25</title>
<g id="a_node25"><a xlink:href="sentinel-pointer_8h.html" target="_top" xlink:title=" ">
<polygon fill="white" stroke="black" points="987,-129 987,-148 1106,-148 1106,-129 987,-129"/>
<text text-anchor="middle" x="1046.5" y="-136" font-family="Helvetica,sans-Serif" font-size="10.00">cppgc/sentinel&#45;pointer.h</text>
</a>
</g>
</g>
<!-- Node14&#45;&gt;Node25 -->
<g id="edge48" class="edge">
<title>Node14&#45;&gt;Node25</title>
<path fill="none" stroke="midnightblue" d="M1130.61,-324.44C1117.26,-295.1 1073.21,-198.24 1054.75,-157.65"/>
<polygon fill="midnightblue" stroke="midnightblue" points="1057.88,-156.06 1050.55,-148.41 1051.5,-158.96 1057.88,-156.06"/>
</g>
<!-- Node27 -->
<g id="node27" class="node">
<title>Node27</title>
<g id="a_node27"><a xlink:href="type-traits_8h.html" target="_top" xlink:title=" ">
<polygon fill="white" stroke="black" points="1238.5,-62 1238.5,-81 1334.5,-81 1334.5,-62 1238.5,-62"/>
<text text-anchor="middle" x="1286.5" y="-69" font-family="Helvetica,sans-Serif" font-size="10.00">cppgc/type&#45;traits.h</text>
</a>
</g>
</g>
<!-- Node14&#45;&gt;Node27 -->
<g id="edge49" class="edge">
<title>Node14&#45;&gt;Node27</title>
<path fill="none" stroke="midnightblue" d="M1179.28,-326.6C1205.49,-320.68 1237.47,-309.4 1258.5,-288 1311.86,-233.7 1317.47,-198.02 1304.5,-123 1302.59,-111.94 1298.48,-100.09 1294.67,-90.65"/>
<polygon fill="midnightblue" stroke="midnightblue" points="1297.78,-89.01 1290.63,-81.19 1291.34,-91.76 1297.78,-89.01"/>
</g>
<!-- Node18&#45;&gt;Node6 -->
<g id="edge47" class="edge">
<title>Node18&#45;&gt;Node6</title>
<path fill="none" stroke="midnightblue" d="M833.49,-257.44C789.35,-237.39 708.18,-198.11 645.5,-154 630.29,-143.3 593.29,-108.63 571.76,-88.12"/>
<polygon fill="midnightblue" stroke="midnightblue" points="573.99,-85.41 564.35,-81.03 569.16,-90.47 573.99,-85.41"/>
</g>
<!-- Node18&#45;&gt;Node17 -->
<g id="edge24" class="edge">
<title>Node18&#45;&gt;Node17</title>
<path fill="none" stroke="midnightblue" d="M857.86,-257.39C852.97,-247.52 847.07,-233.85 844.5,-221 830.02,-148.45 809.7,-103.41 866.5,-56 908.73,-20.75 1072.27,-13.07 1150.01,-11.43"/>
<polygon fill="midnightblue" stroke="midnightblue" points="1150.45,-14.92 1160.38,-11.24 1150.32,-7.92 1150.45,-14.92"/>
</g>
<!-- Node19 -->
<g id="node19" class="node">
<title>Node19</title>
<g id="a_node19"><a xlink:title=" ">
<polygon fill="white" stroke="#bfbfbf" points="1060.5,-62 1060.5,-81 1106.5,-81 1106.5,-62 1060.5,-62"/>
<text text-anchor="middle" x="1083.5" y="-69" font-family="Helvetica,sans-Serif" font-size="10.00">cstdint</text>
</a>
</g>
</g>
<!-- Node18&#45;&gt;Node19 -->
<g id="edge23" class="edge">
<title>Node18&#45;&gt;Node19</title>
<path fill="none" stroke="midnightblue" d="M920.7,-262.94C980.21,-250.44 1072.08,-220.92 1114.5,-154 1127.61,-133.31 1111.77,-106.22 1098.33,-89.08"/>
<polygon fill="midnightblue" stroke="midnightblue" points="1100.78,-86.55 1091.69,-81.11 1095.4,-91.04 1100.78,-86.55"/>
</g>
<!-- Node20 -->
<g id="node20" class="node">
<title>Node20</title>
<g id="a_node20"><a xlink:href="write-barrier_8h.html" target="_top" xlink:title=" ">
<polygon fill="white" stroke="black" points="854,-190.5 854,-220.5 955,-220.5 955,-190.5 854,-190.5"/>
<text text-anchor="start" x="862" y="-208.5" font-family="Helvetica,sans-Serif" font-size="10.00">cppgc/internal/write</text>
<text text-anchor="middle" x="904.5" y="-197.5" font-family="Helvetica,sans-Serif" font-size="10.00">&#45;barrier.h</text>
</a>
</g>
</g>
<!-- Node18&#45;&gt;Node20 -->
<g id="edge25" class="edge">
<title>Node18&#45;&gt;Node20</title>
<path fill="none" stroke="midnightblue" d="M873.96,-257.4C878.87,-249.22 885.16,-238.73 890.76,-229.39"/>
<polygon fill="midnightblue" stroke="midnightblue" points="893.91,-230.95 896.05,-220.58 887.91,-227.35 893.91,-230.95"/>
</g>
<!-- Node28 -->
<g id="node28" class="node">
<title>Node28</title>
<g id="a_node28"><a xlink:href="source-location_8h.html" target="_top" xlink:title=" ">
<polygon fill="white" stroke="black" points="332,-129 332,-148 451,-148 451,-129 332,-129"/>
<text text-anchor="middle" x="391.5" y="-136" font-family="Helvetica,sans-Serif" font-size="10.00">cppgc/source&#45;location.h</text>
</a>
</g>
</g>
<!-- Node18&#45;&gt;Node28 -->
<g id="edge44" class="edge">
<title>Node18&#45;&gt;Node28</title>
<path fill="none" stroke="midnightblue" d="M810.43,-259.26C767.93,-249.58 707.75,-235.33 655.5,-221 573.06,-198.39 477.45,-167.76 426.97,-151.24"/>
<polygon fill="midnightblue" stroke="midnightblue" points="427.79,-147.82 417.2,-148.03 425.61,-154.47 427.79,-147.82"/>
</g>
<!-- Node20&#45;&gt;Node6 -->
<g id="edge43" class="edge">
<title>Node20&#45;&gt;Node6</title>
<path fill="none" stroke="midnightblue" d="M853.78,-198.41C808.81,-191.68 742.13,-178.41 688.5,-154 667.06,-144.24 665.36,-135.67 645.5,-123 624.28,-109.46 599.24,-95.57 580.97,-85.79"/>
<polygon fill="midnightblue" stroke="midnightblue" points="582.56,-82.67 572.08,-81.08 579.28,-88.86 582.56,-82.67"/>
</g>
<!-- Node21 -->
<g id="node21" class="node">
<title>Node21</title>
<g id="a_node21"><a xlink:href="heap-state_8h.html" target="_top" xlink:title=" ">
<polygon fill="white" stroke="black" points="698,-129 698,-148 797,-148 797,-129 698,-129"/>
<text text-anchor="middle" x="747.5" y="-136" font-family="Helvetica,sans-Serif" font-size="10.00">cppgc/heap&#45;state.h</text>
</a>
</g>
</g>
<!-- Node20&#45;&gt;Node21 -->
<g id="edge26" class="edge">
<title>Node20&#45;&gt;Node21</title>
<path fill="none" stroke="midnightblue" d="M870.43,-190.4C842.76,-178.94 804.11,-162.94 777.58,-151.95"/>
<polygon fill="midnightblue" stroke="midnightblue" points="778.63,-148.6 768.05,-148.01 775.95,-155.07 778.63,-148.6"/>
</g>
<!-- Node22 -->
<g id="node22" class="node">
<title>Node22</title>
<g id="a_node22"><a xlink:href="api-constants_8h.html" target="_top" xlink:title=" ">
<polygon fill="white" stroke="black" points="182,-123.5 182,-153.5 275,-153.5 275,-123.5 182,-123.5"/>
<text text-anchor="start" x="190" y="-141.5" font-family="Helvetica,sans-Serif" font-size="10.00">cppgc/internal/api</text>
<text text-anchor="middle" x="228.5" y="-130.5" font-family="Helvetica,sans-Serif" font-size="10.00">&#45;constants.h</text>
</a>
</g>
</g>
<!-- Node20&#45;&gt;Node22 -->
<g id="edge28" class="edge">
<title>Node20&#45;&gt;Node22</title>
<path fill="none" stroke="midnightblue" d="M853.78,-201.24C752.56,-194.48 518.35,-177.58 322.5,-154 310.46,-152.55 297.59,-150.74 285.36,-148.89"/>
<polygon fill="midnightblue" stroke="midnightblue" points="285.69,-145.4 275.27,-147.34 284.62,-152.32 285.69,-145.4"/>
</g>
<!-- Node23 -->
<g id="node23" class="node">
<title>Node23</title>
<g id="a_node23"><a xlink:href="process-heap_8h.html" target="_top" xlink:title=" ">
<polygon fill="white" stroke="black" points="854,-123.5 854,-153.5 969,-153.5 969,-123.5 854,-123.5"/>
<text text-anchor="start" x="862" y="-141.5" font-family="Helvetica,sans-Serif" font-size="10.00">cppgc/internal/process</text>
<text text-anchor="middle" x="911.5" y="-130.5" font-family="Helvetica,sans-Serif" font-size="10.00">&#45;heap.h</text>
</a>
</g>
</g>
<!-- Node20&#45;&gt;Node23 -->
<g id="edge32" class="edge">
<title>Node20&#45;&gt;Node23</title>
<path fill="none" stroke="midnightblue" d="M906.02,-190.4C906.86,-182.56 907.94,-172.6 908.91,-163.57"/>
<polygon fill="midnightblue" stroke="midnightblue" points="912.39,-163.89 909.98,-153.58 905.43,-163.14 912.39,-163.89"/>
</g>
<!-- Node20&#45;&gt;Node25 -->
<g id="edge36" class="edge">
<title>Node20&#45;&gt;Node25</title>
<path fill="none" stroke="midnightblue" d="M935.31,-190.4C960.12,-179.04 994.68,-163.22 1018.66,-152.24"/>
<polygon fill="midnightblue" stroke="midnightblue" points="1020.28,-155.35 1027.92,-148.01 1017.37,-148.99 1020.28,-155.35"/>
</g>
<!-- Node20&#45;&gt;Node26 -->
<g id="edge38" class="edge">
<title>Node20&#45;&gt;Node26</title>
<path fill="none" stroke="midnightblue" d="M955.26,-194.91C1018.86,-182.89 1127.45,-162.37 1193.14,-149.96"/>
<polygon fill="midnightblue" stroke="midnightblue" points="1194.12,-153.34 1203.3,-148.04 1192.82,-146.46 1194.12,-153.34"/>
</g>
<!-- Node21&#45;&gt;Node6 -->
<g id="edge27" class="edge">
<title>Node21&#45;&gt;Node6</title>
<path fill="none" stroke="midnightblue" d="M722,-128.87C688.2,-117.42 628.4,-97.18 590.42,-84.32"/>
<polygon fill="midnightblue" stroke="midnightblue" points="591.39,-80.96 580.8,-81.06 589.15,-87.59 591.39,-80.96"/>
</g>
<!-- Node22&#45;&gt;Node6 -->
<g id="edge31" class="edge">
<title>Node22&#45;&gt;Node6</title>
<path fill="none" stroke="midnightblue" d="M275.08,-126.2C279.94,-125.09 284.82,-124 289.5,-123 369.44,-105.92 463.52,-88.74 515.64,-79.48"/>
<polygon fill="midnightblue" stroke="midnightblue" points="516.26,-82.93 525.49,-77.74 515.03,-76.03 516.26,-82.93"/>
</g>
<!-- Node22&#45;&gt;Node8 -->
<g id="edge29" class="edge">
<title>Node22&#45;&gt;Node8</title>
<path fill="none" stroke="midnightblue" d="M213.75,-123.4C202.93,-113.06 188.25,-99.02 177.04,-88.31"/>
<polygon fill="midnightblue" stroke="midnightblue" points="179.24,-85.57 169.6,-81.19 174.41,-90.63 179.24,-85.57"/>
</g>
<!-- Node22&#45;&gt;Node11 -->
<g id="edge30" class="edge">
<title>Node22&#45;&gt;Node11</title>
<path fill="none" stroke="midnightblue" d="M228.5,-123.4C228.5,-114.06 228.5,-101.71 228.5,-91.52"/>
<polygon fill="midnightblue" stroke="midnightblue" points="232,-91.19 228.5,-81.19 225,-91.19 232,-91.19"/>
</g>
<!-- Node23&#45;&gt;Node6 -->
<g id="edge35" class="edge">
<title>Node23&#45;&gt;Node6</title>
<path fill="none" stroke="midnightblue" d="M853.91,-126.98C781.39,-113.74 658.69,-91.34 595.6,-79.82"/>
<polygon fill="midnightblue" stroke="midnightblue" points="596.1,-76.36 585.64,-78 594.85,-83.24 596.1,-76.36"/>
</g>
<!-- Node24 -->
<g id="node24" class="node">
<title>Node24</title>
<g id="a_node24"><a xlink:href="atomic-entry-flag_8h.html" target="_top" xlink:title=" ">
<polygon fill="white" stroke="black" points="875.5,-56.5 875.5,-86.5 985.5,-86.5 985.5,-56.5 875.5,-56.5"/>
<text text-anchor="start" x="883.5" y="-74.5" font-family="Helvetica,sans-Serif" font-size="10.00">cppgc/internal/atomic</text>
<text text-anchor="middle" x="930.5" y="-63.5" font-family="Helvetica,sans-Serif" font-size="10.00">&#45;entry&#45;flag.h</text>
</a>
</g>
</g>
<!-- Node23&#45;&gt;Node24 -->
<g id="edge33" class="edge">
<title>Node23&#45;&gt;Node24</title>
<path fill="none" stroke="midnightblue" d="M915.62,-123.4C917.94,-115.47 920.89,-105.38 923.55,-96.27"/>
<polygon fill="midnightblue" stroke="midnightblue" points="926.94,-97.16 926.39,-86.58 920.22,-95.19 926.94,-97.16"/>
</g>
<!-- Node24&#45;&gt;Node15 -->
<g id="edge34" class="edge">
<title>Node24&#45;&gt;Node15</title>
<path fill="none" stroke="midnightblue" d="M985.64,-61.91C1066.08,-49.38 1213.18,-26.47 1279.05,-16.21"/>
<polygon fill="midnightblue" stroke="midnightblue" points="1279.93,-19.62 1289.27,-14.62 1278.85,-12.7 1279.93,-19.62"/>
</g>
<!-- Node25&#45;&gt;Node19 -->
<g id="edge37" class="edge">
<title>Node25&#45;&gt;Node19</title>
<path fill="none" stroke="midnightblue" d="M1051.49,-128.73C1057.09,-118.89 1066.33,-102.66 1073.45,-90.16"/>
<polygon fill="midnightblue" stroke="midnightblue" points="1076.68,-91.55 1078.59,-81.13 1070.6,-88.09 1076.68,-91.55"/>
</g>
<!-- Node26&#45;&gt;Node6 -->
<g id="edge42" class="edge">
<title>Node26&#45;&gt;Node6</title>
<path fill="none" stroke="midnightblue" d="M1200.77,-132.13C1175.19,-129.3 1143.14,-125.84 1114.5,-123 920.06,-103.7 687.26,-83.65 595.48,-75.87"/>
<polygon fill="midnightblue" stroke="midnightblue" points="595.77,-72.38 585.51,-75.02 595.18,-79.35 595.77,-72.38"/>
</g>
<!-- Node26&#45;&gt;Node17 -->
<g id="edge39" class="edge">
<title>Node26&#45;&gt;Node17</title>
<path fill="none" stroke="midnightblue" d="M1244.58,-128.81C1235.35,-108.31 1212.07,-56.65 1199.63,-29.04"/>
<polygon fill="midnightblue" stroke="midnightblue" points="1202.74,-27.44 1195.45,-19.76 1196.36,-30.31 1202.74,-27.44"/>
</g>
<!-- Node26&#45;&gt;Node27 -->
<g id="edge40" class="edge">
<title>Node26&#45;&gt;Node27</title>
<path fill="none" stroke="midnightblue" d="M1253.62,-128.73C1259.44,-118.79 1269.06,-102.34 1276.39,-89.79"/>
<polygon fill="midnightblue" stroke="midnightblue" points="1279.43,-91.53 1281.46,-81.13 1273.39,-87.99 1279.43,-91.53"/>
</g>
<!-- Node27&#45;&gt;Node17 -->
<g id="edge41" class="edge">
<title>Node27&#45;&gt;Node17</title>
<path fill="none" stroke="midnightblue" d="M1272.89,-61.98C1257.44,-52.3 1232.01,-36.37 1213.68,-24.89"/>
<polygon fill="midnightblue" stroke="midnightblue" points="1215.42,-21.85 1205.09,-19.51 1211.7,-27.78 1215.42,-21.85"/>
</g>
<!-- Node28&#45;&gt;Node6 -->
<g id="edge46" class="edge">
<title>Node28&#45;&gt;Node6</title>
<path fill="none" stroke="midnightblue" d="M413.28,-128.87C441.78,-117.57 491.93,-97.7 524.42,-84.82"/>
<polygon fill="midnightblue" stroke="midnightblue" points="525.89,-88 533.89,-81.06 523.31,-81.49 525.89,-88"/>
</g>
<!-- Node28&#45;&gt;Node13 -->
<g id="edge45" class="edge">
<title>Node28&#45;&gt;Node13</title>
<path fill="none" stroke="midnightblue" d="M384.76,-128.73C376.96,-118.6 363.95,-101.69 354.24,-89.06"/>
<polygon fill="midnightblue" stroke="midnightblue" points="357.01,-86.92 348.14,-81.13 351.46,-91.19 357.01,-86.92"/>
</g>
</g>
</svg>
