<?xml version="1.0" encoding="UTF-8" standalone="no"?>
<!DOCTYPE svg PUBLIC "-//W3C//DTD SVG 1.1//EN"
 "http://www.w3.org/Graphics/SVG/1.1/DTD/svg11.dtd">
<!-- Generated by graphviz version 2.44.0 ()
 -->
<!-- Title: include/cppgc/member.h Pages: 1 -->
<svg width="1061pt" height="352pt"
 viewBox="0.00 0.00 1061.09 352.00" xmlns="http://www.w3.org/2000/svg" xmlns:xlink="http://www.w3.org/1999/xlink">
<g id="graph0" class="graph" transform="scale(1 1) rotate(0) translate(4 348)">
<title>include/cppgc/member.h</title>
<polygon fill="white" stroke="transparent" points="-4,4 -4,-348 1057.09,-348 1057.09,4 -4,4"/>
<!-- Node1 -->
<g id="node1" class="node">
<title>Node1</title>
<g id="a_node1"><a xlink:title=" ">
<polygon fill="#bfbfbf" stroke="black" points="265.09,-324.5 265.09,-343.5 387.09,-343.5 387.09,-324.5 265.09,-324.5"/>
<text text-anchor="middle" x="326.09" y="-331.5" font-family="Helvetica,sans-Serif" font-size="10.00">include/cppgc/member.h</text>
</a>
</g>
</g>
<!-- Node2 -->
<g id="node2" class="node">
<title>Node2</title>
<g id="a_node2"><a xlink:title=" ">
<polygon fill="white" stroke="#bfbfbf" points="974.09,-0.5 974.09,-19.5 1020.09,-19.5 1020.09,-0.5 974.09,-0.5"/>
<text text-anchor="middle" x="997.09" y="-7.5" font-family="Helvetica,sans-Serif" font-size="10.00">atomic</text>
</a>
</g>
</g>
<!-- Node1&#45;&gt;Node2 -->
<g id="edge1" class="edge">
<title>Node1&#45;&gt;Node2</title>
<path fill="none" stroke="midnightblue" d="M387.55,-331C513.17,-326.44 795.27,-313.62 888.09,-288 966.93,-266.24 1053.09,-288.29 1053.09,-206.5 1053.09,-206.5 1053.09,-206.5 1053.09,-137.5 1053.09,-95.09 1026.45,-51.01 1009.92,-27.73"/>
<polygon fill="midnightblue" stroke="midnightblue" points="1012.7,-25.6 1003.96,-19.62 1007.06,-29.75 1012.7,-25.6"/>
</g>
<!-- Node3 -->
<g id="node3" class="node">
<title>Node3</title>
<g id="a_node3"><a xlink:title=" ">
<polygon fill="white" stroke="#bfbfbf" points="30.59,-263 30.59,-282 79.59,-282 79.59,-263 30.59,-263"/>
<text text-anchor="middle" x="55.09" y="-270" font-family="Helvetica,sans-Serif" font-size="10.00">cstddef</text>
</a>
</g>
</g>
<!-- Node1&#45;&gt;Node3 -->
<g id="edge2" class="edge">
<title>Node1&#45;&gt;Node3</title>
<path fill="none" stroke="midnightblue" d="M268.27,-324.5C220.96,-316.89 152.55,-304.42 94.09,-288 91.44,-287.26 88.72,-286.41 86.01,-285.52"/>
<polygon fill="midnightblue" stroke="midnightblue" points="86.93,-282.13 76.34,-282.12 84.61,-288.74 86.93,-282.13"/>
</g>
<!-- Node4 -->
<g id="node4" class="node">
<title>Node4</title>
<g id="a_node4"><a xlink:title=" ">
<polygon fill="white" stroke="#bfbfbf" points="188.09,-0.5 188.09,-19.5 250.09,-19.5 250.09,-0.5 188.09,-0.5"/>
<text text-anchor="middle" x="219.09" y="-7.5" font-family="Helvetica,sans-Serif" font-size="10.00">type_traits</text>
</a>
</g>
</g>
<!-- Node1&#45;&gt;Node4 -->
<g id="edge3" class="edge">
<title>Node1&#45;&gt;Node4</title>
<path fill="none" stroke="midnightblue" d="M264.83,-331.89C186.16,-329.16 55.64,-319.81 21.09,-288 -6.27,-262.81 2.09,-243.69 2.09,-206.5 2.09,-206.5 2.09,-206.5 2.09,-137.5 2.09,-56.95 115.07,-26.78 177.99,-16.23"/>
<polygon fill="midnightblue" stroke="midnightblue" points="178.67,-19.66 188,-14.64 177.58,-12.75 178.67,-19.66"/>
</g>
<!-- Node5 -->
<g id="node5" class="node">
<title>Node5</title>
<g id="a_node5"><a xlink:href="pointer-policies_8h.html" target="_top" xlink:title=" ">
<polygon fill="white" stroke="black" points="407.09,-257.5 407.09,-287.5 517.09,-287.5 517.09,-257.5 407.09,-257.5"/>
<text text-anchor="start" x="415.09" y="-275.5" font-family="Helvetica,sans-Serif" font-size="10.00">cppgc/internal/pointer</text>
<text text-anchor="middle" x="462.09" y="-264.5" font-family="Helvetica,sans-Serif" font-size="10.00">&#45;policies.h</text>
</a>
</g>
</g>
<!-- Node1&#45;&gt;Node5 -->
<g id="edge4" class="edge">
<title>Node1&#45;&gt;Node5</title>
<path fill="none" stroke="midnightblue" d="M345.58,-324.48C365.11,-315.93 395.8,-302.5 420.78,-291.57"/>
<polygon fill="midnightblue" stroke="midnightblue" points="422.28,-294.74 430.04,-287.52 419.47,-288.32 422.28,-294.74"/>
</g>
<!-- Node9 -->
<g id="node9" class="node">
<title>Node9</title>
<g id="a_node9"><a xlink:href="v8config_8h.html" target="_top" xlink:title=" ">
<polygon fill="white" stroke="black" points="676.09,-62 676.09,-81 736.09,-81 736.09,-62 676.09,-62"/>
<text text-anchor="middle" x="706.09" y="-69" font-family="Helvetica,sans-Serif" font-size="10.00">v8config.h</text>
</a>
</g>
</g>
<!-- Node1&#45;&gt;Node9 -->
<g id="edge32" class="edge">
<title>Node1&#45;&gt;Node9</title>
<path fill="none" stroke="midnightblue" d="M387.26,-331.47C534.63,-326.44 903.26,-305.5 986.09,-221 1016.74,-189.73 1024.27,-156.51 996.09,-123 988.07,-113.47 824.02,-89.16 746.28,-78.11"/>
<polygon fill="midnightblue" stroke="midnightblue" points="746.75,-74.64 736.35,-76.71 745.77,-81.57 746.75,-74.64"/>
</g>
<!-- Node15 -->
<g id="node15" class="node">
<title>Node15</title>
<g id="a_node15"><a xlink:href="sentinel-pointer_8h.html" target="_top" xlink:title=" ">
<polygon fill="white" stroke="black" points="178.59,-129 178.59,-148 297.59,-148 297.59,-129 178.59,-129"/>
<text text-anchor="middle" x="238.09" y="-136" font-family="Helvetica,sans-Serif" font-size="10.00">cppgc/sentinel&#45;pointer.h</text>
</a>
</g>
</g>
<!-- Node1&#45;&gt;Node15 -->
<g id="edge30" class="edge">
<title>Node1&#45;&gt;Node15</title>
<path fill="none" stroke="midnightblue" d="M322.2,-324.44C308.85,-295.1 264.8,-198.24 246.34,-157.65"/>
<polygon fill="midnightblue" stroke="midnightblue" points="249.47,-156.06 242.14,-148.41 243.1,-158.96 249.47,-156.06"/>
</g>
<!-- Node17 -->
<g id="node17" class="node">
<title>Node17</title>
<g id="a_node17"><a xlink:href="type-traits_8h.html" target="_top" xlink:title=" ">
<polygon fill="white" stroke="black" points="278.09,-62 278.09,-81 374.09,-81 374.09,-62 278.09,-62"/>
<text text-anchor="middle" x="326.09" y="-69" font-family="Helvetica,sans-Serif" font-size="10.00">cppgc/type&#45;traits.h</text>
</a>
</g>
</g>
<!-- Node1&#45;&gt;Node17 -->
<g id="edge31" class="edge">
<title>Node1&#45;&gt;Node17</title>
<path fill="none" stroke="midnightblue" d="M326.09,-324.33C326.09,-287.48 326.09,-143.33 326.09,-91.33"/>
<polygon fill="midnightblue" stroke="midnightblue" points="329.59,-91.2 326.09,-81.2 322.59,-91.2 329.59,-91.2"/>
</g>
<!-- Node5&#45;&gt;Node4 -->
<g id="edge6" class="edge">
<title>Node5&#45;&gt;Node4</title>
<path fill="none" stroke="midnightblue" d="M407.01,-265.98C340.86,-258.48 234.7,-243.37 202.09,-221 140.35,-178.64 133.29,-122.3 168.09,-56 174.52,-43.75 185.75,-33.28 196.04,-25.54"/>
<polygon fill="midnightblue" stroke="midnightblue" points="198.18,-28.31 204.33,-19.69 194.14,-22.59 198.18,-28.31"/>
</g>
<!-- Node6 -->
<g id="node6" class="node">
<title>Node6</title>
<g id="a_node6"><a xlink:title=" ">
<polygon fill="white" stroke="#bfbfbf" points="177.09,-62 177.09,-81 223.09,-81 223.09,-62 177.09,-62"/>
<text text-anchor="middle" x="200.09" y="-69" font-family="Helvetica,sans-Serif" font-size="10.00">cstdint</text>
</a>
</g>
</g>
<!-- Node5&#45;&gt;Node6 -->
<g id="edge5" class="edge">
<title>Node5&#45;&gt;Node6</title>
<path fill="none" stroke="midnightblue" d="M407.01,-267.3C338.01,-258.74 222.37,-232.76 169.09,-154 155.37,-133.71 171.37,-106.51 185.01,-89.24"/>
<polygon fill="midnightblue" stroke="midnightblue" points="188.01,-91.12 191.76,-81.21 182.65,-86.62 188.01,-91.12"/>
</g>
<!-- Node7 -->
<g id="node7" class="node">
<title>Node7</title>
<g id="a_node7"><a xlink:href="write-barrier_8h.html" target="_top" xlink:title=" ">
<polygon fill="white" stroke="black" points="463.59,-190.5 463.59,-220.5 564.59,-220.5 564.59,-190.5 463.59,-190.5"/>
<text text-anchor="start" x="471.59" y="-208.5" font-family="Helvetica,sans-Serif" font-size="10.00">cppgc/internal/write</text>
<text text-anchor="middle" x="514.09" y="-197.5" font-family="Helvetica,sans-Serif" font-size="10.00">&#45;barrier.h</text>
</a>
</g>
</g>
<!-- Node5&#45;&gt;Node7 -->
<g id="edge7" class="edge">
<title>Node5&#45;&gt;Node7</title>
<path fill="none" stroke="midnightblue" d="M473.37,-257.4C480.12,-248.96 488.84,-238.07 496.47,-228.52"/>
<polygon fill="midnightblue" stroke="midnightblue" points="499.32,-230.57 502.83,-220.58 493.85,-226.2 499.32,-230.57"/>
</g>
<!-- Node5&#45;&gt;Node9 -->
<g id="edge29" class="edge">
<title>Node5&#45;&gt;Node9</title>
<path fill="none" stroke="midnightblue" d="M517.12,-264.6C579.95,-253.45 679.98,-225 726.09,-154 738.88,-134.31 727.64,-107.11 717.56,-89.66"/>
<polygon fill="midnightblue" stroke="midnightblue" points="720.48,-87.73 712.24,-81.08 714.53,-91.42 720.48,-87.73"/>
</g>
<!-- Node18 -->
<g id="node18" class="node">
<title>Node18</title>
<g id="a_node18"><a xlink:href="source-location_8h.html" target="_top" xlink:title=" ">
<polygon fill="white" stroke="black" points="857.59,-196 857.59,-215 976.59,-215 976.59,-196 857.59,-196"/>
<text text-anchor="middle" x="917.09" y="-203" font-family="Helvetica,sans-Serif" font-size="10.00">cppgc/source&#45;location.h</text>
</a>
</g>
</g>
<!-- Node5&#45;&gt;Node18 -->
<g id="edge26" class="edge">
<title>Node5&#45;&gt;Node18</title>
<path fill="none" stroke="midnightblue" d="M517.43,-263.59C600.41,-251.74 756.97,-229.37 847.56,-216.43"/>
<polygon fill="midnightblue" stroke="midnightblue" points="848.05,-219.9 857.46,-215.02 847.06,-212.97 848.05,-219.9"/>
</g>
<!-- Node8 -->
<g id="node8" class="node">
<title>Node8</title>
<g id="a_node8"><a xlink:href="heap-state_8h.html" target="_top" xlink:title=" ">
<polygon fill="white" stroke="black" points="617.59,-129 617.59,-148 716.59,-148 716.59,-129 617.59,-129"/>
<text text-anchor="middle" x="667.09" y="-136" font-family="Helvetica,sans-Serif" font-size="10.00">cppgc/heap&#45;state.h</text>
</a>
</g>
</g>
<!-- Node7&#45;&gt;Node8 -->
<g id="edge8" class="edge">
<title>Node7&#45;&gt;Node8</title>
<path fill="none" stroke="midnightblue" d="M547.29,-190.4C574.25,-178.94 611.92,-162.94 637.78,-151.95"/>
<polygon fill="midnightblue" stroke="midnightblue" points="639.23,-155.14 647.07,-148.01 636.49,-148.7 639.23,-155.14"/>
</g>
<!-- Node7&#45;&gt;Node9 -->
<g id="edge25" class="edge">
<title>Node7&#45;&gt;Node9</title>
<path fill="none" stroke="midnightblue" d="M529.4,-190.43C551.62,-170.16 591.9,-133.96 608.09,-123 630.02,-108.16 656.87,-94.61 676.92,-85.29"/>
<polygon fill="midnightblue" stroke="midnightblue" points="678.52,-88.4 686.16,-81.07 675.61,-82.04 678.52,-88.4"/>
</g>
<!-- Node10 -->
<g id="node10" class="node">
<title>Node10</title>
<g id="a_node10"><a xlink:href="api-constants_8h.html" target="_top" xlink:title=" ">
<polygon fill="white" stroke="black" points="467.59,-123.5 467.59,-153.5 560.59,-153.5 560.59,-123.5 467.59,-123.5"/>
<text text-anchor="start" x="475.59" y="-141.5" font-family="Helvetica,sans-Serif" font-size="10.00">cppgc/internal/api</text>
<text text-anchor="middle" x="514.09" y="-130.5" font-family="Helvetica,sans-Serif" font-size="10.00">&#45;constants.h</text>
</a>
</g>
</g>
<!-- Node7&#45;&gt;Node10 -->
<g id="edge10" class="edge">
<title>Node7&#45;&gt;Node10</title>
<path fill="none" stroke="midnightblue" d="M514.09,-190.4C514.09,-182.64 514.09,-172.81 514.09,-163.86"/>
<polygon fill="midnightblue" stroke="midnightblue" points="517.59,-163.58 514.09,-153.58 510.59,-163.58 517.59,-163.58"/>
</g>
<!-- Node13 -->
<g id="node13" class="node">
<title>Node13</title>
<g id="a_node13"><a xlink:href="process-heap_8h.html" target="_top" xlink:title=" ">
<polygon fill="white" stroke="black" points="773.59,-123.5 773.59,-153.5 888.59,-153.5 888.59,-123.5 773.59,-123.5"/>
<text text-anchor="start" x="781.59" y="-141.5" font-family="Helvetica,sans-Serif" font-size="10.00">cppgc/internal/process</text>
<text text-anchor="middle" x="831.09" y="-130.5" font-family="Helvetica,sans-Serif" font-size="10.00">&#45;heap.h</text>
</a>
</g>
</g>
<!-- Node7&#45;&gt;Node13 -->
<g id="edge14" class="edge">
<title>Node7&#45;&gt;Node13</title>
<path fill="none" stroke="midnightblue" d="M564.67,-194.13C618.46,-183.1 703.82,-165.6 763.38,-153.38"/>
<polygon fill="midnightblue" stroke="midnightblue" points="764.35,-156.76 773.44,-151.32 762.94,-149.9 764.35,-156.76"/>
</g>
<!-- Node7&#45;&gt;Node15 -->
<g id="edge18" class="edge">
<title>Node7&#45;&gt;Node15</title>
<path fill="none" stroke="midnightblue" d="M463.47,-192.58C412.22,-180.51 333.66,-162.01 284.12,-150.34"/>
<polygon fill="midnightblue" stroke="midnightblue" points="284.85,-146.92 274.31,-148.03 283.25,-153.73 284.85,-146.92"/>
</g>
<!-- Node16 -->
<g id="node16" class="node">
<title>Node16</title>
<g id="a_node16"><a xlink:href="trace-trait_8h.html" target="_top" xlink:title=" ">
<polygon fill="white" stroke="black" points="354.59,-129 354.59,-148 449.59,-148 449.59,-129 354.59,-129"/>
<text text-anchor="middle" x="402.09" y="-136" font-family="Helvetica,sans-Serif" font-size="10.00">cppgc/trace&#45;trait.h</text>
</a>
</g>
</g>
<!-- Node7&#45;&gt;Node16 -->
<g id="edge20" class="edge">
<title>Node7&#45;&gt;Node16</title>
<path fill="none" stroke="midnightblue" d="M489.79,-190.4C470.75,-179.34 444.41,-164.06 425.58,-153.13"/>
<polygon fill="midnightblue" stroke="midnightblue" points="427.15,-150 416.75,-148.01 423.64,-156.05 427.15,-150"/>
</g>
<!-- Node8&#45;&gt;Node9 -->
<g id="edge9" class="edge">
<title>Node8&#45;&gt;Node9</title>
<path fill="none" stroke="midnightblue" d="M672.35,-128.73C678.31,-118.79 688.19,-102.34 695.72,-89.79"/>
<polygon fill="midnightblue" stroke="midnightblue" points="698.77,-91.5 700.91,-81.13 692.77,-87.9 698.77,-91.5"/>
</g>
<!-- Node10&#45;&gt;Node9 -->
<g id="edge13" class="edge">
<title>Node10&#45;&gt;Node9</title>
<path fill="none" stroke="midnightblue" d="M555.75,-123.4C590.33,-111.69 638.95,-95.23 671.43,-84.23"/>
<polygon fill="midnightblue" stroke="midnightblue" points="672.61,-87.53 680.96,-81.01 670.37,-80.9 672.61,-87.53"/>
</g>
<!-- Node11 -->
<g id="node11" class="node">
<title>Node11</title>
<g id="a_node11"><a xlink:title=" ">
<polygon fill="white" stroke="#bfbfbf" points="459.59,-62 459.59,-81 510.59,-81 510.59,-62 459.59,-62"/>
<text text-anchor="middle" x="485.09" y="-69" font-family="Helvetica,sans-Serif" font-size="10.00">stddef.h</text>
</a>
</g>
</g>
<!-- Node10&#45;&gt;Node11 -->
<g id="edge11" class="edge">
<title>Node10&#45;&gt;Node11</title>
<path fill="none" stroke="midnightblue" d="M507.8,-123.4C503.5,-113.76 497.77,-100.91 493.14,-90.54"/>
<polygon fill="midnightblue" stroke="midnightblue" points="496.24,-88.9 488.97,-81.19 489.85,-91.75 496.24,-88.9"/>
</g>
<!-- Node12 -->
<g id="node12" class="node">
<title>Node12</title>
<g id="a_node12"><a xlink:title=" ">
<polygon fill="white" stroke="#bfbfbf" points="529.09,-62 529.09,-81 577.09,-81 577.09,-62 529.09,-62"/>
<text text-anchor="middle" x="553.09" y="-69" font-family="Helvetica,sans-Serif" font-size="10.00">stdint.h</text>
</a>
</g>
</g>
<!-- Node10&#45;&gt;Node12 -->
<g id="edge12" class="edge">
<title>Node10&#45;&gt;Node12</title>
<path fill="none" stroke="midnightblue" d="M522.55,-123.4C528.45,-113.56 536.36,-100.38 542.66,-89.89"/>
<polygon fill="midnightblue" stroke="midnightblue" points="545.73,-91.57 547.87,-81.19 539.73,-87.97 545.73,-91.57"/>
</g>
<!-- Node13&#45;&gt;Node9 -->
<g id="edge17" class="edge">
<title>Node13&#45;&gt;Node9</title>
<path fill="none" stroke="midnightblue" d="M803.97,-123.4C782.42,-112.19 752.52,-96.64 731.45,-85.69"/>
<polygon fill="midnightblue" stroke="midnightblue" points="732.94,-82.52 722.45,-81.01 729.71,-88.73 732.94,-82.52"/>
</g>
<!-- Node14 -->
<g id="node14" class="node">
<title>Node14</title>
<g id="a_node14"><a xlink:href="atomic-entry-flag_8h.html" target="_top" xlink:title=" ">
<polygon fill="white" stroke="black" points="831.09,-56.5 831.09,-86.5 941.09,-86.5 941.09,-56.5 831.09,-56.5"/>
<text text-anchor="start" x="839.09" y="-74.5" font-family="Helvetica,sans-Serif" font-size="10.00">cppgc/internal/atomic</text>
<text text-anchor="middle" x="886.09" y="-63.5" font-family="Helvetica,sans-Serif" font-size="10.00">&#45;entry&#45;flag.h</text>
</a>
</g>
</g>
<!-- Node13&#45;&gt;Node14 -->
<g id="edge15" class="edge">
<title>Node13&#45;&gt;Node14</title>
<path fill="none" stroke="midnightblue" d="M843.02,-123.4C850.23,-114.88 859.57,-103.85 867.7,-94.23"/>
<polygon fill="midnightblue" stroke="midnightblue" points="870.39,-96.47 874.18,-86.58 865.05,-91.95 870.39,-96.47"/>
</g>
<!-- Node14&#45;&gt;Node2 -->
<g id="edge16" class="edge">
<title>Node14&#45;&gt;Node2</title>
<path fill="none" stroke="midnightblue" d="M912.4,-56.4C930.35,-46.77 954.01,-34.09 971.76,-24.58"/>
<polygon fill="midnightblue" stroke="midnightblue" points="973.78,-27.47 980.94,-19.66 970.47,-21.3 973.78,-27.47"/>
</g>
<!-- Node15&#45;&gt;Node6 -->
<g id="edge19" class="edge">
<title>Node15&#45;&gt;Node6</title>
<path fill="none" stroke="midnightblue" d="M232.97,-128.73C227.15,-118.79 217.53,-102.34 210.2,-89.79"/>
<polygon fill="midnightblue" stroke="midnightblue" points="213.2,-87.99 205.13,-81.13 207.16,-91.53 213.2,-87.99"/>
</g>
<!-- Node16&#45;&gt;Node4 -->
<g id="edge21" class="edge">
<title>Node16&#45;&gt;Node4</title>
<path fill="none" stroke="midnightblue" d="M402.74,-128.79C403.46,-112.27 402.53,-76.21 383.09,-56 351.28,-22.94 297.67,-13.43 260.43,-11.07"/>
<polygon fill="midnightblue" stroke="midnightblue" points="260.56,-7.57 250.4,-10.58 260.22,-14.56 260.56,-7.57"/>
</g>
<!-- Node16&#45;&gt;Node9 -->
<g id="edge24" class="edge">
<title>Node16&#45;&gt;Node9</title>
<path fill="none" stroke="midnightblue" d="M434,-128.93C441.86,-126.9 450.26,-124.81 458.09,-123 531.03,-106.14 616.73,-89.35 665.9,-80.01"/>
<polygon fill="midnightblue" stroke="midnightblue" points="666.65,-83.43 675.82,-78.13 665.34,-76.55 666.65,-83.43"/>
</g>
<!-- Node16&#45;&gt;Node17 -->
<g id="edge22" class="edge">
<title>Node16&#45;&gt;Node17</title>
<path fill="none" stroke="midnightblue" d="M391.84,-128.73C379.65,-118.31 359.07,-100.71 344.18,-87.97"/>
<polygon fill="midnightblue" stroke="midnightblue" points="346.05,-84.97 336.18,-81.13 341.5,-90.29 346.05,-84.97"/>
</g>
<!-- Node17&#45;&gt;Node4 -->
<g id="edge23" class="edge">
<title>Node17&#45;&gt;Node4</title>
<path fill="none" stroke="midnightblue" d="M310.76,-61.98C293.12,-52.17 263.93,-35.93 243.23,-24.42"/>
<polygon fill="midnightblue" stroke="midnightblue" points="244.83,-21.31 234.39,-19.51 241.43,-27.43 244.83,-21.31"/>
</g>
<!-- Node18&#45;&gt;Node9 -->
<g id="edge28" class="edge">
<title>Node18&#45;&gt;Node9</title>
<path fill="none" stroke="midnightblue" d="M917.76,-195.77C918.51,-179.22 917.64,-143.1 898.09,-123 877.23,-101.54 796.33,-85.96 746.44,-78.15"/>
<polygon fill="midnightblue" stroke="midnightblue" points="746.71,-74.66 736.29,-76.61 745.65,-81.58 746.71,-74.66"/>
</g>
<!-- Node19 -->
<g id="node19" class="node">
<title>Node19</title>
<g id="a_node19"><a xlink:title=" ">
<polygon fill="white" stroke="#bfbfbf" points="945.59,-129 945.59,-148 986.59,-148 986.59,-129 945.59,-129"/>
<text text-anchor="middle" x="966.09" y="-136" font-family="Helvetica,sans-Serif" font-size="10.00">string</text>
</a>
</g>
</g>
<!-- Node18&#45;&gt;Node19 -->
<g id="edge27" class="edge">
<title>Node18&#45;&gt;Node19</title>
<path fill="none" stroke="midnightblue" d="M923.7,-195.73C931.27,-185.7 943.84,-169.01 953.33,-156.42"/>
<polygon fill="midnightblue" stroke="midnightblue" points="956.36,-158.22 959.59,-148.13 950.77,-154.01 956.36,-158.22"/>
</g>
</g>
</svg>
