<?xml version="1.0" encoding="UTF-8" standalone="no"?>
<!DOCTYPE svg PUBLIC "-//W3C//DTD SVG 1.1//EN"
 "http://www.w3.org/Graphics/SVG/1.1/DTD/svg11.dtd">
<!-- Generated by graphviz version 2.44.0 ()
 -->
<!-- Title: include/cppgc/persistent.h Pages: 1 -->
<svg width="1835pt" height="576pt"
 viewBox="0.00 0.00 1835.15 576.00" xmlns="http://www.w3.org/2000/svg" xmlns:xlink="http://www.w3.org/1999/xlink">
<g id="graph0" class="graph" transform="scale(1 1) rotate(0) translate(4 572)">
<title>include/cppgc/persistent.h</title>
<polygon fill="white" stroke="transparent" points="-4,4 -4,-572 1831.15,-572 1831.15,4 -4,4"/>
<!-- Node1 -->
<g id="node1" class="node">
<title>Node1</title>
<g id="a_node1"><a xlink:title=" ">
<polygon fill="#bfbfbf" stroke="black" points="1020.15,-548.5 1020.15,-567.5 1150.15,-567.5 1150.15,-548.5 1020.15,-548.5"/>
<text text-anchor="middle" x="1085.15" y="-555.5" font-family="Helvetica,sans-Serif" font-size="10.00">include/cppgc/persistent.h</text>
</a>
</g>
</g>
<!-- Node2 -->
<g id="node2" class="node">
<title>Node2</title>
<g id="a_node2"><a xlink:title=" ">
<polygon fill="white" stroke="#bfbfbf" points="1568.15,-0.5 1568.15,-19.5 1630.15,-19.5 1630.15,-0.5 1568.15,-0.5"/>
<text text-anchor="middle" x="1599.15" y="-7.5" font-family="Helvetica,sans-Serif" font-size="10.00">type_traits</text>
</a>
</g>
</g>
<!-- Node1&#45;&gt;Node2 -->
<g id="edge1" class="edge">
<title>Node1&#45;&gt;Node2</title>
<path fill="none" stroke="midnightblue" d="M1150.16,-554.44C1280.35,-548.91 1568.83,-534.5 1665.15,-512 1740.69,-494.35 1827.15,-524.58 1827.15,-447 1827.15,-447 1827.15,-447 1827.15,-137.5 1827.15,-53.07 1706.11,-24.52 1640.41,-15.24"/>
<polygon fill="midnightblue" stroke="midnightblue" points="1640.74,-11.75 1630.37,-13.91 1639.83,-18.69 1640.74,-11.75"/>
</g>
<!-- Node3 -->
<g id="node3" class="node">
<title>Node3</title>
<g id="a_node3"><a xlink:href="persistent-node_8h.html" target="_top" xlink:title=" ">
<polygon fill="white" stroke="black" points="1308.65,-257.5 1308.65,-287.5 1431.65,-287.5 1431.65,-257.5 1308.65,-257.5"/>
<text text-anchor="start" x="1316.65" y="-275.5" font-family="Helvetica,sans-Serif" font-size="10.00">cppgc/internal/persistent</text>
<text text-anchor="middle" x="1370.15" y="-264.5" font-family="Helvetica,sans-Serif" font-size="10.00">&#45;node.h</text>
</a>
</g>
</g>
<!-- Node1&#45;&gt;Node3 -->
<g id="edge2" class="edge">
<title>Node1&#45;&gt;Node3</title>
<path fill="none" stroke="midnightblue" d="M1150.59,-553.1C1267.04,-544.35 1498.15,-518.05 1498.15,-447 1498.15,-447 1498.15,-447 1498.15,-389 1498.15,-342.92 1451.85,-310.49 1414.95,-291.96"/>
<polygon fill="midnightblue" stroke="midnightblue" points="1416.33,-288.74 1405.8,-287.55 1413.29,-295.05 1416.33,-288.74"/>
</g>
<!-- Node8 -->
<g id="node8" class="node">
<title>Node8</title>
<g id="a_node8"><a xlink:href="source-location_8h.html" target="_top" xlink:title=" ">
<polygon fill="white" stroke="black" points="230.65,-129 230.65,-148 349.65,-148 349.65,-129 230.65,-129"/>
<text text-anchor="middle" x="290.15" y="-136" font-family="Helvetica,sans-Serif" font-size="10.00">cppgc/source&#45;location.h</text>
</a>
</g>
</g>
<!-- Node1&#45;&gt;Node8 -->
<g id="edge38" class="edge">
<title>Node1&#45;&gt;Node8</title>
<path fill="none" stroke="midnightblue" d="M1019.95,-555.67C816.7,-550.65 208.15,-528.81 208.15,-447 208.15,-447 208.15,-447 208.15,-333 208.15,-262.93 254.29,-189.1 277.35,-156.58"/>
<polygon fill="midnightblue" stroke="midnightblue" points="280.39,-158.35 283.44,-148.2 274.73,-154.23 280.39,-158.35"/>
</g>
<!-- Node10 -->
<g id="node10" class="node">
<title>Node10</title>
<g id="a_node10"><a xlink:href="v8config_8h.html" target="_top" xlink:title=" ">
<polygon fill="white" stroke="black" points="972.15,-62 972.15,-81 1032.15,-81 1032.15,-62 972.15,-62"/>
<text text-anchor="middle" x="1002.15" y="-69" font-family="Helvetica,sans-Serif" font-size="10.00">v8config.h</text>
</a>
</g>
</g>
<!-- Node1&#45;&gt;Node10 -->
<g id="edge85" class="edge">
<title>Node1&#45;&gt;Node10</title>
<path fill="none" stroke="midnightblue" d="M1146.58,-548.49C1203.74,-536.7 1280.15,-509.29 1280.15,-447 1280.15,-447 1280.15,-447 1280.15,-333 1280.15,-268.63 1291.5,-244.44 1257.15,-190 1209.91,-115.14 1101.37,-87.36 1042.28,-77.54"/>
<polygon fill="midnightblue" stroke="midnightblue" points="1042.61,-74.05 1032.19,-75.95 1041.53,-80.96 1042.61,-74.05"/>
</g>
<!-- Node12 -->
<g id="node12" class="node">
<title>Node12</title>
<g id="a_node12"><a xlink:href="type-traits_8h.html" target="_top" xlink:title=" ">
<polygon fill="white" stroke="black" points="1580.15,-62 1580.15,-81 1676.15,-81 1676.15,-62 1580.15,-62"/>
<text text-anchor="middle" x="1628.15" y="-69" font-family="Helvetica,sans-Serif" font-size="10.00">cppgc/type&#45;traits.h</text>
</a>
</g>
</g>
<!-- Node1&#45;&gt;Node12 -->
<g id="edge39" class="edge">
<title>Node1&#45;&gt;Node12</title>
<path fill="none" stroke="midnightblue" d="M1150.43,-553.62C1324.95,-543.7 1789.15,-511.29 1789.15,-447 1789.15,-447 1789.15,-447 1789.15,-271.5 1789.15,-196.32 1761.22,-176.24 1708.15,-123 1692.93,-107.73 1672.29,-94.85 1655.78,-85.91"/>
<polygon fill="midnightblue" stroke="midnightblue" points="1657.1,-82.65 1646.62,-81.12 1653.86,-88.86 1657.1,-82.65"/>
</g>
<!-- Node13 -->
<g id="node13" class="node">
<title>Node13</title>
<g id="a_node13"><a xlink:href="pointer-policies_8h.html" target="_top" xlink:title=" ">
<polygon fill="white" stroke="black" points="350.15,-257.5 350.15,-287.5 460.15,-287.5 460.15,-257.5 350.15,-257.5"/>
<text text-anchor="start" x="358.15" y="-275.5" font-family="Helvetica,sans-Serif" font-size="10.00">cppgc/internal/pointer</text>
<text text-anchor="middle" x="405.15" y="-264.5" font-family="Helvetica,sans-Serif" font-size="10.00">&#45;policies.h</text>
</a>
</g>
</g>
<!-- Node1&#45;&gt;Node13 -->
<g id="edge17" class="edge">
<title>Node1&#45;&gt;Node13</title>
<path fill="none" stroke="midnightblue" d="M1020.09,-554.43C835.58,-546.27 322.15,-517.26 322.15,-447 322.15,-447 322.15,-447 322.15,-389 322.15,-349.95 353.81,-315.08 378.03,-294.12"/>
<polygon fill="midnightblue" stroke="midnightblue" points="380.46,-296.65 385.9,-287.56 375.97,-291.27 380.46,-296.65"/>
</g>
<!-- Node23 -->
<g id="node23" class="node">
<title>Node23</title>
<g id="a_node23"><a xlink:href="sentinel-pointer_8h.html" target="_top" xlink:title=" ">
<polygon fill="white" stroke="black" points="16.65,-129 16.65,-148 135.65,-148 135.65,-129 16.65,-129"/>
<text text-anchor="middle" x="76.15" y="-136" font-family="Helvetica,sans-Serif" font-size="10.00">cppgc/sentinel&#45;pointer.h</text>
</a>
</g>
</g>
<!-- Node1&#45;&gt;Node23 -->
<g id="edge37" class="edge">
<title>Node1&#45;&gt;Node23</title>
<path fill="none" stroke="midnightblue" d="M1020.01,-556.94C792.96,-555.89 50.15,-544.97 50.15,-447 50.15,-447 50.15,-447 50.15,-271.5 50.15,-230.2 62.55,-182.97 70.22,-157.71"/>
<polygon fill="midnightblue" stroke="midnightblue" points="73.61,-158.62 73.26,-148.03 66.93,-156.53 73.61,-158.62"/>
</g>
<!-- Node24 -->
<g id="node24" class="node">
<title>Node24</title>
<g id="a_node24"><a xlink:href="visitor_8h.html" target="_top" xlink:title=" ">
<polygon fill="white" stroke="black" points="818.15,-492.5 818.15,-511.5 898.15,-511.5 898.15,-492.5 818.15,-492.5"/>
<text text-anchor="middle" x="858.15" y="-499.5" font-family="Helvetica,sans-Serif" font-size="10.00">cppgc/visitor.h</text>
</a>
</g>
</g>
<!-- Node1&#45;&gt;Node24 -->
<g id="edge40" class="edge">
<title>Node1&#45;&gt;Node24</title>
<path fill="none" stroke="midnightblue" d="M1049.18,-548.44C1009.83,-539.08 946.66,-524.06 903.83,-513.87"/>
<polygon fill="midnightblue" stroke="midnightblue" points="904.49,-510.43 893.95,-511.52 902.87,-517.24 904.49,-510.43"/>
</g>
<!-- Node4 -->
<g id="node4" class="node">
<title>Node4</title>
<g id="a_node4"><a xlink:title=" ">
<polygon fill="white" stroke="#bfbfbf" points="1457.15,-196 1457.15,-215 1495.15,-215 1495.15,-196 1457.15,-196"/>
<text text-anchor="middle" x="1476.15" y="-203" font-family="Helvetica,sans-Serif" font-size="10.00">array</text>
</a>
</g>
</g>
<!-- Node3&#45;&gt;Node4 -->
<g id="edge3" class="edge">
<title>Node3&#45;&gt;Node4</title>
<path fill="none" stroke="midnightblue" d="M1393.15,-257.4C1411.09,-246.39 1435.87,-231.2 1453.67,-220.28"/>
<polygon fill="midnightblue" stroke="midnightblue" points="1455.58,-223.22 1462.27,-215.01 1451.92,-217.25 1455.58,-223.22"/>
</g>
<!-- Node5 -->
<g id="node5" class="node">
<title>Node5</title>
<g id="a_node5"><a xlink:title=" ">
<polygon fill="white" stroke="#bfbfbf" points="1327.65,-62 1327.65,-81 1378.65,-81 1378.65,-62 1327.65,-62"/>
<text text-anchor="middle" x="1353.15" y="-69" font-family="Helvetica,sans-Serif" font-size="10.00">memory</text>
</a>
</g>
</g>
<!-- Node3&#45;&gt;Node5 -->
<g id="edge4" class="edge">
<title>Node3&#45;&gt;Node5</title>
<path fill="none" stroke="midnightblue" d="M1371.02,-257.48C1372.42,-231.03 1374.32,-171.99 1367.15,-123 1365.56,-112.14 1362.36,-100.31 1359.42,-90.82"/>
<polygon fill="midnightblue" stroke="midnightblue" points="1362.74,-89.72 1356.31,-81.3 1356.08,-91.89 1362.74,-89.72"/>
</g>
<!-- Node6 -->
<g id="node6" class="node">
<title>Node6</title>
<g id="a_node6"><a xlink:title=" ">
<polygon fill="white" stroke="#bfbfbf" points="1059.15,-196 1059.15,-215 1103.15,-215 1103.15,-196 1059.15,-196"/>
<text text-anchor="middle" x="1081.15" y="-203" font-family="Helvetica,sans-Serif" font-size="10.00">vector</text>
</a>
</g>
</g>
<!-- Node3&#45;&gt;Node6 -->
<g id="edge5" class="edge">
<title>Node3&#45;&gt;Node6</title>
<path fill="none" stroke="midnightblue" d="M1308.53,-262.49C1256.82,-254.15 1181.31,-240.14 1117.15,-221 1114.86,-220.32 1112.51,-219.55 1110.17,-218.72"/>
<polygon fill="midnightblue" stroke="midnightblue" points="1111.31,-215.41 1100.72,-215.15 1108.83,-221.96 1111.31,-215.41"/>
</g>
<!-- Node7 -->
<g id="node7" class="node">
<title>Node7</title>
<g id="a_node7"><a xlink:href="logging_8h.html" target="_top" xlink:title=" ">
<polygon fill="white" stroke="black" points="735.65,-196 735.65,-215 854.65,-215 854.65,-196 735.65,-196"/>
<text text-anchor="middle" x="795.15" y="-203" font-family="Helvetica,sans-Serif" font-size="10.00">cppgc/internal/logging.h</text>
</a>
</g>
</g>
<!-- Node3&#45;&gt;Node7 -->
<g id="edge6" class="edge">
<title>Node3&#45;&gt;Node7</title>
<path fill="none" stroke="midnightblue" d="M1308.61,-264.54C1200.76,-252.35 978.3,-227.2 864.91,-214.39"/>
<polygon fill="midnightblue" stroke="midnightblue" points="865.27,-210.91 854.94,-213.26 864.49,-217.86 865.27,-210.91"/>
</g>
<!-- Node3&#45;&gt;Node10 -->
<g id="edge16" class="edge">
<title>Node3&#45;&gt;Node10</title>
<path fill="none" stroke="midnightblue" d="M1367.1,-257.22C1359.82,-226.93 1338.41,-156.31 1291.15,-123 1251.74,-95.23 1112.61,-80.92 1042.77,-75.34"/>
<polygon fill="midnightblue" stroke="midnightblue" points="1042.83,-71.84 1032.59,-74.55 1042.29,-78.82 1042.83,-71.84"/>
</g>
<!-- Node11 -->
<g id="node11" class="node">
<title>Node11</title>
<g id="a_node11"><a xlink:href="trace-trait_8h.html" target="_top" xlink:title=" ">
<polygon fill="white" stroke="black" points="1475.65,-129 1475.65,-148 1570.65,-148 1570.65,-129 1475.65,-129"/>
<text text-anchor="middle" x="1523.15" y="-136" font-family="Helvetica,sans-Serif" font-size="10.00">cppgc/trace&#45;trait.h</text>
</a>
</g>
</g>
<!-- Node3&#45;&gt;Node11 -->
<g id="edge11" class="edge">
<title>Node3&#45;&gt;Node11</title>
<path fill="none" stroke="midnightblue" d="M1382.02,-257.35C1396.64,-240.35 1422.68,-211.45 1448.15,-190 1464.35,-176.35 1484.32,-163.05 1499.58,-153.53"/>
<polygon fill="midnightblue" stroke="midnightblue" points="1501.7,-156.34 1508.39,-148.13 1498.04,-150.37 1501.7,-156.34"/>
</g>
<!-- Node7&#45;&gt;Node8 -->
<g id="edge7" class="edge">
<title>Node7&#45;&gt;Node8</title>
<path fill="none" stroke="midnightblue" d="M735.23,-196.79C641.27,-184.69 459.7,-161.32 359.96,-148.49"/>
<polygon fill="midnightblue" stroke="midnightblue" points="360.35,-145.01 349.98,-147.2 359.45,-151.95 360.35,-145.01"/>
</g>
<!-- Node7&#45;&gt;Node10 -->
<g id="edge10" class="edge">
<title>Node7&#45;&gt;Node10</title>
<path fill="none" stroke="midnightblue" d="M834.24,-195.97C891.46,-183.31 991.87,-160.34 997.15,-154 1011.56,-136.67 1009.99,-109.43 1006.74,-91.27"/>
<polygon fill="midnightblue" stroke="midnightblue" points="1010.13,-90.36 1004.63,-81.31 1003.28,-91.82 1010.13,-90.36"/>
</g>
<!-- Node9 -->
<g id="node9" class="node">
<title>Node9</title>
<g id="a_node9"><a xlink:title=" ">
<polygon fill="white" stroke="#bfbfbf" points="358.65,-62 358.65,-81 399.65,-81 399.65,-62 358.65,-62"/>
<text text-anchor="middle" x="379.15" y="-69" font-family="Helvetica,sans-Serif" font-size="10.00">string</text>
</a>
</g>
</g>
<!-- Node8&#45;&gt;Node9 -->
<g id="edge8" class="edge">
<title>Node8&#45;&gt;Node9</title>
<path fill="none" stroke="midnightblue" d="M302.15,-128.73C316.7,-118.11 341.43,-100.05 358.93,-87.26"/>
<polygon fill="midnightblue" stroke="midnightblue" points="361.32,-89.85 367.33,-81.13 357.19,-84.2 361.32,-89.85"/>
</g>
<!-- Node8&#45;&gt;Node10 -->
<g id="edge9" class="edge">
<title>Node8&#45;&gt;Node10</title>
<path fill="none" stroke="midnightblue" d="M349.74,-131.39C375.94,-128.75 407.06,-125.65 435.15,-123 632.67,-104.33 869.1,-83.88 961.93,-75.93"/>
<polygon fill="midnightblue" stroke="midnightblue" points="962.35,-79.41 972.02,-75.07 961.75,-72.43 962.35,-79.41"/>
</g>
<!-- Node11&#45;&gt;Node2 -->
<g id="edge12" class="edge">
<title>Node11&#45;&gt;Node2</title>
<path fill="none" stroke="midnightblue" d="M1528.12,-128.89C1536.77,-113.98 1555.16,-82.41 1571.15,-56 1576.76,-46.74 1583.13,-36.48 1588.37,-28.1"/>
<polygon fill="midnightblue" stroke="midnightblue" points="1591.36,-29.92 1593.72,-19.59 1585.43,-26.2 1591.36,-29.92"/>
</g>
<!-- Node11&#45;&gt;Node10 -->
<g id="edge15" class="edge">
<title>Node11&#45;&gt;Node10</title>
<path fill="none" stroke="midnightblue" d="M1475.53,-131.56C1373.84,-118.87 1137.01,-89.33 1042.32,-77.51"/>
<polygon fill="midnightblue" stroke="midnightblue" points="1042.64,-74.03 1032.29,-76.26 1041.78,-80.97 1042.64,-74.03"/>
</g>
<!-- Node11&#45;&gt;Node12 -->
<g id="edge13" class="edge">
<title>Node11&#45;&gt;Node12</title>
<path fill="none" stroke="midnightblue" d="M1537.31,-128.73C1554.86,-117.87 1584.99,-99.22 1605.7,-86.39"/>
<polygon fill="midnightblue" stroke="midnightblue" points="1607.55,-89.37 1614.21,-81.13 1603.87,-83.41 1607.55,-89.37"/>
</g>
<!-- Node12&#45;&gt;Node2 -->
<g id="edge14" class="edge">
<title>Node12&#45;&gt;Node2</title>
<path fill="none" stroke="midnightblue" d="M1623.99,-61.98C1619.77,-53.32 1613.11,-39.65 1607.75,-28.65"/>
<polygon fill="midnightblue" stroke="midnightblue" points="1610.82,-26.96 1603.29,-19.51 1604.53,-30.03 1610.82,-26.96"/>
</g>
<!-- Node13&#45;&gt;Node2 -->
<g id="edge19" class="edge">
<title>Node13&#45;&gt;Node2</title>
<path fill="none" stroke="midnightblue" d="M360.87,-257.39C316.5,-240.6 250.65,-207.85 221.15,-154 200.22,-115.8 190.85,-87.3 221.15,-56 268.8,-6.77 1333.76,-9.61 1557.96,-10.75"/>
<polygon fill="midnightblue" stroke="midnightblue" points="1557.97,-14.25 1567.99,-10.81 1558.01,-7.25 1557.97,-14.25"/>
</g>
<!-- Node13&#45;&gt;Node8 -->
<g id="edge35" class="edge">
<title>Node13&#45;&gt;Node8</title>
<path fill="none" stroke="midnightblue" d="M392.84,-257.37C371.39,-232.76 327.28,-182.12 304.49,-155.96"/>
<polygon fill="midnightblue" stroke="midnightblue" points="306.84,-153.34 297.64,-148.1 301.57,-157.94 306.84,-153.34"/>
</g>
<!-- Node13&#45;&gt;Node10 -->
<g id="edge36" class="edge">
<title>Node13&#45;&gt;Node10</title>
<path fill="none" stroke="midnightblue" d="M460.39,-266.57C511.15,-260.55 587.62,-247.66 649.15,-221 671.1,-211.49 670.97,-198.98 693.15,-190 788.64,-151.32 830.54,-201.15 922.15,-154 951.69,-138.8 976.83,-108.57 990.68,-89.51"/>
<polygon fill="midnightblue" stroke="midnightblue" points="993.66,-91.36 996.54,-81.16 987.93,-87.34 993.66,-91.36"/>
</g>
<!-- Node14 -->
<g id="node14" class="node">
<title>Node14</title>
<g id="a_node14"><a xlink:title=" ">
<polygon fill="white" stroke="#bfbfbf" points="91.15,-62 91.15,-81 137.15,-81 137.15,-62 91.15,-62"/>
<text text-anchor="middle" x="114.15" y="-69" font-family="Helvetica,sans-Serif" font-size="10.00">cstdint</text>
</a>
</g>
</g>
<!-- Node13&#45;&gt;Node14 -->
<g id="edge18" class="edge">
<title>Node13&#45;&gt;Node14</title>
<path fill="none" stroke="midnightblue" d="M350.01,-259.94C287.83,-246.72 194.48,-226.22 188.15,-221 151.29,-190.66 166.15,-165.37 144.15,-123 138.29,-111.73 131.04,-99.48 125.13,-89.87"/>
<polygon fill="midnightblue" stroke="midnightblue" points="128.03,-87.9 119.77,-81.27 122.09,-91.6 128.03,-87.9"/>
</g>
<!-- Node15 -->
<g id="node15" class="node">
<title>Node15</title>
<g id="a_node15"><a xlink:href="write-barrier_8h.html" target="_top" xlink:title=" ">
<polygon fill="white" stroke="black" points="539.65,-190.5 539.65,-220.5 640.65,-220.5 640.65,-190.5 539.65,-190.5"/>
<text text-anchor="start" x="547.65" y="-208.5" font-family="Helvetica,sans-Serif" font-size="10.00">cppgc/internal/write</text>
<text text-anchor="middle" x="590.15" y="-197.5" font-family="Helvetica,sans-Serif" font-size="10.00">&#45;barrier.h</text>
</a>
</g>
</g>
<!-- Node13&#45;&gt;Node15 -->
<g id="edge20" class="edge">
<title>Node13&#45;&gt;Node15</title>
<path fill="none" stroke="midnightblue" d="M445.29,-257.4C473.17,-247.6 510.51,-234.48 540.3,-224.02"/>
<polygon fill="midnightblue" stroke="midnightblue" points="541.81,-227.19 550.08,-220.58 539.49,-220.59 541.81,-227.19"/>
</g>
<!-- Node15&#45;&gt;Node10 -->
<g id="edge34" class="edge">
<title>Node15&#45;&gt;Node10</title>
<path fill="none" stroke="midnightblue" d="M640.82,-192.86C645.66,-191.85 650.49,-190.88 655.15,-190 757.68,-170.63 790.45,-193.21 887.15,-154 887.81,-153.73 948.52,-110.61 981.45,-87.21"/>
<polygon fill="midnightblue" stroke="midnightblue" points="983.81,-89.83 989.93,-81.19 979.75,-84.13 983.81,-89.83"/>
</g>
<!-- Node15&#45;&gt;Node11 -->
<g id="edge33" class="edge">
<title>Node15&#45;&gt;Node11</title>
<path fill="none" stroke="midnightblue" d="M640.8,-198.58C666.36,-195.72 697.87,-192.4 726.15,-190 1002.56,-166.52 1333.75,-148.89 1465.24,-142.31"/>
<polygon fill="midnightblue" stroke="midnightblue" points="1465.67,-145.8 1475.48,-141.8 1465.32,-138.81 1465.67,-145.8"/>
</g>
<!-- Node16 -->
<g id="node16" class="node">
<title>Node16</title>
<g id="a_node16"><a xlink:href="heap-state_8h.html" target="_top" xlink:title=" ">
<polygon fill="white" stroke="black" points="779.65,-129 779.65,-148 878.65,-148 878.65,-129 779.65,-129"/>
<text text-anchor="middle" x="829.15" y="-136" font-family="Helvetica,sans-Serif" font-size="10.00">cppgc/heap&#45;state.h</text>
</a>
</g>
</g>
<!-- Node15&#45;&gt;Node16 -->
<g id="edge21" class="edge">
<title>Node15&#45;&gt;Node16</title>
<path fill="none" stroke="midnightblue" d="M640.83,-190.72C684.54,-178.83 746.88,-161.88 787.67,-150.78"/>
<polygon fill="midnightblue" stroke="midnightblue" points="788.82,-154.1 797.55,-148.09 786.98,-147.34 788.82,-154.1"/>
</g>
<!-- Node17 -->
<g id="node17" class="node">
<title>Node17</title>
<g id="a_node17"><a xlink:href="api-constants_8h.html" target="_top" xlink:title=" ">
<polygon fill="white" stroke="black" points="577.65,-123.5 577.65,-153.5 670.65,-153.5 670.65,-123.5 577.65,-123.5"/>
<text text-anchor="start" x="585.65" y="-141.5" font-family="Helvetica,sans-Serif" font-size="10.00">cppgc/internal/api</text>
<text text-anchor="middle" x="624.15" y="-130.5" font-family="Helvetica,sans-Serif" font-size="10.00">&#45;constants.h</text>
</a>
</g>
</g>
<!-- Node15&#45;&gt;Node17 -->
<g id="edge23" class="edge">
<title>Node15&#45;&gt;Node17</title>
<path fill="none" stroke="midnightblue" d="M597.52,-190.4C601.76,-182.3 607.18,-171.94 612.02,-162.69"/>
<polygon fill="midnightblue" stroke="midnightblue" points="615.25,-164.06 616.78,-153.58 609.05,-160.82 615.25,-164.06"/>
</g>
<!-- Node20 -->
<g id="node20" class="node">
<title>Node20</title>
<g id="a_node20"><a xlink:href="process-heap_8h.html" target="_top" xlink:title=" ">
<polygon fill="white" stroke="black" points="444.65,-123.5 444.65,-153.5 559.65,-153.5 559.65,-123.5 444.65,-123.5"/>
<text text-anchor="start" x="452.65" y="-141.5" font-family="Helvetica,sans-Serif" font-size="10.00">cppgc/internal/process</text>
<text text-anchor="middle" x="502.15" y="-130.5" font-family="Helvetica,sans-Serif" font-size="10.00">&#45;heap.h</text>
</a>
</g>
</g>
<!-- Node15&#45;&gt;Node20 -->
<g id="edge27" class="edge">
<title>Node15&#45;&gt;Node20</title>
<path fill="none" stroke="midnightblue" d="M571.05,-190.4C558.83,-181.37 542.78,-169.51 529.25,-159.52"/>
<polygon fill="midnightblue" stroke="midnightblue" points="531.33,-156.7 521.2,-153.58 527.17,-162.33 531.33,-156.7"/>
</g>
<!-- Node15&#45;&gt;Node23 -->
<g id="edge31" class="edge">
<title>Node15&#45;&gt;Node23</title>
<path fill="none" stroke="midnightblue" d="M539.5,-191.78C536.34,-191.14 533.21,-190.54 530.15,-190 493.29,-183.52 263.98,-159.14 146.05,-146.78"/>
<polygon fill="midnightblue" stroke="midnightblue" points="146.34,-143.29 136.03,-145.73 145.61,-150.26 146.34,-143.29"/>
</g>
<!-- Node16&#45;&gt;Node10 -->
<g id="edge22" class="edge">
<title>Node16&#45;&gt;Node10</title>
<path fill="none" stroke="midnightblue" d="M852.12,-128.87C882.32,-117.52 935.54,-97.52 969.8,-84.65"/>
<polygon fill="midnightblue" stroke="midnightblue" points="971.22,-87.86 979.35,-81.06 968.76,-81.3 971.22,-87.86"/>
</g>
<!-- Node17&#45;&gt;Node10 -->
<g id="edge26" class="edge">
<title>Node17&#45;&gt;Node10</title>
<path fill="none" stroke="midnightblue" d="M670.88,-124.83C673.67,-124.18 676.44,-123.57 679.15,-123 780.24,-101.83 900.82,-85.24 962.1,-77.42"/>
<polygon fill="midnightblue" stroke="midnightblue" points="962.64,-80.87 972.12,-76.15 961.76,-73.93 962.64,-80.87"/>
</g>
<!-- Node18 -->
<g id="node18" class="node">
<title>Node18</title>
<g id="a_node18"><a xlink:title=" ">
<polygon fill="white" stroke="#bfbfbf" points="581.65,-62 581.65,-81 632.65,-81 632.65,-62 581.65,-62"/>
<text text-anchor="middle" x="607.15" y="-69" font-family="Helvetica,sans-Serif" font-size="10.00">stddef.h</text>
</a>
</g>
</g>
<!-- Node17&#45;&gt;Node18 -->
<g id="edge24" class="edge">
<title>Node17&#45;&gt;Node18</title>
<path fill="none" stroke="midnightblue" d="M620.46,-123.4C617.99,-113.96 614.72,-101.45 612.03,-91.19"/>
<polygon fill="midnightblue" stroke="midnightblue" points="615.34,-89.98 609.42,-81.19 608.56,-91.75 615.34,-89.98"/>
</g>
<!-- Node19 -->
<g id="node19" class="node">
<title>Node19</title>
<g id="a_node19"><a xlink:title=" ">
<polygon fill="white" stroke="#bfbfbf" points="651.15,-62 651.15,-81 699.15,-81 699.15,-62 651.15,-62"/>
<text text-anchor="middle" x="675.15" y="-69" font-family="Helvetica,sans-Serif" font-size="10.00">stdint.h</text>
</a>
</g>
</g>
<!-- Node17&#45;&gt;Node19 -->
<g id="edge25" class="edge">
<title>Node17&#45;&gt;Node19</title>
<path fill="none" stroke="midnightblue" d="M635.21,-123.4C643.09,-113.36 653.7,-99.84 662,-89.25"/>
<polygon fill="midnightblue" stroke="midnightblue" points="664.91,-91.22 668.32,-81.19 659.4,-86.9 664.91,-91.22"/>
</g>
<!-- Node20&#45;&gt;Node10 -->
<g id="edge30" class="edge">
<title>Node20&#45;&gt;Node10</title>
<path fill="none" stroke="midnightblue" d="M559.67,-124.51C562.53,-123.97 565.37,-123.47 568.15,-123 712.12,-98.87 884.9,-82.48 961.81,-75.83"/>
<polygon fill="midnightblue" stroke="midnightblue" points="962.34,-79.3 972.01,-74.96 961.75,-72.32 962.34,-79.3"/>
</g>
<!-- Node21 -->
<g id="node21" class="node">
<title>Node21</title>
<g id="a_node21"><a xlink:href="atomic-entry-flag_8h.html" target="_top" xlink:title=" ">
<polygon fill="white" stroke="black" points="230.15,-56.5 230.15,-86.5 340.15,-86.5 340.15,-56.5 230.15,-56.5"/>
<text text-anchor="start" x="238.15" y="-74.5" font-family="Helvetica,sans-Serif" font-size="10.00">cppgc/internal/atomic</text>
<text text-anchor="middle" x="285.15" y="-63.5" font-family="Helvetica,sans-Serif" font-size="10.00">&#45;entry&#45;flag.h</text>
</a>
</g>
</g>
<!-- Node20&#45;&gt;Node21 -->
<g id="edge28" class="edge">
<title>Node20&#45;&gt;Node21</title>
<path fill="none" stroke="midnightblue" d="M455.33,-123.48C422.07,-113.51 377.24,-100.09 341.94,-89.51"/>
<polygon fill="midnightblue" stroke="midnightblue" points="342.84,-86.13 332.26,-86.61 340.83,-92.83 342.84,-86.13"/>
</g>
<!-- Node22 -->
<g id="node22" class="node">
<title>Node22</title>
<g id="a_node22"><a xlink:title=" ">
<polygon fill="white" stroke="#bfbfbf" points="114.15,-0.5 114.15,-19.5 160.15,-19.5 160.15,-0.5 114.15,-0.5"/>
<text text-anchor="middle" x="137.15" y="-7.5" font-family="Helvetica,sans-Serif" font-size="10.00">atomic</text>
</a>
</g>
</g>
<!-- Node21&#45;&gt;Node22 -->
<g id="edge29" class="edge">
<title>Node21&#45;&gt;Node22</title>
<path fill="none" stroke="midnightblue" d="M250.07,-56.4C225.13,-46.37 191.94,-33.03 168,-23.4"/>
<polygon fill="midnightblue" stroke="midnightblue" points="169.27,-20.14 158.68,-19.66 166.65,-26.64 169.27,-20.14"/>
</g>
<!-- Node23&#45;&gt;Node14 -->
<g id="edge32" class="edge">
<title>Node23&#45;&gt;Node14</title>
<path fill="none" stroke="midnightblue" d="M81.27,-128.73C87.08,-118.79 96.7,-102.34 104.04,-89.79"/>
<polygon fill="midnightblue" stroke="midnightblue" points="107.08,-91.53 109.1,-81.13 101.03,-87.99 107.08,-91.53"/>
</g>
<!-- Node24&#45;&gt;Node7 -->
<g id="edge78" class="edge">
<title>Node24&#45;&gt;Node7</title>
<path fill="none" stroke="midnightblue" d="M837.45,-492.35C822,-484.88 801.51,-472.65 789.15,-456 771.21,-431.83 770.15,-421.1 770.15,-391 770.15,-391 770.15,-391 770.15,-333 770.15,-293.98 781.74,-249.45 789.13,-225"/>
<polygon fill="midnightblue" stroke="midnightblue" points="792.53,-225.87 792.18,-215.28 785.85,-223.77 792.53,-225.87"/>
</g>
<!-- Node24&#45;&gt;Node8 -->
<g id="edge82" class="edge">
<title>Node24&#45;&gt;Node8</title>
<path fill="none" stroke="midnightblue" d="M817.78,-498.1C687.13,-487.61 284.15,-446.26 284.15,-335 284.15,-335 284.15,-335 284.15,-271.5 284.15,-231.12 286.98,-183.85 288.76,-158.27"/>
<polygon fill="midnightblue" stroke="midnightblue" points="292.26,-158.37 289.48,-148.14 285.28,-157.87 292.26,-158.37"/>
</g>
<!-- Node24&#45;&gt;Node11 -->
<g id="edge83" class="edge">
<title>Node24&#45;&gt;Node11</title>
<path fill="none" stroke="midnightblue" d="M898.24,-500.12C1067.27,-495.88 1713.15,-474.25 1713.15,-391 1713.15,-391 1713.15,-391 1713.15,-271.5 1713.15,-202.73 1628.15,-166.9 1571.86,-150.72"/>
<polygon fill="midnightblue" stroke="midnightblue" points="1572.63,-147.3 1562.05,-148.01 1570.76,-154.04 1572.63,-147.3"/>
</g>
<!-- Node24&#45;&gt;Node12 -->
<g id="edge84" class="edge">
<title>Node24&#45;&gt;Node12</title>
<path fill="none" stroke="midnightblue" d="M898.35,-500.4C1032.8,-498.11 1465.88,-488.34 1601.15,-456 1671.81,-439.1 1751.15,-463.66 1751.15,-391 1751.15,-391 1751.15,-391 1751.15,-271.5 1751.15,-192.87 1680.81,-119.36 1646.51,-88.19"/>
<polygon fill="midnightblue" stroke="midnightblue" points="1648.44,-85.22 1638.63,-81.2 1643.79,-90.46 1648.44,-85.22"/>
</g>
<!-- Node24&#45;&gt;Node13 -->
<g id="edge79" class="edge">
<title>Node24&#45;&gt;Node13</title>
<path fill="none" stroke="midnightblue" d="M817.75,-498.69C771.28,-494.76 693.62,-484.19 633.15,-456 545.62,-415.2 462.14,-334.1 425.12,-295.24"/>
<polygon fill="midnightblue" stroke="midnightblue" points="427.35,-292.5 417.94,-287.62 422.25,-297.3 427.35,-292.5"/>
</g>
<!-- Node25 -->
<g id="node25" class="node">
<title>Node25</title>
<g id="a_node25"><a xlink:href="custom-space_8h.html" target="_top" xlink:title=" ">
<polygon fill="white" stroke="black" points="406.65,-196 406.65,-215 521.65,-215 521.65,-196 406.65,-196"/>
<text text-anchor="middle" x="464.15" y="-203" font-family="Helvetica,sans-Serif" font-size="10.00">cppgc/custom&#45;space.h</text>
</a>
</g>
</g>
<!-- Node24&#45;&gt;Node25 -->
<g id="edge41" class="edge">
<title>Node24&#45;&gt;Node25</title>
<path fill="none" stroke="midnightblue" d="M818.06,-495.74C762.59,-485.96 669.15,-459.34 669.15,-391 669.15,-391 669.15,-391 669.15,-333 669.15,-294.83 658.54,-281.35 629.15,-257 611.47,-242.36 555.85,-227.16 514.03,-217.31"/>
<polygon fill="midnightblue" stroke="midnightblue" points="514.8,-213.89 504.27,-215.04 513.22,-220.71 514.8,-213.89"/>
</g>
<!-- Node26 -->
<g id="node26" class="node">
<title>Node26</title>
<g id="a_node26"><a xlink:href="ephemeron-pair_8h.html" target="_top" xlink:title=" ">
<polygon fill="white" stroke="black" points="798.15,-436.5 798.15,-455.5 918.15,-455.5 918.15,-436.5 798.15,-436.5"/>
<text text-anchor="middle" x="858.15" y="-443.5" font-family="Helvetica,sans-Serif" font-size="10.00">cppgc/ephemeron&#45;pair.h</text>
</a>
</g>
</g>
<!-- Node24&#45;&gt;Node26 -->
<g id="edge43" class="edge">
<title>Node24&#45;&gt;Node26</title>
<path fill="none" stroke="midnightblue" d="M858.15,-492.08C858.15,-485.01 858.15,-474.86 858.15,-465.99"/>
<polygon fill="midnightblue" stroke="midnightblue" points="861.65,-465.75 858.15,-455.75 854.65,-465.75 861.65,-465.75"/>
</g>
<!-- Node27 -->
<g id="node27" class="node">
<title>Node27</title>
<g id="a_node27"><a xlink:href="liveness-broker_8h.html" target="_top" xlink:title=" ">
<polygon fill="white" stroke="black" points="854.65,-380.5 854.65,-399.5 973.65,-399.5 973.65,-380.5 854.65,-380.5"/>
<text text-anchor="middle" x="914.15" y="-387.5" font-family="Helvetica,sans-Serif" font-size="10.00">cppgc/liveness&#45;broker.h</text>
</a>
</g>
</g>
<!-- Node24&#45;&gt;Node27 -->
<g id="edge80" class="edge">
<title>Node24&#45;&gt;Node27</title>
<path fill="none" stroke="midnightblue" d="M881.93,-492.5C897.87,-485.41 917.61,-473.61 927.15,-456 935.1,-441.32 929.87,-422.42 923.84,-408.78"/>
<polygon fill="midnightblue" stroke="midnightblue" points="926.84,-406.96 919.28,-399.54 920.56,-410.05 926.84,-406.96"/>
</g>
<!-- Node33 -->
<g id="node33" class="node">
<title>Node33</title>
<g id="a_node33"><a xlink:href="member_8h.html" target="_top" xlink:title=" ">
<polygon fill="white" stroke="black" points="551.65,-324.5 551.65,-343.5 640.65,-343.5 640.65,-324.5 551.65,-324.5"/>
<text text-anchor="middle" x="596.15" y="-331.5" font-family="Helvetica,sans-Serif" font-size="10.00">cppgc/member.h</text>
</a>
</g>
</g>
<!-- Node24&#45;&gt;Node33 -->
<g id="edge81" class="edge">
<title>Node24&#45;&gt;Node33</title>
<path fill="none" stroke="midnightblue" d="M817.93,-496.27C766.2,-489.48 680.02,-475.61 655.15,-456 622.06,-429.92 606.32,-380.58 599.9,-353.66"/>
<polygon fill="midnightblue" stroke="midnightblue" points="603.26,-352.65 597.69,-343.63 596.42,-354.15 603.26,-352.65"/>
</g>
<!-- Node35 -->
<g id="node35" class="node">
<title>Node35</title>
<g id="a_node35"><a xlink:href="garbage-collected_8h.html" target="_top" xlink:title=" ">
<polygon fill="white" stroke="black" points="1488.15,-263 1488.15,-282 1618.15,-282 1618.15,-263 1488.15,-263"/>
<text text-anchor="middle" x="1553.15" y="-270" font-family="Helvetica,sans-Serif" font-size="10.00">cppgc/garbage&#45;collected.h</text>
</a>
</g>
</g>
<!-- Node24&#45;&gt;Node35 -->
<g id="edge72" class="edge">
<title>Node24&#45;&gt;Node35</title>
<path fill="none" stroke="midnightblue" d="M898.35,-501.81C1008.09,-501.99 1317.55,-488.84 1512.15,-344 1529.66,-330.96 1540.95,-308.05 1547.16,-291.89"/>
<polygon fill="midnightblue" stroke="midnightblue" points="1550.48,-293.01 1550.52,-282.42 1543.88,-290.67 1550.48,-293.01"/>
</g>
<!-- Node25&#45;&gt;Node18 -->
<g id="edge42" class="edge">
<title>Node25&#45;&gt;Node18</title>
<path fill="none" stroke="midnightblue" d="M456.16,-195.85C442.56,-180.03 417.96,-145.96 435.15,-123 451.5,-101.16 526.14,-85.55 571.55,-77.88"/>
<polygon fill="midnightblue" stroke="midnightblue" points="572.29,-81.3 581.59,-76.23 571.16,-74.39 572.29,-81.3"/>
</g>
<!-- Node26&#45;&gt;Node27 -->
<g id="edge44" class="edge">
<title>Node26&#45;&gt;Node27</title>
<path fill="none" stroke="midnightblue" d="M867.14,-436.32C875.34,-428.42 887.65,-416.55 897.62,-406.94"/>
<polygon fill="midnightblue" stroke="midnightblue" points="900.22,-409.29 904.99,-399.83 895.36,-404.26 900.22,-409.29"/>
</g>
<!-- Node26&#45;&gt;Node33 -->
<g id="edge71" class="edge">
<title>Node26&#45;&gt;Node33</title>
<path fill="none" stroke="midnightblue" d="M837.59,-436.37C791.48,-417.01 679.66,-370.06 625.94,-347.51"/>
<polygon fill="midnightblue" stroke="midnightblue" points="627.18,-344.24 616.61,-343.59 624.48,-350.69 627.18,-344.24"/>
</g>
<!-- Node27&#45;&gt;Node10 -->
<g id="edge70" class="edge">
<title>Node27&#45;&gt;Node10</title>
<path fill="none" stroke="midnightblue" d="M912.03,-380.38C905.26,-350.59 887.03,-250.53 931.15,-190 955.55,-156.51 994.19,-188.5 1017.15,-154 1029.87,-134.88 1020.89,-107.9 1012.33,-90.31"/>
<polygon fill="midnightblue" stroke="midnightblue" points="1015.26,-88.38 1007.5,-81.17 1009.07,-91.65 1015.26,-88.38"/>
</g>
<!-- Node27&#45;&gt;Node11 -->
<g id="edge69" class="edge">
<title>Node27&#45;&gt;Node11</title>
<path fill="none" stroke="midnightblue" d="M973.68,-389.11C1075.49,-386.87 1286.85,-371.55 1440.15,-288 1458.23,-278.15 1494.35,-239.11 1504.15,-221 1514.82,-201.27 1519.53,-175.7 1521.59,-158.51"/>
<polygon fill="midnightblue" stroke="midnightblue" points="1525.11,-158.42 1522.63,-148.12 1518.15,-157.72 1525.11,-158.42"/>
</g>
<!-- Node28 -->
<g id="node28" class="node">
<title>Node28</title>
<g id="a_node28"><a xlink:href="heap_8h.html" target="_top" xlink:title=" ">
<polygon fill="white" stroke="black" points="958.15,-263 958.15,-282 1032.15,-282 1032.15,-263 958.15,-263"/>
<text text-anchor="middle" x="995.15" y="-270" font-family="Helvetica,sans-Serif" font-size="10.00">cppgc/heap.h</text>
</a>
</g>
</g>
<!-- Node27&#45;&gt;Node28 -->
<g id="edge45" class="edge">
<title>Node27&#45;&gt;Node28</title>
<path fill="none" stroke="midnightblue" d="M920.23,-380.32C933.55,-361.34 965.45,-315.85 983.02,-290.79"/>
<polygon fill="midnightblue" stroke="midnightblue" points="986.11,-292.48 988.99,-282.28 980.38,-288.46 986.11,-292.48"/>
</g>
<!-- Node27&#45;&gt;Node33 -->
<g id="edge61" class="edge">
<title>Node27&#45;&gt;Node33</title>
<path fill="none" stroke="midnightblue" d="M863.76,-380.44C805.65,-370.58 710.47,-354.41 650.66,-344.26"/>
<polygon fill="midnightblue" stroke="midnightblue" points="651.1,-340.78 640.65,-342.56 649.93,-347.68 651.1,-340.78"/>
</g>
<!-- Node28&#45;&gt;Node5 -->
<g id="edge46" class="edge">
<title>Node28&#45;&gt;Node5</title>
<path fill="none" stroke="midnightblue" d="M1032.39,-267.94C1095.68,-261.3 1220.91,-245.46 1257.15,-221 1305.39,-188.44 1334.82,-122.67 1346.85,-90.73"/>
<polygon fill="midnightblue" stroke="midnightblue" points="1350.16,-91.89 1350.27,-81.29 1343.57,-89.51 1350.16,-91.89"/>
</g>
<!-- Node28&#45;&gt;Node6 -->
<g id="edge47" class="edge">
<title>Node28&#45;&gt;Node6</title>
<path fill="none" stroke="midnightblue" d="M1006.74,-262.73C1020.8,-252.11 1044.7,-234.05 1061.61,-221.26"/>
<polygon fill="midnightblue" stroke="midnightblue" points="1063.86,-223.95 1069.73,-215.13 1059.64,-218.36 1063.86,-223.95"/>
</g>
<!-- Node28&#45;&gt;Node10 -->
<g id="edge60" class="edge">
<title>Node28&#45;&gt;Node10</title>
<path fill="none" stroke="midnightblue" d="M981.79,-262.94C959.86,-247.83 920.54,-215.62 940.15,-190 977.36,-141.37 1035.93,-202.63 1073.15,-154 1081.52,-143.06 1079.46,-135.24 1073.15,-123 1064.59,-106.41 1047.79,-94.08 1032.67,-85.76"/>
<polygon fill="midnightblue" stroke="midnightblue" points="1034.07,-82.54 1023.57,-81.09 1030.87,-88.77 1034.07,-82.54"/>
</g>
<!-- Node28&#45;&gt;Node25 -->
<g id="edge50" class="edge">
<title>Node28&#45;&gt;Node25</title>
<path fill="none" stroke="midnightblue" d="M957.89,-268.83C878.76,-262.85 688.22,-246.87 530.15,-221 523.46,-219.91 516.42,-218.57 509.55,-217.15"/>
<polygon fill="midnightblue" stroke="midnightblue" points="510.14,-213.7 499.63,-215.03 508.68,-220.54 510.14,-213.7"/>
</g>
<!-- Node29 -->
<g id="node29" class="node">
<title>Node29</title>
<g id="a_node29"><a xlink:href="common_8h.html" target="_top" xlink:title=" ">
<polygon fill="white" stroke="black" points="949.65,-196 949.65,-215 1040.65,-215 1040.65,-196 949.65,-196"/>
<text text-anchor="middle" x="995.15" y="-203" font-family="Helvetica,sans-Serif" font-size="10.00">cppgc/common.h</text>
</a>
</g>
</g>
<!-- Node28&#45;&gt;Node29 -->
<g id="edge48" class="edge">
<title>Node28&#45;&gt;Node29</title>
<path fill="none" stroke="midnightblue" d="M995.15,-262.73C995.15,-253.18 995.15,-237.62 995.15,-225.28"/>
<polygon fill="midnightblue" stroke="midnightblue" points="998.65,-225.13 995.15,-215.13 991.65,-225.13 998.65,-225.13"/>
</g>
<!-- Node30 -->
<g id="node30" class="node">
<title>Node30</title>
<g id="a_node30"><a xlink:href="platform_8h.html" target="_top" xlink:title=" ">
<polygon fill="white" stroke="black" points="1159.65,-196 1159.65,-215 1248.65,-215 1248.65,-196 1159.65,-196"/>
<text text-anchor="middle" x="1204.15" y="-203" font-family="Helvetica,sans-Serif" font-size="10.00">cppgc/platform.h</text>
</a>
</g>
</g>
<!-- Node28&#45;&gt;Node30 -->
<g id="edge51" class="edge">
<title>Node28&#45;&gt;Node30</title>
<path fill="none" stroke="midnightblue" d="M1022.9,-262.87C1059.93,-251.35 1125.62,-230.92 1166.92,-218.08"/>
<polygon fill="midnightblue" stroke="midnightblue" points="1168.1,-221.38 1176.61,-215.06 1166.02,-214.69 1168.1,-221.38"/>
</g>
<!-- Node29&#45;&gt;Node10 -->
<g id="edge49" class="edge">
<title>Node29&#45;&gt;Node10</title>
<path fill="none" stroke="midnightblue" d="M1023.81,-196C1054.79,-186.16 1101.09,-169.34 1111.15,-154 1118.7,-142.48 1118.56,-134.61 1111.15,-123 1096,-99.29 1066.54,-86.54 1042.07,-79.79"/>
<polygon fill="midnightblue" stroke="midnightblue" points="1042.84,-76.38 1032.29,-77.33 1041.13,-83.16 1042.84,-76.38"/>
</g>
<!-- Node30&#45;&gt;Node10 -->
<g id="edge59" class="edge">
<title>Node30&#45;&gt;Node10</title>
<path fill="none" stroke="midnightblue" d="M1198.02,-195.7C1186.22,-179.34 1158.79,-144 1128.15,-123 1101.8,-104.95 1068.04,-91.86 1042.1,-83.53"/>
<polygon fill="midnightblue" stroke="midnightblue" points="1042.81,-80.09 1032.22,-80.47 1040.73,-86.77 1042.81,-80.09"/>
</g>
<!-- Node31 -->
<g id="node31" class="node">
<title>Node31</title>
<g id="a_node31"><a xlink:href="v8-platform_8h.html" target="_top" xlink:title=" ">
<polygon fill="white" stroke="black" points="688.65,-129 688.65,-148 761.65,-148 761.65,-129 688.65,-129"/>
<text text-anchor="middle" x="725.15" y="-136" font-family="Helvetica,sans-Serif" font-size="10.00">v8&#45;platform.h</text>
</a>
</g>
</g>
<!-- Node30&#45;&gt;Node31 -->
<g id="edge52" class="edge">
<title>Node30&#45;&gt;Node31</title>
<path fill="none" stroke="midnightblue" d="M1173.09,-195.97C1164.13,-193.75 1154.3,-191.56 1145.15,-190 980.08,-161.95 934.12,-187.87 770.15,-154 766.28,-153.2 762.27,-152.19 758.32,-151.07"/>
<polygon fill="midnightblue" stroke="midnightblue" points="759.3,-147.71 748.71,-148.15 757.26,-154.41 759.3,-147.71"/>
</g>
<!-- Node31&#45;&gt;Node5 -->
<g id="edge56" class="edge">
<title>Node31&#45;&gt;Node5</title>
<path fill="none" stroke="midnightblue" d="M748.24,-128.96C755.19,-126.69 762.91,-124.46 770.15,-123 875.92,-101.66 1207.58,-80.96 1317.42,-74.54"/>
<polygon fill="midnightblue" stroke="midnightblue" points="1317.86,-78.02 1327.64,-73.94 1317.45,-71.03 1317.86,-78.02"/>
</g>
<!-- Node31&#45;&gt;Node9 -->
<g id="edge57" class="edge">
<title>Node31&#45;&gt;Node9</title>
<path fill="none" stroke="midnightblue" d="M700.02,-128.89C693.29,-126.77 685.99,-124.65 679.15,-123 581.9,-99.61 464.36,-83.19 409.77,-76.23"/>
<polygon fill="midnightblue" stroke="midnightblue" points="410.07,-72.74 399.71,-74.96 409.2,-79.68 410.07,-72.74"/>
</g>
<!-- Node31&#45;&gt;Node10 -->
<g id="edge58" class="edge">
<title>Node31&#45;&gt;Node10</title>
<path fill="none" stroke="midnightblue" d="M750.25,-128.94C756.69,-126.87 763.65,-124.75 770.15,-123 836.75,-105.06 915.42,-89 961.91,-80.02"/>
<polygon fill="midnightblue" stroke="midnightblue" points="962.73,-83.43 971.89,-78.11 961.41,-76.55 962.73,-83.43"/>
</g>
<!-- Node31&#45;&gt;Node18 -->
<g id="edge53" class="edge">
<title>Node31&#45;&gt;Node18</title>
<path fill="none" stroke="midnightblue" d="M709.23,-128.73C689.33,-117.77 655.04,-98.88 631.74,-86.05"/>
<polygon fill="midnightblue" stroke="midnightblue" points="633.26,-82.89 622.81,-81.13 629.88,-89.02 633.26,-82.89"/>
</g>
<!-- Node31&#45;&gt;Node19 -->
<g id="edge54" class="edge">
<title>Node31&#45;&gt;Node19</title>
<path fill="none" stroke="midnightblue" d="M718.4,-128.73C710.61,-118.6 697.6,-101.69 687.88,-89.06"/>
<polygon fill="midnightblue" stroke="midnightblue" points="690.65,-86.92 681.78,-81.13 685.11,-91.19 690.65,-86.92"/>
</g>
<!-- Node32 -->
<g id="node32" class="node">
<title>Node32</title>
<g id="a_node32"><a xlink:title=" ">
<polygon fill="white" stroke="#bfbfbf" points="717.65,-62 717.65,-81 764.65,-81 764.65,-62 717.65,-62"/>
<text text-anchor="middle" x="741.15" y="-69" font-family="Helvetica,sans-Serif" font-size="10.00">stdlib.h</text>
</a>
</g>
</g>
<!-- Node31&#45;&gt;Node32 -->
<g id="edge55" class="edge">
<title>Node31&#45;&gt;Node32</title>
<path fill="none" stroke="midnightblue" d="M727.3,-128.73C729.68,-119.09 733.56,-103.3 736.62,-90.91"/>
<polygon fill="midnightblue" stroke="midnightblue" points="740.03,-91.67 739.02,-81.13 733.23,-90 740.03,-91.67"/>
</g>
<!-- Node33&#45;&gt;Node2 -->
<g id="edge64" class="edge">
<title>Node33&#45;&gt;Node2</title>
<path fill="none" stroke="midnightblue" d="M582.62,-324.45C559.62,-310 511.28,-280.1 469.15,-257 437.77,-239.8 415.96,-251.43 397.15,-221 378.35,-190.58 426.01,-123.14 426.15,-123 476.08,-71.97 502.75,-72.76 572.15,-56 763.96,-9.67 1390.69,-9.8 1557.86,-10.7"/>
<polygon fill="midnightblue" stroke="midnightblue" points="1557.95,-14.2 1567.97,-10.76 1557.99,-7.2 1557.95,-14.2"/>
</g>
<!-- Node33&#45;&gt;Node10 -->
<g id="edge68" class="edge">
<title>Node33&#45;&gt;Node10</title>
<path fill="none" stroke="midnightblue" d="M602.64,-324.49C624.28,-296.34 694.39,-207.1 726.15,-190 817.64,-140.75 872.01,-213.56 957.15,-154 978.84,-138.83 991.19,-109.71 997.28,-90.7"/>
<polygon fill="midnightblue" stroke="midnightblue" points="1000.64,-91.68 1000.1,-81.1 993.92,-89.71 1000.64,-91.68"/>
</g>
<!-- Node33&#45;&gt;Node12 -->
<g id="edge67" class="edge">
<title>Node33&#45;&gt;Node12</title>
<path fill="none" stroke="midnightblue" d="M640.75,-332.75C834.2,-331.44 1592.49,-324.04 1627.15,-288 1679.28,-233.79 1650.15,-131.83 1635.24,-90.54"/>
<polygon fill="midnightblue" stroke="midnightblue" points="1638.45,-89.13 1631.65,-81 1631.9,-91.59 1638.45,-89.13"/>
</g>
<!-- Node33&#45;&gt;Node13 -->
<g id="edge65" class="edge">
<title>Node33&#45;&gt;Node13</title>
<path fill="none" stroke="midnightblue" d="M568.78,-324.48C540.49,-315.66 495.57,-301.67 459.94,-290.57"/>
<polygon fill="midnightblue" stroke="midnightblue" points="460.75,-287.16 450.16,-287.52 458.67,-293.84 460.75,-287.16"/>
</g>
<!-- Node33&#45;&gt;Node22 -->
<g id="edge62" class="edge">
<title>Node33&#45;&gt;Node22</title>
<path fill="none" stroke="midnightblue" d="M551.46,-331.45C486.19,-328.19 361.53,-318.23 260.15,-288 194.04,-268.29 180.99,-253.51 120.15,-221 68.65,-193.48 36.05,-204.73 7.15,-154 -24.24,-98.91 61.56,-47.23 108.63,-23.94"/>
<polygon fill="midnightblue" stroke="midnightblue" points="110.27,-27.04 117.76,-19.54 107.23,-20.73 110.27,-27.04"/>
</g>
<!-- Node33&#45;&gt;Node23 -->
<g id="edge66" class="edge">
<title>Node33&#45;&gt;Node23</title>
<path fill="none" stroke="midnightblue" d="M551.35,-327.73C499.97,-321.08 413.5,-308.03 341.15,-288 304,-277.71 296.26,-270.48 260.15,-257 216.28,-240.63 200.9,-245.73 161.15,-221 132.5,-203.18 105.47,-174.47 89.87,-156.32"/>
<polygon fill="midnightblue" stroke="midnightblue" points="92.29,-153.75 83.18,-148.35 86.93,-158.25 92.29,-153.75"/>
</g>
<!-- Node34 -->
<g id="node34" class="node">
<title>Node34</title>
<g id="a_node34"><a xlink:title=" ">
<polygon fill="white" stroke="#bfbfbf" points="571.65,-263 571.65,-282 620.65,-282 620.65,-263 571.65,-263"/>
<text text-anchor="middle" x="596.15" y="-270" font-family="Helvetica,sans-Serif" font-size="10.00">cstddef</text>
</a>
</g>
</g>
<!-- Node33&#45;&gt;Node34 -->
<g id="edge63" class="edge">
<title>Node33&#45;&gt;Node34</title>
<path fill="none" stroke="midnightblue" d="M596.15,-324.48C596.15,-316.08 596.15,-302.98 596.15,-292.16"/>
<polygon fill="midnightblue" stroke="midnightblue" points="599.65,-292.01 596.15,-282.01 592.65,-292.01 599.65,-292.01"/>
</g>
<!-- Node35&#45;&gt;Node2 -->
<g id="edge73" class="edge">
<title>Node35&#45;&gt;Node2</title>
<path fill="none" stroke="midnightblue" d="M1562.75,-262.72C1588.83,-238.12 1660.67,-165.18 1685.15,-87 1689.26,-73.85 1692.28,-67.79 1685.15,-56 1675.23,-39.61 1657.16,-28.9 1640.13,-22.06"/>
<polygon fill="midnightblue" stroke="midnightblue" points="1640.89,-18.62 1630.3,-18.47 1638.49,-25.19 1640.89,-18.62"/>
</g>
<!-- Node35&#45;&gt;Node11 -->
<g id="edge76" class="edge">
<title>Node35&#45;&gt;Node11</title>
<path fill="none" stroke="midnightblue" d="M1551.68,-262.89C1549.09,-247.97 1543.38,-216.38 1537.15,-190 1534.59,-179.19 1531.29,-167.21 1528.54,-157.63"/>
<polygon fill="midnightblue" stroke="midnightblue" points="1531.89,-156.64 1525.73,-148.03 1525.17,-158.61 1531.89,-156.64"/>
</g>
<!-- Node35&#45;&gt;Node12 -->
<g id="edge77" class="edge">
<title>Node35&#45;&gt;Node12</title>
<path fill="none" stroke="midnightblue" d="M1556.37,-262.95C1567.67,-232.97 1605.64,-132.23 1621.3,-90.67"/>
<polygon fill="midnightblue" stroke="midnightblue" points="1624.6,-91.83 1624.85,-81.24 1618.05,-89.37 1624.6,-91.83"/>
</g>
<!-- Node35&#45;&gt;Node17 -->
<g id="edge74" class="edge">
<title>Node35&#45;&gt;Node17</title>
<path fill="none" stroke="midnightblue" d="M1488.02,-263.1C1472.34,-261.09 1455.65,-258.96 1440.15,-257 1311.29,-240.73 1269.57,-272.04 1150.15,-221 1130.1,-212.43 1132.36,-198.16 1112.15,-190 936.13,-118.96 871.67,-184.42 680.9,-154.07"/>
<polygon fill="midnightblue" stroke="midnightblue" points="681.27,-150.59 670.83,-152.4 680.12,-157.49 681.27,-150.59"/>
</g>
<!-- Node35&#45;&gt;Node30 -->
<g id="edge75" class="edge">
<title>Node35&#45;&gt;Node30</title>
<path fill="none" stroke="midnightblue" d="M1507.16,-262.94C1443.17,-251.02 1327.42,-229.46 1259,-216.72"/>
<polygon fill="midnightblue" stroke="midnightblue" points="1259.32,-213.22 1248.85,-214.83 1258.04,-220.1 1259.32,-213.22"/>
</g>
</g>
</svg>
