<?xml version="1.0" encoding="UTF-8" standalone="no"?>
<!DOCTYPE svg PUBLIC "-//W3C//DTD SVG 1.1//EN"
 "http://www.w3.org/Graphics/SVG/1.1/DTD/svg11.dtd">
<!-- Generated by graphviz version 2.44.0 ()
 -->
<!-- Title: include/cppgc/internal/pointer&#45;policies.h Pages: 1 -->
<svg width="815pt" height="296pt"
 viewBox="0.00 0.00 814.75 296.00" xmlns="http://www.w3.org/2000/svg" xmlns:xlink="http://www.w3.org/1999/xlink">
<g id="graph0" class="graph" transform="scale(1 1) rotate(0) translate(4 292)">
<title>include/cppgc/internal/pointer&#45;policies.h</title>
<polygon fill="white" stroke="transparent" points="-4,4 -4,-292 810.75,-292 810.75,4 -4,4"/>
<!-- Node1 -->
<g id="node1" class="node">
<title>Node1</title>
<g id="a_node1"><a xlink:title=" ">
<polygon fill="#bfbfbf" stroke="black" points="507.46,-257.5 507.46,-287.5 618.46,-287.5 618.46,-257.5 507.46,-257.5"/>
<text text-anchor="start" x="515.46" y="-275.5" font-family="Helvetica,sans-Serif" font-size="10.00">include/cppgc/internal</text>
<text text-anchor="middle" x="562.96" y="-264.5" font-family="Helvetica,sans-Serif" font-size="10.00">/pointer&#45;policies.h</text>
</a>
</g>
</g>
<!-- Node2 -->
<g id="node2" class="node">
<title>Node2</title>
<g id="a_node2"><a xlink:title=" ">
<polygon fill="white" stroke="#bfbfbf" points="8.96,-62 8.96,-81 54.96,-81 54.96,-62 8.96,-62"/>
<text text-anchor="middle" x="31.96" y="-69" font-family="Helvetica,sans-Serif" font-size="10.00">cstdint</text>
</a>
</g>
</g>
<!-- Node1&#45;&gt;Node2 -->
<g id="edge1" class="edge">
<title>Node1&#45;&gt;Node2</title>
<path fill="none" stroke="midnightblue" d="M507.08,-268.32C378.84,-259.74 69.64,-231.31 6.96,-154 -8.28,-135.2 6.14,-107.17 18.56,-89.37"/>
<polygon fill="midnightblue" stroke="midnightblue" points="21.55,-91.21 24.7,-81.1 15.93,-87.04 21.55,-91.21"/>
</g>
<!-- Node3 -->
<g id="node3" class="node">
<title>Node3</title>
<g id="a_node3"><a xlink:title=" ">
<polygon fill="white" stroke="#bfbfbf" points="704.96,-0.5 704.96,-19.5 766.96,-19.5 766.96,-0.5 704.96,-0.5"/>
<text text-anchor="middle" x="735.96" y="-7.5" font-family="Helvetica,sans-Serif" font-size="10.00">type_traits</text>
</a>
</g>
</g>
<!-- Node1&#45;&gt;Node3 -->
<g id="edge2" class="edge">
<title>Node1&#45;&gt;Node3</title>
<path fill="none" stroke="midnightblue" d="M618.46,-263.13C676.51,-250.88 763.23,-221.63 792.96,-154 810.49,-114.13 811.95,-95.2 792.96,-56 786.56,-42.8 774.21,-32.3 762.63,-24.78"/>
<polygon fill="midnightblue" stroke="midnightblue" points="764.41,-21.77 754.04,-19.61 760.8,-27.77 764.41,-21.77"/>
</g>
<!-- Node4 -->
<g id="node4" class="node">
<title>Node4</title>
<g id="a_node4"><a xlink:href="write-barrier_8h.html" target="_top" xlink:title=" ">
<polygon fill="white" stroke="black" points="396.46,-190.5 396.46,-220.5 497.46,-220.5 497.46,-190.5 396.46,-190.5"/>
<text text-anchor="start" x="404.46" y="-208.5" font-family="Helvetica,sans-Serif" font-size="10.00">cppgc/internal/write</text>
<text text-anchor="middle" x="446.96" y="-197.5" font-family="Helvetica,sans-Serif" font-size="10.00">&#45;barrier.h</text>
</a>
</g>
</g>
<!-- Node1&#45;&gt;Node4 -->
<g id="edge3" class="edge">
<title>Node1&#45;&gt;Node4</title>
<path fill="none" stroke="midnightblue" d="M537.79,-257.4C521.22,-248.11 499.32,-235.84 481.18,-225.67"/>
<polygon fill="midnightblue" stroke="midnightblue" points="482.52,-222.41 472.08,-220.58 479.09,-228.52 482.52,-222.41"/>
</g>
<!-- Node6 -->
<g id="node6" class="node">
<title>Node6</title>
<g id="a_node6"><a xlink:href="v8config_8h.html" target="_top" xlink:title=" ">
<polygon fill="white" stroke="black" points="494.96,-62 494.96,-81 554.96,-81 554.96,-62 494.96,-62"/>
<text text-anchor="middle" x="524.96" y="-69" font-family="Helvetica,sans-Serif" font-size="10.00">v8config.h</text>
</a>
</g>
</g>
<!-- Node1&#45;&gt;Node6 -->
<g id="edge25" class="edge">
<title>Node1&#45;&gt;Node6</title>
<path fill="none" stroke="midnightblue" d="M560.23,-257.19C553.49,-221.91 536.09,-130.78 528.54,-91.25"/>
<polygon fill="midnightblue" stroke="midnightblue" points="531.96,-90.53 526.65,-81.36 525.09,-91.84 531.96,-90.53"/>
</g>
<!-- Node16 -->
<g id="node16" class="node">
<title>Node16</title>
<g id="a_node16"><a xlink:href="source-location_8h.html" target="_top" xlink:title=" ">
<polygon fill="white" stroke="black" points="591.46,-196 591.46,-215 710.46,-215 710.46,-196 591.46,-196"/>
<text text-anchor="middle" x="650.96" y="-203" font-family="Helvetica,sans-Serif" font-size="10.00">cppgc/source&#45;location.h</text>
</a>
</g>
</g>
<!-- Node1&#45;&gt;Node16 -->
<g id="edge22" class="edge">
<title>Node1&#45;&gt;Node16</title>
<path fill="none" stroke="midnightblue" d="M582.05,-257.4C596.54,-246.7 616.39,-232.03 631.07,-221.19"/>
<polygon fill="midnightblue" stroke="midnightblue" points="633.48,-223.76 639.44,-215.01 629.32,-218.13 633.48,-223.76"/>
</g>
<!-- Node5 -->
<g id="node5" class="node">
<title>Node5</title>
<g id="a_node5"><a xlink:href="heap-state_8h.html" target="_top" xlink:title=" ">
<polygon fill="white" stroke="black" points="397.46,-129 397.46,-148 496.46,-148 496.46,-129 397.46,-129"/>
<text text-anchor="middle" x="446.96" y="-136" font-family="Helvetica,sans-Serif" font-size="10.00">cppgc/heap&#45;state.h</text>
</a>
</g>
</g>
<!-- Node4&#45;&gt;Node5 -->
<g id="edge4" class="edge">
<title>Node4&#45;&gt;Node5</title>
<path fill="none" stroke="midnightblue" d="M446.96,-190.4C446.96,-181.06 446.96,-168.71 446.96,-158.52"/>
<polygon fill="midnightblue" stroke="midnightblue" points="450.46,-158.19 446.96,-148.19 443.46,-158.19 450.46,-158.19"/>
</g>
<!-- Node4&#45;&gt;Node6 -->
<g id="edge21" class="edge">
<title>Node4&#45;&gt;Node6</title>
<path fill="none" stroke="midnightblue" d="M469,-190.4C481.34,-181.41 495.99,-168.71 504.96,-154 516.78,-134.61 521.62,-108.62 523.6,-91.26"/>
<polygon fill="midnightblue" stroke="midnightblue" points="527.09,-91.53 524.53,-81.25 520.12,-90.88 527.09,-91.53"/>
</g>
<!-- Node7 -->
<g id="node7" class="node">
<title>Node7</title>
<g id="a_node7"><a xlink:href="api-constants_8h.html" target="_top" xlink:title=" ">
<polygon fill="white" stroke="black" points="286.46,-123.5 286.46,-153.5 379.46,-153.5 379.46,-123.5 286.46,-123.5"/>
<text text-anchor="start" x="294.46" y="-141.5" font-family="Helvetica,sans-Serif" font-size="10.00">cppgc/internal/api</text>
<text text-anchor="middle" x="332.96" y="-130.5" font-family="Helvetica,sans-Serif" font-size="10.00">&#45;constants.h</text>
</a>
</g>
</g>
<!-- Node4&#45;&gt;Node7 -->
<g id="edge6" class="edge">
<title>Node4&#45;&gt;Node7</title>
<path fill="none" stroke="midnightblue" d="M422.22,-190.4C405.94,-181.11 384.42,-168.84 366.59,-158.67"/>
<polygon fill="midnightblue" stroke="midnightblue" points="368.07,-155.49 357.65,-153.58 364.6,-161.57 368.07,-155.49"/>
</g>
<!-- Node10 -->
<g id="node10" class="node">
<title>Node10</title>
<g id="a_node10"><a xlink:href="process-heap_8h.html" target="_top" xlink:title=" ">
<polygon fill="white" stroke="black" points="153.46,-123.5 153.46,-153.5 268.46,-153.5 268.46,-123.5 153.46,-123.5"/>
<text text-anchor="start" x="161.46" y="-141.5" font-family="Helvetica,sans-Serif" font-size="10.00">cppgc/internal/process</text>
<text text-anchor="middle" x="210.96" y="-130.5" font-family="Helvetica,sans-Serif" font-size="10.00">&#45;heap.h</text>
</a>
</g>
</g>
<!-- Node4&#45;&gt;Node10 -->
<g id="edge10" class="edge">
<title>Node4&#45;&gt;Node10</title>
<path fill="none" stroke="midnightblue" d="M396.33,-190.56C359.9,-180.52 310.59,-166.94 271.99,-156.31"/>
<polygon fill="midnightblue" stroke="midnightblue" points="272.48,-152.81 261.91,-153.53 270.62,-159.56 272.48,-152.81"/>
</g>
<!-- Node13 -->
<g id="node13" class="node">
<title>Node13</title>
<g id="a_node13"><a xlink:href="sentinel-pointer_8h.html" target="_top" xlink:title=" ">
<polygon fill="white" stroke="black" points="16.46,-129 16.46,-148 135.46,-148 135.46,-129 16.46,-129"/>
<text text-anchor="middle" x="75.96" y="-136" font-family="Helvetica,sans-Serif" font-size="10.00">cppgc/sentinel&#45;pointer.h</text>
</a>
</g>
</g>
<!-- Node4&#45;&gt;Node13 -->
<g id="edge14" class="edge">
<title>Node4&#45;&gt;Node13</title>
<path fill="none" stroke="midnightblue" d="M396.44,-196.79C336.19,-187.43 232.51,-170.81 143.96,-154 137.66,-152.8 131.04,-151.48 124.51,-150.13"/>
<polygon fill="midnightblue" stroke="midnightblue" points="124.88,-146.63 114.38,-148.01 123.45,-153.48 124.88,-146.63"/>
</g>
<!-- Node14 -->
<g id="node14" class="node">
<title>Node14</title>
<g id="a_node14"><a xlink:href="trace-trait_8h.html" target="_top" xlink:title=" ">
<polygon fill="white" stroke="black" points="629.46,-129 629.46,-148 724.46,-148 724.46,-129 629.46,-129"/>
<text text-anchor="middle" x="676.96" y="-136" font-family="Helvetica,sans-Serif" font-size="10.00">cppgc/trace&#45;trait.h</text>
</a>
</g>
</g>
<!-- Node4&#45;&gt;Node14 -->
<g id="edge16" class="edge">
<title>Node4&#45;&gt;Node14</title>
<path fill="none" stroke="midnightblue" d="M496.58,-190.48C538.53,-178.62 597.85,-161.86 636.84,-150.84"/>
<polygon fill="midnightblue" stroke="midnightblue" points="638.11,-154.12 646.78,-148.03 636.21,-147.38 638.11,-154.12"/>
</g>
<!-- Node5&#45;&gt;Node6 -->
<g id="edge5" class="edge">
<title>Node5&#45;&gt;Node6</title>
<path fill="none" stroke="midnightblue" d="M457.48,-128.73C470.11,-118.21 491.5,-100.38 506.82,-87.62"/>
<polygon fill="midnightblue" stroke="midnightblue" points="509.17,-90.22 514.61,-81.13 504.68,-84.84 509.17,-90.22"/>
</g>
<!-- Node7&#45;&gt;Node6 -->
<g id="edge9" class="edge">
<title>Node7&#45;&gt;Node6</title>
<path fill="none" stroke="midnightblue" d="M374.62,-123.4C409.2,-111.69 457.81,-95.23 490.3,-84.23"/>
<polygon fill="midnightblue" stroke="midnightblue" points="491.48,-87.53 499.83,-81.01 489.24,-80.9 491.48,-87.53"/>
</g>
<!-- Node8 -->
<g id="node8" class="node">
<title>Node8</title>
<g id="a_node8"><a xlink:title=" ">
<polygon fill="white" stroke="#bfbfbf" points="296.46,-62 296.46,-81 347.46,-81 347.46,-62 296.46,-62"/>
<text text-anchor="middle" x="321.96" y="-69" font-family="Helvetica,sans-Serif" font-size="10.00">stddef.h</text>
</a>
</g>
</g>
<!-- Node7&#45;&gt;Node8 -->
<g id="edge7" class="edge">
<title>Node7&#45;&gt;Node8</title>
<path fill="none" stroke="midnightblue" d="M330.57,-123.4C328.98,-113.96 326.86,-101.45 325.12,-91.19"/>
<polygon fill="midnightblue" stroke="midnightblue" points="328.55,-90.47 323.43,-81.19 321.65,-91.64 328.55,-90.47"/>
</g>
<!-- Node9 -->
<g id="node9" class="node">
<title>Node9</title>
<g id="a_node9"><a xlink:title=" ">
<polygon fill="white" stroke="#bfbfbf" points="365.96,-62 365.96,-81 413.96,-81 413.96,-62 365.96,-62"/>
<text text-anchor="middle" x="389.96" y="-69" font-family="Helvetica,sans-Serif" font-size="10.00">stdint.h</text>
</a>
</g>
</g>
<!-- Node7&#45;&gt;Node9 -->
<g id="edge8" class="edge">
<title>Node7&#45;&gt;Node9</title>
<path fill="none" stroke="midnightblue" d="M345.33,-123.4C354.22,-113.26 366.22,-99.57 375.55,-88.94"/>
<polygon fill="midnightblue" stroke="midnightblue" points="378.37,-91.02 382.33,-81.19 373.11,-86.41 378.37,-91.02"/>
</g>
<!-- Node10&#45;&gt;Node6 -->
<g id="edge13" class="edge">
<title>Node10&#45;&gt;Node6</title>
<path fill="none" stroke="midnightblue" d="M268.54,-124.79C271.39,-124.18 274.2,-123.58 276.96,-123 350.2,-107.5 435.8,-90.26 484.87,-80.47"/>
<polygon fill="midnightblue" stroke="midnightblue" points="485.65,-83.88 494.77,-78.49 484.28,-77.02 485.65,-83.88"/>
</g>
<!-- Node11 -->
<g id="node11" class="node">
<title>Node11</title>
<g id="a_node11"><a xlink:href="atomic-entry-flag_8h.html" target="_top" xlink:title=" ">
<polygon fill="white" stroke="black" points="155.96,-56.5 155.96,-86.5 265.96,-86.5 265.96,-56.5 155.96,-56.5"/>
<text text-anchor="start" x="163.96" y="-74.5" font-family="Helvetica,sans-Serif" font-size="10.00">cppgc/internal/atomic</text>
<text text-anchor="middle" x="210.96" y="-63.5" font-family="Helvetica,sans-Serif" font-size="10.00">&#45;entry&#45;flag.h</text>
</a>
</g>
</g>
<!-- Node10&#45;&gt;Node11 -->
<g id="edge11" class="edge">
<title>Node10&#45;&gt;Node11</title>
<path fill="none" stroke="midnightblue" d="M210.96,-123.4C210.96,-115.64 210.96,-105.81 210.96,-96.86"/>
<polygon fill="midnightblue" stroke="midnightblue" points="214.46,-96.58 210.96,-86.58 207.46,-96.58 214.46,-96.58"/>
</g>
<!-- Node12 -->
<g id="node12" class="node">
<title>Node12</title>
<g id="a_node12"><a xlink:title=" ">
<polygon fill="white" stroke="#bfbfbf" points="187.96,-0.5 187.96,-19.5 233.96,-19.5 233.96,-0.5 187.96,-0.5"/>
<text text-anchor="middle" x="210.96" y="-7.5" font-family="Helvetica,sans-Serif" font-size="10.00">atomic</text>
</a>
</g>
</g>
<!-- Node11&#45;&gt;Node12 -->
<g id="edge12" class="edge">
<title>Node11&#45;&gt;Node12</title>
<path fill="none" stroke="midnightblue" d="M210.96,-56.4C210.96,-48.47 210.96,-38.46 210.96,-29.86"/>
<polygon fill="midnightblue" stroke="midnightblue" points="214.46,-29.66 210.96,-19.66 207.46,-29.66 214.46,-29.66"/>
</g>
<!-- Node13&#45;&gt;Node2 -->
<g id="edge15" class="edge">
<title>Node13&#45;&gt;Node2</title>
<path fill="none" stroke="midnightblue" d="M70.03,-128.73C63.23,-118.7 51.94,-102.01 43.41,-89.42"/>
<polygon fill="midnightblue" stroke="midnightblue" points="46.3,-87.45 37.8,-81.13 40.51,-91.37 46.3,-87.45"/>
</g>
<!-- Node14&#45;&gt;Node3 -->
<g id="edge17" class="edge">
<title>Node14&#45;&gt;Node3</title>
<path fill="none" stroke="midnightblue" d="M674.89,-128.84C671.66,-113.3 666.94,-80.05 678.96,-56 685.56,-42.79 698.06,-32.25 709.67,-24.7"/>
<polygon fill="midnightblue" stroke="midnightblue" points="711.51,-27.67 718.27,-19.51 707.89,-21.68 711.51,-27.67"/>
</g>
<!-- Node14&#45;&gt;Node6 -->
<g id="edge20" class="edge">
<title>Node14&#45;&gt;Node6</title>
<path fill="none" stroke="midnightblue" d="M656.77,-128.87C630.66,-117.7 584.93,-98.15 554.8,-85.26"/>
<polygon fill="midnightblue" stroke="midnightblue" points="555.8,-81.88 545.23,-81.17 553.05,-88.32 555.8,-81.88"/>
</g>
<!-- Node15 -->
<g id="node15" class="node">
<title>Node15</title>
<g id="a_node15"><a xlink:href="type-traits_8h.html" target="_top" xlink:title=" ">
<polygon fill="white" stroke="black" points="687.96,-62 687.96,-81 783.96,-81 783.96,-62 687.96,-62"/>
<text text-anchor="middle" x="735.96" y="-69" font-family="Helvetica,sans-Serif" font-size="10.00">cppgc/type&#45;traits.h</text>
</a>
</g>
</g>
<!-- Node14&#45;&gt;Node15 -->
<g id="edge18" class="edge">
<title>Node14&#45;&gt;Node15</title>
<path fill="none" stroke="midnightblue" d="M684.92,-128.73C694.21,-118.5 709.76,-101.36 721.26,-88.69"/>
<polygon fill="midnightblue" stroke="midnightblue" points="724,-90.88 728.13,-81.13 718.82,-86.18 724,-90.88"/>
</g>
<!-- Node15&#45;&gt;Node3 -->
<g id="edge19" class="edge">
<title>Node15&#45;&gt;Node3</title>
<path fill="none" stroke="midnightblue" d="M735.96,-61.98C735.96,-53.58 735.96,-40.48 735.96,-29.66"/>
<polygon fill="midnightblue" stroke="midnightblue" points="739.46,-29.51 735.96,-19.51 732.46,-29.51 739.46,-29.51"/>
</g>
<!-- Node16&#45;&gt;Node6 -->
<g id="edge24" class="edge">
<title>Node16&#45;&gt;Node6</title>
<path fill="none" stroke="midnightblue" d="M643.36,-195.77C630.14,-180.68 601.94,-148.83 576.96,-123 565.5,-111.15 552.15,-98.21 541.85,-88.39"/>
<polygon fill="midnightblue" stroke="midnightblue" points="544,-85.61 534.34,-81.27 539.19,-90.69 544,-85.61"/>
</g>
<!-- Node17 -->
<g id="node17" class="node">
<title>Node17</title>
<g id="a_node17"><a xlink:title=" ">
<polygon fill="white" stroke="#bfbfbf" points="742.46,-129 742.46,-148 783.46,-148 783.46,-129 742.46,-129"/>
<text text-anchor="middle" x="762.96" y="-136" font-family="Helvetica,sans-Serif" font-size="10.00">string</text>
</a>
</g>
</g>
<!-- Node16&#45;&gt;Node17 -->
<g id="edge23" class="edge">
<title>Node16&#45;&gt;Node17</title>
<path fill="none" stroke="midnightblue" d="M666.06,-195.73C684.87,-184.82 717.21,-166.05 739.32,-153.22"/>
<polygon fill="midnightblue" stroke="midnightblue" points="741.2,-156.17 748.09,-148.13 737.69,-150.12 741.2,-156.17"/>
</g>
</g>
</svg>
