<?xml version="1.0" encoding="UTF-8" standalone="no"?>
<!DOCTYPE svg PUBLIC "-//W3C//DTD SVG 1.1//EN"
 "http://www.w3.org/Graphics/SVG/1.1/DTD/svg11.dtd">
<!-- Generated by graphviz version 2.44.0 ()
 -->
<!-- Title: include/cppgc/prefinalizer.h Pages: 1 -->
<svg width="1387pt" height="531pt"
 viewBox="0.00 0.00 1386.63 531.00" xmlns="http://www.w3.org/2000/svg" xmlns:xlink="http://www.w3.org/1999/xlink">
<g id="graph0" class="graph" transform="scale(1 1) rotate(0) translate(4 527)">
<title>include/cppgc/prefinalizer.h</title>
<polygon fill="white" stroke="transparent" points="-4,4 -4,-527 1382.63,-527 1382.63,4 -4,4"/>
<!-- Node1 -->
<g id="node1" class="node">
<title>Node1</title>
<g id="a_node1"><a xlink:title=" ">
<polygon fill="#bfbfbf" stroke="black" points="400.63,-503.5 400.63,-522.5 533.63,-522.5 533.63,-503.5 400.63,-503.5"/>
<text text-anchor="middle" x="467.13" y="-510.5" font-family="Helvetica,sans-Serif" font-size="10.00">include/cppgc/prefinalizer.h</text>
</a>
</g>
</g>
<!-- Node2 -->
<g id="node2" class="node">
<title>Node2</title>
<g id="a_node2"><a xlink:href="compiler-specific_8h.html" target="_top" xlink:title=" ">
<polygon fill="white" stroke="black" points="268.63,-436.5 268.63,-466.5 385.63,-466.5 385.63,-436.5 268.63,-436.5"/>
<text text-anchor="start" x="276.63" y="-454.5" font-family="Helvetica,sans-Serif" font-size="10.00">cppgc/internal/compiler</text>
<text text-anchor="middle" x="327.13" y="-443.5" font-family="Helvetica,sans-Serif" font-size="10.00">&#45;specific.h</text>
</a>
</g>
</g>
<!-- Node1&#45;&gt;Node2 -->
<g id="edge1" class="edge">
<title>Node1&#45;&gt;Node2</title>
<path fill="none" stroke="midnightblue" d="M447.07,-503.48C426.96,-494.93 395.37,-481.5 369.66,-470.57"/>
<polygon fill="midnightblue" stroke="midnightblue" points="370.7,-467.21 360.13,-466.52 367.96,-473.66 370.7,-467.21"/>
</g>
<!-- Node3 -->
<g id="node3" class="node">
<title>Node3</title>
<g id="a_node3"><a xlink:href="prefinalizer-handler_8h.html" target="_top" xlink:title=" ">
<polygon fill="white" stroke="black" points="404.13,-436.5 404.13,-466.5 530.13,-466.5 530.13,-436.5 404.13,-436.5"/>
<text text-anchor="start" x="412.13" y="-454.5" font-family="Helvetica,sans-Serif" font-size="10.00">cppgc/internal/prefinalizer</text>
<text text-anchor="middle" x="467.13" y="-443.5" font-family="Helvetica,sans-Serif" font-size="10.00">&#45;handler.h</text>
</a>
</g>
</g>
<!-- Node1&#45;&gt;Node3 -->
<g id="edge2" class="edge">
<title>Node1&#45;&gt;Node3</title>
<path fill="none" stroke="midnightblue" d="M467.13,-503.48C467.13,-496.47 467.13,-486.19 467.13,-476.7"/>
<polygon fill="midnightblue" stroke="midnightblue" points="470.63,-476.52 467.13,-466.52 463.63,-476.52 470.63,-476.52"/>
</g>
<!-- Node16 -->
<g id="node16" class="node">
<title>Node16</title>
<g id="a_node16"><a xlink:href="liveness-broker_8h.html" target="_top" xlink:title=" ">
<polygon fill="white" stroke="black" points="497.63,-380.5 497.63,-399.5 616.63,-399.5 616.63,-380.5 497.63,-380.5"/>
<text text-anchor="middle" x="557.13" y="-387.5" font-family="Helvetica,sans-Serif" font-size="10.00">cppgc/liveness&#45;broker.h</text>
</a>
</g>
</g>
<!-- Node1&#45;&gt;Node16 -->
<g id="edge57" class="edge">
<title>Node1&#45;&gt;Node16</title>
<path fill="none" stroke="midnightblue" d="M489.65,-503.45C505.82,-496.16 526.84,-484.13 539.13,-467 551.2,-450.17 555.28,-426.37 556.6,-409.9"/>
<polygon fill="midnightblue" stroke="midnightblue" points="560.1,-410.03 557.14,-399.85 553.11,-409.65 560.1,-410.03"/>
</g>
<!-- Node4 -->
<g id="node4" class="node">
<title>Node4</title>
<g id="a_node4"><a xlink:href="heap_8h.html" target="_top" xlink:title=" ">
<polygon fill="white" stroke="black" points="849.13,-263 849.13,-282 923.13,-282 923.13,-263 849.13,-263"/>
<text text-anchor="middle" x="886.13" y="-270" font-family="Helvetica,sans-Serif" font-size="10.00">cppgc/heap.h</text>
</a>
</g>
</g>
<!-- Node3&#45;&gt;Node4 -->
<g id="edge3" class="edge">
<title>Node3&#45;&gt;Node4</title>
<path fill="none" stroke="midnightblue" d="M467.69,-436.27C469.09,-420.38 473.78,-394.93 489.13,-380 539.19,-331.33 744.64,-294.85 838.71,-280.35"/>
<polygon fill="midnightblue" stroke="midnightblue" points="839.45,-283.78 848.81,-278.81 838.39,-276.86 839.45,-283.78"/>
</g>
<!-- Node3&#45;&gt;Node16 -->
<g id="edge20" class="edge">
<title>Node3&#45;&gt;Node16</title>
<path fill="none" stroke="midnightblue" d="M488.46,-436.4C502.62,-427.04 521.14,-414.79 535.38,-405.38"/>
<polygon fill="midnightblue" stroke="midnightblue" points="537.62,-408.09 544.03,-399.66 533.76,-402.25 537.62,-408.09"/>
</g>
<!-- Node5 -->
<g id="node5" class="node">
<title>Node5</title>
<g id="a_node5"><a xlink:title=" ">
<polygon fill="white" stroke="#bfbfbf" points="1327.63,-62 1327.63,-81 1378.63,-81 1378.63,-62 1327.63,-62"/>
<text text-anchor="middle" x="1353.13" y="-69" font-family="Helvetica,sans-Serif" font-size="10.00">memory</text>
</a>
</g>
</g>
<!-- Node4&#45;&gt;Node5 -->
<g id="edge4" class="edge">
<title>Node4&#45;&gt;Node5</title>
<path fill="none" stroke="midnightblue" d="M923.45,-268.75C980.44,-263.74 1092.05,-250.79 1182.13,-221 1244.6,-200.35 1268.16,-201.06 1314.13,-154 1331.64,-136.08 1342.48,-108.78 1348.16,-90.8"/>
<polygon fill="midnightblue" stroke="midnightblue" points="1351.52,-91.78 1350.98,-81.2 1344.81,-89.8 1351.52,-91.78"/>
</g>
<!-- Node6 -->
<g id="node6" class="node">
<title>Node6</title>
<g id="a_node6"><a xlink:title=" ">
<polygon fill="white" stroke="#bfbfbf" points="889.13,-196 889.13,-215 933.13,-215 933.13,-196 889.13,-196"/>
<text text-anchor="middle" x="911.13" y="-203" font-family="Helvetica,sans-Serif" font-size="10.00">vector</text>
</a>
</g>
</g>
<!-- Node4&#45;&gt;Node6 -->
<g id="edge5" class="edge">
<title>Node4&#45;&gt;Node6</title>
<path fill="none" stroke="midnightblue" d="M889.5,-262.73C893.25,-252.99 899.41,-236.98 904.2,-224.53"/>
<polygon fill="midnightblue" stroke="midnightblue" points="907.49,-225.72 907.81,-215.13 900.96,-223.2 907.49,-225.72"/>
</g>
<!-- Node7 -->
<g id="node7" class="node">
<title>Node7</title>
<g id="a_node7"><a xlink:href="common_8h.html" target="_top" xlink:title=" ">
<polygon fill="white" stroke="black" points="741.63,-196 741.63,-215 832.63,-215 832.63,-196 741.63,-196"/>
<text text-anchor="middle" x="787.13" y="-203" font-family="Helvetica,sans-Serif" font-size="10.00">cppgc/common.h</text>
</a>
</g>
</g>
<!-- Node4&#45;&gt;Node7 -->
<g id="edge6" class="edge">
<title>Node4&#45;&gt;Node7</title>
<path fill="none" stroke="midnightblue" d="M872.78,-262.73C856.38,-251.96 828.33,-233.55 808.82,-220.74"/>
<polygon fill="midnightblue" stroke="midnightblue" points="810.55,-217.69 800.27,-215.13 806.71,-223.54 810.55,-217.69"/>
</g>
<!-- Node8 -->
<g id="node8" class="node">
<title>Node8</title>
<g id="a_node8"><a xlink:href="v8config_8h.html" target="_top" xlink:title=" ">
<polygon fill="white" stroke="black" points="793.13,-62 793.13,-81 853.13,-81 853.13,-62 793.13,-62"/>
<text text-anchor="middle" x="823.13" y="-69" font-family="Helvetica,sans-Serif" font-size="10.00">v8config.h</text>
</a>
</g>
</g>
<!-- Node4&#45;&gt;Node8 -->
<g id="edge19" class="edge">
<title>Node4&#45;&gt;Node8</title>
<path fill="none" stroke="midnightblue" d="M883.42,-262.95C873.95,-233.04 842.18,-132.66 828.97,-90.93"/>
<polygon fill="midnightblue" stroke="midnightblue" points="832.25,-89.72 825.9,-81.24 825.58,-91.83 832.25,-89.72"/>
</g>
<!-- Node9 -->
<g id="node9" class="node">
<title>Node9</title>
<g id="a_node9"><a xlink:href="custom-space_8h.html" target="_top" xlink:title=" ">
<polygon fill="white" stroke="black" points="1057.63,-196 1057.63,-215 1172.63,-215 1172.63,-196 1057.63,-196"/>
<text text-anchor="middle" x="1115.13" y="-203" font-family="Helvetica,sans-Serif" font-size="10.00">cppgc/custom&#45;space.h</text>
</a>
</g>
</g>
<!-- Node4&#45;&gt;Node9 -->
<g id="edge8" class="edge">
<title>Node4&#45;&gt;Node9</title>
<path fill="none" stroke="midnightblue" d="M916.54,-262.87C957.37,-251.28 1030,-230.66 1075.2,-217.83"/>
<polygon fill="midnightblue" stroke="midnightblue" points="1076.3,-221.16 1084.96,-215.06 1074.38,-214.43 1076.3,-221.16"/>
</g>
<!-- Node11 -->
<g id="node11" class="node">
<title>Node11</title>
<g id="a_node11"><a xlink:href="platform_8h.html" target="_top" xlink:title=" ">
<polygon fill="white" stroke="black" points="950.63,-196 950.63,-215 1039.63,-215 1039.63,-196 950.63,-196"/>
<text text-anchor="middle" x="995.13" y="-203" font-family="Helvetica,sans-Serif" font-size="10.00">cppgc/platform.h</text>
</a>
</g>
</g>
<!-- Node4&#45;&gt;Node11 -->
<g id="edge10" class="edge">
<title>Node4&#45;&gt;Node11</title>
<path fill="none" stroke="midnightblue" d="M900.83,-262.73C919.05,-251.87 950.33,-233.22 971.83,-220.39"/>
<polygon fill="midnightblue" stroke="midnightblue" points="973.87,-223.26 980.66,-215.13 970.28,-217.24 973.87,-223.26"/>
</g>
<!-- Node7&#45;&gt;Node8 -->
<g id="edge7" class="edge">
<title>Node7&#45;&gt;Node8</title>
<path fill="none" stroke="midnightblue" d="M789.49,-195.84C795.26,-174.67 810.19,-119.95 818.08,-91.03"/>
<polygon fill="midnightblue" stroke="midnightblue" points="821.55,-91.59 820.81,-81.02 814.8,-89.75 821.55,-91.59"/>
</g>
<!-- Node10 -->
<g id="node10" class="node">
<title>Node10</title>
<g id="a_node10"><a xlink:title=" ">
<polygon fill="white" stroke="#bfbfbf" points="1258.63,-62 1258.63,-81 1309.63,-81 1309.63,-62 1258.63,-62"/>
<text text-anchor="middle" x="1284.13" y="-69" font-family="Helvetica,sans-Serif" font-size="10.00">stddef.h</text>
</a>
</g>
</g>
<!-- Node9&#45;&gt;Node10 -->
<g id="edge9" class="edge">
<title>Node9&#45;&gt;Node10</title>
<path fill="none" stroke="midnightblue" d="M1172.9,-196.17C1220.31,-188.01 1282,-173.9 1297.13,-154 1311.11,-135.61 1302.32,-108.05 1293.9,-90.17"/>
<polygon fill="midnightblue" stroke="midnightblue" points="1296.95,-88.44 1289.28,-81.13 1290.71,-91.63 1296.95,-88.44"/>
</g>
<!-- Node11&#45;&gt;Node8 -->
<g id="edge18" class="edge">
<title>Node11&#45;&gt;Node8</title>
<path fill="none" stroke="midnightblue" d="M1001.96,-195.95C1013.83,-180 1035.41,-145.32 1018.13,-123 999.36,-98.74 914.75,-84.02 863.35,-77.15"/>
<polygon fill="midnightblue" stroke="midnightblue" points="863.6,-73.65 853.23,-75.84 862.7,-80.6 863.6,-73.65"/>
</g>
<!-- Node12 -->
<g id="node12" class="node">
<title>Node12</title>
<g id="a_node12"><a xlink:href="v8-platform_8h.html" target="_top" xlink:title=" ">
<polygon fill="white" stroke="black" points="1214.63,-129 1214.63,-148 1287.63,-148 1287.63,-129 1214.63,-129"/>
<text text-anchor="middle" x="1251.13" y="-136" font-family="Helvetica,sans-Serif" font-size="10.00">v8&#45;platform.h</text>
</a>
</g>
</g>
<!-- Node11&#45;&gt;Node12 -->
<g id="edge11" class="edge">
<title>Node11&#45;&gt;Node12</title>
<path fill="none" stroke="midnightblue" d="M1026.2,-195.95C1033.7,-193.94 1041.69,-191.85 1049.13,-190 1118.6,-172.71 1137.11,-173 1206.13,-154 1209.48,-153.08 1212.94,-152.07 1216.4,-151.02"/>
<polygon fill="midnightblue" stroke="midnightblue" points="1217.52,-154.34 1226.02,-148.01 1215.43,-147.66 1217.52,-154.34"/>
</g>
<!-- Node12&#45;&gt;Node5 -->
<g id="edge15" class="edge">
<title>Node12&#45;&gt;Node5</title>
<path fill="none" stroke="midnightblue" d="M1264.89,-128.73C1281.86,-117.92 1310.94,-99.38 1331.06,-86.57"/>
<polygon fill="midnightblue" stroke="midnightblue" points="1333.04,-89.45 1339.59,-81.13 1329.28,-83.55 1333.04,-89.45"/>
</g>
<!-- Node12&#45;&gt;Node8 -->
<g id="edge17" class="edge">
<title>Node12&#45;&gt;Node8</title>
<path fill="none" stroke="midnightblue" d="M1227.06,-128.86C1220.36,-126.7 1213.02,-124.55 1206.13,-123 1082.9,-95.26 933.7,-81 863.43,-75.41"/>
<polygon fill="midnightblue" stroke="midnightblue" points="863.49,-71.9 853.25,-74.61 862.95,-78.88 863.49,-71.9"/>
</g>
<!-- Node12&#45;&gt;Node10 -->
<g id="edge12" class="edge">
<title>Node12&#45;&gt;Node10</title>
<path fill="none" stroke="midnightblue" d="M1255.58,-128.73C1260.58,-118.89 1268.82,-102.66 1275.16,-90.16"/>
<polygon fill="midnightblue" stroke="midnightblue" points="1278.34,-91.63 1279.75,-81.13 1272.1,-88.46 1278.34,-91.63"/>
</g>
<!-- Node13 -->
<g id="node13" class="node">
<title>Node13</title>
<g id="a_node13"><a xlink:title=" ">
<polygon fill="white" stroke="#bfbfbf" points="1126.13,-62 1126.13,-81 1174.13,-81 1174.13,-62 1126.13,-62"/>
<text text-anchor="middle" x="1150.13" y="-69" font-family="Helvetica,sans-Serif" font-size="10.00">stdint.h</text>
</a>
</g>
</g>
<!-- Node12&#45;&gt;Node13 -->
<g id="edge13" class="edge">
<title>Node12&#45;&gt;Node13</title>
<path fill="none" stroke="midnightblue" d="M1237.51,-128.73C1220.7,-117.92 1191.9,-99.38 1171.99,-86.57"/>
<polygon fill="midnightblue" stroke="midnightblue" points="1173.84,-83.6 1163.54,-81.13 1170.05,-89.48 1173.84,-83.6"/>
</g>
<!-- Node14 -->
<g id="node14" class="node">
<title>Node14</title>
<g id="a_node14"><a xlink:title=" ">
<polygon fill="white" stroke="#bfbfbf" points="1193.63,-62 1193.63,-81 1240.63,-81 1240.63,-62 1193.63,-62"/>
<text text-anchor="middle" x="1217.13" y="-69" font-family="Helvetica,sans-Serif" font-size="10.00">stdlib.h</text>
</a>
</g>
</g>
<!-- Node12&#45;&gt;Node14 -->
<g id="edge14" class="edge">
<title>Node12&#45;&gt;Node14</title>
<path fill="none" stroke="midnightblue" d="M1246.54,-128.73C1241.4,-118.89 1232.91,-102.66 1226.37,-90.16"/>
<polygon fill="midnightblue" stroke="midnightblue" points="1229.38,-88.37 1221.64,-81.13 1223.18,-91.61 1229.38,-88.37"/>
</g>
<!-- Node15 -->
<g id="node15" class="node">
<title>Node15</title>
<g id="a_node15"><a xlink:title=" ">
<polygon fill="white" stroke="#bfbfbf" points="997.63,-62 997.63,-81 1038.63,-81 1038.63,-62 997.63,-62"/>
<text text-anchor="middle" x="1018.13" y="-69" font-family="Helvetica,sans-Serif" font-size="10.00">string</text>
</a>
</g>
</g>
<!-- Node12&#45;&gt;Node15 -->
<g id="edge16" class="edge">
<title>Node12&#45;&gt;Node15</title>
<path fill="none" stroke="midnightblue" d="M1225.5,-129C1219.18,-126.97 1212.43,-124.86 1206.13,-123 1150.88,-106.69 1085.84,-89.71 1048.56,-80.18"/>
<polygon fill="midnightblue" stroke="midnightblue" points="1049.36,-76.77 1038.81,-77.7 1047.64,-83.56 1049.36,-76.77"/>
</g>
<!-- Node16&#45;&gt;Node4 -->
<g id="edge21" class="edge">
<title>Node16&#45;&gt;Node4</title>
<path fill="none" stroke="midnightblue" d="M581.59,-380.41C639.52,-360.07 785.24,-308.92 851.89,-285.52"/>
<polygon fill="midnightblue" stroke="midnightblue" points="853.23,-288.76 861.51,-282.14 850.91,-282.15 853.23,-288.76"/>
</g>
<!-- Node16&#45;&gt;Node8 -->
<g id="edge56" class="edge">
<title>Node16&#45;&gt;Node8</title>
<path fill="none" stroke="midnightblue" d="M616.71,-382.13C759.15,-364.35 1112.75,-311.78 1182.13,-221 1230.26,-158.03 1112.58,-162.1 1095.13,-154 1067.91,-141.36 1063.27,-133.44 1035.13,-123 977.01,-101.43 906.43,-86.78 863.16,-79.03"/>
<polygon fill="midnightblue" stroke="midnightblue" points="863.75,-75.58 853.3,-77.3 862.54,-82.48 863.75,-75.58"/>
</g>
<!-- Node17 -->
<g id="node17" class="node">
<title>Node17</title>
<g id="a_node17"><a xlink:href="member_8h.html" target="_top" xlink:title=" ">
<polygon fill="white" stroke="black" points="204.63,-324.5 204.63,-343.5 293.63,-343.5 293.63,-324.5 204.63,-324.5"/>
<text text-anchor="middle" x="249.13" y="-331.5" font-family="Helvetica,sans-Serif" font-size="10.00">cppgc/member.h</text>
</a>
</g>
</g>
<!-- Node16&#45;&gt;Node17 -->
<g id="edge22" class="edge">
<title>Node16&#45;&gt;Node17</title>
<path fill="none" stroke="midnightblue" d="M508.33,-380.44C452.64,-370.68 361.8,-354.75 303.79,-344.58"/>
<polygon fill="midnightblue" stroke="midnightblue" points="304.16,-341.09 293.71,-342.82 302.95,-347.99 304.16,-341.09"/>
</g>
<!-- Node29 -->
<g id="node29" class="node">
<title>Node29</title>
<g id="a_node29"><a xlink:href="trace-trait_8h.html" target="_top" xlink:title=" ">
<polygon fill="white" stroke="black" points="334.63,-129 334.63,-148 429.63,-148 429.63,-129 334.63,-129"/>
<text text-anchor="middle" x="382.13" y="-136" font-family="Helvetica,sans-Serif" font-size="10.00">cppgc/trace&#45;trait.h</text>
</a>
</g>
</g>
<!-- Node16&#45;&gt;Node29 -->
<g id="edge55" class="edge">
<title>Node16&#45;&gt;Node29</title>
<path fill="none" stroke="midnightblue" d="M551.11,-380.41C525.81,-344.35 427.92,-204.79 393.88,-156.25"/>
<polygon fill="midnightblue" stroke="midnightblue" points="396.74,-154.23 388.13,-148.05 391.01,-158.25 396.74,-154.23"/>
</g>
<!-- Node17&#45;&gt;Node8 -->
<g id="edge54" class="edge">
<title>Node17&#45;&gt;Node8</title>
<path fill="none" stroke="midnightblue" d="M266.35,-324.37C315.3,-299.66 458.99,-225.78 572.13,-154 592.02,-141.38 593.73,-132.85 615.13,-123 670.33,-97.59 739.87,-84.04 782.92,-77.56"/>
<polygon fill="midnightblue" stroke="midnightblue" points="783.61,-81 793,-76.1 782.6,-74.07 783.61,-81"/>
</g>
<!-- Node18 -->
<g id="node18" class="node">
<title>Node18</title>
<g id="a_node18"><a xlink:title=" ">
<polygon fill="white" stroke="#bfbfbf" points="50.13,-0.5 50.13,-19.5 96.13,-19.5 96.13,-0.5 50.13,-0.5"/>
<text text-anchor="middle" x="73.13" y="-7.5" font-family="Helvetica,sans-Serif" font-size="10.00">atomic</text>
</a>
</g>
</g>
<!-- Node17&#45;&gt;Node18 -->
<g id="edge23" class="edge">
<title>Node17&#45;&gt;Node18</title>
<path fill="none" stroke="midnightblue" d="M204.61,-330.15C132.99,-322.88 0.13,-297.17 0.13,-206.5 0.13,-206.5 0.13,-206.5 0.13,-137.5 0.13,-100.31 -0.39,-87.66 19.13,-56 26.71,-43.71 38.83,-33.16 49.66,-25.37"/>
<polygon fill="midnightblue" stroke="midnightblue" points="51.65,-28.25 57.96,-19.74 47.72,-22.46 51.65,-28.25"/>
</g>
<!-- Node19 -->
<g id="node19" class="node">
<title>Node19</title>
<g id="a_node19"><a xlink:title=" ">
<polygon fill="white" stroke="#bfbfbf" points="152.63,-263 152.63,-282 201.63,-282 201.63,-263 152.63,-263"/>
<text text-anchor="middle" x="177.13" y="-270" font-family="Helvetica,sans-Serif" font-size="10.00">cstddef</text>
</a>
</g>
</g>
<!-- Node17&#45;&gt;Node19 -->
<g id="edge24" class="edge">
<title>Node17&#45;&gt;Node19</title>
<path fill="none" stroke="midnightblue" d="M238.81,-324.48C227.48,-315.11 209.06,-299.88 195.29,-288.51"/>
<polygon fill="midnightblue" stroke="midnightblue" points="197.37,-285.68 187.43,-282.01 192.91,-291.08 197.37,-285.68"/>
</g>
<!-- Node20 -->
<g id="node20" class="node">
<title>Node20</title>
<g id="a_node20"><a xlink:title=" ">
<polygon fill="white" stroke="#bfbfbf" points="313.13,-0.5 313.13,-19.5 375.13,-19.5 375.13,-0.5 313.13,-0.5"/>
<text text-anchor="middle" x="344.13" y="-7.5" font-family="Helvetica,sans-Serif" font-size="10.00">type_traits</text>
</a>
</g>
</g>
<!-- Node17&#45;&gt;Node20 -->
<g id="edge25" class="edge">
<title>Node17&#45;&gt;Node20</title>
<path fill="none" stroke="midnightblue" d="M246.95,-324.48C241.96,-304.19 230.13,-251.36 230.13,-206.5 230.13,-206.5 230.13,-206.5 230.13,-137.5 230.13,-100.31 225.78,-84.95 249.13,-56 262.69,-39.19 284.02,-28.3 303.04,-21.45"/>
<polygon fill="midnightblue" stroke="midnightblue" points="304.33,-24.71 312.72,-18.23 302.12,-18.07 304.33,-24.71"/>
</g>
<!-- Node21 -->
<g id="node21" class="node">
<title>Node21</title>
<g id="a_node21"><a xlink:href="pointer-policies_8h.html" target="_top" xlink:title=" ">
<polygon fill="white" stroke="black" points="533.13,-257.5 533.13,-287.5 643.13,-287.5 643.13,-257.5 533.13,-257.5"/>
<text text-anchor="start" x="541.13" y="-275.5" font-family="Helvetica,sans-Serif" font-size="10.00">cppgc/internal/pointer</text>
<text text-anchor="middle" x="588.13" y="-264.5" font-family="Helvetica,sans-Serif" font-size="10.00">&#45;policies.h</text>
</a>
</g>
</g>
<!-- Node17&#45;&gt;Node21 -->
<g id="edge26" class="edge">
<title>Node17&#45;&gt;Node21</title>
<path fill="none" stroke="midnightblue" d="M293.8,-325.16C352.37,-314.88 455.57,-296.77 522.89,-284.95"/>
<polygon fill="midnightblue" stroke="midnightblue" points="523.72,-288.36 532.96,-283.18 522.51,-281.46 523.72,-288.36"/>
</g>
<!-- Node28 -->
<g id="node28" class="node">
<title>Node28</title>
<g id="a_node28"><a xlink:href="sentinel-pointer_8h.html" target="_top" xlink:title=" ">
<polygon fill="white" stroke="black" points="79.63,-129 79.63,-148 198.63,-148 198.63,-129 79.63,-129"/>
<text text-anchor="middle" x="139.13" y="-136" font-family="Helvetica,sans-Serif" font-size="10.00">cppgc/sentinel&#45;pointer.h</text>
</a>
</g>
</g>
<!-- Node17&#45;&gt;Node28 -->
<g id="edge52" class="edge">
<title>Node17&#45;&gt;Node28</title>
<path fill="none" stroke="midnightblue" d="M204.51,-325.71C182.19,-319.59 157.03,-308.4 143.13,-288 116.22,-248.5 126.17,-188.37 133.72,-158.17"/>
<polygon fill="midnightblue" stroke="midnightblue" points="137.19,-158.74 136.42,-148.17 130.44,-156.92 137.19,-158.74"/>
</g>
<!-- Node30 -->
<g id="node30" class="node">
<title>Node30</title>
<g id="a_node30"><a xlink:href="type-traits_8h.html" target="_top" xlink:title=" ">
<polygon fill="white" stroke="black" points="258.13,-62 258.13,-81 354.13,-81 354.13,-62 258.13,-62"/>
<text text-anchor="middle" x="306.13" y="-69" font-family="Helvetica,sans-Serif" font-size="10.00">cppgc/type&#45;traits.h</text>
</a>
</g>
</g>
<!-- Node17&#45;&gt;Node30 -->
<g id="edge53" class="edge">
<title>Node17&#45;&gt;Node30</title>
<path fill="none" stroke="midnightblue" d="M250.72,-324.15C255.97,-295.15 273.49,-200.43 292.13,-123 294.73,-112.2 298.03,-100.22 300.78,-90.64"/>
<polygon fill="midnightblue" stroke="midnightblue" points="304.14,-91.61 303.57,-81.03 297.42,-89.66 304.14,-91.61"/>
</g>
<!-- Node21&#45;&gt;Node8 -->
<g id="edge51" class="edge">
<title>Node21&#45;&gt;Node8</title>
<path fill="none" stroke="midnightblue" d="M604.6,-257.39C628.51,-237.07 671.83,-200.8 689.13,-190 721.17,-169.99 737.21,-178.31 766.13,-154 787.54,-136 804.68,-108.15 814.38,-90.12"/>
<polygon fill="midnightblue" stroke="midnightblue" points="817.49,-91.72 818.98,-81.24 811.27,-88.5 817.49,-91.72"/>
</g>
<!-- Node21&#45;&gt;Node20 -->
<g id="edge28" class="edge">
<title>Node21&#45;&gt;Node20</title>
<path fill="none" stroke="midnightblue" d="M533.03,-264.48C470.41,-253.24 370.98,-224.7 325.13,-154 317.63,-142.44 319.69,-135.66 325.13,-123 334.32,-101.63 353.94,-108.37 363.13,-87 371.33,-67.94 363.01,-44.6 354.94,-28.86"/>
<polygon fill="midnightblue" stroke="midnightblue" points="357.78,-26.76 349.86,-19.73 351.67,-30.17 357.78,-26.76"/>
</g>
<!-- Node22 -->
<g id="node22" class="node">
<title>Node22</title>
<g id="a_node22"><a xlink:title=" ">
<polygon fill="white" stroke="#bfbfbf" points="28.13,-62 28.13,-81 74.13,-81 74.13,-62 28.13,-62"/>
<text text-anchor="middle" x="51.13" y="-69" font-family="Helvetica,sans-Serif" font-size="10.00">cstdint</text>
</a>
</g>
</g>
<!-- Node21&#45;&gt;Node22 -->
<g id="edge27" class="edge">
<title>Node21&#45;&gt;Node22</title>
<path fill="none" stroke="midnightblue" d="M533.11,-266.33C413.51,-253.98 135.37,-218.85 70.13,-154 53.58,-137.54 50.32,-109.65 50.19,-91.15"/>
<polygon fill="midnightblue" stroke="midnightblue" points="53.69,-91.11 50.42,-81.03 46.69,-90.95 53.69,-91.11"/>
</g>
<!-- Node23 -->
<g id="node23" class="node">
<title>Node23</title>
<g id="a_node23"><a xlink:href="write-barrier_8h.html" target="_top" xlink:title=" ">
<polygon fill="white" stroke="black" points="537.63,-190.5 537.63,-220.5 638.63,-220.5 638.63,-190.5 537.63,-190.5"/>
<text text-anchor="start" x="545.63" y="-208.5" font-family="Helvetica,sans-Serif" font-size="10.00">cppgc/internal/write</text>
<text text-anchor="middle" x="588.13" y="-197.5" font-family="Helvetica,sans-Serif" font-size="10.00">&#45;barrier.h</text>
</a>
</g>
</g>
<!-- Node21&#45;&gt;Node23 -->
<g id="edge29" class="edge">
<title>Node21&#45;&gt;Node23</title>
<path fill="none" stroke="midnightblue" d="M588.13,-257.4C588.13,-249.64 588.13,-239.81 588.13,-230.86"/>
<polygon fill="midnightblue" stroke="midnightblue" points="591.63,-230.58 588.13,-220.58 584.63,-230.58 591.63,-230.58"/>
</g>
<!-- Node31 -->
<g id="node31" class="node">
<title>Node31</title>
<g id="a_node31"><a xlink:href="source-location_8h.html" target="_top" xlink:title=" ">
<polygon fill="white" stroke="black" points="889.63,-129 889.63,-148 1008.63,-148 1008.63,-129 889.63,-129"/>
<text text-anchor="middle" x="949.13" y="-136" font-family="Helvetica,sans-Serif" font-size="10.00">cppgc/source&#45;location.h</text>
</a>
</g>
</g>
<!-- Node21&#45;&gt;Node31 -->
<g id="edge48" class="edge">
<title>Node21&#45;&gt;Node31</title>
<path fill="none" stroke="midnightblue" d="M619.27,-257.42C639.57,-247.88 666.41,-234.58 689.13,-221 709.66,-208.73 711.3,-199.79 733.13,-190 779.75,-169.09 836.05,-156.29 879.49,-148.81"/>
<polygon fill="midnightblue" stroke="midnightblue" points="880.11,-152.25 889.4,-147.16 878.96,-145.35 880.11,-152.25"/>
</g>
<!-- Node23&#45;&gt;Node8 -->
<g id="edge47" class="edge">
<title>Node23&#45;&gt;Node8</title>
<path fill="none" stroke="midnightblue" d="M594.95,-190.47C604.53,-172.22 623.7,-140.6 649.13,-123 689.56,-95.02 745.48,-82.38 782.91,-76.78"/>
<polygon fill="midnightblue" stroke="midnightblue" points="783.53,-80.23 792.95,-75.38 782.56,-73.3 783.53,-80.23"/>
</g>
<!-- Node24 -->
<g id="node24" class="node">
<title>Node24</title>
<g id="a_node24"><a xlink:href="heap-state_8h.html" target="_top" xlink:title=" ">
<polygon fill="white" stroke="black" points="657.63,-129 657.63,-148 756.63,-148 756.63,-129 657.63,-129"/>
<text text-anchor="middle" x="707.13" y="-136" font-family="Helvetica,sans-Serif" font-size="10.00">cppgc/heap&#45;state.h</text>
</a>
</g>
</g>
<!-- Node23&#45;&gt;Node24 -->
<g id="edge30" class="edge">
<title>Node23&#45;&gt;Node24</title>
<path fill="none" stroke="midnightblue" d="M613.95,-190.4C634.37,-179.24 662.68,-163.78 682.72,-152.83"/>
<polygon fill="midnightblue" stroke="midnightblue" points="684.46,-155.87 691.56,-148.01 681.1,-149.73 684.46,-155.87"/>
</g>
<!-- Node25 -->
<g id="node25" class="node">
<title>Node25</title>
<g id="a_node25"><a xlink:href="api-constants_8h.html" target="_top" xlink:title=" ">
<polygon fill="white" stroke="black" points="1103.63,-123.5 1103.63,-153.5 1196.63,-153.5 1196.63,-123.5 1103.63,-123.5"/>
<text text-anchor="start" x="1111.63" y="-141.5" font-family="Helvetica,sans-Serif" font-size="10.00">cppgc/internal/api</text>
<text text-anchor="middle" x="1150.13" y="-130.5" font-family="Helvetica,sans-Serif" font-size="10.00">&#45;constants.h</text>
</a>
</g>
</g>
<!-- Node23&#45;&gt;Node25 -->
<g id="edge32" class="edge">
<title>Node23&#45;&gt;Node25</title>
<path fill="none" stroke="midnightblue" d="M639,-198.62C743.83,-186.49 983.29,-158.8 1093.14,-146.09"/>
<polygon fill="midnightblue" stroke="midnightblue" points="1093.83,-149.53 1103.36,-144.91 1093.03,-142.58 1093.83,-149.53"/>
</g>
<!-- Node26 -->
<g id="node26" class="node">
<title>Node26</title>
<g id="a_node26"><a xlink:href="process-heap_8h.html" target="_top" xlink:title=" ">
<polygon fill="white" stroke="black" points="447.63,-123.5 447.63,-153.5 562.63,-153.5 562.63,-123.5 447.63,-123.5"/>
<text text-anchor="start" x="455.63" y="-141.5" font-family="Helvetica,sans-Serif" font-size="10.00">cppgc/internal/process</text>
<text text-anchor="middle" x="505.13" y="-130.5" font-family="Helvetica,sans-Serif" font-size="10.00">&#45;heap.h</text>
</a>
</g>
</g>
<!-- Node23&#45;&gt;Node26 -->
<g id="edge36" class="edge">
<title>Node23&#45;&gt;Node26</title>
<path fill="none" stroke="midnightblue" d="M570.12,-190.4C558.7,-181.45 543.74,-169.74 531.05,-159.8"/>
<polygon fill="midnightblue" stroke="midnightblue" points="533.14,-156.99 523.1,-153.58 528.82,-162.5 533.14,-156.99"/>
</g>
<!-- Node23&#45;&gt;Node28 -->
<g id="edge40" class="edge">
<title>Node23&#45;&gt;Node28</title>
<path fill="none" stroke="midnightblue" d="M537.5,-197.17C456.81,-185.49 298.92,-162.63 208.02,-149.47"/>
<polygon fill="midnightblue" stroke="midnightblue" points="208.49,-146 198.09,-148.03 207.48,-152.93 208.49,-146"/>
</g>
<!-- Node23&#45;&gt;Node29 -->
<g id="edge42" class="edge">
<title>Node23&#45;&gt;Node29</title>
<path fill="none" stroke="midnightblue" d="M543.69,-190.48C506.44,-178.72 453.89,-162.14 418.96,-151.12"/>
<polygon fill="midnightblue" stroke="midnightblue" points="419.75,-147.7 409.16,-148.03 417.64,-154.38 419.75,-147.7"/>
</g>
<!-- Node24&#45;&gt;Node8 -->
<g id="edge31" class="edge">
<title>Node24&#45;&gt;Node8</title>
<path fill="none" stroke="midnightblue" d="M722.77,-128.73C742.34,-117.77 776.05,-98.88 798.95,-86.05"/>
<polygon fill="midnightblue" stroke="midnightblue" points="800.72,-89.07 807.73,-81.13 797.3,-82.96 800.72,-89.07"/>
</g>
<!-- Node25&#45;&gt;Node8 -->
<g id="edge35" class="edge">
<title>Node25&#45;&gt;Node8</title>
<path fill="none" stroke="midnightblue" d="M1103.55,-126.2C1098.69,-125.09 1093.81,-124 1089.13,-123 1009.19,-105.92 915.11,-88.74 862.99,-79.48"/>
<polygon fill="midnightblue" stroke="midnightblue" points="863.6,-76.03 853.14,-77.74 862.38,-82.93 863.6,-76.03"/>
</g>
<!-- Node25&#45;&gt;Node10 -->
<g id="edge33" class="edge">
<title>Node25&#45;&gt;Node10</title>
<path fill="none" stroke="midnightblue" d="M1179.21,-123.4C1202.51,-112.09 1234.94,-96.36 1257.56,-85.39"/>
<polygon fill="midnightblue" stroke="midnightblue" points="1259.12,-88.52 1266.59,-81.01 1256.07,-82.22 1259.12,-88.52"/>
</g>
<!-- Node25&#45;&gt;Node13 -->
<g id="edge34" class="edge">
<title>Node25&#45;&gt;Node13</title>
<path fill="none" stroke="midnightblue" d="M1150.13,-123.4C1150.13,-114.06 1150.13,-101.71 1150.13,-91.52"/>
<polygon fill="midnightblue" stroke="midnightblue" points="1153.63,-91.19 1150.13,-81.19 1146.63,-91.19 1153.63,-91.19"/>
</g>
<!-- Node26&#45;&gt;Node8 -->
<g id="edge39" class="edge">
<title>Node26&#45;&gt;Node8</title>
<path fill="none" stroke="midnightblue" d="M562.72,-125.73C626.41,-112.71 727.36,-92.08 783.01,-80.7"/>
<polygon fill="midnightblue" stroke="midnightblue" points="783.76,-84.12 792.86,-78.69 782.36,-77.26 783.76,-84.12"/>
</g>
<!-- Node27 -->
<g id="node27" class="node">
<title>Node27</title>
<g id="a_node27"><a xlink:href="atomic-entry-flag_8h.html" target="_top" xlink:title=" ">
<polygon fill="white" stroke="black" points="92.13,-56.5 92.13,-86.5 202.13,-86.5 202.13,-56.5 92.13,-56.5"/>
<text text-anchor="start" x="100.13" y="-74.5" font-family="Helvetica,sans-Serif" font-size="10.00">cppgc/internal/atomic</text>
<text text-anchor="middle" x="147.13" y="-63.5" font-family="Helvetica,sans-Serif" font-size="10.00">&#45;entry&#45;flag.h</text>
</a>
</g>
</g>
<!-- Node26&#45;&gt;Node27 -->
<g id="edge37" class="edge">
<title>Node26&#45;&gt;Node27</title>
<path fill="none" stroke="midnightblue" d="M447.57,-124.69C444.72,-124.11 441.89,-123.54 439.13,-123 361.34,-107.74 271.41,-92.55 212.13,-82.88"/>
<polygon fill="midnightblue" stroke="midnightblue" points="212.59,-79.41 202.16,-81.26 211.47,-86.32 212.59,-79.41"/>
</g>
<!-- Node27&#45;&gt;Node18 -->
<g id="edge38" class="edge">
<title>Node27&#45;&gt;Node18</title>
<path fill="none" stroke="midnightblue" d="M129.59,-56.4C118.29,-47.31 103.59,-35.49 92.02,-26.19"/>
<polygon fill="midnightblue" stroke="midnightblue" points="93.88,-23.2 83.9,-19.66 89.5,-28.65 93.88,-23.2"/>
</g>
<!-- Node28&#45;&gt;Node22 -->
<g id="edge41" class="edge">
<title>Node28&#45;&gt;Node22</title>
<path fill="none" stroke="midnightblue" d="M127.26,-128.73C112.88,-118.11 88.43,-100.05 71.12,-87.26"/>
<polygon fill="midnightblue" stroke="midnightblue" points="72.93,-84.25 62.81,-81.13 68.77,-89.88 72.93,-84.25"/>
</g>
<!-- Node29&#45;&gt;Node8 -->
<g id="edge46" class="edge">
<title>Node29&#45;&gt;Node8</title>
<path fill="none" stroke="midnightblue" d="M413.04,-128.93C421.46,-126.79 430.61,-124.64 439.13,-123 563.49,-99.09 712.7,-83.03 782.89,-76.21"/>
<polygon fill="midnightblue" stroke="midnightblue" points="783.44,-79.67 793.06,-75.23 782.77,-72.7 783.44,-79.67"/>
</g>
<!-- Node29&#45;&gt;Node20 -->
<g id="edge43" class="edge">
<title>Node29&#45;&gt;Node20</title>
<path fill="none" stroke="midnightblue" d="M386.7,-128.99C394.27,-113.69 407.47,-80.81 396.13,-56 390.35,-43.36 379.08,-32.91 368.5,-25.27"/>
<polygon fill="midnightblue" stroke="midnightblue" points="370.17,-22.18 359.91,-19.53 366.28,-28 370.17,-22.18"/>
</g>
<!-- Node29&#45;&gt;Node30 -->
<g id="edge44" class="edge">
<title>Node29&#45;&gt;Node30</title>
<path fill="none" stroke="midnightblue" d="M371.88,-128.73C359.69,-118.31 339.11,-100.71 324.22,-87.97"/>
<polygon fill="midnightblue" stroke="midnightblue" points="326.09,-84.97 316.22,-81.13 321.54,-90.29 326.09,-84.97"/>
</g>
<!-- Node30&#45;&gt;Node20 -->
<g id="edge45" class="edge">
<title>Node30&#45;&gt;Node20</title>
<path fill="none" stroke="midnightblue" d="M311.57,-61.98C317.22,-53.14 326.19,-39.09 333.29,-27.98"/>
<polygon fill="midnightblue" stroke="midnightblue" points="336.26,-29.82 338.7,-19.51 330.36,-26.05 336.26,-29.82"/>
</g>
<!-- Node31&#45;&gt;Node8 -->
<g id="edge50" class="edge">
<title>Node31&#45;&gt;Node8</title>
<path fill="none" stroke="midnightblue" d="M932.4,-128.87C911.03,-117.84 873.83,-98.66 848.85,-85.77"/>
<polygon fill="midnightblue" stroke="midnightblue" points="850.42,-82.64 839.93,-81.17 847.21,-88.86 850.42,-82.64"/>
</g>
<!-- Node31&#45;&gt;Node15 -->
<g id="edge49" class="edge">
<title>Node31&#45;&gt;Node15</title>
<path fill="none" stroke="midnightblue" d="M958.44,-128.73C969.4,-118.4 987.84,-101.04 1001.32,-88.33"/>
<polygon fill="midnightblue" stroke="midnightblue" points="1004.09,-90.53 1008.97,-81.13 999.29,-85.44 1004.09,-90.53"/>
</g>
</g>
</svg>
