<?xml version="1.0" encoding="UTF-8" standalone="no"?>
<!DOCTYPE svg PUBLIC "-//W3C//DTD SVG 1.1//EN"
 "http://www.w3.org/Graphics/SVG/1.1/DTD/svg11.dtd">
<!-- Generated by graphviz version 2.44.0 ()
 -->
<!-- Title: include/cppgc/internal/prefinalizer&#45;handler.h Pages: 1 -->
<svg width="1407pt" height="475pt"
 viewBox="0.00 0.00 1406.63 475.00" xmlns="http://www.w3.org/2000/svg" xmlns:xlink="http://www.w3.org/1999/xlink">
<g id="graph0" class="graph" transform="scale(1 1) rotate(0) translate(4 471)">
<title>include/cppgc/internal/prefinalizer&#45;handler.h</title>
<polygon fill="white" stroke="transparent" points="-4,4 -4,-471 1402.63,-471 1402.63,4 -4,4"/>
<!-- Node1 -->
<g id="node1" class="node">
<title>Node1</title>
<g id="a_node1"><a xlink:title=" ">
<polygon fill="#bfbfbf" stroke="black" points="874.63,-436.5 874.63,-466.5 985.63,-466.5 985.63,-436.5 874.63,-436.5"/>
<text text-anchor="start" x="882.63" y="-454.5" font-family="Helvetica,sans-Serif" font-size="10.00">include/cppgc/internal</text>
<text text-anchor="middle" x="930.13" y="-443.5" font-family="Helvetica,sans-Serif" font-size="10.00">/prefinalizer&#45;handler.h</text>
</a>
</g>
</g>
<!-- Node2 -->
<g id="node2" class="node">
<title>Node2</title>
<g id="a_node2"><a xlink:href="heap_8h.html" target="_top" xlink:title=" ">
<polygon fill="white" stroke="black" points="1025.13,-263 1025.13,-282 1099.13,-282 1099.13,-263 1025.13,-263"/>
<text text-anchor="middle" x="1062.13" y="-270" font-family="Helvetica,sans-Serif" font-size="10.00">cppgc/heap.h</text>
</a>
</g>
</g>
<!-- Node1&#45;&gt;Node2 -->
<g id="edge1" class="edge">
<title>Node1&#45;&gt;Node2</title>
<path fill="none" stroke="midnightblue" d="M940.71,-436.31C964.75,-404.08 1023.39,-325.45 1049.38,-290.6"/>
<polygon fill="midnightblue" stroke="midnightblue" points="1052.34,-292.48 1055.51,-282.37 1046.73,-288.3 1052.34,-292.48"/>
</g>
<!-- Node14 -->
<g id="node14" class="node">
<title>Node14</title>
<g id="a_node14"><a xlink:href="liveness-broker_8h.html" target="_top" xlink:title=" ">
<polygon fill="white" stroke="black" points="763.63,-380.5 763.63,-399.5 882.63,-399.5 882.63,-380.5 763.63,-380.5"/>
<text text-anchor="middle" x="823.13" y="-387.5" font-family="Helvetica,sans-Serif" font-size="10.00">cppgc/liveness&#45;broker.h</text>
</a>
</g>
</g>
<!-- Node1&#45;&gt;Node14 -->
<g id="edge18" class="edge">
<title>Node1&#45;&gt;Node14</title>
<path fill="none" stroke="midnightblue" d="M904.77,-436.4C887.46,-426.77 864.65,-414.09 847.55,-404.58"/>
<polygon fill="midnightblue" stroke="midnightblue" points="849.14,-401.46 838.7,-399.66 845.74,-407.58 849.14,-401.46"/>
</g>
<!-- Node3 -->
<g id="node3" class="node">
<title>Node3</title>
<g id="a_node3"><a xlink:title=" ">
<polygon fill="white" stroke="#bfbfbf" points="1347.63,-62 1347.63,-81 1398.63,-81 1398.63,-62 1347.63,-62"/>
<text text-anchor="middle" x="1373.13" y="-69" font-family="Helvetica,sans-Serif" font-size="10.00">memory</text>
</a>
</g>
</g>
<!-- Node2&#45;&gt;Node3 -->
<g id="edge2" class="edge">
<title>Node2&#45;&gt;Node3</title>
<path fill="none" stroke="midnightblue" d="M1099.18,-270.57C1170.64,-267.95 1323.53,-258.05 1358.13,-221 1391.21,-185.58 1383.96,-122.65 1377.65,-91.31"/>
<polygon fill="midnightblue" stroke="midnightblue" points="1381.02,-90.32 1375.45,-81.31 1374.18,-91.83 1381.02,-90.32"/>
</g>
<!-- Node4 -->
<g id="node4" class="node">
<title>Node4</title>
<g id="a_node4"><a xlink:title=" ">
<polygon fill="white" stroke="#bfbfbf" points="1065.13,-196 1065.13,-215 1109.13,-215 1109.13,-196 1065.13,-196"/>
<text text-anchor="middle" x="1087.13" y="-203" font-family="Helvetica,sans-Serif" font-size="10.00">vector</text>
</a>
</g>
</g>
<!-- Node2&#45;&gt;Node4 -->
<g id="edge3" class="edge">
<title>Node2&#45;&gt;Node4</title>
<path fill="none" stroke="midnightblue" d="M1065.5,-262.73C1069.25,-252.99 1075.41,-236.98 1080.2,-224.53"/>
<polygon fill="midnightblue" stroke="midnightblue" points="1083.49,-225.72 1083.81,-215.13 1076.96,-223.2 1083.49,-225.72"/>
</g>
<!-- Node5 -->
<g id="node5" class="node">
<title>Node5</title>
<g id="a_node5"><a xlink:href="common_8h.html" target="_top" xlink:title=" ">
<polygon fill="white" stroke="black" points="917.63,-196 917.63,-215 1008.63,-215 1008.63,-196 917.63,-196"/>
<text text-anchor="middle" x="963.13" y="-203" font-family="Helvetica,sans-Serif" font-size="10.00">cppgc/common.h</text>
</a>
</g>
</g>
<!-- Node2&#45;&gt;Node5 -->
<g id="edge4" class="edge">
<title>Node2&#45;&gt;Node5</title>
<path fill="none" stroke="midnightblue" d="M1048.78,-262.73C1032.38,-251.96 1004.33,-233.55 984.82,-220.74"/>
<polygon fill="midnightblue" stroke="midnightblue" points="986.55,-217.69 976.27,-215.13 982.71,-223.54 986.55,-217.69"/>
</g>
<!-- Node6 -->
<g id="node6" class="node">
<title>Node6</title>
<g id="a_node6"><a xlink:href="v8config_8h.html" target="_top" xlink:title=" ">
<polygon fill="white" stroke="black" points="793.13,-62 793.13,-81 853.13,-81 853.13,-62 793.13,-62"/>
<text text-anchor="middle" x="823.13" y="-69" font-family="Helvetica,sans-Serif" font-size="10.00">v8config.h</text>
</a>
</g>
</g>
<!-- Node2&#45;&gt;Node6 -->
<g id="edge17" class="edge">
<title>Node2&#45;&gt;Node6</title>
<path fill="none" stroke="midnightblue" d="M1060.95,-262.98C1056.98,-237.65 1041.76,-162.17 997.13,-123 959.75,-90.19 902.16,-78.64 863.59,-74.61"/>
<polygon fill="midnightblue" stroke="midnightblue" points="863.52,-71.09 853.24,-73.66 862.88,-78.06 863.52,-71.09"/>
</g>
<!-- Node7 -->
<g id="node7" class="node">
<title>Node7</title>
<g id="a_node7"><a xlink:href="custom-space_8h.html" target="_top" xlink:title=" ">
<polygon fill="white" stroke="black" points="1233.63,-196 1233.63,-215 1348.63,-215 1348.63,-196 1233.63,-196"/>
<text text-anchor="middle" x="1291.13" y="-203" font-family="Helvetica,sans-Serif" font-size="10.00">cppgc/custom&#45;space.h</text>
</a>
</g>
</g>
<!-- Node2&#45;&gt;Node7 -->
<g id="edge6" class="edge">
<title>Node2&#45;&gt;Node7</title>
<path fill="none" stroke="midnightblue" d="M1092.54,-262.87C1133.37,-251.28 1206,-230.66 1251.2,-217.83"/>
<polygon fill="midnightblue" stroke="midnightblue" points="1252.3,-221.16 1260.96,-215.06 1250.38,-214.43 1252.3,-221.16"/>
</g>
<!-- Node9 -->
<g id="node9" class="node">
<title>Node9</title>
<g id="a_node9"><a xlink:href="platform_8h.html" target="_top" xlink:title=" ">
<polygon fill="white" stroke="black" points="1126.63,-196 1126.63,-215 1215.63,-215 1215.63,-196 1126.63,-196"/>
<text text-anchor="middle" x="1171.13" y="-203" font-family="Helvetica,sans-Serif" font-size="10.00">cppgc/platform.h</text>
</a>
</g>
</g>
<!-- Node2&#45;&gt;Node9 -->
<g id="edge8" class="edge">
<title>Node2&#45;&gt;Node9</title>
<path fill="none" stroke="midnightblue" d="M1076.83,-262.73C1095.05,-251.87 1126.33,-233.22 1147.83,-220.39"/>
<polygon fill="midnightblue" stroke="midnightblue" points="1149.87,-223.26 1156.66,-215.13 1146.28,-217.24 1149.87,-223.26"/>
</g>
<!-- Node5&#45;&gt;Node6 -->
<g id="edge5" class="edge">
<title>Node5&#45;&gt;Node6</title>
<path fill="none" stroke="midnightblue" d="M968.85,-195.97C978.74,-180.06 996.48,-145.43 980.13,-123 953.62,-86.62 900.45,-75.88 863.38,-73"/>
<polygon fill="midnightblue" stroke="midnightblue" points="863.58,-69.51 853.38,-72.39 863.14,-76.5 863.58,-69.51"/>
</g>
<!-- Node8 -->
<g id="node8" class="node">
<title>Node8</title>
<g id="a_node8"><a xlink:title=" ">
<polygon fill="white" stroke="#bfbfbf" points="1272.63,-62 1272.63,-81 1323.63,-81 1323.63,-62 1272.63,-62"/>
<text text-anchor="middle" x="1298.13" y="-69" font-family="Helvetica,sans-Serif" font-size="10.00">stddef.h</text>
</a>
</g>
</g>
<!-- Node7&#45;&gt;Node8 -->
<g id="edge7" class="edge">
<title>Node7&#45;&gt;Node8</title>
<path fill="none" stroke="midnightblue" d="M1292.43,-195.95C1293.88,-185.92 1296.16,-168.8 1297.13,-154 1298.53,-132.64 1298.62,-108.06 1298.47,-91.53"/>
<polygon fill="midnightblue" stroke="midnightblue" points="1301.96,-91.03 1298.32,-81.08 1294.96,-91.12 1301.96,-91.03"/>
</g>
<!-- Node9&#45;&gt;Node6 -->
<g id="edge16" class="edge">
<title>Node9&#45;&gt;Node6</title>
<path fill="none" stroke="midnightblue" d="M1157.88,-195.85C1142.65,-185.88 1116.96,-168.94 1095.13,-154 1075.39,-140.49 1073.01,-132.66 1051.13,-123 988.9,-95.52 910.28,-82.36 863.51,-76.56"/>
<polygon fill="midnightblue" stroke="midnightblue" points="863.8,-73.08 853.46,-75.37 862.98,-80.03 863.8,-73.08"/>
</g>
<!-- Node10 -->
<g id="node10" class="node">
<title>Node10</title>
<g id="a_node10"><a xlink:href="v8-platform_8h.html" target="_top" xlink:title=" ">
<polygon fill="white" stroke="black" points="1214.63,-129 1214.63,-148 1287.63,-148 1287.63,-129 1214.63,-129"/>
<text text-anchor="middle" x="1251.13" y="-136" font-family="Helvetica,sans-Serif" font-size="10.00">v8&#45;platform.h</text>
</a>
</g>
</g>
<!-- Node9&#45;&gt;Node10 -->
<g id="edge9" class="edge">
<title>Node9&#45;&gt;Node10</title>
<path fill="none" stroke="midnightblue" d="M1181.92,-195.73C1194.87,-185.21 1216.82,-167.38 1232.52,-154.62"/>
<polygon fill="midnightblue" stroke="midnightblue" points="1234.96,-157.15 1240.51,-148.13 1230.54,-151.72 1234.96,-157.15"/>
</g>
<!-- Node10&#45;&gt;Node3 -->
<g id="edge13" class="edge">
<title>Node10&#45;&gt;Node3</title>
<path fill="none" stroke="midnightblue" d="M1267.33,-128.87C1287.93,-117.89 1323.72,-98.82 1347.91,-85.94"/>
<polygon fill="midnightblue" stroke="midnightblue" points="1349.68,-88.96 1356.86,-81.17 1346.39,-82.78 1349.68,-88.96"/>
</g>
<!-- Node10&#45;&gt;Node6 -->
<g id="edge15" class="edge">
<title>Node10&#45;&gt;Node6</title>
<path fill="none" stroke="midnightblue" d="M1227.06,-128.86C1220.36,-126.7 1213.02,-124.55 1206.13,-123 1141.36,-108.42 947.68,-86.19 863.24,-76.86"/>
<polygon fill="midnightblue" stroke="midnightblue" points="863.58,-73.37 853.26,-75.76 862.81,-80.33 863.58,-73.37"/>
</g>
<!-- Node10&#45;&gt;Node8 -->
<g id="edge10" class="edge">
<title>Node10&#45;&gt;Node8</title>
<path fill="none" stroke="midnightblue" d="M1257.47,-128.73C1264.73,-118.7 1276.79,-102.01 1285.89,-89.42"/>
<polygon fill="midnightblue" stroke="midnightblue" points="1288.87,-91.28 1291.89,-81.13 1283.2,-87.18 1288.87,-91.28"/>
</g>
<!-- Node11 -->
<g id="node11" class="node">
<title>Node11</title>
<g id="a_node11"><a xlink:title=" ">
<polygon fill="white" stroke="#bfbfbf" points="1129.13,-62 1129.13,-81 1177.13,-81 1177.13,-62 1129.13,-62"/>
<text text-anchor="middle" x="1153.13" y="-69" font-family="Helvetica,sans-Serif" font-size="10.00">stdint.h</text>
</a>
</g>
</g>
<!-- Node10&#45;&gt;Node11 -->
<g id="edge11" class="edge">
<title>Node10&#45;&gt;Node11</title>
<path fill="none" stroke="midnightblue" d="M1237.91,-128.73C1221.68,-117.96 1193.91,-99.55 1174.6,-86.74"/>
<polygon fill="midnightblue" stroke="midnightblue" points="1176.41,-83.74 1166.14,-81.13 1172.54,-89.57 1176.41,-83.74"/>
</g>
<!-- Node12 -->
<g id="node12" class="node">
<title>Node12</title>
<g id="a_node12"><a xlink:title=" ">
<polygon fill="white" stroke="#bfbfbf" points="1207.63,-62 1207.63,-81 1254.63,-81 1254.63,-62 1207.63,-62"/>
<text text-anchor="middle" x="1231.13" y="-69" font-family="Helvetica,sans-Serif" font-size="10.00">stdlib.h</text>
</a>
</g>
</g>
<!-- Node10&#45;&gt;Node12 -->
<g id="edge12" class="edge">
<title>Node10&#45;&gt;Node12</title>
<path fill="none" stroke="midnightblue" d="M1248.43,-128.73C1245.46,-119.09 1240.61,-103.3 1236.79,-90.91"/>
<polygon fill="midnightblue" stroke="midnightblue" points="1240.07,-89.66 1233.78,-81.13 1233.38,-91.71 1240.07,-89.66"/>
</g>
<!-- Node13 -->
<g id="node13" class="node">
<title>Node13</title>
<g id="a_node13"><a xlink:title=" ">
<polygon fill="white" stroke="#bfbfbf" points="979.63,-62 979.63,-81 1020.63,-81 1020.63,-62 979.63,-62"/>
<text text-anchor="middle" x="1000.13" y="-69" font-family="Helvetica,sans-Serif" font-size="10.00">string</text>
</a>
</g>
</g>
<!-- Node10&#45;&gt;Node13 -->
<g id="edge14" class="edge">
<title>Node10&#45;&gt;Node13</title>
<path fill="none" stroke="midnightblue" d="M1225.53,-128.9C1219.21,-126.88 1212.45,-124.79 1206.13,-123 1144.34,-105.49 1071.12,-88.4 1030.73,-79.28"/>
<polygon fill="midnightblue" stroke="midnightblue" points="1031.25,-75.81 1020.72,-77.04 1029.71,-82.64 1031.25,-75.81"/>
</g>
<!-- Node14&#45;&gt;Node2 -->
<g id="edge19" class="edge">
<title>Node14&#45;&gt;Node2</title>
<path fill="none" stroke="midnightblue" d="M841.09,-380.32C882.72,-360.2 985.97,-310.31 1035.19,-286.52"/>
<polygon fill="midnightblue" stroke="midnightblue" points="1036.8,-289.63 1044.28,-282.12 1033.76,-283.32 1036.8,-289.63"/>
</g>
<!-- Node14&#45;&gt;Node6 -->
<g id="edge54" class="edge">
<title>Node14&#45;&gt;Node6</title>
<path fill="none" stroke="midnightblue" d="M823.13,-380.31C823.13,-361.06 823.13,-313.4 823.13,-273.5 823.13,-273.5 823.13,-273.5 823.13,-204.5 823.13,-164.16 823.13,-116.88 823.13,-91.28"/>
<polygon fill="midnightblue" stroke="midnightblue" points="826.63,-91.15 823.13,-81.15 819.63,-91.15 826.63,-91.15"/>
</g>
<!-- Node15 -->
<g id="node15" class="node">
<title>Node15</title>
<g id="a_node15"><a xlink:href="member_8h.html" target="_top" xlink:title=" ">
<polygon fill="white" stroke="black" points="204.63,-324.5 204.63,-343.5 293.63,-343.5 293.63,-324.5 204.63,-324.5"/>
<text text-anchor="middle" x="249.13" y="-331.5" font-family="Helvetica,sans-Serif" font-size="10.00">cppgc/member.h</text>
</a>
</g>
</g>
<!-- Node14&#45;&gt;Node15 -->
<g id="edge20" class="edge">
<title>Node14&#45;&gt;Node15</title>
<path fill="none" stroke="midnightblue" d="M763.6,-383.4C651.77,-372.88 411.89,-350.31 303.85,-340.15"/>
<polygon fill="midnightblue" stroke="midnightblue" points="304.1,-336.66 293.82,-339.2 303.45,-343.63 304.1,-336.66"/>
</g>
<!-- Node27 -->
<g id="node27" class="node">
<title>Node27</title>
<g id="a_node27"><a xlink:href="trace-trait_8h.html" target="_top" xlink:title=" ">
<polygon fill="white" stroke="black" points="334.63,-129 334.63,-148 429.63,-148 429.63,-129 334.63,-129"/>
<text text-anchor="middle" x="382.13" y="-136" font-family="Helvetica,sans-Serif" font-size="10.00">cppgc/trace&#45;trait.h</text>
</a>
</g>
</g>
<!-- Node14&#45;&gt;Node27 -->
<g id="edge53" class="edge">
<title>Node14&#45;&gt;Node27</title>
<path fill="none" stroke="midnightblue" d="M763.43,-387.3C684.44,-382.06 544.74,-362.09 455.13,-288 413.52,-253.6 393.66,-189.68 386.05,-158.12"/>
<polygon fill="midnightblue" stroke="midnightblue" points="389.39,-157.05 383.77,-148.07 382.56,-158.6 389.39,-157.05"/>
</g>
<!-- Node15&#45;&gt;Node6 -->
<g id="edge52" class="edge">
<title>Node15&#45;&gt;Node6</title>
<path fill="none" stroke="midnightblue" d="M261.06,-324.39C294.23,-300.7 390.86,-233.45 478.13,-190 518.18,-170.06 534.23,-177.76 572.13,-154 589.18,-143.31 587.38,-132.49 605.13,-123 662.19,-92.5 737.26,-80.31 782.77,-75.52"/>
<polygon fill="midnightblue" stroke="midnightblue" points="783.23,-78.99 792.84,-74.53 782.54,-72.02 783.23,-78.99"/>
</g>
<!-- Node16 -->
<g id="node16" class="node">
<title>Node16</title>
<g id="a_node16"><a xlink:title=" ">
<polygon fill="white" stroke="#bfbfbf" points="50.13,-0.5 50.13,-19.5 96.13,-19.5 96.13,-0.5 50.13,-0.5"/>
<text text-anchor="middle" x="73.13" y="-7.5" font-family="Helvetica,sans-Serif" font-size="10.00">atomic</text>
</a>
</g>
</g>
<!-- Node15&#45;&gt;Node16 -->
<g id="edge21" class="edge">
<title>Node15&#45;&gt;Node16</title>
<path fill="none" stroke="midnightblue" d="M204.61,-330.15C132.99,-322.88 0.13,-297.17 0.13,-206.5 0.13,-206.5 0.13,-206.5 0.13,-137.5 0.13,-100.31 -0.39,-87.66 19.13,-56 26.71,-43.71 38.83,-33.16 49.66,-25.37"/>
<polygon fill="midnightblue" stroke="midnightblue" points="51.65,-28.25 57.96,-19.74 47.72,-22.46 51.65,-28.25"/>
</g>
<!-- Node17 -->
<g id="node17" class="node">
<title>Node17</title>
<g id="a_node17"><a xlink:title=" ">
<polygon fill="white" stroke="#bfbfbf" points="152.63,-263 152.63,-282 201.63,-282 201.63,-263 152.63,-263"/>
<text text-anchor="middle" x="177.13" y="-270" font-family="Helvetica,sans-Serif" font-size="10.00">cstddef</text>
</a>
</g>
</g>
<!-- Node15&#45;&gt;Node17 -->
<g id="edge22" class="edge">
<title>Node15&#45;&gt;Node17</title>
<path fill="none" stroke="midnightblue" d="M238.81,-324.48C227.48,-315.11 209.06,-299.88 195.29,-288.51"/>
<polygon fill="midnightblue" stroke="midnightblue" points="197.37,-285.68 187.43,-282.01 192.91,-291.08 197.37,-285.68"/>
</g>
<!-- Node18 -->
<g id="node18" class="node">
<title>Node18</title>
<g id="a_node18"><a xlink:title=" ">
<polygon fill="white" stroke="#bfbfbf" points="313.13,-0.5 313.13,-19.5 375.13,-19.5 375.13,-0.5 313.13,-0.5"/>
<text text-anchor="middle" x="344.13" y="-7.5" font-family="Helvetica,sans-Serif" font-size="10.00">type_traits</text>
</a>
</g>
</g>
<!-- Node15&#45;&gt;Node18 -->
<g id="edge23" class="edge">
<title>Node15&#45;&gt;Node18</title>
<path fill="none" stroke="midnightblue" d="M246.95,-324.48C241.96,-304.19 230.13,-251.36 230.13,-206.5 230.13,-206.5 230.13,-206.5 230.13,-137.5 230.13,-100.31 225.78,-84.95 249.13,-56 262.69,-39.19 284.02,-28.3 303.04,-21.45"/>
<polygon fill="midnightblue" stroke="midnightblue" points="304.33,-24.71 312.72,-18.23 302.12,-18.07 304.33,-24.71"/>
</g>
<!-- Node19 -->
<g id="node19" class="node">
<title>Node19</title>
<g id="a_node19"><a xlink:href="pointer-policies_8h.html" target="_top" xlink:title=" ">
<polygon fill="white" stroke="black" points="464.13,-257.5 464.13,-287.5 574.13,-287.5 574.13,-257.5 464.13,-257.5"/>
<text text-anchor="start" x="472.13" y="-275.5" font-family="Helvetica,sans-Serif" font-size="10.00">cppgc/internal/pointer</text>
<text text-anchor="middle" x="519.13" y="-264.5" font-family="Helvetica,sans-Serif" font-size="10.00">&#45;policies.h</text>
</a>
</g>
</g>
<!-- Node15&#45;&gt;Node19 -->
<g id="edge24" class="edge">
<title>Node15&#45;&gt;Node19</title>
<path fill="none" stroke="midnightblue" d="M287.81,-324.48C331.1,-314.94 401.96,-299.32 453.86,-287.88"/>
<polygon fill="midnightblue" stroke="midnightblue" points="454.63,-291.3 463.65,-285.73 453.13,-284.46 454.63,-291.3"/>
</g>
<!-- Node26 -->
<g id="node26" class="node">
<title>Node26</title>
<g id="a_node26"><a xlink:href="sentinel-pointer_8h.html" target="_top" xlink:title=" ">
<polygon fill="white" stroke="black" points="79.63,-129 79.63,-148 198.63,-148 198.63,-129 79.63,-129"/>
<text text-anchor="middle" x="139.13" y="-136" font-family="Helvetica,sans-Serif" font-size="10.00">cppgc/sentinel&#45;pointer.h</text>
</a>
</g>
</g>
<!-- Node15&#45;&gt;Node26 -->
<g id="edge50" class="edge">
<title>Node15&#45;&gt;Node26</title>
<path fill="none" stroke="midnightblue" d="M204.44,-325.41C182.48,-319.22 157.84,-308.05 144.13,-288 117.15,-248.54 126.61,-188.39 133.89,-158.18"/>
<polygon fill="midnightblue" stroke="midnightblue" points="137.37,-158.74 136.5,-148.18 130.59,-156.97 137.37,-158.74"/>
</g>
<!-- Node28 -->
<g id="node28" class="node">
<title>Node28</title>
<g id="a_node28"><a xlink:href="type-traits_8h.html" target="_top" xlink:title=" ">
<polygon fill="white" stroke="black" points="258.13,-62 258.13,-81 354.13,-81 354.13,-62 258.13,-62"/>
<text text-anchor="middle" x="306.13" y="-69" font-family="Helvetica,sans-Serif" font-size="10.00">cppgc/type&#45;traits.h</text>
</a>
</g>
</g>
<!-- Node15&#45;&gt;Node28 -->
<g id="edge51" class="edge">
<title>Node15&#45;&gt;Node28</title>
<path fill="none" stroke="midnightblue" d="M250.72,-324.15C255.97,-295.15 273.49,-200.43 292.13,-123 294.73,-112.2 298.03,-100.22 300.78,-90.64"/>
<polygon fill="midnightblue" stroke="midnightblue" points="304.14,-91.61 303.57,-81.03 297.42,-89.66 304.14,-91.61"/>
</g>
<!-- Node19&#45;&gt;Node6 -->
<g id="edge49" class="edge">
<title>Node19&#45;&gt;Node6</title>
<path fill="none" stroke="midnightblue" d="M565.98,-257.34C618.93,-239.62 705.59,-205.22 766.13,-154 787.38,-136.02 804.48,-108.35 814.22,-90.34"/>
<polygon fill="midnightblue" stroke="midnightblue" points="817.45,-91.71 818.97,-81.22 811.25,-88.47 817.45,-91.71"/>
</g>
<!-- Node19&#45;&gt;Node18 -->
<g id="edge26" class="edge">
<title>Node19&#45;&gt;Node18</title>
<path fill="none" stroke="midnightblue" d="M471.04,-257.41C424.58,-240.94 356.88,-208.72 326.13,-154 319.38,-141.99 320.77,-135.69 326.13,-123 335.06,-101.86 354.21,-108.14 363.13,-87 371.2,-67.88 362.9,-44.56 354.88,-28.83"/>
<polygon fill="midnightblue" stroke="midnightblue" points="357.73,-26.76 349.82,-19.71 351.61,-30.15 357.73,-26.76"/>
</g>
<!-- Node20 -->
<g id="node20" class="node">
<title>Node20</title>
<g id="a_node20"><a xlink:title=" ">
<polygon fill="white" stroke="#bfbfbf" points="28.13,-62 28.13,-81 74.13,-81 74.13,-62 28.13,-62"/>
<text text-anchor="middle" x="51.13" y="-69" font-family="Helvetica,sans-Serif" font-size="10.00">cstdint</text>
</a>
</g>
</g>
<!-- Node19&#45;&gt;Node20 -->
<g id="edge25" class="edge">
<title>Node19&#45;&gt;Node20</title>
<path fill="none" stroke="midnightblue" d="M463.72,-264.2C356.17,-248.9 124.86,-210.22 70.13,-154 53.93,-137.36 50.55,-109.73 50.3,-91.32"/>
<polygon fill="midnightblue" stroke="midnightblue" points="53.8,-91.28 50.46,-81.23 46.8,-91.17 53.8,-91.28"/>
</g>
<!-- Node21 -->
<g id="node21" class="node">
<title>Node21</title>
<g id="a_node21"><a xlink:href="write-barrier_8h.html" target="_top" xlink:title=" ">
<polygon fill="white" stroke="black" points="486.63,-190.5 486.63,-220.5 587.63,-220.5 587.63,-190.5 486.63,-190.5"/>
<text text-anchor="start" x="494.63" y="-208.5" font-family="Helvetica,sans-Serif" font-size="10.00">cppgc/internal/write</text>
<text text-anchor="middle" x="537.13" y="-197.5" font-family="Helvetica,sans-Serif" font-size="10.00">&#45;barrier.h</text>
</a>
</g>
</g>
<!-- Node19&#45;&gt;Node21 -->
<g id="edge27" class="edge">
<title>Node19&#45;&gt;Node21</title>
<path fill="none" stroke="midnightblue" d="M523.04,-257.4C525.23,-249.47 528.03,-239.38 530.55,-230.27"/>
<polygon fill="midnightblue" stroke="midnightblue" points="533.94,-231.15 533.23,-220.58 527.19,-229.28 533.94,-231.15"/>
</g>
<!-- Node29 -->
<g id="node29" class="node">
<title>Node29</title>
<g id="a_node29"><a xlink:href="source-location_8h.html" target="_top" xlink:title=" ">
<polygon fill="white" stroke="black" points="851.63,-129 851.63,-148 970.63,-148 970.63,-129 851.63,-129"/>
<text text-anchor="middle" x="911.13" y="-136" font-family="Helvetica,sans-Serif" font-size="10.00">cppgc/source&#45;location.h</text>
</a>
</g>
</g>
<!-- Node19&#45;&gt;Node29 -->
<g id="edge46" class="edge">
<title>Node19&#45;&gt;Node29</title>
<path fill="none" stroke="midnightblue" d="M574.22,-264.68C624.11,-257.42 699.08,-243.77 761.13,-221 809.62,-203.2 861.62,-171.86 889.87,-153.67"/>
<polygon fill="midnightblue" stroke="midnightblue" points="892.03,-156.43 898.5,-148.04 888.21,-150.57 892.03,-156.43"/>
</g>
<!-- Node21&#45;&gt;Node6 -->
<g id="edge45" class="edge">
<title>Node21&#45;&gt;Node6</title>
<path fill="none" stroke="midnightblue" d="M556.05,-190.47C586.65,-167.82 644.08,-125.47 649.13,-123 692.57,-101.7 746.63,-87.77 782.86,-80.04"/>
<polygon fill="midnightblue" stroke="midnightblue" points="783.96,-83.38 793.04,-77.93 782.54,-76.53 783.96,-83.38"/>
</g>
<!-- Node22 -->
<g id="node22" class="node">
<title>Node22</title>
<g id="a_node22"><a xlink:href="heap-state_8h.html" target="_top" xlink:title=" ">
<polygon fill="white" stroke="black" points="657.63,-129 657.63,-148 756.63,-148 756.63,-129 657.63,-129"/>
<text text-anchor="middle" x="707.13" y="-136" font-family="Helvetica,sans-Serif" font-size="10.00">cppgc/heap&#45;state.h</text>
</a>
</g>
</g>
<!-- Node21&#45;&gt;Node22 -->
<g id="edge28" class="edge">
<title>Node21&#45;&gt;Node22</title>
<path fill="none" stroke="midnightblue" d="M574.02,-190.4C604.24,-178.84 646.57,-162.66 675.32,-151.66"/>
<polygon fill="midnightblue" stroke="midnightblue" points="676.79,-154.85 684.88,-148.01 674.29,-148.31 676.79,-154.85"/>
</g>
<!-- Node23 -->
<g id="node23" class="node">
<title>Node23</title>
<g id="a_node23"><a xlink:href="api-constants_8h.html" target="_top" xlink:title=" ">
<polygon fill="white" stroke="black" points="1103.63,-123.5 1103.63,-153.5 1196.63,-153.5 1196.63,-123.5 1103.63,-123.5"/>
<text text-anchor="start" x="1111.63" y="-141.5" font-family="Helvetica,sans-Serif" font-size="10.00">cppgc/internal/api</text>
<text text-anchor="middle" x="1150.13" y="-130.5" font-family="Helvetica,sans-Serif" font-size="10.00">&#45;constants.h</text>
</a>
</g>
</g>
<!-- Node21&#45;&gt;Node23 -->
<g id="edge30" class="edge">
<title>Node21&#45;&gt;Node23</title>
<path fill="none" stroke="midnightblue" d="M587.82,-199.13C701.26,-187.1 974.94,-158.08 1093.64,-145.49"/>
<polygon fill="midnightblue" stroke="midnightblue" points="1094.04,-148.97 1103.61,-144.43 1093.3,-142.01 1094.04,-148.97"/>
</g>
<!-- Node24 -->
<g id="node24" class="node">
<title>Node24</title>
<g id="a_node24"><a xlink:href="process-heap_8h.html" target="_top" xlink:title=" ">
<polygon fill="white" stroke="black" points="447.63,-123.5 447.63,-153.5 562.63,-153.5 562.63,-123.5 447.63,-123.5"/>
<text text-anchor="start" x="455.63" y="-141.5" font-family="Helvetica,sans-Serif" font-size="10.00">cppgc/internal/process</text>
<text text-anchor="middle" x="505.13" y="-130.5" font-family="Helvetica,sans-Serif" font-size="10.00">&#45;heap.h</text>
</a>
</g>
</g>
<!-- Node21&#45;&gt;Node24 -->
<g id="edge34" class="edge">
<title>Node21&#45;&gt;Node24</title>
<path fill="none" stroke="midnightblue" d="M530.19,-190.4C526.2,-182.3 521.1,-171.94 516.54,-162.69"/>
<polygon fill="midnightblue" stroke="midnightblue" points="519.62,-161 512.06,-153.58 513.34,-164.09 519.62,-161"/>
</g>
<!-- Node21&#45;&gt;Node26 -->
<g id="edge38" class="edge">
<title>Node21&#45;&gt;Node26</title>
<path fill="none" stroke="midnightblue" d="M486.32,-196.2C413.62,-184.33 280.04,-162.51 201.46,-149.68"/>
<polygon fill="midnightblue" stroke="midnightblue" points="201.65,-146.16 191.22,-148.01 200.52,-153.07 201.65,-146.16"/>
</g>
<!-- Node21&#45;&gt;Node27 -->
<g id="edge40" class="edge">
<title>Node21&#45;&gt;Node27</title>
<path fill="none" stroke="midnightblue" d="M503.5,-190.4C476.18,-178.94 438.02,-162.94 411.82,-151.95"/>
<polygon fill="midnightblue" stroke="midnightblue" points="412.99,-148.65 402.42,-148.01 410.28,-155.1 412.99,-148.65"/>
</g>
<!-- Node22&#45;&gt;Node6 -->
<g id="edge29" class="edge">
<title>Node22&#45;&gt;Node6</title>
<path fill="none" stroke="midnightblue" d="M722.77,-128.73C742.34,-117.77 776.05,-98.88 798.95,-86.05"/>
<polygon fill="midnightblue" stroke="midnightblue" points="800.72,-89.07 807.73,-81.13 797.3,-82.96 800.72,-89.07"/>
</g>
<!-- Node23&#45;&gt;Node6 -->
<g id="edge33" class="edge">
<title>Node23&#45;&gt;Node6</title>
<path fill="none" stroke="midnightblue" d="M1103.55,-126.2C1098.69,-125.09 1093.81,-124 1089.13,-123 1009.19,-105.92 915.11,-88.74 862.99,-79.48"/>
<polygon fill="midnightblue" stroke="midnightblue" points="863.6,-76.03 853.14,-77.74 862.38,-82.93 863.6,-76.03"/>
</g>
<!-- Node23&#45;&gt;Node8 -->
<g id="edge31" class="edge">
<title>Node23&#45;&gt;Node8</title>
<path fill="none" stroke="midnightblue" d="M1182.24,-123.4C1208.21,-111.99 1244.44,-96.08 1269.45,-85.1"/>
<polygon fill="midnightblue" stroke="midnightblue" points="1271.01,-88.23 1278.76,-81.01 1268.2,-81.82 1271.01,-88.23"/>
</g>
<!-- Node23&#45;&gt;Node11 -->
<g id="edge32" class="edge">
<title>Node23&#45;&gt;Node11</title>
<path fill="none" stroke="midnightblue" d="M1150.78,-123.4C1151.22,-113.96 1151.79,-101.45 1152.27,-91.19"/>
<polygon fill="midnightblue" stroke="midnightblue" points="1155.76,-91.35 1152.73,-81.19 1148.77,-91.02 1155.76,-91.35"/>
</g>
<!-- Node24&#45;&gt;Node6 -->
<g id="edge37" class="edge">
<title>Node24&#45;&gt;Node6</title>
<path fill="none" stroke="midnightblue" d="M562.72,-125.73C626.41,-112.71 727.36,-92.08 783.01,-80.7"/>
<polygon fill="midnightblue" stroke="midnightblue" points="783.76,-84.12 792.86,-78.69 782.36,-77.26 783.76,-84.12"/>
</g>
<!-- Node25 -->
<g id="node25" class="node">
<title>Node25</title>
<g id="a_node25"><a xlink:href="atomic-entry-flag_8h.html" target="_top" xlink:title=" ">
<polygon fill="white" stroke="black" points="92.13,-56.5 92.13,-86.5 202.13,-86.5 202.13,-56.5 92.13,-56.5"/>
<text text-anchor="start" x="100.13" y="-74.5" font-family="Helvetica,sans-Serif" font-size="10.00">cppgc/internal/atomic</text>
<text text-anchor="middle" x="147.13" y="-63.5" font-family="Helvetica,sans-Serif" font-size="10.00">&#45;entry&#45;flag.h</text>
</a>
</g>
</g>
<!-- Node24&#45;&gt;Node25 -->
<g id="edge35" class="edge">
<title>Node24&#45;&gt;Node25</title>
<path fill="none" stroke="midnightblue" d="M447.57,-124.69C444.72,-124.11 441.89,-123.54 439.13,-123 361.34,-107.74 271.41,-92.55 212.13,-82.88"/>
<polygon fill="midnightblue" stroke="midnightblue" points="212.59,-79.41 202.16,-81.26 211.47,-86.32 212.59,-79.41"/>
</g>
<!-- Node25&#45;&gt;Node16 -->
<g id="edge36" class="edge">
<title>Node25&#45;&gt;Node16</title>
<path fill="none" stroke="midnightblue" d="M129.59,-56.4C118.29,-47.31 103.59,-35.49 92.02,-26.19"/>
<polygon fill="midnightblue" stroke="midnightblue" points="93.88,-23.2 83.9,-19.66 89.5,-28.65 93.88,-23.2"/>
</g>
<!-- Node26&#45;&gt;Node20 -->
<g id="edge39" class="edge">
<title>Node26&#45;&gt;Node20</title>
<path fill="none" stroke="midnightblue" d="M127.26,-128.73C112.88,-118.11 88.43,-100.05 71.12,-87.26"/>
<polygon fill="midnightblue" stroke="midnightblue" points="72.93,-84.25 62.81,-81.13 68.77,-89.88 72.93,-84.25"/>
</g>
<!-- Node27&#45;&gt;Node6 -->
<g id="edge44" class="edge">
<title>Node27&#45;&gt;Node6</title>
<path fill="none" stroke="midnightblue" d="M413.04,-128.93C421.46,-126.79 430.61,-124.64 439.13,-123 563.49,-99.09 712.7,-83.03 782.89,-76.21"/>
<polygon fill="midnightblue" stroke="midnightblue" points="783.44,-79.67 793.06,-75.23 782.77,-72.7 783.44,-79.67"/>
</g>
<!-- Node27&#45;&gt;Node18 -->
<g id="edge41" class="edge">
<title>Node27&#45;&gt;Node18</title>
<path fill="none" stroke="midnightblue" d="M386.7,-128.99C394.27,-113.69 407.47,-80.81 396.13,-56 390.35,-43.36 379.08,-32.91 368.5,-25.27"/>
<polygon fill="midnightblue" stroke="midnightblue" points="370.17,-22.18 359.91,-19.53 366.28,-28 370.17,-22.18"/>
</g>
<!-- Node27&#45;&gt;Node28 -->
<g id="edge42" class="edge">
<title>Node27&#45;&gt;Node28</title>
<path fill="none" stroke="midnightblue" d="M371.88,-128.73C359.69,-118.31 339.11,-100.71 324.22,-87.97"/>
<polygon fill="midnightblue" stroke="midnightblue" points="326.09,-84.97 316.22,-81.13 321.54,-90.29 326.09,-84.97"/>
</g>
<!-- Node28&#45;&gt;Node18 -->
<g id="edge43" class="edge">
<title>Node28&#45;&gt;Node18</title>
<path fill="none" stroke="midnightblue" d="M311.57,-61.98C317.22,-53.14 326.19,-39.09 333.29,-27.98"/>
<polygon fill="midnightblue" stroke="midnightblue" points="336.26,-29.82 338.7,-19.51 330.36,-26.05 336.26,-29.82"/>
</g>
<!-- Node29&#45;&gt;Node6 -->
<g id="edge48" class="edge">
<title>Node29&#45;&gt;Node6</title>
<path fill="none" stroke="midnightblue" d="M899.26,-128.73C884.88,-118.11 860.43,-100.05 843.12,-87.26"/>
<polygon fill="midnightblue" stroke="midnightblue" points="844.93,-84.25 834.81,-81.13 840.77,-89.88 844.93,-84.25"/>
</g>
<!-- Node29&#45;&gt;Node13 -->
<g id="edge47" class="edge">
<title>Node29&#45;&gt;Node13</title>
<path fill="none" stroke="midnightblue" d="M923.13,-128.73C937.68,-118.11 962.41,-100.05 979.91,-87.26"/>
<polygon fill="midnightblue" stroke="midnightblue" points="982.31,-89.85 988.32,-81.13 978.18,-84.2 982.31,-89.85"/>
</g>
</g>
</svg>
