<?xml version="1.0" encoding="UTF-8" standalone="no"?>
<!DOCTYPE svg PUBLIC "-//W3C//DTD SVG 1.1//EN"
 "http://www.w3.org/Graphics/SVG/1.1/DTD/svg11.dtd">
<!-- Generated by graphviz version 2.44.0 ()
 -->
<!-- Title: cppgc::HeapStatistics Pages: 1 -->
<svg width="1461pt" height="266pt"
 viewBox="0.00 0.00 1461.00 265.64" xmlns="http://www.w3.org/2000/svg" xmlns:xlink="http://www.w3.org/1999/xlink">
<g id="graph0" class="graph" transform="scale(1 1) rotate(0) translate(4 261.64)">
<title>cppgc::HeapStatistics</title>
<polygon fill="white" stroke="transparent" points="-4,4 -4,-261.64 1457,-261.64 1457,4 -4,4"/>
<!-- Node1 -->
<g id="node1" class="node">
<title>Node1</title>
<g id="a_node1"><a xlink:title=" ">
<polygon fill="#bfbfbf" stroke="black" points="1341,-150.64 1341,-169.64 1453,-169.64 1453,-150.64 1341,-150.64"/>
<text text-anchor="middle" x="1397" y="-157.64" font-family="Helvetica,sans-Serif" font-size="10.00">cppgc::HeapStatistics</text>
</a>
</g>
</g>
<!-- Node2 -->
<g id="node2" class="node">
<title>Node2</title>
<g id="a_node2"><a xlink:title=" ">
<polygon fill="white" stroke="#bfbfbf" points="1082,-145.14 1082,-175.14 1249,-175.14 1249,-145.14 1082,-145.14"/>
<text text-anchor="start" x="1090" y="-163.14" font-family="Helvetica,sans-Serif" font-size="10.00">std::vector&lt; cppgc</text>
<text text-anchor="middle" x="1165.5" y="-152.14" font-family="Helvetica,sans-Serif" font-size="10.00">::HeapStatistics::SpaceStatistics &gt;</text>
</a>
</g>
</g>
<!-- Node2&#45;&gt;Node1 -->
<g id="edge1" class="edge">
<title>Node2&#45;&gt;Node1</title>
<path fill="none" stroke="#9a32cd" stroke-dasharray="5,2" d="M1259.13,-160.14C1286.79,-160.14 1316.24,-160.14 1340.71,-160.14"/>
<polygon fill="#9a32cd" stroke="#9a32cd" points="1259.03,-156.64 1249.03,-160.14 1259.03,-163.64 1259.03,-156.64"/>
<text text-anchor="middle" x="1295" y="-163.14" font-family="Helvetica,sans-Serif" font-size="10.00"> space_stats</text>
</g>
<!-- Node3 -->
<g id="node3" class="node">
<title>Node3</title>
<g id="a_node3"><a xlink:href="structcppgc_1_1HeapStatistics_1_1SpaceStatistics.html" target="_top" xlink:title=" ">
<polygon fill="white" stroke="black" points="891,-95.14 891,-125.14 1003,-125.14 1003,-95.14 891,-95.14"/>
<text text-anchor="start" x="899" y="-113.14" font-family="Helvetica,sans-Serif" font-size="10.00">cppgc::HeapStatistics</text>
<text text-anchor="middle" x="947" y="-102.14" font-family="Helvetica,sans-Serif" font-size="10.00">::SpaceStatistics</text>
</a>
</g>
</g>
<!-- Node3&#45;&gt;Node2 -->
<g id="edge2" class="edge">
<title>Node3&#45;&gt;Node2</title>
<path fill="none" stroke="#9a32cd" stroke-dasharray="5,2" d="M1013.04,-125.16C1040.36,-131.47 1072.08,-138.8 1099.4,-145.11"/>
<polygon fill="#9a32cd" stroke="#9a32cd" points="1013.72,-121.73 1003.19,-122.89 1012.15,-128.55 1013.72,-121.73"/>
<text text-anchor="middle" x="1042.5" y="-139.14" font-family="Helvetica,sans-Serif" font-size="10.00"> elements</text>
</g>
<!-- Node4 -->
<g id="node4" class="node">
<title>Node4</title>
<g id="a_node4"><a xlink:href="structcppgc_1_1HeapStatistics_1_1FreeListStatistics.html" target="_top" xlink:title=" ">
<polygon fill="white" stroke="black" points="679,-95.14 679,-125.14 791,-125.14 791,-95.14 679,-95.14"/>
<text text-anchor="start" x="687" y="-113.14" font-family="Helvetica,sans-Serif" font-size="10.00">cppgc::HeapStatistics</text>
<text text-anchor="middle" x="735" y="-102.14" font-family="Helvetica,sans-Serif" font-size="10.00">::FreeListStatistics</text>
</a>
</g>
</g>
<!-- Node4&#45;&gt;Node3 -->
<g id="edge3" class="edge">
<title>Node4&#45;&gt;Node3</title>
<path fill="none" stroke="#9a32cd" stroke-dasharray="5,2" d="M801.51,-110.14C830.18,-110.14 863.45,-110.14 890.83,-110.14"/>
<polygon fill="#9a32cd" stroke="#9a32cd" points="801.18,-106.64 791.18,-110.14 801.17,-113.64 801.18,-106.64"/>
<text text-anchor="middle" x="841" y="-113.14" font-family="Helvetica,sans-Serif" font-size="10.00"> free_list_stats</text>
</g>
<!-- Node5 -->
<g id="node5" class="node">
<title>Node5</title>
<g id="a_node5"><a xlink:title=" ">
<polygon fill="white" stroke="#bfbfbf" points="455,-104.64 455,-123.64 559,-123.64 559,-104.64 455,-104.64"/>
<text text-anchor="middle" x="507" y="-111.64" font-family="Helvetica,sans-Serif" font-size="10.00">std::vector&lt; size_t &gt;</text>
</a>
</g>
</g>
<!-- Node5&#45;&gt;Node4 -->
<g id="edge4" class="edge">
<title>Node5&#45;&gt;Node4</title>
<path fill="none" stroke="#9a32cd" stroke-dasharray="5,2" d="M569.33,-113.06C603.5,-112.45 645.71,-111.7 678.84,-111.12"/>
<polygon fill="#9a32cd" stroke="#9a32cd" points="568.94,-109.56 559,-113.24 569.06,-116.56 568.94,-109.56"/>
<text text-anchor="middle" x="633.5" y="-137.14" font-family="Helvetica,sans-Serif" font-size="10.00"> bucket_size</text>
<text text-anchor="middle" x="633.5" y="-126.14" font-family="Helvetica,sans-Serif" font-size="10.00">free_count</text>
<text text-anchor="middle" x="633.5" y="-115.14" font-family="Helvetica,sans-Serif" font-size="10.00">free_size</text>
</g>
<!-- Node12 -->
<g id="node12" class="node">
<title>Node12</title>
<g id="a_node12"><a xlink:href="structcppgc_1_1HeapStatistics_1_1ObjectStatistics.html" target="_top" xlink:title=" ">
<polygon fill="white" stroke="black" points="679,-46.14 679,-76.14 791,-76.14 791,-46.14 679,-46.14"/>
<text text-anchor="start" x="687" y="-64.14" font-family="Helvetica,sans-Serif" font-size="10.00">cppgc::HeapStatistics</text>
<text text-anchor="middle" x="735" y="-53.14" font-family="Helvetica,sans-Serif" font-size="10.00">::ObjectStatistics</text>
</a>
</g>
</g>
<!-- Node5&#45;&gt;Node12 -->
<g id="edge13" class="edge">
<title>Node5&#45;&gt;Node12</title>
<path fill="none" stroke="#9a32cd" stroke-dasharray="5,2" d="M547.4,-101.48C565.19,-96.03 586.53,-89.83 606,-85.14 629.74,-79.42 656.23,-74.25 678.92,-70.19"/>
<polygon fill="#9a32cd" stroke="#9a32cd" points="545.89,-98.28 537.38,-104.59 547.97,-104.97 545.89,-98.28"/>
<text text-anchor="middle" x="633.5" y="-99.14" font-family="Helvetica,sans-Serif" font-size="10.00"> type_bytes</text>
<text text-anchor="middle" x="633.5" y="-88.14" font-family="Helvetica,sans-Serif" font-size="10.00">type_count</text>
</g>
<!-- Node6 -->
<g id="node6" class="node">
<title>Node6</title>
<g id="a_node6"><a xlink:title=" ">
<polygon fill="white" stroke="#bfbfbf" points="186,-128.64 186,-147.64 270,-147.64 270,-128.64 186,-128.64"/>
<text text-anchor="middle" x="228" y="-135.64" font-family="Helvetica,sans-Serif" font-size="10.00">std::vector&lt; T &gt;</text>
</a>
</g>
</g>
<!-- Node6&#45;&gt;Node2 -->
<g id="edge17" class="edge">
<title>Node6&#45;&gt;Node2</title>
<path fill="none" stroke="orange" stroke-dasharray="5,2" d="M251.31,-153.05C265.3,-161.71 284.03,-172.07 302,-178.14 388.88,-207.52 414.29,-209.14 506,-209.14 506,-209.14 506,-209.14 948,-209.14 1010.24,-209.14 1080.11,-189.64 1123.22,-175.24"/>
<polygon fill="orange" stroke="orange" points="253.17,-150.09 242.86,-147.67 249.41,-156 253.17,-150.09"/>
<text text-anchor="start" x="682" y="-223.14" font-family="Helvetica,sans-Serif" font-size="10.00"> &lt; cppgc::HeapStatistics</text>
<text text-anchor="middle" x="735" y="-212.14" font-family="Helvetica,sans-Serif" font-size="10.00">::SpaceStatistics &gt;</text>
</g>
<!-- Node6&#45;&gt;Node5 -->
<g id="edge5" class="edge">
<title>Node6&#45;&gt;Node5</title>
<path fill="none" stroke="orange" stroke-dasharray="5,2" d="M280.33,-129.01C287.59,-127.93 294.97,-126.92 302,-126.14 353.83,-120.37 413.4,-117.27 454.73,-115.68"/>
<polygon fill="orange" stroke="orange" points="279.54,-125.6 270.2,-130.6 280.63,-132.51 279.54,-125.6"/>
<text text-anchor="middle" x="355" y="-129.14" font-family="Helvetica,sans-Serif" font-size="10.00"> &lt; size_t &gt;</text>
</g>
<!-- Node8 -->
<g id="node8" class="node">
<title>Node8</title>
<g id="a_node8"><a xlink:title=" ">
<polygon fill="white" stroke="#bfbfbf" points="426,-147.14 426,-177.14 588,-177.14 588,-147.14 426,-147.14"/>
<text text-anchor="start" x="434" y="-165.14" font-family="Helvetica,sans-Serif" font-size="10.00">std::vector&lt; cppgc</text>
<text text-anchor="middle" x="507" y="-154.14" font-family="Helvetica,sans-Serif" font-size="10.00">::HeapStatistics::PageStatistics &gt;</text>
</a>
</g>
</g>
<!-- Node6&#45;&gt;Node8 -->
<g id="edge9" class="edge">
<title>Node6&#45;&gt;Node8</title>
<path fill="none" stroke="orange" stroke-dasharray="5,2" d="M280.16,-142.58C320.98,-146.11 378.9,-151.13 425.87,-155.2"/>
<polygon fill="orange" stroke="orange" points="280.44,-139.09 270.17,-141.71 279.83,-146.06 280.44,-139.09"/>
<text text-anchor="start" x="302" y="-166.14" font-family="Helvetica,sans-Serif" font-size="10.00"> &lt; cppgc::HeapStatistics</text>
<text text-anchor="middle" x="355" y="-155.14" font-family="Helvetica,sans-Serif" font-size="10.00">::PageStatistics &gt;</text>
</g>
<!-- Node13 -->
<g id="node13" class="node">
<title>Node13</title>
<g id="a_node13"><a xlink:title=" ">
<polygon fill="white" stroke="#bfbfbf" points="447,-29.64 447,-48.64 567,-48.64 567,-29.64 447,-29.64"/>
<text text-anchor="middle" x="507" y="-36.64" font-family="Helvetica,sans-Serif" font-size="10.00">std::vector&lt; std::string &gt;</text>
</a>
</g>
</g>
<!-- Node6&#45;&gt;Node13 -->
<g id="edge16" class="edge">
<title>Node6&#45;&gt;Node13</title>
<path fill="none" stroke="orange" stroke-dasharray="5,2" d="M255.22,-123.95C268.92,-116.86 286.11,-108.47 302,-102.14 359,-79.45 427.56,-59.77 468.91,-48.69"/>
<polygon fill="orange" stroke="orange" points="253.57,-120.86 246.35,-128.61 256.83,-127.06 253.57,-120.86"/>
<text text-anchor="middle" x="355" y="-105.14" font-family="Helvetica,sans-Serif" font-size="10.00"> &lt; std::string &gt;</text>
</g>
<!-- Node7 -->
<g id="node7" class="node">
<title>Node7</title>
<g id="a_node7"><a xlink:title=" ">
<polygon fill="white" stroke="#bfbfbf" points="32,-128.64 32,-147.64 61,-147.64 61,-128.64 32,-128.64"/>
<text text-anchor="middle" x="46.5" y="-135.64" font-family="Helvetica,sans-Serif" font-size="10.00">T</text>
</a>
</g>
</g>
<!-- Node7&#45;&gt;Node6 -->
<g id="edge6" class="edge">
<title>Node7&#45;&gt;Node6</title>
<path fill="none" stroke="#9a32cd" stroke-dasharray="5,2" d="M71.37,-138.14C100.5,-138.14 150.24,-138.14 185.65,-138.14"/>
<polygon fill="#9a32cd" stroke="#9a32cd" points="71.29,-134.64 61.29,-138.14 71.29,-141.64 71.29,-134.64"/>
<text text-anchor="middle" x="132.5" y="-141.14" font-family="Helvetica,sans-Serif" font-size="10.00"> elements</text>
</g>
<!-- Node8&#45;&gt;Node3 -->
<g id="edge7" class="edge">
<title>Node8&#45;&gt;Node3</title>
<path fill="none" stroke="#9a32cd" stroke-dasharray="5,2" d="M598.35,-156.07C672.46,-150.34 779.95,-140.35 873,-125.14 878.75,-124.2 884.73,-123.13 890.68,-122"/>
<polygon fill="#9a32cd" stroke="#9a32cd" points="597.82,-152.6 588.12,-156.84 598.35,-159.58 597.82,-152.6"/>
<text text-anchor="middle" x="735" y="-151.14" font-family="Helvetica,sans-Serif" font-size="10.00"> page_stats</text>
</g>
<!-- Node9 -->
<g id="node9" class="node">
<title>Node9</title>
<g id="a_node9"><a xlink:href="structcppgc_1_1HeapStatistics_1_1PageStatistics.html" target="_top" xlink:title=" ">
<polygon fill="white" stroke="black" points="172,-227.14 172,-257.14 284,-257.14 284,-227.14 172,-227.14"/>
<text text-anchor="start" x="180" y="-245.14" font-family="Helvetica,sans-Serif" font-size="10.00">cppgc::HeapStatistics</text>
<text text-anchor="middle" x="228" y="-234.14" font-family="Helvetica,sans-Serif" font-size="10.00">::PageStatistics</text>
</a>
</g>
</g>
<!-- Node9&#45;&gt;Node8 -->
<g id="edge8" class="edge">
<title>Node9&#45;&gt;Node8</title>
<path fill="none" stroke="#9a32cd" stroke-dasharray="5,2" d="M290.94,-224.25C339.87,-210.12 407.4,-190.62 453.66,-177.26"/>
<polygon fill="#9a32cd" stroke="#9a32cd" points="289.74,-220.96 281.1,-227.09 291.68,-227.68 289.74,-220.96"/>
<text text-anchor="middle" x="355" y="-223.14" font-family="Helvetica,sans-Serif" font-size="10.00"> elements</text>
</g>
<!-- Node10 -->
<g id="node10" class="node">
<title>Node10</title>
<g id="a_node10"><a xlink:title=" ">
<polygon fill="white" stroke="#bfbfbf" points="198.5,-9.64 198.5,-28.64 257.5,-28.64 257.5,-9.64 198.5,-9.64"/>
<text text-anchor="middle" x="228" y="-16.64" font-family="Helvetica,sans-Serif" font-size="10.00">std::string</text>
</a>
</g>
</g>
<!-- Node10&#45;&gt;Node3 -->
<g id="edge10" class="edge">
<title>Node10&#45;&gt;Node3</title>
<path fill="none" stroke="#9a32cd" stroke-dasharray="5,2" d="M267.62,-13.8C360.26,-2.38 601.53,19.04 791,-37.14 838.77,-51.31 890.38,-78.19 920.36,-95.08"/>
<polygon fill="#9a32cd" stroke="#9a32cd" points="267.06,-10.34 257.58,-15.07 267.94,-17.29 267.06,-10.34"/>
<text text-anchor="middle" x="633.5" y="-13.14" font-family="Helvetica,sans-Serif" font-size="10.00"> name</text>
</g>
<!-- Node10&#45;&gt;Node13 -->
<g id="edge15" class="edge">
<title>Node10&#45;&gt;Node13</title>
<path fill="none" stroke="#9a32cd" stroke-dasharray="5,2" d="M267.58,-21.93C314.08,-25.28 392.71,-30.96 446.88,-34.87"/>
<polygon fill="#9a32cd" stroke="#9a32cd" points="267.83,-18.44 257.6,-21.21 267.32,-25.42 267.83,-18.44"/>
<text text-anchor="middle" x="355" y="-35.14" font-family="Helvetica,sans-Serif" font-size="10.00"> elements</text>
</g>
<!-- Node11 -->
<g id="node11" class="node">
<title>Node11</title>
<g id="a_node11"><a xlink:title=" ">
<polygon fill="white" stroke="#bfbfbf" points="0,-4.14 0,-34.14 93,-34.14 93,-4.14 0,-4.14"/>
<text text-anchor="start" x="8" y="-22.14" font-family="Helvetica,sans-Serif" font-size="10.00">std::basic_string&lt;</text>
<text text-anchor="middle" x="46.5" y="-11.14" font-family="Helvetica,sans-Serif" font-size="10.00"> Char &gt;</text>
</a>
</g>
</g>
<!-- Node11&#45;&gt;Node10 -->
<g id="edge11" class="edge">
<title>Node11&#45;&gt;Node10</title>
<path fill="none" stroke="midnightblue" d="M103.66,-19.14C135.12,-19.14 173.03,-19.14 198.44,-19.14"/>
<polygon fill="midnightblue" stroke="midnightblue" points="103.26,-15.64 93.26,-19.14 103.26,-22.64 103.26,-15.64"/>
</g>
<!-- Node12&#45;&gt;Node3 -->
<g id="edge12" class="edge">
<title>Node12&#45;&gt;Node3</title>
<path fill="none" stroke="#9a32cd" stroke-dasharray="5,2" d="M801.13,-76.34C829.89,-83.05 863.33,-90.85 890.83,-97.27"/>
<polygon fill="#9a32cd" stroke="#9a32cd" points="801.71,-72.88 791.18,-74.02 800.12,-79.7 801.71,-72.88"/>
<text text-anchor="middle" x="841" y="-95.14" font-family="Helvetica,sans-Serif" font-size="10.00"> object_stats</text>
</g>
<!-- Node13&#45;&gt;Node12 -->
<g id="edge14" class="edge">
<title>Node13&#45;&gt;Node12</title>
<path fill="none" stroke="#9a32cd" stroke-dasharray="5,2" d="M577.48,-32.4C603.8,-31.25 633.93,-31.64 661,-36.14 673.29,-38.19 686.28,-42.05 697.85,-46.13"/>
<polygon fill="#9a32cd" stroke="#9a32cd" points="577.02,-28.92 567.22,-32.93 577.39,-35.91 577.02,-28.92"/>
<text text-anchor="middle" x="633.5" y="-39.14" font-family="Helvetica,sans-Serif" font-size="10.00"> type_name</text>
</g>
</g>
</svg>
