<?xml version="1.0" encoding="UTF-8" standalone="no"?>
<!DOCTYPE svg PUBLIC "-//W3C//DTD SVG 1.1//EN"
 "http://www.w3.org/Graphics/SVG/1.1/DTD/svg11.dtd">
<!-- Generated by graphviz version 2.44.0 ()
 -->
<!-- Title: cppgc::HeapStatistics::FreeListStatistics Pages: 1 -->
<svg width="120pt" height="262pt"
 viewBox="0.00 0.00 120.00 262.00" xmlns="http://www.w3.org/2000/svg" xmlns:xlink="http://www.w3.org/1999/xlink">
<g id="graph0" class="graph" transform="scale(1 1) rotate(0) translate(4 258)">
<title>cppgc::HeapStatistics::FreeListStatistics</title>
<polygon fill="white" stroke="transparent" points="-4,4 -4,-258 116,-258 116,4 -4,4"/>
<!-- Node1 -->
<g id="node1" class="node">
<title>Node1</title>
<g id="a_node1"><a xlink:title=" ">
<polygon fill="#bfbfbf" stroke="black" points="0,-0.5 0,-30.5 112,-30.5 112,-0.5 0,-0.5"/>
<text text-anchor="start" x="8" y="-18.5" font-family="Helvetica,sans-Serif" font-size="10.00">cppgc::HeapStatistics</text>
<text text-anchor="middle" x="56" y="-7.5" font-family="Helvetica,sans-Serif" font-size="10.00">::FreeListStatistics</text>
</a>
</g>
</g>
<!-- Node2 -->
<g id="node2" class="node">
<title>Node2</title>
<g id="a_node2"><a xlink:title=" ">
<polygon fill="white" stroke="#bfbfbf" points="4,-100.5 4,-119.5 108,-119.5 108,-100.5 4,-100.5"/>
<text text-anchor="middle" x="56" y="-107.5" font-family="Helvetica,sans-Serif" font-size="10.00">std::vector&lt; size_t &gt;</text>
</a>
</g>
</g>
<!-- Node2&#45;&gt;Node1 -->
<g id="edge1" class="edge">
<title>Node2&#45;&gt;Node1</title>
<path fill="none" stroke="#9a32cd" stroke-dasharray="5,2" d="M56,-90.29C56,-72.67 56,-46.67 56,-30.7"/>
<polygon fill="#9a32cd" stroke="#9a32cd" points="52.5,-90.46 56,-100.46 59.5,-90.46 52.5,-90.46"/>
<text text-anchor="middle" x="83.5" y="-74" font-family="Helvetica,sans-Serif" font-size="10.00"> bucket_size</text>
<text text-anchor="middle" x="83.5" y="-63" font-family="Helvetica,sans-Serif" font-size="10.00">free_count</text>
<text text-anchor="middle" x="83.5" y="-52" font-family="Helvetica,sans-Serif" font-size="10.00">free_size</text>
</g>
<!-- Node3 -->
<g id="node3" class="node">
<title>Node3</title>
<g id="a_node3"><a xlink:title=" ">
<polygon fill="white" stroke="#bfbfbf" points="14,-167.5 14,-186.5 98,-186.5 98,-167.5 14,-167.5"/>
<text text-anchor="middle" x="56" y="-174.5" font-family="Helvetica,sans-Serif" font-size="10.00">std::vector&lt; T &gt;</text>
</a>
</g>
</g>
<!-- Node3&#45;&gt;Node2 -->
<g id="edge2" class="edge">
<title>Node3&#45;&gt;Node2</title>
<path fill="none" stroke="orange" stroke-dasharray="5,2" d="M56,-157.04C56,-144.67 56,-129.12 56,-119.63"/>
<polygon fill="orange" stroke="orange" points="52.5,-157.23 56,-167.23 59.5,-157.23 52.5,-157.23"/>
<text text-anchor="middle" x="78.5" y="-141" font-family="Helvetica,sans-Serif" font-size="10.00"> &lt; size_t &gt;</text>
</g>
<!-- Node4 -->
<g id="node4" class="node">
<title>Node4</title>
<g id="a_node4"><a xlink:title=" ">
<polygon fill="white" stroke="#bfbfbf" points="41.5,-234.5 41.5,-253.5 70.5,-253.5 70.5,-234.5 41.5,-234.5"/>
<text text-anchor="middle" x="56" y="-241.5" font-family="Helvetica,sans-Serif" font-size="10.00">T</text>
</a>
</g>
</g>
<!-- Node4&#45;&gt;Node3 -->
<g id="edge3" class="edge">
<title>Node4&#45;&gt;Node3</title>
<path fill="none" stroke="#9a32cd" stroke-dasharray="5,2" d="M56,-224.04C56,-211.67 56,-196.12 56,-186.63"/>
<polygon fill="#9a32cd" stroke="#9a32cd" points="52.5,-224.23 56,-234.23 59.5,-224.23 52.5,-224.23"/>
<text text-anchor="middle" x="77.5" y="-208" font-family="Helvetica,sans-Serif" font-size="10.00"> elements</text>
</g>
</g>
</svg>
