<?xml version="1.0" encoding="UTF-8" standalone="no"?>
<!DOCTYPE svg PUBLIC "-//W3C//DTD SVG 1.1//EN"
 "http://www.w3.org/Graphics/SVG/1.1/DTD/svg11.dtd">
<!-- Generated by graphviz version 2.44.0 ()
 -->
<!-- Title: v8::Isolate::CreateParams Pages: 1 -->
<svg width="939pt" height="381pt"
 viewBox="0.00 0.00 939.00 381.00" xmlns="http://www.w3.org/2000/svg" xmlns:xlink="http://www.w3.org/1999/xlink">
<g id="graph0" class="graph" transform="scale(1 1) rotate(0) translate(4 377)">
<title>v8::Isolate::CreateParams</title>
<polygon fill="white" stroke="transparent" points="-4,4 -4,-377 935,-377 935,4 -4,4"/>
<!-- Node1 -->
<g id="node1" class="node">
<title>Node1</title>
<g id="a_node1"><a xlink:title=" ">
<polygon fill="#bfbfbf" stroke="black" points="803,-249.5 803,-268.5 931,-268.5 931,-249.5 803,-249.5"/>
<text text-anchor="middle" x="867" y="-256.5" font-family="Helvetica,sans-Serif" font-size="10.00">v8::Isolate::CreateParams</text>
</a>
</g>
</g>
<!-- Node2 -->
<g id="node2" class="node">
<title>Node2</title>
<g id="a_node2"><a xlink:href="classv8_1_1ArrayBuffer_1_1Allocator.html" target="_top" xlink:title=" ">
<polygon fill="white" stroke="black" points="517,-352.5 517,-371.5 639,-371.5 639,-352.5 517,-352.5"/>
<text text-anchor="middle" x="578" y="-359.5" font-family="Helvetica,sans-Serif" font-size="10.00">v8::ArrayBuffer::Allocator</text>
</a>
</g>
</g>
<!-- Node2&#45;&gt;Node1 -->
<g id="edge1" class="edge">
<title>Node2&#45;&gt;Node1</title>
<path fill="none" stroke="#9a32cd" stroke-dasharray="5,2" d="M649.68,-363.35C690.91,-361.61 742.92,-354.91 785,-335 817.94,-319.41 846.39,-285.42 859.03,-268.69"/>
<polygon fill="#9a32cd" stroke="#9a32cd" points="649.32,-359.86 639.44,-363.7 649.55,-366.86 649.32,-359.86"/>
<text text-anchor="middle" x="721" y="-365" font-family="Helvetica,sans-Serif" font-size="10.00"> array_buffer_allocator</text>
</g>
<!-- Node3 -->
<g id="node3" class="node">
<title>Node3</title>
<g id="a_node3"><a xlink:href="classv8_1_1ResourceConstraints.html" target="_top" xlink:title=" ">
<polygon fill="white" stroke="black" points="517,-314.5 517,-333.5 639,-333.5 639,-314.5 517,-314.5"/>
<text text-anchor="middle" x="578" y="-321.5" font-family="Helvetica,sans-Serif" font-size="10.00">v8::ResourceConstraints</text>
</a>
</g>
</g>
<!-- Node3&#45;&gt;Node1 -->
<g id="edge2" class="edge">
<title>Node3&#45;&gt;Node1</title>
<path fill="none" stroke="#9a32cd" stroke-dasharray="5,2" d="M649.16,-321.36C689.57,-318.39 740.92,-312.14 785,-299 809.05,-291.83 834.68,-278 850.52,-268.63"/>
<polygon fill="#9a32cd" stroke="#9a32cd" points="648.87,-317.87 639.13,-322.04 649.35,-324.85 648.87,-317.87"/>
<text text-anchor="middle" x="721" y="-323" font-family="Helvetica,sans-Serif" font-size="10.00"> constraints</text>
</g>
<!-- Node4 -->
<g id="node4" class="node">
<title>Node4</title>
<g id="a_node4"><a xlink:title=" ">
<polygon fill="white" stroke="#bfbfbf" points="518,-265 518,-295 638,-295 638,-265 518,-265"/>
<text text-anchor="start" x="526" y="-283" font-family="Helvetica,sans-Serif" font-size="10.00">std::shared_ptr&lt; v8</text>
<text text-anchor="middle" x="578" y="-272" font-family="Helvetica,sans-Serif" font-size="10.00">::ArrayBuffer::Allocator &gt;</text>
</a>
</g>
</g>
<!-- Node4&#45;&gt;Node1 -->
<g id="edge3" class="edge">
<title>Node4&#45;&gt;Node1</title>
<path fill="none" stroke="#9a32cd" stroke-dasharray="5,2" d="M648.24,-274.93C695.36,-271.49 757.23,-266.96 802.98,-263.61"/>
<polygon fill="#9a32cd" stroke="#9a32cd" points="647.84,-271.45 638.12,-275.67 648.35,-278.44 647.84,-271.45"/>
<text text-anchor="start" x="673.5" y="-287" font-family="Helvetica,sans-Serif" font-size="10.00"> array_buffer_allocator</text>
<text text-anchor="middle" x="721" y="-276" font-family="Helvetica,sans-Serif" font-size="10.00">_shared</text>
</g>
<!-- Node5 -->
<g id="node5" class="node">
<title>Node5</title>
<g id="a_node5"><a xlink:title=" ">
<polygon fill="white" stroke="#bfbfbf" points="268.5,-287.5 268.5,-306.5 371.5,-306.5 371.5,-287.5 268.5,-287.5"/>
<text text-anchor="middle" x="320" y="-294.5" font-family="Helvetica,sans-Serif" font-size="10.00">std::shared_ptr&lt; T &gt;</text>
</a>
</g>
</g>
<!-- Node5&#45;&gt;Node4 -->
<g id="edge4" class="edge">
<title>Node5&#45;&gt;Node4</title>
<path fill="none" stroke="orange" stroke-dasharray="5,2" d="M381.72,-292.97C422.78,-290.24 476.75,-286.66 517.54,-283.95"/>
<polygon fill="orange" stroke="orange" points="381.32,-289.49 371.58,-293.64 381.79,-296.47 381.32,-289.49"/>
<text text-anchor="start" x="417" y="-304" font-family="Helvetica,sans-Serif" font-size="10.00"> &lt; v8::ArrayBuffer::</text>
<text text-anchor="middle" x="456.5" y="-293" font-family="Helvetica,sans-Serif" font-size="10.00">Allocator &gt;</text>
</g>
<!-- Node6 -->
<g id="node6" class="node">
<title>Node6</title>
<g id="a_node6"><a xlink:title=" ">
<polygon fill="white" stroke="#bfbfbf" points="40,-269.5 40,-288.5 69,-288.5 69,-269.5 40,-269.5"/>
<text text-anchor="middle" x="54.5" y="-276.5" font-family="Helvetica,sans-Serif" font-size="10.00">T</text>
</a>
</g>
</g>
<!-- Node6&#45;&gt;Node5 -->
<g id="edge5" class="edge">
<title>Node6&#45;&gt;Node5</title>
<path fill="none" stroke="#9a32cd" stroke-dasharray="5,2" d="M79.52,-280.64C122.08,-283.55 211.57,-289.66 268.29,-293.54"/>
<polygon fill="#9a32cd" stroke="#9a32cd" points="79.51,-277.13 69.3,-279.94 79.03,-284.12 79.51,-277.13"/>
<text text-anchor="middle" x="176.5" y="-293" font-family="Helvetica,sans-Serif" font-size="10.00"> ptr</text>
</g>
<!-- Node18 -->
<g id="node18" class="node">
<title>Node18</title>
<g id="a_node18"><a xlink:title=" ">
<polygon fill="white" stroke="#bfbfbf" points="278,-249.5 278,-268.5 362,-268.5 362,-249.5 278,-249.5"/>
<text text-anchor="middle" x="320" y="-256.5" font-family="Helvetica,sans-Serif" font-size="10.00">std::vector&lt; T &gt;</text>
</a>
</g>
</g>
<!-- Node6&#45;&gt;Node18 -->
<g id="edge19" class="edge">
<title>Node6&#45;&gt;Node18</title>
<path fill="none" stroke="#9a32cd" stroke-dasharray="5,2" d="M79.33,-275.14C93.2,-273.02 111.05,-270.53 127,-269 178.83,-264.03 238.79,-261.41 277.72,-260.11"/>
<polygon fill="#9a32cd" stroke="#9a32cd" points="78.5,-271.73 69.17,-276.73 79.59,-278.64 78.5,-271.73"/>
<text text-anchor="middle" x="176.5" y="-272" font-family="Helvetica,sans-Serif" font-size="10.00"> elements</text>
</g>
<!-- Node7 -->
<g id="node7" class="node">
<title>Node7</title>
<g id="a_node7"><a xlink:href="classv8_1_1StartupData.html" target="_top" xlink:title=" ">
<polygon fill="white" stroke="black" points="536.5,-188.5 536.5,-207.5 619.5,-207.5 619.5,-188.5 536.5,-188.5"/>
<text text-anchor="middle" x="578" y="-195.5" font-family="Helvetica,sans-Serif" font-size="10.00">v8::StartupData</text>
</a>
</g>
</g>
<!-- Node7&#45;&gt;Node1 -->
<g id="edge6" class="edge">
<title>Node7&#45;&gt;Node1</title>
<path fill="none" stroke="#9a32cd" stroke-dasharray="5,2" d="M629.91,-200.88C672.06,-204.16 733.21,-211.01 785,-225 807.08,-230.97 831.1,-241.61 847.2,-249.41"/>
<polygon fill="#9a32cd" stroke="#9a32cd" points="630.12,-197.38 619.89,-200.14 629.6,-204.37 630.12,-197.38"/>
<text text-anchor="middle" x="721" y="-228" font-family="Helvetica,sans-Serif" font-size="10.00"> snapshot_blob</text>
</g>
<!-- Node8 -->
<g id="node8" class="node">
<title>Node8</title>
<g id="a_node8"><a xlink:href="structv8_1_1JitCodeEvent.html" target="_top" xlink:title=" ">
<polygon fill="white" stroke="black" points="533.5,-117.5 533.5,-136.5 622.5,-136.5 622.5,-117.5 533.5,-117.5"/>
<text text-anchor="middle" x="578" y="-124.5" font-family="Helvetica,sans-Serif" font-size="10.00">v8::JitCodeEvent</text>
</a>
</g>
</g>
<!-- Node8&#45;&gt;Node1 -->
<g id="edge7" class="edge">
<title>Node8&#45;&gt;Node1</title>
<path fill="none" stroke="#9a32cd" stroke-dasharray="5,2" d="M632.54,-136.24C675.64,-145.2 736.77,-161.41 785,-188 815.13,-204.61 843.79,-234.02 857.53,-249.25"/>
<polygon fill="#9a32cd" stroke="#9a32cd" points="633.03,-132.77 622.54,-134.23 631.65,-139.63 633.03,-132.77"/>
<text text-anchor="middle" x="721" y="-191" font-family="Helvetica,sans-Serif" font-size="10.00"> code_event_handler</text>
</g>
<!-- Node9 -->
<g id="node9" class="node">
<title>Node9</title>
<g id="a_node9"><a xlink:href="structv8_1_1JitCodeEvent_1_1name__t.html" target="_top" xlink:title=" ">
<polygon fill="white" stroke="black" points="257,-173.5 257,-192.5 383,-192.5 383,-173.5 257,-173.5"/>
<text text-anchor="middle" x="320" y="-180.5" font-family="Helvetica,sans-Serif" font-size="10.00">v8::JitCodeEvent::name_t</text>
</a>
</g>
</g>
<!-- Node9&#45;&gt;Node8 -->
<g id="edge8" class="edge">
<title>Node9&#45;&gt;Node8</title>
<path fill="none" stroke="#9a32cd" stroke-dasharray="5,2" d="M393.45,-176.79C426.07,-172.98 464.84,-167.05 499,-158 519.28,-152.63 541.43,-143.49 556.92,-136.52"/>
<polygon fill="#9a32cd" stroke="#9a32cd" points="392.64,-173.36 383.09,-177.95 393.42,-180.31 392.64,-173.36"/>
<text text-anchor="middle" x="456.5" y="-176" font-family="Helvetica,sans-Serif" font-size="10.00"> name</text>
</g>
<!-- Node10 -->
<g id="node10" class="node">
<title>Node10</title>
<g id="a_node10"><a xlink:href="structv8_1_1JitCodeEvent_1_1line__info__t.html" target="_top" xlink:title=" ">
<polygon fill="white" stroke="black" points="0,-103 0,-133 109,-133 109,-103 0,-103"/>
<text text-anchor="start" x="8" y="-121" font-family="Helvetica,sans-Serif" font-size="10.00">v8::JitCodeEvent::line</text>
<text text-anchor="middle" x="54.5" y="-110" font-family="Helvetica,sans-Serif" font-size="10.00">_info_t</text>
</a>
</g>
</g>
<!-- Node10&#45;&gt;Node8 -->
<g id="edge9" class="edge">
<title>Node10&#45;&gt;Node8</title>
<path fill="none" stroke="#9a32cd" stroke-dasharray="5,2" d="M119.36,-124.51C121.94,-124.69 124.49,-124.86 127,-125 292.07,-134.5 333.68,-133.18 499,-130 510.11,-129.79 522.11,-129.4 533.28,-128.98"/>
<polygon fill="#9a32cd" stroke="#9a32cd" points="119.58,-121.02 109.34,-123.74 119.04,-128 119.58,-121.02"/>
<text text-anchor="middle" x="320" y="-135" font-family="Helvetica,sans-Serif" font-size="10.00"> line_info</text>
</g>
<!-- Node11 -->
<g id="node11" class="node">
<title>Node11</title>
<g id="a_node11"><a xlink:href="structv8_1_1JitCodeEvent_1_1wasm__source__info__t.html" target="_top" xlink:title=" ">
<polygon fill="white" stroke="black" points="260,-77 260,-107 380,-107 380,-77 260,-77"/>
<text text-anchor="start" x="268" y="-95" font-family="Helvetica,sans-Serif" font-size="10.00">v8::JitCodeEvent::wasm</text>
<text text-anchor="middle" x="320" y="-84" font-family="Helvetica,sans-Serif" font-size="10.00">_source_info_t</text>
</a>
</g>
</g>
<!-- Node10&#45;&gt;Node11 -->
<g id="edge11" class="edge">
<title>Node10&#45;&gt;Node11</title>
<path fill="none" stroke="#9a32cd" stroke-dasharray="5,2" d="M119.17,-111.72C162.01,-107.49 218.09,-101.96 259.93,-97.83"/>
<polygon fill="#9a32cd" stroke="#9a32cd" points="118.75,-108.24 109.14,-112.71 119.44,-115.21 118.75,-108.24"/>
<text text-anchor="middle" x="176.5" y="-113" font-family="Helvetica,sans-Serif" font-size="10.00"> line_number_table</text>
</g>
<!-- Node11&#45;&gt;Node8 -->
<g id="edge10" class="edge">
<title>Node11&#45;&gt;Node8</title>
<path fill="none" stroke="#9a32cd" stroke-dasharray="5,2" d="M390.17,-101.46C435.8,-107.7 494.17,-115.68 533.43,-121.04"/>
<polygon fill="#9a32cd" stroke="#9a32cd" points="390.43,-97.96 380.05,-100.07 389.49,-104.9 390.43,-97.96"/>
<text text-anchor="middle" x="456.5" y="-118" font-family="Helvetica,sans-Serif" font-size="10.00"> wasm_source_info</text>
</g>
<!-- Node12 -->
<g id="node12" class="node">
<title>Node12</title>
<g id="a_node12"><a xlink:href="classv8_1_1Local.html" target="_top" xlink:title=" ">
<polygon fill="white" stroke="black" points="244,-38.5 244,-57.5 396,-57.5 396,-38.5 244,-38.5"/>
<text text-anchor="middle" x="320" y="-45.5" font-family="Helvetica,sans-Serif" font-size="10.00">v8::Local&lt; v8::UnboundScript &gt;</text>
</a>
</g>
</g>
<!-- Node12&#45;&gt;Node8 -->
<g id="edge12" class="edge">
<title>Node12&#45;&gt;Node8</title>
<path fill="none" stroke="#9a32cd" stroke-dasharray="5,2" d="M384.34,-59.55C418.76,-66.67 461.78,-76.94 499,-90 520.5,-97.54 543.97,-109.17 559.48,-117.38"/>
<polygon fill="#9a32cd" stroke="#9a32cd" points="384.91,-56.09 374.41,-57.53 383.52,-62.95 384.91,-56.09"/>
<text text-anchor="middle" x="456.5" y="-93" font-family="Helvetica,sans-Serif" font-size="10.00"> script</text>
</g>
<!-- Node13 -->
<g id="node13" class="node">
<title>Node13</title>
<g id="a_node13"><a xlink:href="classv8_1_1Local.html" target="_top" xlink:title=" ">
<polygon fill="white" stroke="black" points="15.5,-38.5 15.5,-57.5 93.5,-57.5 93.5,-38.5 15.5,-38.5"/>
<text text-anchor="middle" x="54.5" y="-45.5" font-family="Helvetica,sans-Serif" font-size="10.00">v8::Local&lt; T &gt;</text>
</a>
</g>
</g>
<!-- Node13&#45;&gt;Node12 -->
<g id="edge13" class="edge">
<title>Node13&#45;&gt;Node12</title>
<path fill="none" stroke="orange" stroke-dasharray="5,2" d="M103.62,-48C142.83,-48 198.89,-48 243.99,-48"/>
<polygon fill="orange" stroke="orange" points="103.53,-44.5 93.53,-48 103.53,-51.5 103.53,-44.5"/>
<text text-anchor="middle" x="176.5" y="-51" font-family="Helvetica,sans-Serif" font-size="10.00"> &lt; v8::UnboundScript &gt;</text>
</g>
<!-- Node14 -->
<g id="node14" class="node">
<title>Node14</title>
<g id="a_node14"><a xlink:href="classv8_1_1Isolate.html" target="_top" xlink:title=" ">
<polygon fill="white" stroke="black" points="289.5,-0.5 289.5,-19.5 350.5,-19.5 350.5,-0.5 289.5,-0.5"/>
<text text-anchor="middle" x="320" y="-7.5" font-family="Helvetica,sans-Serif" font-size="10.00">v8::Isolate</text>
</a>
</g>
</g>
<!-- Node14&#45;&gt;Node8 -->
<g id="edge14" class="edge">
<title>Node14&#45;&gt;Node8</title>
<path fill="none" stroke="#9a32cd" stroke-dasharray="5,2" d="M360.83,-12.97C398.42,-17.17 455.36,-27.19 499,-51 530.2,-68.02 557.64,-101.03 570.02,-117.36"/>
<polygon fill="#9a32cd" stroke="#9a32cd" points="361.08,-9.48 350.77,-11.94 360.36,-16.44 361.08,-9.48"/>
<text text-anchor="middle" x="456.5" y="-54" font-family="Helvetica,sans-Serif" font-size="10.00"> isolate</text>
</g>
<!-- Node15 -->
<g id="node15" class="node">
<title>Node15</title>
<g id="a_node15"><a xlink:title=" ">
<polygon fill="white" stroke="#bfbfbf" points="518,-226.5 518,-245.5 638,-245.5 638,-226.5 518,-226.5"/>
<text text-anchor="middle" x="578" y="-233.5" font-family="Helvetica,sans-Serif" font-size="10.00">std::vector&lt; std::string &gt;</text>
</a>
</g>
</g>
<!-- Node15&#45;&gt;Node1 -->
<g id="edge15" class="edge">
<title>Node15&#45;&gt;Node1</title>
<path fill="none" stroke="#9a32cd" stroke-dasharray="5,2" d="M648.28,-239.97C688.27,-242.44 739.51,-245.93 785,-250 790.78,-250.52 796.78,-251.1 802.79,-251.71"/>
<polygon fill="#9a32cd" stroke="#9a32cd" points="648.3,-236.46 638.1,-239.34 647.87,-243.45 648.3,-236.46"/>
<text text-anchor="middle" x="721" y="-253" font-family="Helvetica,sans-Serif" font-size="10.00"> supported_import_assertions</text>
</g>
<!-- Node16 -->
<g id="node16" class="node">
<title>Node16</title>
<g id="a_node16"><a xlink:title=" ">
<polygon fill="white" stroke="#bfbfbf" points="290.5,-211.5 290.5,-230.5 349.5,-230.5 349.5,-211.5 290.5,-211.5"/>
<text text-anchor="middle" x="320" y="-218.5" font-family="Helvetica,sans-Serif" font-size="10.00">std::string</text>
</a>
</g>
</g>
<!-- Node16&#45;&gt;Node15 -->
<g id="edge16" class="edge">
<title>Node16&#45;&gt;Node15</title>
<path fill="none" stroke="#9a32cd" stroke-dasharray="5,2" d="M359.83,-220.56C395.94,-220.46 451.19,-221.11 499,-225 505.13,-225.5 511.52,-226.16 517.88,-226.92"/>
<polygon fill="#9a32cd" stroke="#9a32cd" points="359.71,-217.06 349.72,-220.61 359.74,-224.06 359.71,-217.06"/>
<text text-anchor="middle" x="456.5" y="-228" font-family="Helvetica,sans-Serif" font-size="10.00"> elements</text>
</g>
<!-- Node17 -->
<g id="node17" class="node">
<title>Node17</title>
<g id="a_node17"><a xlink:title=" ">
<polygon fill="white" stroke="#bfbfbf" points="8,-206 8,-236 101,-236 101,-206 8,-206"/>
<text text-anchor="start" x="16" y="-224" font-family="Helvetica,sans-Serif" font-size="10.00">std::basic_string&lt;</text>
<text text-anchor="middle" x="54.5" y="-213" font-family="Helvetica,sans-Serif" font-size="10.00"> Char &gt;</text>
</a>
</g>
</g>
<!-- Node17&#45;&gt;Node16 -->
<g id="edge17" class="edge">
<title>Node17&#45;&gt;Node16</title>
<path fill="none" stroke="midnightblue" d="M111.34,-221C166.09,-221 247.4,-221 290.22,-221"/>
<polygon fill="midnightblue" stroke="midnightblue" points="111.1,-217.5 101.1,-221 111.1,-224.5 111.1,-217.5"/>
</g>
<!-- Node18&#45;&gt;Node15 -->
<g id="edge18" class="edge">
<title>Node18&#45;&gt;Node15</title>
<path fill="none" stroke="orange" stroke-dasharray="5,2" d="M372.15,-254.4C414.18,-250.63 473.76,-245.28 517.84,-241.32"/>
<polygon fill="orange" stroke="orange" points="371.78,-250.92 362.13,-255.3 372.4,-257.9 371.78,-250.92"/>
<text text-anchor="middle" x="456.5" y="-253" font-family="Helvetica,sans-Serif" font-size="10.00"> &lt; std::string &gt;</text>
</g>
</g>
</svg>
