<?xml version="1.0" encoding="UTF-8" standalone="no"?>
<!DOCTYPE svg PUBLIC "-//W3C//DTD SVG 1.1//EN"
 "http://www.w3.org/Graphics/SVG/1.1/DTD/svg11.dtd">
<!-- Generated by graphviz version 2.44.0 ()
 -->
<!-- Title: cppgc::internal::WriteBarrierTypeForNonCagedHeapPolicy::ValueModeDispatch&lt; WriteBarrier::ValueMode::kNoValuePresent &gt;::Get Pages: 1 -->
<svg width="401pt" height="61pt"
 viewBox="0.00 0.00 401.00 61.00" xmlns="http://www.w3.org/2000/svg" xmlns:xlink="http://www.w3.org/1999/xlink">
<g id="graph0" class="graph" transform="scale(1 1) rotate(0) translate(4 57)">
<title>cppgc::internal::WriteBarrierTypeForNonCagedHeapPolicy::ValueModeDispatch&lt; WriteBarrier::ValueMode::kNoValuePresent &gt;::Get</title>
<polygon fill="white" stroke="transparent" points="-4,4 -4,-57 397,-57 397,4 -4,4"/>
<!-- Node1 -->
<g id="node1" class="node">
<title>Node1</title>
<g id="a_node1"><a xlink:title=" ">
<polygon fill="#bfbfbf" stroke="black" points="0,-0.5 0,-52.5 179,-52.5 179,-0.5 0,-0.5"/>
<text text-anchor="start" x="8" y="-40.5" font-family="Helvetica,sans-Serif" font-size="10.00">cppgc::internal::WriteBarrier</text>
<text text-anchor="start" x="8" y="-29.5" font-family="Helvetica,sans-Serif" font-size="10.00">TypeForNonCagedHeapPolicy</text>
<text text-anchor="start" x="8" y="-18.5" font-family="Helvetica,sans-Serif" font-size="10.00">::ValueModeDispatch&lt; WriteBarrier</text>
<text text-anchor="middle" x="89.5" y="-7.5" font-family="Helvetica,sans-Serif" font-size="10.00">::ValueMode::kNoValuePresent &gt;::Get</text>
</a>
</g>
</g>
<!-- Node2 -->
<g id="node2" class="node">
<title>Node2</title>
<g id="a_node2"><a xlink:href="classcppgc_1_1internal_1_1ProcessHeap.html#a757ef63e8415777e4348c8bb8a5cc88e" target="_top" xlink:title=" ">
<polygon fill="white" stroke="black" points="215,-6 215,-47 393,-47 393,-6 215,-6"/>
<text text-anchor="start" x="223" y="-35" font-family="Helvetica,sans-Serif" font-size="10.00">cppgc::internal::Process</text>
<text text-anchor="start" x="223" y="-24" font-family="Helvetica,sans-Serif" font-size="10.00">Heap::IsAnyIncrementalOrConcurrent</text>
<text text-anchor="middle" x="304" y="-13" font-family="Helvetica,sans-Serif" font-size="10.00">Marking</text>
</a>
</g>
</g>
<!-- Node1&#45;&gt;Node2 -->
<g id="edge1" class="edge">
<title>Node1&#45;&gt;Node2</title>
<path fill="none" stroke="midnightblue" d="M179.08,-26.5C187.59,-26.5 196.26,-26.5 204.86,-26.5"/>
<polygon fill="midnightblue" stroke="midnightblue" points="204.9,-30 214.9,-26.5 204.9,-23 204.9,-30"/>
</g>
</g>
</svg>
