<?xml version="1.0" encoding="UTF-8" standalone="no"?>
<!DOCTYPE svg PUBLIC "-//W3C//DTD SVG 1.1//EN"
 "http://www.w3.org/Graphics/SVG/1.1/DTD/svg11.dtd">
<!-- Generated by graphviz version 2.44.0 ()
 -->
<!-- Title: cppgc::HeapStatistics::ObjectStatistics Pages: 1 -->
<svg width="257pt" height="262pt"
 viewBox="0.00 0.00 256.50 262.00" xmlns="http://www.w3.org/2000/svg" xmlns:xlink="http://www.w3.org/1999/xlink">
<g id="graph0" class="graph" transform="scale(1 1) rotate(0) translate(4 258)">
<title>cppgc::HeapStatistics::ObjectStatistics</title>
<polygon fill="white" stroke="transparent" points="-4,4 -4,-258 252.5,-258 252.5,4 -4,4"/>
<!-- Node1 -->
<g id="node1" class="node">
<title>Node1</title>
<g id="a_node1"><a xlink:title=" ">
<polygon fill="#bfbfbf" stroke="black" points="74.5,-0.5 74.5,-30.5 186.5,-30.5 186.5,-0.5 74.5,-0.5"/>
<text text-anchor="start" x="82.5" y="-18.5" font-family="Helvetica,sans-Serif" font-size="10.00">cppgc::HeapStatistics</text>
<text text-anchor="middle" x="130.5" y="-7.5" font-family="Helvetica,sans-Serif" font-size="10.00">::ObjectStatistics</text>
</a>
</g>
</g>
<!-- Node2 -->
<g id="node2" class="node">
<title>Node2</title>
<g id="a_node2"><a xlink:title=" ">
<polygon fill="white" stroke="#bfbfbf" points="144.5,-89.5 144.5,-108.5 248.5,-108.5 248.5,-89.5 144.5,-89.5"/>
<text text-anchor="middle" x="196.5" y="-96.5" font-family="Helvetica,sans-Serif" font-size="10.00">std::vector&lt; size_t &gt;</text>
</a>
</g>
</g>
<!-- Node2&#45;&gt;Node1 -->
<g id="edge1" class="edge">
<title>Node2&#45;&gt;Node1</title>
<path fill="none" stroke="#9a32cd" stroke-dasharray="5,2" d="M183.66,-81C176.4,-71.5 167.07,-59.48 158.5,-49 153.5,-42.89 147.84,-36.27 142.93,-30.6"/>
<polygon fill="#9a32cd" stroke="#9a32cd" points="181.07,-83.38 189.91,-89.22 186.64,-79.14 181.07,-83.38"/>
<text text-anchor="middle" x="199" y="-63" font-family="Helvetica,sans-Serif" font-size="10.00"> type_bytes</text>
<text text-anchor="middle" x="199" y="-52" font-family="Helvetica,sans-Serif" font-size="10.00">type_count</text>
</g>
<!-- Node3 -->
<g id="node3" class="node">
<title>Node3</title>
<g id="a_node3"><a xlink:title=" ">
<polygon fill="white" stroke="#bfbfbf" points="124.5,-156.5 124.5,-175.5 208.5,-175.5 208.5,-156.5 124.5,-156.5"/>
<text text-anchor="middle" x="166.5" y="-163.5" font-family="Helvetica,sans-Serif" font-size="10.00">std::vector&lt; T &gt;</text>
</a>
</g>
</g>
<!-- Node3&#45;&gt;Node2 -->
<g id="edge2" class="edge">
<title>Node3&#45;&gt;Node2</title>
<path fill="none" stroke="orange" stroke-dasharray="5,2" d="M174.9,-146.79C180.67,-134.31 188.05,-118.31 192.52,-108.63"/>
<polygon fill="orange" stroke="orange" points="171.56,-145.69 170.55,-156.23 177.91,-148.62 171.56,-145.69"/>
<text text-anchor="middle" x="205" y="-130" font-family="Helvetica,sans-Serif" font-size="10.00"> &lt; size_t &gt;</text>
</g>
<!-- Node5 -->
<g id="node5" class="node">
<title>Node5</title>
<g id="a_node5"><a xlink:title=" ">
<polygon fill="white" stroke="#bfbfbf" points="6.5,-89.5 6.5,-108.5 126.5,-108.5 126.5,-89.5 6.5,-89.5"/>
<text text-anchor="middle" x="66.5" y="-96.5" font-family="Helvetica,sans-Serif" font-size="10.00">std::vector&lt; std::string &gt;</text>
</a>
</g>
</g>
<!-- Node3&#45;&gt;Node5 -->
<g id="edge7" class="edge">
<title>Node3&#45;&gt;Node5</title>
<path fill="none" stroke="orange" stroke-dasharray="5,2" d="M138.72,-151.82C130.73,-147.69 122.11,-142.92 114.5,-138 100.58,-128.99 85.8,-116.85 76.38,-108.74"/>
<polygon fill="orange" stroke="orange" points="137.22,-154.98 147.73,-156.33 140.36,-148.72 137.22,-154.98"/>
<text text-anchor="middle" x="145" y="-130" font-family="Helvetica,sans-Serif" font-size="10.00"> &lt; std::string &gt;</text>
</g>
<!-- Node4 -->
<g id="node4" class="node">
<title>Node4</title>
<g id="a_node4"><a xlink:title=" ">
<polygon fill="white" stroke="#bfbfbf" points="152,-229 152,-248 181,-248 181,-229 152,-229"/>
<text text-anchor="middle" x="166.5" y="-236" font-family="Helvetica,sans-Serif" font-size="10.00">T</text>
</a>
</g>
</g>
<!-- Node4&#45;&gt;Node3 -->
<g id="edge3" class="edge">
<title>Node4&#45;&gt;Node3</title>
<path fill="none" stroke="#9a32cd" stroke-dasharray="5,2" d="M166.5,-218.44C166.5,-204.53 166.5,-186.32 166.5,-175.72"/>
<polygon fill="#9a32cd" stroke="#9a32cd" points="163,-218.86 166.5,-228.86 170,-218.86 163,-218.86"/>
<text text-anchor="middle" x="188" y="-197" font-family="Helvetica,sans-Serif" font-size="10.00"> elements</text>
</g>
<!-- Node5&#45;&gt;Node1 -->
<g id="edge4" class="edge">
<title>Node5&#45;&gt;Node1</title>
<path fill="none" stroke="#9a32cd" stroke-dasharray="5,2" d="M79.56,-81.37C91.3,-66.42 108.35,-44.71 119.43,-30.6"/>
<polygon fill="#9a32cd" stroke="#9a32cd" points="76.77,-79.25 73.35,-89.28 82.28,-83.57 76.77,-79.25"/>
<text text-anchor="middle" x="129.5" y="-57.5" font-family="Helvetica,sans-Serif" font-size="10.00"> type_name</text>
</g>
<!-- Node6 -->
<g id="node6" class="node">
<title>Node6</title>
<g id="a_node6"><a xlink:title=" ">
<polygon fill="white" stroke="#bfbfbf" points="17,-156.5 17,-175.5 76,-175.5 76,-156.5 17,-156.5"/>
<text text-anchor="middle" x="46.5" y="-163.5" font-family="Helvetica,sans-Serif" font-size="10.00">std::string</text>
</a>
</g>
</g>
<!-- Node6&#45;&gt;Node5 -->
<g id="edge5" class="edge">
<title>Node6&#45;&gt;Node5</title>
<path fill="none" stroke="#9a32cd" stroke-dasharray="5,2" d="M44.85,-146.12C44.87,-139.9 45.5,-133.03 47.5,-127 49.73,-120.25 54.26,-113.71 58.34,-108.75"/>
<polygon fill="#9a32cd" stroke="#9a32cd" points="41.36,-146.48 45.33,-156.3 48.35,-146.15 41.36,-146.48"/>
<text text-anchor="middle" x="69" y="-130" font-family="Helvetica,sans-Serif" font-size="10.00"> elements</text>
</g>
<!-- Node7 -->
<g id="node7" class="node">
<title>Node7</title>
<g id="a_node7"><a xlink:title=" ">
<polygon fill="white" stroke="#bfbfbf" points="0,-223.5 0,-253.5 93,-253.5 93,-223.5 0,-223.5"/>
<text text-anchor="start" x="8" y="-241.5" font-family="Helvetica,sans-Serif" font-size="10.00">std::basic_string&lt;</text>
<text text-anchor="middle" x="46.5" y="-230.5" font-family="Helvetica,sans-Serif" font-size="10.00"> Char &gt;</text>
</a>
</g>
</g>
<!-- Node7&#45;&gt;Node6 -->
<g id="edge6" class="edge">
<title>Node7&#45;&gt;Node6</title>
<path fill="none" stroke="midnightblue" d="M46.5,-213.09C46.5,-200.21 46.5,-185.2 46.5,-175.89"/>
<polygon fill="midnightblue" stroke="midnightblue" points="43,-213.23 46.5,-223.23 50,-213.23 43,-213.23"/>
</g>
</g>
</svg>
