<?xml version="1.0" encoding="UTF-8" standalone="no"?>
<!DOCTYPE svg PUBLIC "-//W3C//DTD SVG 1.1//EN"
 "http://www.w3.org/Graphics/SVG/1.1/DTD/svg11.dtd">
<!-- Generated by graphviz version 2.44.0 ()
 -->
<!-- Title: cppgc::HeapStatistics::SpaceStatistics Pages: 1 -->
<svg width="1011pt" height="202pt"
 viewBox="0.00 0.00 1011.00 202.00" xmlns="http://www.w3.org/2000/svg" xmlns:xlink="http://www.w3.org/1999/xlink">
<g id="graph0" class="graph" transform="scale(1 1) rotate(0) translate(4 198)">
<title>cppgc::HeapStatistics::SpaceStatistics</title>
<polygon fill="white" stroke="transparent" points="-4,4 -4,-198 1007,-198 1007,4 -4,4"/>
<!-- Node1 -->
<g id="node1" class="node">
<title>Node1</title>
<g id="a_node1"><a xlink:title=" ">
<polygon fill="#bfbfbf" stroke="black" points="891,-75.5 891,-105.5 1003,-105.5 1003,-75.5 891,-75.5"/>
<text text-anchor="start" x="899" y="-93.5" font-family="Helvetica,sans-Serif" font-size="10.00">cppgc::HeapStatistics</text>
<text text-anchor="middle" x="947" y="-82.5" font-family="Helvetica,sans-Serif" font-size="10.00">::SpaceStatistics</text>
</a>
</g>
</g>
<!-- Node2 -->
<g id="node2" class="node">
<title>Node2</title>
<g id="a_node2"><a xlink:href="structcppgc_1_1HeapStatistics_1_1FreeListStatistics.html" target="_top" xlink:title=" ">
<polygon fill="white" stroke="black" points="679,-96.5 679,-126.5 791,-126.5 791,-96.5 679,-96.5"/>
<text text-anchor="start" x="687" y="-114.5" font-family="Helvetica,sans-Serif" font-size="10.00">cppgc::HeapStatistics</text>
<text text-anchor="middle" x="735" y="-103.5" font-family="Helvetica,sans-Serif" font-size="10.00">::FreeListStatistics</text>
</a>
</g>
</g>
<!-- Node2&#45;&gt;Node1 -->
<g id="edge1" class="edge">
<title>Node2&#45;&gt;Node1</title>
<path fill="none" stroke="#9a32cd" stroke-dasharray="5,2" d="M801.13,-104.99C829.89,-102.11 863.33,-98.77 890.83,-96.02"/>
<polygon fill="#9a32cd" stroke="#9a32cd" points="800.78,-101.5 791.18,-105.98 801.47,-108.47 800.78,-101.5"/>
<text text-anchor="middle" x="841" y="-106.5" font-family="Helvetica,sans-Serif" font-size="10.00"> free_list_stats</text>
</g>
<!-- Node3 -->
<g id="node3" class="node">
<title>Node3</title>
<g id="a_node3"><a xlink:title=" ">
<polygon fill="white" stroke="#bfbfbf" points="455,-90 455,-109 559,-109 559,-90 455,-90"/>
<text text-anchor="middle" x="507" y="-97" font-family="Helvetica,sans-Serif" font-size="10.00">std::vector&lt; size_t &gt;</text>
</a>
</g>
</g>
<!-- Node3&#45;&gt;Node2 -->
<g id="edge2" class="edge">
<title>Node3&#45;&gt;Node2</title>
<path fill="none" stroke="#9a32cd" stroke-dasharray="5,2" d="M569.33,-102.76C603.5,-104.57 645.71,-106.81 678.84,-108.57"/>
<polygon fill="#9a32cd" stroke="#9a32cd" points="569.17,-99.24 559,-102.21 568.8,-106.23 569.17,-99.24"/>
<text text-anchor="middle" x="633.5" y="-132.5" font-family="Helvetica,sans-Serif" font-size="10.00"> bucket_size</text>
<text text-anchor="middle" x="633.5" y="-121.5" font-family="Helvetica,sans-Serif" font-size="10.00">free_count</text>
<text text-anchor="middle" x="633.5" y="-110.5" font-family="Helvetica,sans-Serif" font-size="10.00">free_size</text>
</g>
<!-- Node10 -->
<g id="node10" class="node">
<title>Node10</title>
<g id="a_node10"><a xlink:href="structcppgc_1_1HeapStatistics_1_1ObjectStatistics.html" target="_top" xlink:title=" ">
<polygon fill="white" stroke="black" points="679,-47.5 679,-77.5 791,-77.5 791,-47.5 679,-47.5"/>
<text text-anchor="start" x="687" y="-65.5" font-family="Helvetica,sans-Serif" font-size="10.00">cppgc::HeapStatistics</text>
<text text-anchor="middle" x="735" y="-54.5" font-family="Helvetica,sans-Serif" font-size="10.00">::ObjectStatistics</text>
</a>
</g>
</g>
<!-- Node3&#45;&gt;Node10 -->
<g id="edge11" class="edge">
<title>Node3&#45;&gt;Node10</title>
<path fill="none" stroke="#9a32cd" stroke-dasharray="5,2" d="M559.02,-87.69C574.1,-84.44 590.67,-81.1 606,-78.5 629.74,-74.48 656.11,-71.02 678.72,-68.35"/>
<polygon fill="#9a32cd" stroke="#9a32cd" points="557.87,-84.36 548.85,-89.92 559.37,-91.2 557.87,-84.36"/>
<text text-anchor="middle" x="633.5" y="-92.5" font-family="Helvetica,sans-Serif" font-size="10.00"> type_bytes</text>
<text text-anchor="middle" x="633.5" y="-81.5" font-family="Helvetica,sans-Serif" font-size="10.00">type_count</text>
</g>
<!-- Node4 -->
<g id="node4" class="node">
<title>Node4</title>
<g id="a_node4"><a xlink:title=" ">
<polygon fill="white" stroke="#bfbfbf" points="186,-90 186,-109 270,-109 270,-90 186,-90"/>
<text text-anchor="middle" x="228" y="-97" font-family="Helvetica,sans-Serif" font-size="10.00">std::vector&lt; T &gt;</text>
</a>
</g>
</g>
<!-- Node4&#45;&gt;Node3 -->
<g id="edge3" class="edge">
<title>Node4&#45;&gt;Node3</title>
<path fill="none" stroke="orange" stroke-dasharray="5,2" d="M280.38,-99.5C330.09,-99.5 405.01,-99.5 454.7,-99.5"/>
<polygon fill="orange" stroke="orange" points="280.17,-96 270.17,-99.5 280.17,-103 280.17,-96"/>
<text text-anchor="middle" x="355" y="-102.5" font-family="Helvetica,sans-Serif" font-size="10.00"> &lt; size_t &gt;</text>
</g>
<!-- Node6 -->
<g id="node6" class="node">
<title>Node6</title>
<g id="a_node6"><a xlink:title=" ">
<polygon fill="white" stroke="#bfbfbf" points="426,-148.5 426,-178.5 588,-178.5 588,-148.5 426,-148.5"/>
<text text-anchor="start" x="434" y="-166.5" font-family="Helvetica,sans-Serif" font-size="10.00">std::vector&lt; cppgc</text>
<text text-anchor="middle" x="507" y="-155.5" font-family="Helvetica,sans-Serif" font-size="10.00">::HeapStatistics::PageStatistics &gt;</text>
</a>
</g>
</g>
<!-- Node4&#45;&gt;Node6 -->
<g id="edge7" class="edge">
<title>Node4&#45;&gt;Node6</title>
<path fill="none" stroke="orange" stroke-dasharray="5,2" d="M280.07,-111.3C325.38,-121.77 391.8,-137.12 440.91,-148.46"/>
<polygon fill="orange" stroke="orange" points="280.7,-107.85 270.17,-109.01 279.13,-114.67 280.7,-107.85"/>
<text text-anchor="start" x="302" y="-152.5" font-family="Helvetica,sans-Serif" font-size="10.00"> &lt; cppgc::HeapStatistics</text>
<text text-anchor="middle" x="355" y="-141.5" font-family="Helvetica,sans-Serif" font-size="10.00">::PageStatistics &gt;</text>
</g>
<!-- Node11 -->
<g id="node11" class="node">
<title>Node11</title>
<g id="a_node11"><a xlink:title=" ">
<polygon fill="white" stroke="#bfbfbf" points="447,-27 447,-46 567,-46 567,-27 447,-27"/>
<text text-anchor="middle" x="507" y="-34" font-family="Helvetica,sans-Serif" font-size="10.00">std::vector&lt; std::string &gt;</text>
</a>
</g>
</g>
<!-- Node4&#45;&gt;Node11 -->
<g id="edge14" class="edge">
<title>Node4&#45;&gt;Node11</title>
<path fill="none" stroke="orange" stroke-dasharray="5,2" d="M280.04,-87.89C333,-75.85 414.86,-57.23 464.15,-46.02"/>
<polygon fill="orange" stroke="orange" points="279.15,-84.51 270.17,-90.14 280.7,-91.33 279.15,-84.51"/>
<text text-anchor="middle" x="355" y="-85.5" font-family="Helvetica,sans-Serif" font-size="10.00"> &lt; std::string &gt;</text>
</g>
<!-- Node5 -->
<g id="node5" class="node">
<title>Node5</title>
<g id="a_node5"><a xlink:title=" ">
<polygon fill="white" stroke="#bfbfbf" points="32,-90 32,-109 61,-109 61,-90 32,-90"/>
<text text-anchor="middle" x="46.5" y="-97" font-family="Helvetica,sans-Serif" font-size="10.00">T</text>
</a>
</g>
</g>
<!-- Node5&#45;&gt;Node4 -->
<g id="edge4" class="edge">
<title>Node5&#45;&gt;Node4</title>
<path fill="none" stroke="#9a32cd" stroke-dasharray="5,2" d="M71.37,-99.5C100.5,-99.5 150.24,-99.5 185.65,-99.5"/>
<polygon fill="#9a32cd" stroke="#9a32cd" points="71.29,-96 61.29,-99.5 71.29,-103 71.29,-96"/>
<text text-anchor="middle" x="132.5" y="-102.5" font-family="Helvetica,sans-Serif" font-size="10.00"> elements</text>
</g>
<!-- Node6&#45;&gt;Node1 -->
<g id="edge5" class="edge">
<title>Node6&#45;&gt;Node1</title>
<path fill="none" stroke="#9a32cd" stroke-dasharray="5,2" d="M598.6,-160.78C673.53,-156.54 782.02,-145.77 873,-118.5 885.22,-114.84 898.31,-110.09 909.98,-105.55"/>
<polygon fill="#9a32cd" stroke="#9a32cd" points="598.06,-157.3 588.26,-161.34 598.43,-164.29 598.06,-157.3"/>
<text text-anchor="middle" x="735" y="-156.5" font-family="Helvetica,sans-Serif" font-size="10.00"> page_stats</text>
</g>
<!-- Node7 -->
<g id="node7" class="node">
<title>Node7</title>
<g id="a_node7"><a xlink:href="structcppgc_1_1HeapStatistics_1_1PageStatistics.html" target="_top" xlink:title=" ">
<polygon fill="white" stroke="black" points="172,-163.5 172,-193.5 284,-193.5 284,-163.5 172,-163.5"/>
<text text-anchor="start" x="180" y="-181.5" font-family="Helvetica,sans-Serif" font-size="10.00">cppgc::HeapStatistics</text>
<text text-anchor="middle" x="228" y="-170.5" font-family="Helvetica,sans-Serif" font-size="10.00">::PageStatistics</text>
</a>
</g>
</g>
<!-- Node7&#45;&gt;Node6 -->
<g id="edge6" class="edge">
<title>Node7&#45;&gt;Node6</title>
<path fill="none" stroke="#9a32cd" stroke-dasharray="5,2" d="M294.08,-174.98C333.47,-172.84 384.01,-170.11 425.85,-167.84"/>
<polygon fill="#9a32cd" stroke="#9a32cd" points="293.85,-171.48 284.06,-175.52 294.23,-178.47 293.85,-171.48"/>
<text text-anchor="middle" x="355" y="-176.5" font-family="Helvetica,sans-Serif" font-size="10.00"> elements</text>
</g>
<!-- Node8 -->
<g id="node8" class="node">
<title>Node8</title>
<g id="a_node8"><a xlink:title=" ">
<polygon fill="white" stroke="#bfbfbf" points="198.5,-6 198.5,-25 257.5,-25 257.5,-6 198.5,-6"/>
<text text-anchor="middle" x="228" y="-13" font-family="Helvetica,sans-Serif" font-size="10.00">std::string</text>
</a>
</g>
</g>
<!-- Node8&#45;&gt;Node1 -->
<g id="edge8" class="edge">
<title>Node8&#45;&gt;Node1</title>
<path fill="none" stroke="#9a32cd" stroke-dasharray="5,2" d="M267.64,-11.76C359.88,-3.97 599.47,9.52 791,-38.5 831.06,-48.54 875.65,-63.97 906.68,-75.41"/>
<polygon fill="#9a32cd" stroke="#9a32cd" points="267.31,-8.27 257.65,-12.63 267.91,-15.25 267.31,-8.27"/>
<text text-anchor="middle" x="633.5" y="-18.5" font-family="Helvetica,sans-Serif" font-size="10.00"> name</text>
</g>
<!-- Node8&#45;&gt;Node11 -->
<g id="edge13" class="edge">
<title>Node8&#45;&gt;Node11</title>
<path fill="none" stroke="#9a32cd" stroke-dasharray="5,2" d="M267.58,-18.42C314.08,-21.95 392.71,-27.91 446.88,-32.02"/>
<polygon fill="#9a32cd" stroke="#9a32cd" points="267.84,-14.93 257.6,-17.67 267.31,-21.91 267.84,-14.93"/>
<text text-anchor="middle" x="355" y="-31.5" font-family="Helvetica,sans-Serif" font-size="10.00"> elements</text>
</g>
<!-- Node9 -->
<g id="node9" class="node">
<title>Node9</title>
<g id="a_node9"><a xlink:title=" ">
<polygon fill="white" stroke="#bfbfbf" points="0,-0.5 0,-30.5 93,-30.5 93,-0.5 0,-0.5"/>
<text text-anchor="start" x="8" y="-18.5" font-family="Helvetica,sans-Serif" font-size="10.00">std::basic_string&lt;</text>
<text text-anchor="middle" x="46.5" y="-7.5" font-family="Helvetica,sans-Serif" font-size="10.00"> Char &gt;</text>
</a>
</g>
</g>
<!-- Node9&#45;&gt;Node8 -->
<g id="edge9" class="edge">
<title>Node9&#45;&gt;Node8</title>
<path fill="none" stroke="midnightblue" d="M103.66,-15.5C135.12,-15.5 173.03,-15.5 198.44,-15.5"/>
<polygon fill="midnightblue" stroke="midnightblue" points="103.26,-12 93.26,-15.5 103.26,-19 103.26,-12"/>
</g>
<!-- Node10&#45;&gt;Node1 -->
<g id="edge10" class="edge">
<title>Node10&#45;&gt;Node1</title>
<path fill="none" stroke="#9a32cd" stroke-dasharray="5,2" d="M801.13,-71.18C829.89,-75.02 863.33,-79.48 890.83,-83.14"/>
<polygon fill="#9a32cd" stroke="#9a32cd" points="801.55,-67.71 791.18,-69.86 800.62,-74.65 801.55,-67.71"/>
<text text-anchor="middle" x="841" y="-83.5" font-family="Helvetica,sans-Serif" font-size="10.00"> object_stats</text>
</g>
<!-- Node11&#45;&gt;Node10 -->
<g id="edge12" class="edge">
<title>Node11&#45;&gt;Node10</title>
<path fill="none" stroke="#9a32cd" stroke-dasharray="5,2" d="M577.55,-30.7C603.87,-29.89 633.99,-30.67 661,-35.5 674.43,-37.9 688.63,-42.61 700.9,-47.44"/>
<polygon fill="#9a32cd" stroke="#9a32cd" points="577.14,-27.21 567.28,-31.09 577.41,-34.2 577.14,-27.21"/>
<text text-anchor="middle" x="633.5" y="-38.5" font-family="Helvetica,sans-Serif" font-size="10.00"> type_name</text>
</g>
</g>
</svg>
