<?xml version="1.0" encoding="UTF-8" standalone="no"?>
<!DOCTYPE svg PUBLIC "-//W3C//DTD SVG 1.1//EN"
 "http://www.w3.org/Graphics/SVG/1.1/DTD/svg11.dtd">
<!-- Generated by graphviz version 2.44.0 ()
 -->
<!-- Title: v8::CppHeapCreateParams Pages: 1 -->
<svg width="404pt" height="327pt"
 viewBox="0.00 0.00 404.00 327.00" xmlns="http://www.w3.org/2000/svg" xmlns:xlink="http://www.w3.org/1999/xlink">
<g id="graph0" class="graph" transform="scale(1 1) rotate(0) translate(4 323)">
<title>v8::CppHeapCreateParams</title>
<polygon fill="white" stroke="transparent" points="-4,4 -4,-323 400,-323 400,4 -4,4"/>
<!-- Node1 -->
<g id="node1" class="node">
<title>Node1</title>
<g id="a_node1"><a xlink:title=" ">
<polygon fill="#bfbfbf" stroke="black" points="43,-0.5 43,-19.5 177,-19.5 177,-0.5 43,-0.5"/>
<text text-anchor="middle" x="110" y="-7.5" font-family="Helvetica,sans-Serif" font-size="10.00">v8::CppHeapCreateParams</text>
</a>
</g>
</g>
<!-- Node2 -->
<g id="node2" class="node">
<title>Node2</title>
<g id="a_node2"><a xlink:href="structv8_1_1WrapperDescriptor.html" target="_top" xlink:title=" ">
<polygon fill="white" stroke="black" points="0,-73 0,-92 112,-92 112,-73 0,-73"/>
<text text-anchor="middle" x="56" y="-80" font-family="Helvetica,sans-Serif" font-size="10.00">v8::WrapperDescriptor</text>
</a>
</g>
</g>
<!-- Node2&#45;&gt;Node1 -->
<g id="edge1" class="edge">
<title>Node2&#45;&gt;Node1</title>
<path fill="none" stroke="#9a32cd" stroke-dasharray="5,2" d="M65.59,-64.04C70.4,-55.84 76.57,-46.11 83,-38 88.27,-31.35 95.02,-24.6 100.45,-19.51"/>
<polygon fill="#9a32cd" stroke="#9a32cd" points="62.53,-62.35 60.63,-72.78 68.61,-65.81 62.53,-62.35"/>
<text text-anchor="middle" x="125.5" y="-41" font-family="Helvetica,sans-Serif" font-size="10.00"> wrapper_descriptor</text>
</g>
<!-- Node3 -->
<g id="node3" class="node">
<title>Node3</title>
<g id="a_node3"><a xlink:title=" ">
<polygon fill="white" stroke="#bfbfbf" points="130.5,-67.5 130.5,-97.5 303.5,-97.5 303.5,-67.5 130.5,-67.5"/>
<text text-anchor="start" x="138.5" y="-85.5" font-family="Helvetica,sans-Serif" font-size="10.00">std::vector&lt; std::unique</text>
<text text-anchor="middle" x="217" y="-74.5" font-family="Helvetica,sans-Serif" font-size="10.00">_ptr&lt; cppgc::CustomSpaceBase &gt; &gt;</text>
</a>
</g>
</g>
<!-- Node3&#45;&gt;Node1 -->
<g id="edge2" class="edge">
<title>Node3&#45;&gt;Node1</title>
<path fill="none" stroke="#9a32cd" stroke-dasharray="5,2" d="M195.92,-60.36C187.65,-52.74 177.8,-44.43 168,-38 156.86,-30.69 143.42,-24.3 132.28,-19.57"/>
<polygon fill="#9a32cd" stroke="#9a32cd" points="193.66,-63.04 203.32,-67.38 198.48,-57.96 193.66,-63.04"/>
<text text-anchor="middle" x="219" y="-41" font-family="Helvetica,sans-Serif" font-size="10.00"> custom_spaces</text>
</g>
<!-- Node4 -->
<g id="node4" class="node">
<title>Node4</title>
<g id="a_node4"><a xlink:title=" ">
<polygon fill="white" stroke="#bfbfbf" points="82,-145.5 82,-175.5 196,-175.5 196,-145.5 82,-145.5"/>
<text text-anchor="start" x="90" y="-163.5" font-family="Helvetica,sans-Serif" font-size="10.00">std::unique_ptr&lt; cppgc</text>
<text text-anchor="middle" x="139" y="-152.5" font-family="Helvetica,sans-Serif" font-size="10.00">::CustomSpaceBase &gt;</text>
</a>
</g>
</g>
<!-- Node4&#45;&gt;Node3 -->
<g id="edge3" class="edge">
<title>Node4&#45;&gt;Node3</title>
<path fill="none" stroke="#9a32cd" stroke-dasharray="5,2" d="M161.03,-138.03C174.27,-125.13 190.76,-109.07 202.39,-97.73"/>
<polygon fill="#9a32cd" stroke="#9a32cd" points="158.39,-135.72 153.67,-145.2 163.28,-140.73 158.39,-135.72"/>
<text text-anchor="middle" x="204.5" y="-119" font-family="Helvetica,sans-Serif" font-size="10.00"> elements</text>
</g>
<!-- Node5 -->
<g id="node5" class="node">
<title>Node5</title>
<g id="a_node5"><a xlink:title=" ">
<polygon fill="white" stroke="#bfbfbf" points="95,-232.5 95,-251.5 197,-251.5 197,-232.5 95,-232.5"/>
<text text-anchor="middle" x="146" y="-239.5" font-family="Helvetica,sans-Serif" font-size="10.00">std::unique_ptr&lt; T &gt;</text>
</a>
</g>
</g>
<!-- Node5&#45;&gt;Node4 -->
<g id="edge4" class="edge">
<title>Node5&#45;&gt;Node4</title>
<path fill="none" stroke="orange" stroke-dasharray="5,2" d="M105.04,-227.57C99.46,-224.02 94.47,-219.57 91,-214 86.3,-206.46 86.83,-201.85 91,-194 94.96,-186.53 101.49,-180.47 108.48,-175.69"/>
<polygon fill="orange" stroke="orange" points="103.68,-230.82 114.15,-232.44 106.98,-224.64 103.68,-230.82"/>
<text text-anchor="middle" x="158" y="-201.5" font-family="Helvetica,sans-Serif" font-size="10.00"> &lt; cppgc::CustomSpaceBase &gt;</text>
</g>
<!-- Node6 -->
<g id="node6" class="node">
<title>Node6</title>
<g id="a_node6"><a xlink:title=" ">
<polygon fill="white" stroke="#bfbfbf" points="183.5,-299.5 183.5,-318.5 212.5,-318.5 212.5,-299.5 183.5,-299.5"/>
<text text-anchor="middle" x="198" y="-306.5" font-family="Helvetica,sans-Serif" font-size="10.00">T</text>
</a>
</g>
</g>
<!-- Node6&#45;&gt;Node5 -->
<g id="edge5" class="edge">
<title>Node6&#45;&gt;Node5</title>
<path fill="none" stroke="#9a32cd" stroke-dasharray="5,2" d="M184.62,-291.27C174.48,-278.6 160.96,-261.7 152.9,-251.63"/>
<polygon fill="#9a32cd" stroke="#9a32cd" points="182.01,-293.61 190.99,-299.23 187.47,-289.24 182.01,-293.61"/>
<text text-anchor="middle" x="183" y="-273" font-family="Helvetica,sans-Serif" font-size="10.00"> ptr</text>
</g>
<!-- Node7 -->
<g id="node7" class="node">
<title>Node7</title>
<g id="a_node7"><a xlink:title=" ">
<polygon fill="white" stroke="#bfbfbf" points="234,-194.5 234,-213.5 318,-213.5 318,-194.5 234,-194.5"/>
<text text-anchor="middle" x="276" y="-201.5" font-family="Helvetica,sans-Serif" font-size="10.00">std::vector&lt; T &gt;</text>
</a>
</g>
</g>
<!-- Node6&#45;&gt;Node7 -->
<g id="edge7" class="edge">
<title>Node6&#45;&gt;Node7</title>
<path fill="none" stroke="#9a32cd" stroke-dasharray="5,2" d="M210.83,-291.05C227.62,-268.88 256.43,-230.84 269.37,-213.76"/>
<polygon fill="#9a32cd" stroke="#9a32cd" points="207.9,-289.13 204.65,-299.22 213.48,-293.36 207.9,-289.13"/>
<text text-anchor="middle" x="246.5" y="-273" font-family="Helvetica,sans-Serif" font-size="10.00"> elements</text>
</g>
<!-- Node7&#45;&gt;Node3 -->
<g id="edge6" class="edge">
<title>Node7&#45;&gt;Node3</title>
<path fill="none" stroke="orange" stroke-dasharray="5,2" d="M267.17,-185.12C255.41,-161.29 234.82,-119.6 224.04,-97.76"/>
<polygon fill="orange" stroke="orange" points="264.19,-186.99 271.76,-194.41 270.47,-183.89 264.19,-186.99"/>
<text text-anchor="start" x="262" y="-163.5" font-family="Helvetica,sans-Serif" font-size="10.00"> &lt; std::unique_ptr&lt;</text>
<text text-anchor="middle" x="329" y="-152.5" font-family="Helvetica,sans-Serif" font-size="10.00"> cppgc::CustomSpaceBase &gt; &gt;</text>
</g>
</g>
</svg>
