<?xml version="1.0" encoding="UTF-8" standalone="no"?>
<!DOCTYPE svg PUBLIC "-//W3C//DTD SVG 1.1//EN"
 "http://www.w3.org/Graphics/SVG/1.1/DTD/svg11.dtd">
<!-- Generated by graphviz version 2.44.0 ()
 -->
<!-- Title: v8::metrics::GarbageCollectionFullCycle Pages: 1 -->
<svg width="354pt" height="216pt"
 viewBox="0.00 0.00 354.00 216.00" xmlns="http://www.w3.org/2000/svg" xmlns:xlink="http://www.w3.org/1999/xlink">
<g id="graph0" class="graph" transform="scale(1 1) rotate(0) translate(4 212)">
<title>v8::metrics::GarbageCollectionFullCycle</title>
<polygon fill="white" stroke="transparent" points="-4,4 -4,-212 350,-212 350,4 -4,4"/>
<!-- Node1 -->
<g id="node1" class="node">
<title>Node1</title>
<g id="a_node1"><a xlink:title=" ">
<polygon fill="#bfbfbf" stroke="black" points="83,-0.5 83,-30.5 231,-30.5 231,-0.5 83,-0.5"/>
<text text-anchor="start" x="91" y="-18.5" font-family="Helvetica,sans-Serif" font-size="10.00">v8::metrics::GarbageCollection</text>
<text text-anchor="middle" x="157" y="-7.5" font-family="Helvetica,sans-Serif" font-size="10.00">FullCycle</text>
</a>
</g>
</g>
<!-- Node2 -->
<g id="node2" class="node">
<title>Node2</title>
<g id="a_node2"><a xlink:href="structv8_1_1metrics_1_1GarbageCollectionSizes.html" target="_top" xlink:title=" ">
<polygon fill="white" stroke="black" points="0,-177.5 0,-207.5 148,-207.5 148,-177.5 0,-177.5"/>
<text text-anchor="start" x="8" y="-195.5" font-family="Helvetica,sans-Serif" font-size="10.00">v8::metrics::GarbageCollection</text>
<text text-anchor="middle" x="74" y="-184.5" font-family="Helvetica,sans-Serif" font-size="10.00">Sizes</text>
</a>
</g>
</g>
<!-- Node2&#45;&gt;Node1 -->
<g id="edge1" class="edge">
<title>Node2&#45;&gt;Node1</title>
<path fill="none" stroke="#9a32cd" stroke-dasharray="5,2" d="M85.14,-168.01C102.65,-131.09 136.08,-60.6 150.32,-30.59"/>
<polygon fill="#9a32cd" stroke="#9a32cd" points="81.77,-166.94 80.65,-177.47 88.1,-169.94 81.77,-166.94"/>
<text text-anchor="middle" x="170" y="-118" font-family="Helvetica,sans-Serif" font-size="10.00"> memory</text>
<text text-anchor="middle" x="170" y="-107" font-family="Helvetica,sans-Serif" font-size="10.00">memory_cpp</text>
<text text-anchor="middle" x="170" y="-96" font-family="Helvetica,sans-Serif" font-size="10.00">objects</text>
<text text-anchor="middle" x="170" y="-85" font-family="Helvetica,sans-Serif" font-size="10.00">objects_cpp</text>
</g>
<!-- Node3 -->
<g id="node3" class="node">
<title>Node3</title>
<g id="a_node3"><a xlink:href="structv8_1_1metrics_1_1GarbageCollectionPhases.html" target="_top" xlink:title=" ">
<polygon fill="white" stroke="black" points="166,-177.5 166,-207.5 314,-207.5 314,-177.5 166,-177.5"/>
<text text-anchor="start" x="174" y="-195.5" font-family="Helvetica,sans-Serif" font-size="10.00">v8::metrics::GarbageCollection</text>
<text text-anchor="middle" x="240" y="-184.5" font-family="Helvetica,sans-Serif" font-size="10.00">Phases</text>
</a>
</g>
</g>
<!-- Node3&#45;&gt;Node1 -->
<g id="edge2" class="edge">
<title>Node3&#45;&gt;Node1</title>
<path fill="none" stroke="#9a32cd" stroke-dasharray="5,2" d="M238.47,-167.2C235.53,-137.07 226.96,-85.25 202,-49 197.08,-41.86 190.06,-35.72 183.02,-30.76"/>
<polygon fill="#9a32cd" stroke="#9a32cd" points="234.99,-167.58 239.32,-177.25 241.97,-166.99 234.99,-167.58"/>
<text text-anchor="middle" x="291.5" y="-151" font-family="Helvetica,sans-Serif" font-size="10.00"> main_thread</text>
<text text-anchor="middle" x="291.5" y="-140" font-family="Helvetica,sans-Serif" font-size="10.00">main_thread_atomic</text>
<text text-anchor="start" x="237" y="-129" font-family="Helvetica,sans-Serif" font-size="10.00">main_thread_atomic</text>
<text text-anchor="middle" x="291.5" y="-118" font-family="Helvetica,sans-Serif" font-size="10.00">_cpp</text>
<text text-anchor="middle" x="291.5" y="-107" font-family="Helvetica,sans-Serif" font-size="10.00">main_thread_cpp</text>
<text text-anchor="middle" x="291.5" y="-96" font-family="Helvetica,sans-Serif" font-size="10.00">main_thread_incremental</text>
<text text-anchor="start" x="237" y="-85" font-family="Helvetica,sans-Serif" font-size="10.00">main_thread_incremental</text>
<text text-anchor="middle" x="291.5" y="-74" font-family="Helvetica,sans-Serif" font-size="10.00">_cpp</text>
<text text-anchor="middle" x="291.5" y="-63" font-family="Helvetica,sans-Serif" font-size="10.00">total</text>
<text text-anchor="middle" x="291.5" y="-52" font-family="Helvetica,sans-Serif" font-size="10.00">total_cpp</text>
</g>
</g>
</svg>
