<?xml version="1.0" encoding="UTF-8" standalone="no"?>
<!DOCTYPE svg PUBLIC "-//W3C//DTD SVG 1.1//EN"
 "http://www.w3.org/Graphics/SVG/1.1/DTD/svg11.dtd">
<!-- Generated by graphviz version 2.44.0 ()
 -->
<!-- Title: include/cppgc/visitor.h Pages: 1 -->
<svg width="1629pt" height="520pt"
 viewBox="0.00 0.00 1629.00 520.00" xmlns="http://www.w3.org/2000/svg" xmlns:xlink="http://www.w3.org/1999/xlink">
<g id="graph0" class="graph" transform="scale(1 1) rotate(0) translate(4 516)">
<title>include/cppgc/visitor.h</title>
<polygon fill="white" stroke="transparent" points="-4,4 -4,-516 1625,-516 1625,4 -4,4"/>
<!-- Node1 -->
<g id="node1" class="node">
<title>Node1</title>
<g id="a_node1"><a xlink:title=" ">
<polygon fill="#bfbfbf" stroke="black" points="784.5,-492.5 784.5,-511.5 897.5,-511.5 897.5,-492.5 784.5,-492.5"/>
<text text-anchor="middle" x="841" y="-499.5" font-family="Helvetica,sans-Serif" font-size="10.00">include/cppgc/visitor.h</text>
</a>
</g>
</g>
<!-- Node2 -->
<g id="node2" class="node">
<title>Node2</title>
<g id="a_node2"><a xlink:href="custom-space_8h.html" target="_top" xlink:title=" ">
<polygon fill="white" stroke="black" points="294.5,-196 294.5,-215 409.5,-215 409.5,-196 294.5,-196"/>
<text text-anchor="middle" x="352" y="-203" font-family="Helvetica,sans-Serif" font-size="10.00">cppgc/custom&#45;space.h</text>
</a>
</g>
</g>
<!-- Node1&#45;&gt;Node2 -->
<g id="edge1" class="edge">
<title>Node1&#45;&gt;Node2</title>
<path fill="none" stroke="midnightblue" d="M784.11,-497.24C673.68,-488.36 441,-461.31 441,-391 441,-391 441,-391 441,-333 441,-285.27 398.09,-242.83 371.86,-221.35"/>
<polygon fill="midnightblue" stroke="midnightblue" points="374.02,-218.59 364,-215.13 369.67,-224.08 374.02,-218.59"/>
</g>
<!-- Node4 -->
<g id="node4" class="node">
<title>Node4</title>
<g id="a_node4"><a xlink:href="ephemeron-pair_8h.html" target="_top" xlink:title=" ">
<polygon fill="white" stroke="black" points="891,-436.5 891,-455.5 1011,-455.5 1011,-436.5 891,-436.5"/>
<text text-anchor="middle" x="951" y="-443.5" font-family="Helvetica,sans-Serif" font-size="10.00">cppgc/ephemeron&#45;pair.h</text>
</a>
</g>
</g>
<!-- Node1&#45;&gt;Node4 -->
<g id="edge3" class="edge">
<title>Node1&#45;&gt;Node4</title>
<path fill="none" stroke="midnightblue" d="M858.67,-492.32C876.39,-483.62 903.9,-470.12 924.29,-460.11"/>
<polygon fill="midnightblue" stroke="midnightblue" points="925.94,-463.2 933.37,-455.65 922.85,-456.92 925.94,-463.2"/>
</g>
<!-- Node5 -->
<g id="node5" class="node">
<title>Node5</title>
<g id="a_node5"><a xlink:href="liveness-broker_8h.html" target="_top" xlink:title=" ">
<polygon fill="white" stroke="black" points="715.5,-380.5 715.5,-399.5 834.5,-399.5 834.5,-380.5 715.5,-380.5"/>
<text text-anchor="middle" x="775" y="-387.5" font-family="Helvetica,sans-Serif" font-size="10.00">cppgc/liveness&#45;broker.h</text>
</a>
</g>
</g>
<!-- Node1&#45;&gt;Node5 -->
<g id="edge67" class="edge">
<title>Node1&#45;&gt;Node5</title>
<path fill="none" stroke="midnightblue" d="M835.82,-492.37C824.98,-474.3 799.71,-432.18 785.38,-408.31"/>
<polygon fill="midnightblue" stroke="midnightblue" points="788.3,-406.37 780.15,-399.59 782.3,-409.97 788.3,-406.37"/>
</g>
<!-- Node16 -->
<g id="node16" class="node">
<title>Node16</title>
<g id="a_node16"><a xlink:href="member_8h.html" target="_top" xlink:title=" ">
<polygon fill="white" stroke="black" points="994.5,-324.5 994.5,-343.5 1083.5,-343.5 1083.5,-324.5 994.5,-324.5"/>
<text text-anchor="middle" x="1039" y="-331.5" font-family="Helvetica,sans-Serif" font-size="10.00">cppgc/member.h</text>
</a>
</g>
</g>
<!-- Node1&#45;&gt;Node16 -->
<g id="edge68" class="edge">
<title>Node1&#45;&gt;Node16</title>
<path fill="none" stroke="midnightblue" d="M897.95,-493.59C943.95,-486.39 1003.63,-473.92 1020,-456 1045.61,-427.96 1044.74,-380.16 1041.86,-353.82"/>
<polygon fill="midnightblue" stroke="midnightblue" points="1045.3,-353.12 1040.54,-343.66 1038.36,-354.03 1045.3,-353.12"/>
</g>
<!-- Node20 -->
<g id="node20" class="node">
<title>Node20</title>
<g id="a_node20"><a xlink:href="pointer-policies_8h.html" target="_top" xlink:title=" ">
<polygon fill="white" stroke="black" points="1179,-257.5 1179,-287.5 1289,-287.5 1289,-257.5 1179,-257.5"/>
<text text-anchor="start" x="1187" y="-275.5" font-family="Helvetica,sans-Serif" font-size="10.00">cppgc/internal/pointer</text>
<text text-anchor="middle" x="1234" y="-264.5" font-family="Helvetica,sans-Serif" font-size="10.00">&#45;policies.h</text>
</a>
</g>
</g>
<!-- Node1&#45;&gt;Node20 -->
<g id="edge66" class="edge">
<title>Node1&#45;&gt;Node20</title>
<path fill="none" stroke="midnightblue" d="M897.82,-496.22C939.22,-490.87 995.59,-479.61 1040,-456 1117.44,-414.83 1186.61,-334.5 1217.27,-295.62"/>
<polygon fill="midnightblue" stroke="midnightblue" points="1220.17,-297.59 1223.55,-287.55 1214.65,-293.29 1220.17,-297.59"/>
</g>
<!-- Node28 -->
<g id="node28" class="node">
<title>Node28</title>
<g id="a_node28"><a xlink:href="trace-trait_8h.html" target="_top" xlink:title=" ">
<polygon fill="white" stroke="black" points="199.5,-129 199.5,-148 294.5,-148 294.5,-129 199.5,-129"/>
<text text-anchor="middle" x="247" y="-136" font-family="Helvetica,sans-Serif" font-size="10.00">cppgc/trace&#45;trait.h</text>
</a>
</g>
</g>
<!-- Node1&#45;&gt;Node28 -->
<g id="edge70" class="edge">
<title>Node1&#45;&gt;Node28</title>
<path fill="none" stroke="midnightblue" d="M784.43,-496.78C632.68,-484.7 228,-447.22 228,-391 228,-391 228,-391 228,-271.5 228,-230.74 236.98,-183.62 242.6,-158.16"/>
<polygon fill="midnightblue" stroke="midnightblue" points="246.08,-158.61 244.89,-148.09 239.26,-157.06 246.08,-158.61"/>
</g>
<!-- Node29 -->
<g id="node29" class="node">
<title>Node29</title>
<g id="a_node29"><a xlink:href="type-traits_8h.html" target="_top" xlink:title=" ">
<polygon fill="white" stroke="black" points="104,-62 104,-81 200,-81 200,-62 104,-62"/>
<text text-anchor="middle" x="152" y="-69" font-family="Helvetica,sans-Serif" font-size="10.00">cppgc/type&#45;traits.h</text>
</a>
</g>
</g>
<!-- Node1&#45;&gt;Node29 -->
<g id="edge71" class="edge">
<title>Node1&#45;&gt;Node29</title>
<path fill="none" stroke="midnightblue" d="M784.19,-499.56C595.26,-494.02 0,-470.29 0,-391 0,-391 0,-391 0,-204.5 0,-142.63 72.67,-103.21 117.52,-84.78"/>
<polygon fill="midnightblue" stroke="midnightblue" points="118.89,-87.99 126.9,-81.06 116.31,-81.49 118.89,-87.99"/>
</g>
<!-- Node30 -->
<g id="node30" class="node">
<title>Node30</title>
<g id="a_node30"><a xlink:href="source-location_8h.html" target="_top" xlink:title=" ">
<polygon fill="white" stroke="black" points="1217.5,-196 1217.5,-215 1336.5,-215 1336.5,-196 1217.5,-196"/>
<text text-anchor="middle" x="1277" y="-203" font-family="Helvetica,sans-Serif" font-size="10.00">cppgc/source&#45;location.h</text>
</a>
</g>
</g>
<!-- Node1&#45;&gt;Node30 -->
<g id="edge69" class="edge">
<title>Node1&#45;&gt;Node30</title>
<path fill="none" stroke="midnightblue" d="M897.72,-498.97C1077.22,-491.81 1621,-464.08 1621,-391 1621,-391 1621,-391 1621,-333 1621,-274.17 1441.55,-234.33 1341.87,-216.74"/>
<polygon fill="midnightblue" stroke="midnightblue" points="1342.34,-213.27 1331.89,-215.01 1341.14,-220.17 1342.34,-213.27"/>
</g>
<!-- Node31 -->
<g id="node31" class="node">
<title>Node31</title>
<g id="a_node31"><a xlink:href="garbage-collected_8h.html" target="_top" xlink:title=" ">
<polygon fill="white" stroke="black" points="59,-263 59,-282 189,-282 189,-263 59,-263"/>
<text text-anchor="middle" x="124" y="-270" font-family="Helvetica,sans-Serif" font-size="10.00">cppgc/garbage&#45;collected.h</text>
</a>
</g>
</g>
<!-- Node1&#45;&gt;Node31 -->
<g id="edge57" class="edge">
<title>Node1&#45;&gt;Node31</title>
<path fill="none" stroke="midnightblue" d="M784.46,-500.12C639.13,-497.42 260.69,-487.41 214,-456 156.62,-417.4 134.37,-331.13 127.07,-292.65"/>
<polygon fill="midnightblue" stroke="midnightblue" points="130.44,-291.6 125.27,-282.35 123.55,-292.81 130.44,-291.6"/>
</g>
<!-- Node32 -->
<g id="node32" class="node">
<title>Node32</title>
<g id="a_node32"><a xlink:href="logging_8h.html" target="_top" xlink:title=" ">
<polygon fill="white" stroke="black" points="859.5,-263 859.5,-282 978.5,-282 978.5,-263 859.5,-263"/>
<text text-anchor="middle" x="919" y="-270" font-family="Helvetica,sans-Serif" font-size="10.00">cppgc/internal/logging.h</text>
</a>
</g>
</g>
<!-- Node1&#45;&gt;Node32 -->
<g id="edge63" class="edge">
<title>Node1&#45;&gt;Node32</title>
<path fill="none" stroke="midnightblue" d="M843.96,-492.36C855.4,-459 896.84,-338.14 912.73,-291.78"/>
<polygon fill="midnightblue" stroke="midnightblue" points="916.1,-292.74 916.03,-282.15 909.48,-290.47 916.1,-292.74"/>
</g>
<!-- Node3 -->
<g id="node3" class="node">
<title>Node3</title>
<g id="a_node3"><a xlink:title=" ">
<polygon fill="white" stroke="#bfbfbf" points="461.5,-62 461.5,-81 512.5,-81 512.5,-62 461.5,-62"/>
<text text-anchor="middle" x="487" y="-69" font-family="Helvetica,sans-Serif" font-size="10.00">stddef.h</text>
</a>
</g>
</g>
<!-- Node2&#45;&gt;Node3 -->
<g id="edge2" class="edge">
<title>Node2&#45;&gt;Node3</title>
<path fill="none" stroke="midnightblue" d="M360.86,-195.84C383.27,-173.92 442.48,-116.03 471.08,-88.06"/>
<polygon fill="midnightblue" stroke="midnightblue" points="473.58,-90.51 478.29,-81.02 468.69,-85.51 473.58,-90.51"/>
</g>
<!-- Node4&#45;&gt;Node5 -->
<g id="edge4" class="edge">
<title>Node4&#45;&gt;Node5</title>
<path fill="none" stroke="midnightblue" d="M923.11,-436.44C893.25,-427.28 845.69,-412.69 812.54,-402.52"/>
<polygon fill="midnightblue" stroke="midnightblue" points="813.34,-399.1 802.76,-399.52 811.29,-405.8 813.34,-399.1"/>
</g>
<!-- Node4&#45;&gt;Node16 -->
<g id="edge56" class="edge">
<title>Node4&#45;&gt;Node16</title>
<path fill="none" stroke="midnightblue" d="M957.91,-436.37C972.49,-418.14 1006.66,-375.43 1025.66,-351.68"/>
<polygon fill="midnightblue" stroke="midnightblue" points="1028.61,-353.59 1032.13,-343.59 1023.15,-349.21 1028.61,-353.59"/>
</g>
<!-- Node6 -->
<g id="node6" class="node">
<title>Node6</title>
<g id="a_node6"><a xlink:href="heap_8h.html" target="_top" xlink:title=" ">
<polygon fill="white" stroke="black" points="558,-263 558,-282 632,-282 632,-263 558,-263"/>
<text text-anchor="middle" x="595" y="-270" font-family="Helvetica,sans-Serif" font-size="10.00">cppgc/heap.h</text>
</a>
</g>
</g>
<!-- Node5&#45;&gt;Node6 -->
<g id="edge5" class="edge">
<title>Node5&#45;&gt;Node6</title>
<path fill="none" stroke="midnightblue" d="M761.47,-380.32C730.72,-360.59 655.31,-312.2 617.45,-287.91"/>
<polygon fill="midnightblue" stroke="midnightblue" points="618.99,-284.74 608.69,-282.28 615.21,-290.63 618.99,-284.74"/>
</g>
<!-- Node10 -->
<g id="node10" class="node">
<title>Node10</title>
<g id="a_node10"><a xlink:href="v8config_8h.html" target="_top" xlink:title=" ">
<polygon fill="white" stroke="black" points="782,-62 782,-81 842,-81 842,-62 782,-62"/>
<text text-anchor="middle" x="812" y="-69" font-family="Helvetica,sans-Serif" font-size="10.00">v8config.h</text>
</a>
</g>
</g>
<!-- Node5&#45;&gt;Node10 -->
<g id="edge55" class="edge">
<title>Node5&#45;&gt;Node10</title>
<path fill="none" stroke="midnightblue" d="M777.28,-380.38C782.12,-361.28 793,-313.89 793,-273.5 793,-273.5 793,-273.5 793,-204.5 793,-163.74 801.98,-116.62 807.6,-91.16"/>
<polygon fill="midnightblue" stroke="midnightblue" points="811.08,-91.61 809.89,-81.09 804.26,-90.06 811.08,-91.61"/>
</g>
<!-- Node5&#45;&gt;Node16 -->
<g id="edge21" class="edge">
<title>Node5&#45;&gt;Node16</title>
<path fill="none" stroke="midnightblue" d="M816.83,-380.44C863.08,-370.98 937.61,-355.74 987.44,-345.55"/>
<polygon fill="midnightblue" stroke="midnightblue" points="988.27,-348.95 997.36,-343.52 986.87,-342.09 988.27,-348.95"/>
</g>
<!-- Node5&#45;&gt;Node28 -->
<g id="edge54" class="edge">
<title>Node5&#45;&gt;Node28</title>
<path fill="none" stroke="midnightblue" d="M715.46,-383.57C614.95,-371.46 410.38,-333.75 285,-221 266.36,-204.24 256.15,-176.44 251.13,-158.04"/>
<polygon fill="midnightblue" stroke="midnightblue" points="254.5,-157.08 248.7,-148.22 247.71,-158.77 254.5,-157.08"/>
</g>
<!-- Node6&#45;&gt;Node2 -->
<g id="edge10" class="edge">
<title>Node6&#45;&gt;Node2</title>
<path fill="none" stroke="midnightblue" d="M562.98,-262.94C519.55,-251.32 441.88,-230.54 393.86,-217.7"/>
<polygon fill="midnightblue" stroke="midnightblue" points="394.65,-214.29 384.09,-215.08 392.84,-221.05 394.65,-214.29"/>
</g>
<!-- Node7 -->
<g id="node7" class="node">
<title>Node7</title>
<g id="a_node7"><a xlink:title=" ">
<polygon fill="white" stroke="#bfbfbf" points="392.5,-62 392.5,-81 443.5,-81 443.5,-62 392.5,-62"/>
<text text-anchor="middle" x="418" y="-69" font-family="Helvetica,sans-Serif" font-size="10.00">memory</text>
</a>
</g>
</g>
<!-- Node6&#45;&gt;Node7 -->
<g id="edge6" class="edge">
<title>Node6&#45;&gt;Node7</title>
<path fill="none" stroke="midnightblue" d="M557.79,-267.41C526.57,-262.02 483.02,-249.58 457,-221 423.59,-184.29 418.15,-122.42 417.67,-91.41"/>
<polygon fill="midnightblue" stroke="midnightblue" points="421.17,-91.15 417.68,-81.15 414.17,-91.15 421.17,-91.15"/>
</g>
<!-- Node8 -->
<g id="node8" class="node">
<title>Node8</title>
<g id="a_node8"><a xlink:title=" ">
<polygon fill="white" stroke="#bfbfbf" points="573,-196 573,-215 617,-215 617,-196 573,-196"/>
<text text-anchor="middle" x="595" y="-203" font-family="Helvetica,sans-Serif" font-size="10.00">vector</text>
</a>
</g>
</g>
<!-- Node6&#45;&gt;Node8 -->
<g id="edge7" class="edge">
<title>Node6&#45;&gt;Node8</title>
<path fill="none" stroke="midnightblue" d="M595,-262.73C595,-253.18 595,-237.62 595,-225.28"/>
<polygon fill="midnightblue" stroke="midnightblue" points="598.5,-225.13 595,-215.13 591.5,-225.13 598.5,-225.13"/>
</g>
<!-- Node9 -->
<g id="node9" class="node">
<title>Node9</title>
<g id="a_node9"><a xlink:href="common_8h.html" target="_top" xlink:title=" ">
<polygon fill="white" stroke="black" points="635.5,-196 635.5,-215 726.5,-215 726.5,-196 635.5,-196"/>
<text text-anchor="middle" x="681" y="-203" font-family="Helvetica,sans-Serif" font-size="10.00">cppgc/common.h</text>
</a>
</g>
</g>
<!-- Node6&#45;&gt;Node9 -->
<g id="edge8" class="edge">
<title>Node6&#45;&gt;Node9</title>
<path fill="none" stroke="midnightblue" d="M606.6,-262.73C620.65,-252.11 644.55,-234.05 661.47,-221.26"/>
<polygon fill="midnightblue" stroke="midnightblue" points="663.72,-223.95 669.59,-215.13 659.5,-218.36 663.72,-223.95"/>
</g>
<!-- Node6&#45;&gt;Node10 -->
<g id="edge20" class="edge">
<title>Node6&#45;&gt;Node10</title>
<path fill="none" stroke="midnightblue" d="M632.21,-266.5C663.39,-260.54 707.29,-247.78 736,-221 770.78,-188.56 756.36,-164.83 779,-123 785.27,-111.41 793.35,-99.02 799.94,-89.41"/>
<polygon fill="midnightblue" stroke="midnightblue" points="802.84,-91.37 805.7,-81.17 797.1,-87.36 802.84,-91.37"/>
</g>
<!-- Node11 -->
<g id="node11" class="node">
<title>Node11</title>
<g id="a_node11"><a xlink:href="platform_8h.html" target="_top" xlink:title=" ">
<polygon fill="white" stroke="black" points="466.5,-196 466.5,-215 555.5,-215 555.5,-196 466.5,-196"/>
<text text-anchor="middle" x="511" y="-203" font-family="Helvetica,sans-Serif" font-size="10.00">cppgc/platform.h</text>
</a>
</g>
</g>
<!-- Node6&#45;&gt;Node11 -->
<g id="edge11" class="edge">
<title>Node6&#45;&gt;Node11</title>
<path fill="none" stroke="midnightblue" d="M583.67,-262.73C569.94,-252.11 546.6,-234.05 530.08,-221.26"/>
<polygon fill="midnightblue" stroke="midnightblue" points="532.2,-218.48 522.15,-215.13 527.92,-224.02 532.2,-218.48"/>
</g>
<!-- Node9&#45;&gt;Node10 -->
<g id="edge9" class="edge">
<title>Node9&#45;&gt;Node10</title>
<path fill="none" stroke="midnightblue" d="M686.01,-195.96C695.45,-180.32 717.08,-146.53 741,-123 755.24,-108.99 773.69,-95.99 788.21,-86.7"/>
<polygon fill="midnightblue" stroke="midnightblue" points="790.47,-89.41 797.1,-81.15 786.76,-83.47 790.47,-89.41"/>
</g>
<!-- Node11&#45;&gt;Node10 -->
<g id="edge19" class="edge">
<title>Node11&#45;&gt;Node10</title>
<path fill="none" stroke="midnightblue" d="M542.06,-195.96C572.52,-187.12 619.94,-172.06 659,-154 683.42,-142.71 687.4,-135.91 711,-123 735.65,-109.52 764.35,-95.3 784.84,-85.4"/>
<polygon fill="midnightblue" stroke="midnightblue" points="786.42,-88.53 793.91,-81.04 783.38,-82.22 786.42,-88.53"/>
</g>
<!-- Node12 -->
<g id="node12" class="node">
<title>Node12</title>
<g id="a_node12"><a xlink:href="v8-platform_8h.html" target="_top" xlink:title=" ">
<polygon fill="white" stroke="black" points="466.5,-129 466.5,-148 539.5,-148 539.5,-129 466.5,-129"/>
<text text-anchor="middle" x="503" y="-136" font-family="Helvetica,sans-Serif" font-size="10.00">v8&#45;platform.h</text>
</a>
</g>
</g>
<!-- Node11&#45;&gt;Node12 -->
<g id="edge12" class="edge">
<title>Node11&#45;&gt;Node12</title>
<path fill="none" stroke="midnightblue" d="M509.92,-195.73C508.75,-186.18 506.83,-170.62 505.31,-158.28"/>
<polygon fill="midnightblue" stroke="midnightblue" points="508.76,-157.62 504.06,-148.13 501.81,-158.48 508.76,-157.62"/>
</g>
<!-- Node12&#45;&gt;Node3 -->
<g id="edge13" class="edge">
<title>Node12&#45;&gt;Node3</title>
<path fill="none" stroke="midnightblue" d="M500.84,-128.73C498.47,-119.09 494.58,-103.3 491.53,-90.91"/>
<polygon fill="midnightblue" stroke="midnightblue" points="494.91,-90 489.12,-81.13 488.12,-91.67 494.91,-90"/>
</g>
<!-- Node12&#45;&gt;Node7 -->
<g id="edge16" class="edge">
<title>Node12&#45;&gt;Node7</title>
<path fill="none" stroke="midnightblue" d="M491.54,-128.73C477.64,-118.11 454.02,-100.05 437.31,-87.26"/>
<polygon fill="midnightblue" stroke="midnightblue" points="439.35,-84.42 429.28,-81.13 435.1,-89.98 439.35,-84.42"/>
</g>
<!-- Node12&#45;&gt;Node10 -->
<g id="edge18" class="edge">
<title>Node12&#45;&gt;Node10</title>
<path fill="none" stroke="midnightblue" d="M528.16,-128.99C534.88,-126.88 542.18,-124.72 549,-123 627.02,-103.28 719.76,-87.14 771.65,-78.76"/>
<polygon fill="midnightblue" stroke="midnightblue" points="772.45,-82.17 781.78,-77.14 771.35,-75.26 772.45,-82.17"/>
</g>
<!-- Node13 -->
<g id="node13" class="node">
<title>Node13</title>
<g id="a_node13"><a xlink:title=" ">
<polygon fill="white" stroke="#bfbfbf" points="596,-62 596,-81 644,-81 644,-62 596,-62"/>
<text text-anchor="middle" x="620" y="-69" font-family="Helvetica,sans-Serif" font-size="10.00">stdint.h</text>
</a>
</g>
</g>
<!-- Node12&#45;&gt;Node13 -->
<g id="edge14" class="edge">
<title>Node12&#45;&gt;Node13</title>
<path fill="none" stroke="midnightblue" d="M518.78,-128.73C538.51,-117.77 572.51,-98.88 595.61,-86.05"/>
<polygon fill="midnightblue" stroke="midnightblue" points="597.43,-89.04 604.47,-81.13 594.03,-82.92 597.43,-89.04"/>
</g>
<!-- Node14 -->
<g id="node14" class="node">
<title>Node14</title>
<g id="a_node14"><a xlink:title=" ">
<polygon fill="white" stroke="#bfbfbf" points="530.5,-62 530.5,-81 577.5,-81 577.5,-62 530.5,-62"/>
<text text-anchor="middle" x="554" y="-69" font-family="Helvetica,sans-Serif" font-size="10.00">stdlib.h</text>
</a>
</g>
</g>
<!-- Node12&#45;&gt;Node14 -->
<g id="edge15" class="edge">
<title>Node12&#45;&gt;Node14</title>
<path fill="none" stroke="midnightblue" d="M509.88,-128.73C517.83,-118.6 531.1,-101.69 541.01,-89.06"/>
<polygon fill="midnightblue" stroke="midnightblue" points="543.81,-91.16 547.23,-81.13 538.3,-86.83 543.81,-91.16"/>
</g>
<!-- Node15 -->
<g id="node15" class="node">
<title>Node15</title>
<g id="a_node15"><a xlink:title=" ">
<polygon fill="white" stroke="#bfbfbf" points="1283.5,-62 1283.5,-81 1324.5,-81 1324.5,-62 1283.5,-62"/>
<text text-anchor="middle" x="1304" y="-69" font-family="Helvetica,sans-Serif" font-size="10.00">string</text>
</a>
</g>
</g>
<!-- Node12&#45;&gt;Node15 -->
<g id="edge17" class="edge">
<title>Node12&#45;&gt;Node15</title>
<path fill="none" stroke="midnightblue" d="M526.6,-128.87C533.71,-126.6 541.59,-124.39 549,-123 691.55,-96.16 1149.99,-78.05 1273.25,-73.58"/>
<polygon fill="midnightblue" stroke="midnightblue" points="1273.6,-77.07 1283.47,-73.21 1273.35,-70.07 1273.6,-77.07"/>
</g>
<!-- Node16&#45;&gt;Node10 -->
<g id="edge53" class="edge">
<title>Node16&#45;&gt;Node10</title>
<path fill="none" stroke="midnightblue" d="M994.49,-327.96C945.28,-321.46 870.37,-308.48 851,-288 824.21,-259.67 815.31,-138.42 812.84,-91.32"/>
<polygon fill="midnightblue" stroke="midnightblue" points="816.33,-91.09 812.35,-81.27 809.34,-91.43 816.33,-91.09"/>
</g>
<!-- Node17 -->
<g id="node17" class="node">
<title>Node17</title>
<g id="a_node17"><a xlink:title=" ">
<polygon fill="white" stroke="#bfbfbf" points="1486,-0.5 1486,-19.5 1532,-19.5 1532,-0.5 1486,-0.5"/>
<text text-anchor="middle" x="1509" y="-7.5" font-family="Helvetica,sans-Serif" font-size="10.00">atomic</text>
</a>
</g>
</g>
<!-- Node16&#45;&gt;Node17 -->
<g id="edge22" class="edge">
<title>Node16&#45;&gt;Node17</title>
<path fill="none" stroke="midnightblue" d="M1083.52,-332.13C1213.44,-328.4 1583,-308.8 1583,-206.5 1583,-206.5 1583,-206.5 1583,-137.5 1583,-100.31 1583.66,-87.57 1564,-56 1556.23,-43.52 1543.78,-32.91 1532.69,-25.13"/>
<polygon fill="midnightblue" stroke="midnightblue" points="1534.47,-22.12 1524.2,-19.52 1530.61,-27.96 1534.47,-22.12"/>
</g>
<!-- Node18 -->
<g id="node18" class="node">
<title>Node18</title>
<g id="a_node18"><a xlink:title=" ">
<polygon fill="white" stroke="#bfbfbf" points="1014.5,-263 1014.5,-282 1063.5,-282 1063.5,-263 1014.5,-263"/>
<text text-anchor="middle" x="1039" y="-270" font-family="Helvetica,sans-Serif" font-size="10.00">cstddef</text>
</a>
</g>
</g>
<!-- Node16&#45;&gt;Node18 -->
<g id="edge23" class="edge">
<title>Node16&#45;&gt;Node18</title>
<path fill="none" stroke="midnightblue" d="M1039,-324.48C1039,-316.08 1039,-302.98 1039,-292.16"/>
<polygon fill="midnightblue" stroke="midnightblue" points="1042.5,-292.01 1039,-282.01 1035.5,-292.01 1042.5,-292.01"/>
</g>
<!-- Node19 -->
<g id="node19" class="node">
<title>Node19</title>
<g id="a_node19"><a xlink:title=" ">
<polygon fill="white" stroke="#bfbfbf" points="216,-0.5 216,-19.5 278,-19.5 278,-0.5 216,-0.5"/>
<text text-anchor="middle" x="247" y="-7.5" font-family="Helvetica,sans-Serif" font-size="10.00">type_traits</text>
</a>
</g>
</g>
<!-- Node16&#45;&gt;Node19 -->
<g id="edge24" class="edge">
<title>Node16&#45;&gt;Node19</title>
<path fill="none" stroke="midnightblue" d="M1052.81,-324.38C1098.35,-294.91 1237.56,-196 1178,-123 1120.82,-52.92 461.38,-20.11 288.36,-12.67"/>
<polygon fill="midnightblue" stroke="midnightblue" points="288.28,-9.17 278.14,-12.24 287.99,-16.16 288.28,-9.17"/>
</g>
<!-- Node16&#45;&gt;Node20 -->
<g id="edge25" class="edge">
<title>Node16&#45;&gt;Node20</title>
<path fill="none" stroke="midnightblue" d="M1066.94,-324.48C1095.82,-315.66 1141.68,-301.67 1178.06,-290.57"/>
<polygon fill="midnightblue" stroke="midnightblue" points="1179.5,-293.79 1188.04,-287.52 1177.46,-287.09 1179.5,-293.79"/>
</g>
<!-- Node27 -->
<g id="node27" class="node">
<title>Node27</title>
<g id="a_node27"><a xlink:href="sentinel-pointer_8h.html" target="_top" xlink:title=" ">
<polygon fill="white" stroke="black" points="1431.5,-129 1431.5,-148 1550.5,-148 1550.5,-129 1431.5,-129"/>
<text text-anchor="middle" x="1491" y="-136" font-family="Helvetica,sans-Serif" font-size="10.00">cppgc/sentinel&#45;pointer.h</text>
</a>
</g>
</g>
<!-- Node16&#45;&gt;Node27 -->
<g id="edge51" class="edge">
<title>Node16&#45;&gt;Node27</title>
<path fill="none" stroke="midnightblue" d="M1083.51,-330.66C1136.29,-326.67 1226.15,-316.05 1298,-288 1374.64,-258.08 1446.29,-187.83 1476.25,-155.86"/>
<polygon fill="midnightblue" stroke="midnightblue" points="1479.05,-157.99 1483.25,-148.26 1473.9,-153.24 1479.05,-157.99"/>
</g>
<!-- Node16&#45;&gt;Node29 -->
<g id="edge52" class="edge">
<title>Node16&#45;&gt;Node29</title>
<path fill="none" stroke="midnightblue" d="M994.44,-331.25C907.99,-327.34 711.71,-315.94 549,-288 429.69,-267.51 394.96,-271.62 285,-221 238.07,-199.4 223.14,-193.64 190,-154 174.16,-135.06 163.39,-108.41 157.47,-90.81"/>
<polygon fill="midnightblue" stroke="midnightblue" points="160.77,-89.64 154.41,-81.17 154.1,-91.76 160.77,-89.64"/>
</g>
<!-- Node20&#45;&gt;Node10 -->
<g id="edge50" class="edge">
<title>Node20&#45;&gt;Node10</title>
<path fill="none" stroke="midnightblue" d="M1226.18,-257.18C1220.92,-247.22 1214.05,-233.52 1209,-221 1191.93,-178.63 1212.92,-152.46 1178,-123 1129.45,-82.05 937,-74.23 852.33,-72.8"/>
<polygon fill="midnightblue" stroke="midnightblue" points="852.13,-69.29 842.08,-72.64 852.03,-76.29 852.13,-69.29"/>
</g>
<!-- Node20&#45;&gt;Node19 -->
<g id="edge27" class="edge">
<title>Node20&#45;&gt;Node19</title>
<path fill="none" stroke="midnightblue" d="M1277.46,-257.41C1305.39,-247.37 1337.93,-233.5 1346,-221 1370.22,-183.51 1421.89,-139.78 1334,-56 1295.49,-19.29 482.46,-12.34 288.35,-11.2"/>
<polygon fill="midnightblue" stroke="midnightblue" points="288.29,-7.7 278.27,-11.14 288.25,-14.7 288.29,-7.7"/>
</g>
<!-- Node21 -->
<g id="node21" class="node">
<title>Node21</title>
<g id="a_node21"><a xlink:title=" ">
<polygon fill="white" stroke="#bfbfbf" points="1509,-62 1509,-81 1555,-81 1555,-62 1509,-62"/>
<text text-anchor="middle" x="1532" y="-69" font-family="Helvetica,sans-Serif" font-size="10.00">cstdint</text>
</a>
</g>
</g>
<!-- Node20&#45;&gt;Node21 -->
<g id="edge26" class="edge">
<title>Node20&#45;&gt;Node21</title>
<path fill="none" stroke="midnightblue" d="M1289.05,-263.22C1318.73,-256.28 1354.24,-243.7 1379,-221 1414.19,-188.74 1389.44,-156.96 1423,-123 1424.55,-121.43 1471.82,-99.81 1503.59,-85.37"/>
<polygon fill="midnightblue" stroke="midnightblue" points="1505.23,-88.47 1512.89,-81.15 1502.33,-82.1 1505.23,-88.47"/>
</g>
<!-- Node22 -->
<g id="node22" class="node">
<title>Node22</title>
<g id="a_node22"><a xlink:href="write-barrier_8h.html" target="_top" xlink:title=" ">
<polygon fill="white" stroke="black" points="974.5,-190.5 974.5,-220.5 1075.5,-220.5 1075.5,-190.5 974.5,-190.5"/>
<text text-anchor="start" x="982.5" y="-208.5" font-family="Helvetica,sans-Serif" font-size="10.00">cppgc/internal/write</text>
<text text-anchor="middle" x="1025" y="-197.5" font-family="Helvetica,sans-Serif" font-size="10.00">&#45;barrier.h</text>
</a>
</g>
</g>
<!-- Node20&#45;&gt;Node22 -->
<g id="edge28" class="edge">
<title>Node20&#45;&gt;Node22</title>
<path fill="none" stroke="midnightblue" d="M1188.91,-257.48C1157.02,-247.56 1114.07,-234.2 1080.14,-223.65"/>
<polygon fill="midnightblue" stroke="midnightblue" points="1080.96,-220.24 1070.37,-220.61 1078.88,-226.92 1080.96,-220.24"/>
</g>
<!-- Node20&#45;&gt;Node30 -->
<g id="edge47" class="edge">
<title>Node20&#45;&gt;Node30</title>
<path fill="none" stroke="midnightblue" d="M1243.33,-257.4C1249.9,-247.46 1258.74,-234.11 1265.71,-223.57"/>
<polygon fill="midnightblue" stroke="midnightblue" points="1268.65,-225.47 1271.25,-215.19 1262.81,-221.6 1268.65,-225.47"/>
</g>
<!-- Node22&#45;&gt;Node10 -->
<g id="edge46" class="edge">
<title>Node22&#45;&gt;Node10</title>
<path fill="none" stroke="midnightblue" d="M1025.83,-190.34C1026.08,-172.25 1023.65,-141.1 1006,-123 984.81,-101.26 902.39,-85.69 852.04,-77.99"/>
<polygon fill="midnightblue" stroke="midnightblue" points="852.53,-74.52 842.12,-76.51 851.5,-81.44 852.53,-74.52"/>
</g>
<!-- Node23 -->
<g id="node23" class="node">
<title>Node23</title>
<g id="a_node23"><a xlink:href="heap-state_8h.html" target="_top" xlink:title=" ">
<polygon fill="white" stroke="black" points="897.5,-129 897.5,-148 996.5,-148 996.5,-129 897.5,-129"/>
<text text-anchor="middle" x="947" y="-136" font-family="Helvetica,sans-Serif" font-size="10.00">cppgc/heap&#45;state.h</text>
</a>
</g>
</g>
<!-- Node22&#45;&gt;Node23 -->
<g id="edge29" class="edge">
<title>Node22&#45;&gt;Node23</title>
<path fill="none" stroke="midnightblue" d="M1008.08,-190.4C995.43,-179.86 978.17,-165.48 965.23,-154.69"/>
<polygon fill="midnightblue" stroke="midnightblue" points="967.36,-151.91 957.43,-148.19 962.88,-157.29 967.36,-151.91"/>
</g>
<!-- Node24 -->
<g id="node24" class="node">
<title>Node24</title>
<g id="a_node24"><a xlink:href="api-constants_8h.html" target="_top" xlink:title=" ">
<polygon fill="white" stroke="black" points="557.5,-123.5 557.5,-153.5 650.5,-153.5 650.5,-123.5 557.5,-123.5"/>
<text text-anchor="start" x="565.5" y="-141.5" font-family="Helvetica,sans-Serif" font-size="10.00">cppgc/internal/api</text>
<text text-anchor="middle" x="604" y="-130.5" font-family="Helvetica,sans-Serif" font-size="10.00">&#45;constants.h</text>
</a>
</g>
</g>
<!-- Node22&#45;&gt;Node24 -->
<g id="edge31" class="edge">
<title>Node22&#45;&gt;Node24</title>
<path fill="none" stroke="midnightblue" d="M974.22,-196.66C895.17,-184.46 743.24,-161 660.72,-148.26"/>
<polygon fill="midnightblue" stroke="midnightblue" points="661.18,-144.79 650.76,-146.72 660.11,-151.7 661.18,-144.79"/>
</g>
<!-- Node25 -->
<g id="node25" class="node">
<title>Node25</title>
<g id="a_node25"><a xlink:href="process-heap_8h.html" target="_top" xlink:title=" ">
<polygon fill="white" stroke="black" points="1053.5,-123.5 1053.5,-153.5 1168.5,-153.5 1168.5,-123.5 1053.5,-123.5"/>
<text text-anchor="start" x="1061.5" y="-141.5" font-family="Helvetica,sans-Serif" font-size="10.00">cppgc/internal/process</text>
<text text-anchor="middle" x="1111" y="-130.5" font-family="Helvetica,sans-Serif" font-size="10.00">&#45;heap.h</text>
</a>
</g>
</g>
<!-- Node22&#45;&gt;Node25 -->
<g id="edge35" class="edge">
<title>Node22&#45;&gt;Node25</title>
<path fill="none" stroke="midnightblue" d="M1043.66,-190.4C1055.49,-181.45 1070.99,-169.74 1084.14,-159.8"/>
<polygon fill="midnightblue" stroke="midnightblue" points="1086.51,-162.4 1092.38,-153.58 1082.29,-156.81 1086.51,-162.4"/>
</g>
<!-- Node22&#45;&gt;Node27 -->
<g id="edge39" class="edge">
<title>Node22&#45;&gt;Node27</title>
<path fill="none" stroke="midnightblue" d="M1075.76,-197.42C1159.4,-185.75 1326.35,-162.47 1421.1,-149.25"/>
<polygon fill="midnightblue" stroke="midnightblue" points="1421.74,-152.69 1431.16,-147.85 1420.77,-145.76 1421.74,-152.69"/>
</g>
<!-- Node22&#45;&gt;Node28 -->
<g id="edge41" class="edge">
<title>Node22&#45;&gt;Node28</title>
<path fill="none" stroke="midnightblue" d="M974.25,-200.26C835.71,-188.68 451.58,-156.59 304.93,-144.34"/>
<polygon fill="midnightblue" stroke="midnightblue" points="305.04,-140.84 294.79,-143.49 304.46,-147.81 305.04,-140.84"/>
</g>
<!-- Node23&#45;&gt;Node10 -->
<g id="edge30" class="edge">
<title>Node23&#45;&gt;Node10</title>
<path fill="none" stroke="midnightblue" d="M929.07,-128.87C906.08,-117.8 865.97,-98.49 839.2,-85.6"/>
<polygon fill="midnightblue" stroke="midnightblue" points="840.53,-82.35 830,-81.17 837.49,-88.66 840.53,-82.35"/>
</g>
<!-- Node24&#45;&gt;Node3 -->
<g id="edge32" class="edge">
<title>Node24&#45;&gt;Node3</title>
<path fill="none" stroke="midnightblue" d="M578.61,-123.4C558.63,-112.29 530.96,-96.92 511.27,-85.98"/>
<polygon fill="midnightblue" stroke="midnightblue" points="512.75,-82.8 502.31,-81.01 509.35,-88.92 512.75,-82.8"/>
</g>
<!-- Node24&#45;&gt;Node10 -->
<g id="edge34" class="edge">
<title>Node24&#45;&gt;Node10</title>
<path fill="none" stroke="midnightblue" d="M648.88,-123.48C686.49,-111.72 739.54,-95.14 774.81,-84.12"/>
<polygon fill="midnightblue" stroke="midnightblue" points="776.21,-87.35 784.71,-81.03 774.12,-80.67 776.21,-87.35"/>
</g>
<!-- Node24&#45;&gt;Node13 -->
<g id="edge33" class="edge">
<title>Node24&#45;&gt;Node13</title>
<path fill="none" stroke="midnightblue" d="M607.47,-123.4C609.79,-113.96 612.87,-101.45 615.4,-91.19"/>
<polygon fill="midnightblue" stroke="midnightblue" points="618.87,-91.74 617.86,-81.19 612.07,-90.07 618.87,-91.74"/>
</g>
<!-- Node25&#45;&gt;Node10 -->
<g id="edge38" class="edge">
<title>Node25&#45;&gt;Node10</title>
<path fill="none" stroke="midnightblue" d="M1053.35,-124.97C994.17,-112.1 903.63,-92.42 851.91,-81.18"/>
<polygon fill="midnightblue" stroke="midnightblue" points="852.62,-77.75 842.11,-79.05 851.14,-84.59 852.62,-77.75"/>
</g>
<!-- Node26 -->
<g id="node26" class="node">
<title>Node26</title>
<g id="a_node26"><a xlink:href="atomic-entry-flag_8h.html" target="_top" xlink:title=" ">
<polygon fill="white" stroke="black" points="1381,-56.5 1381,-86.5 1491,-86.5 1491,-56.5 1381,-56.5"/>
<text text-anchor="start" x="1389" y="-74.5" font-family="Helvetica,sans-Serif" font-size="10.00">cppgc/internal/atomic</text>
<text text-anchor="middle" x="1436" y="-63.5" font-family="Helvetica,sans-Serif" font-size="10.00">&#45;entry&#45;flag.h</text>
</a>
</g>
</g>
<!-- Node25&#45;&gt;Node26 -->
<g id="edge36" class="edge">
<title>Node25&#45;&gt;Node26</title>
<path fill="none" stroke="midnightblue" d="M1168.73,-125.95C1225.46,-114.61 1311.89,-97.32 1371,-85.5"/>
<polygon fill="midnightblue" stroke="midnightblue" points="1371.86,-88.9 1380.98,-83.5 1370.48,-82.03 1371.86,-88.9"/>
</g>
<!-- Node26&#45;&gt;Node17 -->
<g id="edge37" class="edge">
<title>Node26&#45;&gt;Node17</title>
<path fill="none" stroke="midnightblue" d="M1453.3,-56.4C1464.45,-47.31 1478.95,-35.49 1490.36,-26.19"/>
<polygon fill="midnightblue" stroke="midnightblue" points="1492.84,-28.69 1498.38,-19.66 1488.42,-23.26 1492.84,-28.69"/>
</g>
<!-- Node27&#45;&gt;Node21 -->
<g id="edge40" class="edge">
<title>Node27&#45;&gt;Node21</title>
<path fill="none" stroke="midnightblue" d="M1496.53,-128.73C1502.8,-118.79 1513.18,-102.34 1521.09,-89.79"/>
<polygon fill="midnightblue" stroke="midnightblue" points="1524.18,-91.45 1526.56,-81.13 1518.26,-87.72 1524.18,-91.45"/>
</g>
<!-- Node28&#45;&gt;Node10 -->
<g id="edge45" class="edge">
<title>Node28&#45;&gt;Node10</title>
<path fill="none" stroke="midnightblue" d="M294.68,-132.01C403.76,-119.47 669.86,-88.85 771.57,-77.15"/>
<polygon fill="midnightblue" stroke="midnightblue" points="772.2,-80.6 781.73,-75.98 771.4,-73.65 772.2,-80.6"/>
</g>
<!-- Node28&#45;&gt;Node19 -->
<g id="edge42" class="edge">
<title>Node28&#45;&gt;Node19</title>
<path fill="none" stroke="midnightblue" d="M247,-128.81C247,-108.49 247,-57.55 247,-29.78"/>
<polygon fill="midnightblue" stroke="midnightblue" points="250.5,-29.76 247,-19.76 243.5,-29.76 250.5,-29.76"/>
</g>
<!-- Node28&#45;&gt;Node29 -->
<g id="edge43" class="edge">
<title>Node28&#45;&gt;Node29</title>
<path fill="none" stroke="midnightblue" d="M234.19,-128.73C218.52,-118.01 191.78,-99.72 173.07,-86.91"/>
<polygon fill="midnightblue" stroke="midnightblue" points="174.84,-83.89 164.61,-81.13 170.89,-89.66 174.84,-83.89"/>
</g>
<!-- Node29&#45;&gt;Node19 -->
<g id="edge44" class="edge">
<title>Node29&#45;&gt;Node19</title>
<path fill="none" stroke="midnightblue" d="M165.61,-61.98C181.06,-52.3 206.49,-36.37 224.82,-24.89"/>
<polygon fill="midnightblue" stroke="midnightblue" points="226.8,-27.78 233.41,-19.51 223.08,-21.85 226.8,-27.78"/>
</g>
<!-- Node30&#45;&gt;Node10 -->
<g id="edge49" class="edge">
<title>Node30&#45;&gt;Node10</title>
<path fill="none" stroke="midnightblue" d="M1272.83,-195.76C1264.08,-178.52 1242.02,-140.27 1211,-123 1150.03,-89.06 941.04,-77.33 852.33,-73.82"/>
<polygon fill="midnightblue" stroke="midnightblue" points="852.26,-70.32 842.13,-73.43 851.99,-77.31 852.26,-70.32"/>
</g>
<!-- Node30&#45;&gt;Node15 -->
<g id="edge48" class="edge">
<title>Node30&#45;&gt;Node15</title>
<path fill="none" stroke="midnightblue" d="M1278.77,-195.84C1283.1,-174.67 1294.29,-119.95 1300.21,-91.03"/>
<polygon fill="midnightblue" stroke="midnightblue" points="1303.68,-91.52 1302.26,-81.02 1296.82,-90.12 1303.68,-91.52"/>
</g>
<!-- Node31&#45;&gt;Node11 -->
<g id="edge60" class="edge">
<title>Node31&#45;&gt;Node11</title>
<path fill="none" stroke="midnightblue" d="M174.99,-262.94C247.91,-250.69 381.43,-228.26 456.33,-215.68"/>
<polygon fill="midnightblue" stroke="midnightblue" points="457.21,-219.08 466.5,-213.97 456.06,-212.18 457.21,-219.08"/>
</g>
<!-- Node31&#45;&gt;Node19 -->
<g id="edge58" class="edge">
<title>Node31&#45;&gt;Node19</title>
<path fill="none" stroke="midnightblue" d="M118.77,-262.59C100.9,-230.84 45.98,-121.63 95,-56 120.33,-22.08 170.1,-12.68 205.79,-10.57"/>
<polygon fill="midnightblue" stroke="midnightblue" points="206.07,-14.07 215.91,-10.15 205.77,-7.07 206.07,-14.07"/>
</g>
<!-- Node31&#45;&gt;Node24 -->
<g id="edge59" class="edge">
<title>Node31&#45;&gt;Node24</title>
<path fill="none" stroke="midnightblue" d="M137.13,-262.92C163.79,-245.96 226.68,-208.19 285,-190 394.55,-155.83 430.3,-175.67 547.28,-153.95"/>
<polygon fill="midnightblue" stroke="midnightblue" points="548.18,-157.34 557.34,-152.02 546.86,-150.47 548.18,-157.34"/>
</g>
<!-- Node31&#45;&gt;Node28 -->
<g id="edge61" class="edge">
<title>Node31&#45;&gt;Node28</title>
<path fill="none" stroke="midnightblue" d="M128.08,-262.9C135.84,-247.16 153.91,-213.23 176,-190 189.81,-175.48 208.35,-162.46 223.01,-153.28"/>
<polygon fill="midnightblue" stroke="midnightblue" points="224.84,-156.26 231.57,-148.08 221.21,-150.28 224.84,-156.26"/>
</g>
<!-- Node31&#45;&gt;Node29 -->
<g id="edge62" class="edge">
<title>Node31&#45;&gt;Node29</title>
<path fill="none" stroke="midnightblue" d="M124.29,-262.72C125.16,-239.65 128.33,-175.46 138,-123 139.99,-112.21 143.21,-100.38 146.06,-90.88"/>
<polygon fill="midnightblue" stroke="midnightblue" points="149.41,-91.92 149.04,-81.33 142.72,-89.83 149.41,-91.92"/>
</g>
<!-- Node32&#45;&gt;Node10 -->
<g id="edge65" class="edge">
<title>Node32&#45;&gt;Node10</title>
<path fill="none" stroke="midnightblue" d="M915.16,-262.95C904.74,-239.9 874.66,-174.73 845,-123 838.45,-111.57 830.37,-99.18 823.84,-89.53"/>
<polygon fill="midnightblue" stroke="midnightblue" points="826.7,-87.51 818.16,-81.24 820.93,-91.47 826.7,-87.51"/>
</g>
<!-- Node32&#45;&gt;Node30 -->
<g id="edge64" class="edge">
<title>Node32&#45;&gt;Node30</title>
<path fill="none" stroke="midnightblue" d="M966.17,-262.94C1031.59,-251.06 1149.73,-229.61 1220,-216.85"/>
<polygon fill="midnightblue" stroke="midnightblue" points="1220.8,-220.26 1230.01,-215.03 1219.55,-213.37 1220.8,-220.26"/>
</g>
</g>
</svg>
