<?xml version="1.0" encoding="UTF-8" standalone="no"?>
<!DOCTYPE svg PUBLIC "-//W3C//DTD SVG 1.1//EN"
 "http://www.w3.org/Graphics/SVG/1.1/DTD/svg11.dtd">
<!-- Generated by graphviz version 2.44.0 ()
 -->
<!-- Title: include/cppgc/internal/write&#45;barrier.h Pages: 1 -->
<svg width="653pt" height="229pt"
 viewBox="0.00 0.00 653.00 229.00" xmlns="http://www.w3.org/2000/svg" xmlns:xlink="http://www.w3.org/1999/xlink">
<g id="graph0" class="graph" transform="scale(1 1) rotate(0) translate(4 225)">
<title>include/cppgc/internal/write&#45;barrier.h</title>
<polygon fill="white" stroke="transparent" points="-4,4 -4,-225 649,-225 649,4 -4,4"/>
<!-- Node1 -->
<g id="node1" class="node">
<title>Node1</title>
<g id="a_node1"><a xlink:title=" ">
<polygon fill="#bfbfbf" stroke="black" points="219,-190.5 219,-220.5 330,-220.5 330,-190.5 219,-190.5"/>
<text text-anchor="start" x="227" y="-208.5" font-family="Helvetica,sans-Serif" font-size="10.00">include/cppgc/internal</text>
<text text-anchor="middle" x="274.5" y="-197.5" font-family="Helvetica,sans-Serif" font-size="10.00">/write&#45;barrier.h</text>
</a>
</g>
</g>
<!-- Node2 -->
<g id="node2" class="node">
<title>Node2</title>
<g id="a_node2"><a xlink:href="heap-state_8h.html" target="_top" xlink:title=" ">
<polygon fill="white" stroke="black" points="163,-129 163,-148 262,-148 262,-129 163,-129"/>
<text text-anchor="middle" x="212.5" y="-136" font-family="Helvetica,sans-Serif" font-size="10.00">cppgc/heap&#45;state.h</text>
</a>
</g>
</g>
<!-- Node1&#45;&gt;Node2 -->
<g id="edge1" class="edge">
<title>Node1&#45;&gt;Node2</title>
<path fill="none" stroke="midnightblue" d="M261.05,-190.4C251.28,-180.16 238.06,-166.3 227.88,-155.62"/>
<polygon fill="midnightblue" stroke="midnightblue" points="230.23,-153.01 220.79,-148.19 225.16,-157.85 230.23,-153.01"/>
</g>
<!-- Node3 -->
<g id="node3" class="node">
<title>Node3</title>
<g id="a_node3"><a xlink:href="v8config_8h.html" target="_top" xlink:title=" ">
<polygon fill="white" stroke="black" points="182.5,-62 182.5,-81 242.5,-81 242.5,-62 182.5,-62"/>
<text text-anchor="middle" x="212.5" y="-69" font-family="Helvetica,sans-Serif" font-size="10.00">v8config.h</text>
</a>
</g>
</g>
<!-- Node1&#45;&gt;Node3 -->
<g id="edge18" class="edge">
<title>Node1&#45;&gt;Node3</title>
<path fill="none" stroke="midnightblue" d="M218.97,-195.52C194.58,-188.51 168.2,-176.07 153.5,-154 145.86,-142.53 147.74,-135.52 153.5,-123 160.6,-107.58 174.99,-95.11 187.79,-86.42"/>
<polygon fill="midnightblue" stroke="midnightblue" points="189.72,-89.34 196.28,-81.01 185.96,-83.43 189.72,-89.34"/>
</g>
<!-- Node4 -->
<g id="node4" class="node">
<title>Node4</title>
<g id="a_node4"><a xlink:href="api-constants_8h.html" target="_top" xlink:title=" ">
<polygon fill="white" stroke="black" points="13,-123.5 13,-153.5 106,-153.5 106,-123.5 13,-123.5"/>
<text text-anchor="start" x="21" y="-141.5" font-family="Helvetica,sans-Serif" font-size="10.00">cppgc/internal/api</text>
<text text-anchor="middle" x="59.5" y="-130.5" font-family="Helvetica,sans-Serif" font-size="10.00">&#45;constants.h</text>
</a>
</g>
</g>
<!-- Node1&#45;&gt;Node4 -->
<g id="edge3" class="edge">
<title>Node1&#45;&gt;Node4</title>
<path fill="none" stroke="midnightblue" d="M228.11,-190.48C195.16,-180.51 150.75,-167.09 115.77,-156.51"/>
<polygon fill="midnightblue" stroke="midnightblue" points="116.76,-153.15 106.17,-153.61 114.73,-159.86 116.76,-153.15"/>
</g>
<!-- Node7 -->
<g id="node7" class="node">
<title>Node7</title>
<g id="a_node7"><a xlink:href="process-heap_8h.html" target="_top" xlink:title=" ">
<polygon fill="white" stroke="black" points="280,-123.5 280,-153.5 395,-153.5 395,-123.5 280,-123.5"/>
<text text-anchor="start" x="288" y="-141.5" font-family="Helvetica,sans-Serif" font-size="10.00">cppgc/internal/process</text>
<text text-anchor="middle" x="337.5" y="-130.5" font-family="Helvetica,sans-Serif" font-size="10.00">&#45;heap.h</text>
</a>
</g>
</g>
<!-- Node1&#45;&gt;Node7 -->
<g id="edge7" class="edge">
<title>Node1&#45;&gt;Node7</title>
<path fill="none" stroke="midnightblue" d="M288.17,-190.4C296.51,-181.79 307.33,-170.63 316.72,-160.94"/>
<polygon fill="midnightblue" stroke="midnightblue" points="319.41,-163.19 323.86,-153.58 314.38,-158.32 319.41,-163.19"/>
</g>
<!-- Node10 -->
<g id="node10" class="node">
<title>Node10</title>
<g id="a_node10"><a xlink:href="sentinel-pointer_8h.html" target="_top" xlink:title=" ">
<polygon fill="white" stroke="black" points="526,-129 526,-148 645,-148 645,-129 526,-129"/>
<text text-anchor="middle" x="585.5" y="-136" font-family="Helvetica,sans-Serif" font-size="10.00">cppgc/sentinel&#45;pointer.h</text>
</a>
</g>
</g>
<!-- Node1&#45;&gt;Node10 -->
<g id="edge11" class="edge">
<title>Node1&#45;&gt;Node10</title>
<path fill="none" stroke="midnightblue" d="M330.01,-193.05C379.28,-182.87 453.2,-167.54 517.5,-154 523.33,-152.77 529.43,-151.48 535.49,-150.19"/>
<polygon fill="midnightblue" stroke="midnightblue" points="536.54,-153.55 545.6,-148.05 535.09,-146.7 536.54,-153.55"/>
</g>
<!-- Node12 -->
<g id="node12" class="node">
<title>Node12</title>
<g id="a_node12"><a xlink:href="trace-trait_8h.html" target="_top" xlink:title=" ">
<polygon fill="white" stroke="black" points="413,-129 413,-148 508,-148 508,-129 413,-129"/>
<text text-anchor="middle" x="460.5" y="-136" font-family="Helvetica,sans-Serif" font-size="10.00">cppgc/trace&#45;trait.h</text>
</a>
</g>
</g>
<!-- Node1&#45;&gt;Node12 -->
<g id="edge13" class="edge">
<title>Node1&#45;&gt;Node12</title>
<path fill="none" stroke="midnightblue" d="M314.86,-190.4C348.22,-178.74 395.05,-162.37 426.52,-151.38"/>
<polygon fill="midnightblue" stroke="midnightblue" points="427.87,-154.61 436.16,-148.01 425.56,-148 427.87,-154.61"/>
</g>
<!-- Node2&#45;&gt;Node3 -->
<g id="edge2" class="edge">
<title>Node2&#45;&gt;Node3</title>
<path fill="none" stroke="midnightblue" d="M212.5,-128.73C212.5,-119.18 212.5,-103.62 212.5,-91.28"/>
<polygon fill="midnightblue" stroke="midnightblue" points="216,-91.13 212.5,-81.13 209,-91.13 216,-91.13"/>
</g>
<!-- Node4&#45;&gt;Node3 -->
<g id="edge6" class="edge">
<title>Node4&#45;&gt;Node3</title>
<path fill="none" stroke="midnightblue" d="M92.7,-123.4C119.66,-111.94 157.33,-95.94 183.19,-84.95"/>
<polygon fill="midnightblue" stroke="midnightblue" points="184.64,-88.14 192.48,-81.01 181.9,-81.7 184.64,-88.14"/>
</g>
<!-- Node5 -->
<g id="node5" class="node">
<title>Node5</title>
<g id="a_node5"><a xlink:title=" ">
<polygon fill="white" stroke="#bfbfbf" points="0,-62 0,-81 51,-81 51,-62 0,-62"/>
<text text-anchor="middle" x="25.5" y="-69" font-family="Helvetica,sans-Serif" font-size="10.00">stddef.h</text>
</a>
</g>
</g>
<!-- Node4&#45;&gt;Node5 -->
<g id="edge4" class="edge">
<title>Node4&#45;&gt;Node5</title>
<path fill="none" stroke="midnightblue" d="M52.12,-123.4C47.03,-113.66 40.22,-100.65 34.77,-90.21"/>
<polygon fill="midnightblue" stroke="midnightblue" points="37.78,-88.43 30.05,-81.19 31.58,-91.68 37.78,-88.43"/>
</g>
<!-- Node6 -->
<g id="node6" class="node">
<title>Node6</title>
<g id="a_node6"><a xlink:title=" ">
<polygon fill="white" stroke="#bfbfbf" points="69.5,-62 69.5,-81 117.5,-81 117.5,-62 69.5,-62"/>
<text text-anchor="middle" x="93.5" y="-69" font-family="Helvetica,sans-Serif" font-size="10.00">stdint.h</text>
</a>
</g>
</g>
<!-- Node4&#45;&gt;Node6 -->
<g id="edge5" class="edge">
<title>Node4&#45;&gt;Node6</title>
<path fill="none" stroke="midnightblue" d="M66.88,-123.4C71.97,-113.66 78.78,-100.65 84.23,-90.21"/>
<polygon fill="midnightblue" stroke="midnightblue" points="87.42,-91.68 88.95,-81.19 81.22,-88.43 87.42,-91.68"/>
</g>
<!-- Node7&#45;&gt;Node3 -->
<g id="edge10" class="edge">
<title>Node7&#45;&gt;Node3</title>
<path fill="none" stroke="midnightblue" d="M310.38,-123.4C288.83,-112.19 258.93,-96.64 237.86,-85.69"/>
<polygon fill="midnightblue" stroke="midnightblue" points="239.35,-82.52 228.86,-81.01 236.12,-88.73 239.35,-82.52"/>
</g>
<!-- Node8 -->
<g id="node8" class="node">
<title>Node8</title>
<g id="a_node8"><a xlink:href="atomic-entry-flag_8h.html" target="_top" xlink:title=" ">
<polygon fill="white" stroke="black" points="282.5,-56.5 282.5,-86.5 392.5,-86.5 392.5,-56.5 282.5,-56.5"/>
<text text-anchor="start" x="290.5" y="-74.5" font-family="Helvetica,sans-Serif" font-size="10.00">cppgc/internal/atomic</text>
<text text-anchor="middle" x="337.5" y="-63.5" font-family="Helvetica,sans-Serif" font-size="10.00">&#45;entry&#45;flag.h</text>
</a>
</g>
</g>
<!-- Node7&#45;&gt;Node8 -->
<g id="edge8" class="edge">
<title>Node7&#45;&gt;Node8</title>
<path fill="none" stroke="midnightblue" d="M337.5,-123.4C337.5,-115.64 337.5,-105.81 337.5,-96.86"/>
<polygon fill="midnightblue" stroke="midnightblue" points="341,-96.58 337.5,-86.58 334,-96.58 341,-96.58"/>
</g>
<!-- Node9 -->
<g id="node9" class="node">
<title>Node9</title>
<g id="a_node9"><a xlink:title=" ">
<polygon fill="white" stroke="#bfbfbf" points="314.5,-0.5 314.5,-19.5 360.5,-19.5 360.5,-0.5 314.5,-0.5"/>
<text text-anchor="middle" x="337.5" y="-7.5" font-family="Helvetica,sans-Serif" font-size="10.00">atomic</text>
</a>
</g>
</g>
<!-- Node8&#45;&gt;Node9 -->
<g id="edge9" class="edge">
<title>Node8&#45;&gt;Node9</title>
<path fill="none" stroke="midnightblue" d="M337.5,-56.4C337.5,-48.47 337.5,-38.46 337.5,-29.86"/>
<polygon fill="midnightblue" stroke="midnightblue" points="341,-29.66 337.5,-19.66 334,-29.66 341,-29.66"/>
</g>
<!-- Node11 -->
<g id="node11" class="node">
<title>Node11</title>
<g id="a_node11"><a xlink:title=" ">
<polygon fill="white" stroke="#bfbfbf" points="562.5,-62 562.5,-81 608.5,-81 608.5,-62 562.5,-62"/>
<text text-anchor="middle" x="585.5" y="-69" font-family="Helvetica,sans-Serif" font-size="10.00">cstdint</text>
</a>
</g>
</g>
<!-- Node10&#45;&gt;Node11 -->
<g id="edge12" class="edge">
<title>Node10&#45;&gt;Node11</title>
<path fill="none" stroke="midnightblue" d="M585.5,-128.73C585.5,-119.18 585.5,-103.62 585.5,-91.28"/>
<polygon fill="midnightblue" stroke="midnightblue" points="589,-91.13 585.5,-81.13 582,-91.13 589,-91.13"/>
</g>
<!-- Node12&#45;&gt;Node3 -->
<g id="edge17" class="edge">
<title>Node12&#45;&gt;Node3</title>
<path fill="none" stroke="midnightblue" d="M427.82,-128.94C382.63,-117.09 301.14,-95.73 252.41,-82.96"/>
<polygon fill="midnightblue" stroke="midnightblue" points="253.09,-79.52 242.53,-80.37 251.32,-86.29 253.09,-79.52"/>
</g>
<!-- Node13 -->
<g id="node13" class="node">
<title>Node13</title>
<g id="a_node13"><a xlink:title=" ">
<polygon fill="white" stroke="#bfbfbf" points="427.5,-0.5 427.5,-19.5 489.5,-19.5 489.5,-0.5 427.5,-0.5"/>
<text text-anchor="middle" x="458.5" y="-7.5" font-family="Helvetica,sans-Serif" font-size="10.00">type_traits</text>
</a>
</g>
</g>
<!-- Node12&#45;&gt;Node13 -->
<g id="edge14" class="edge">
<title>Node12&#45;&gt;Node13</title>
<path fill="none" stroke="midnightblue" d="M455.68,-128.9C450.5,-119.1 442.59,-102.46 439.5,-87 436.8,-73.49 436.77,-69.5 439.5,-56 441.39,-46.65 445.29,-36.83 449.07,-28.75"/>
<polygon fill="midnightblue" stroke="midnightblue" points="452.29,-30.14 453.62,-19.63 446.03,-27.01 452.29,-30.14"/>
</g>
<!-- Node14 -->
<g id="node14" class="node">
<title>Node14</title>
<g id="a_node14"><a xlink:href="type-traits_8h.html" target="_top" xlink:title=" ">
<polygon fill="white" stroke="black" points="448.5,-62 448.5,-81 544.5,-81 544.5,-62 448.5,-62"/>
<text text-anchor="middle" x="496.5" y="-69" font-family="Helvetica,sans-Serif" font-size="10.00">cppgc/type&#45;traits.h</text>
</a>
</g>
</g>
<!-- Node12&#45;&gt;Node14 -->
<g id="edge15" class="edge">
<title>Node12&#45;&gt;Node14</title>
<path fill="none" stroke="midnightblue" d="M465.36,-128.73C470.81,-118.89 479.8,-102.66 486.72,-90.16"/>
<polygon fill="midnightblue" stroke="midnightblue" points="489.94,-91.57 491.72,-81.13 483.81,-88.18 489.94,-91.57"/>
</g>
<!-- Node14&#45;&gt;Node13 -->
<g id="edge16" class="edge">
<title>Node14&#45;&gt;Node13</title>
<path fill="none" stroke="midnightblue" d="M491.06,-61.98C485.41,-53.14 476.44,-39.09 469.34,-27.98"/>
<polygon fill="midnightblue" stroke="midnightblue" points="472.27,-26.05 463.93,-19.51 466.37,-29.82 472.27,-26.05"/>
</g>
</g>
</svg>
