<?xml version="1.0" encoding="UTF-8" standalone="no"?>
<!DOCTYPE svg PUBLIC "-//W3C//DTD SVG 1.1//EN"
 "http://www.w3.org/Graphics/SVG/1.1/DTD/svg11.dtd">
<!-- Generated by graphviz version 2.44.0 ()
 -->
<!-- Title: cppgc::internal::MemberBase Pages: 1 -->
<svg width="599pt" height="85pt"
 viewBox="0.00 0.00 599.00 85.34" xmlns="http://www.w3.org/2000/svg" xmlns:xlink="http://www.w3.org/1999/xlink">
<g id="graph0" class="graph" transform="scale(1 1) rotate(0) translate(4 81.34)">
<title>cppgc::internal::MemberBase</title>
<polygon fill="white" stroke="transparent" points="-4,4 -4,-81.34 595,-81.34 595,4 -4,4"/>
<!-- Node1 -->
<g id="node1" class="node">
<title>Node1</title>
<g id="a_node1"><a xlink:title=" ">
<polygon fill="#bfbfbf" stroke="black" points="0,-27.84 0,-46.84 141,-46.84 141,-27.84 0,-27.84"/>
<text text-anchor="middle" x="70.5" y="-34.84" font-family="Helvetica,sans-Serif" font-size="10.00">cppgc::internal::MemberBase</text>
</a>
</g>
</g>
<!-- Node2 -->
<g id="node2" class="node">
<title>Node2</title>
<g id="a_node2"><a xlink:href="classcppgc_1_1internal_1_1BasicMember.html" target="_top" xlink:title=" ">
<polygon fill="white" stroke="black" points="424,-57.84 424,-76.84 591,-76.84 591,-57.84 424,-57.84"/>
<text text-anchor="middle" x="507.5" y="-64.84" font-family="Helvetica,sans-Serif" font-size="10.00">cppgc::internal::BasicMember&lt; V &gt;</text>
</a>
</g>
</g>
<!-- Node1&#45;&gt;Node2 -->
<g id="edge1" class="edge">
<title>Node1&#45;&gt;Node2</title>
<path fill="none" stroke="#8b1a1a" d="M107.3,-50.03C127.72,-56.61 153.97,-63.96 178,-67.34 261.02,-79.01 357.01,-77.28 423.7,-73.69"/>
<polygon fill="#8b1a1a" stroke="#8b1a1a" points="108.37,-46.69 97.77,-46.88 106.17,-53.34 108.37,-46.69"/>
</g>
<!-- Node3 -->
<g id="node3" class="node">
<title>Node3</title>
<g id="a_node3"><a xlink:href="classcppgc_1_1internal_1_1BasicMember.html" target="_top" xlink:title=" ">
<polygon fill="white" stroke="black" points="424,-5.84 424,-24.84 591,-24.84 591,-5.84 424,-5.84"/>
<text text-anchor="middle" x="507.5" y="-12.84" font-family="Helvetica,sans-Serif" font-size="10.00">cppgc::internal::BasicMember&lt; K &gt;</text>
</a>
</g>
</g>
<!-- Node1&#45;&gt;Node3 -->
<g id="edge2" class="edge">
<title>Node1&#45;&gt;Node3</title>
<path fill="none" stroke="#8b1a1a" d="M107.29,-24.6C127.71,-18.01 153.96,-10.66 178,-7.34 261.07,4.14 357.06,-0.2 423.73,-5.98"/>
<polygon fill="#8b1a1a" stroke="#8b1a1a" points="106.16,-21.29 97.77,-27.75 108.36,-27.93 106.16,-21.29"/>
</g>
<!-- Node4 -->
<g id="node4" class="node">
<title>Node4</title>
<g id="a_node4"><a xlink:href="classcppgc_1_1internal_1_1BasicMember.html" target="_top" xlink:title=" ">
<polygon fill="white" stroke="black" points="178,-16.84 178,-57.84 362,-57.84 362,-16.84 178,-16.84"/>
<text text-anchor="start" x="186" y="-45.84" font-family="Helvetica,sans-Serif" font-size="10.00">cppgc::internal::BasicMember</text>
<text text-anchor="start" x="186" y="-34.84" font-family="Helvetica,sans-Serif" font-size="10.00">&lt; T, WeaknessTag, WriteBarrierPolicy,</text>
<text text-anchor="middle" x="270" y="-23.84" font-family="Helvetica,sans-Serif" font-size="10.00"> CheckingPolicy &gt;</text>
</a>
</g>
</g>
<!-- Node1&#45;&gt;Node4 -->
<g id="edge3" class="edge">
<title>Node1&#45;&gt;Node4</title>
<path fill="none" stroke="#8b1a1a" d="M151.29,-37.34C160.03,-37.34 168.99,-37.34 177.86,-37.34"/>
<polygon fill="#8b1a1a" stroke="#8b1a1a" points="151.13,-33.84 141.13,-37.34 151.13,-40.84 151.13,-33.84"/>
</g>
<!-- Node4&#45;&gt;Node2 -->
<g id="edge4" class="edge">
<title>Node4&#45;&gt;Node2</title>
<path fill="none" stroke="orange" stroke-dasharray="5,2" d="M372.12,-50.22C392.12,-52.76 412.77,-55.4 431.7,-57.81"/>
<polygon fill="orange" stroke="orange" points="372.41,-46.73 362.05,-48.93 371.53,-53.67 372.41,-46.73"/>
<text text-anchor="middle" x="393" y="-56.34" font-family="Helvetica,sans-Serif" font-size="10.00"> &lt; V &gt;</text>
</g>
<!-- Node4&#45;&gt;Node3 -->
<g id="edge5" class="edge">
<title>Node4&#45;&gt;Node3</title>
<path fill="none" stroke="orange" stroke-dasharray="5,2" d="M372.33,-26.07C374.91,-25.82 377.47,-25.57 380,-25.34 394.15,-24 409.19,-22.7 423.79,-21.51"/>
<polygon fill="orange" stroke="orange" points="371.87,-22.6 362.27,-27.08 372.57,-29.57 371.87,-22.6"/>
<text text-anchor="middle" x="393" y="-28.34" font-family="Helvetica,sans-Serif" font-size="10.00"> &lt; K &gt;</text>
</g>
</g>
</svg>
