<?xml version="1.0" encoding="UTF-8" standalone="no"?>
<!DOCTYPE svg PUBLIC "-//W3C//DTD SVG 1.1//EN"
 "http://www.w3.org/Graphics/SVG/1.1/DTD/svg11.dtd">
<!-- Generated by graphviz version 2.44.0 ()
 -->
<!-- Title: v8::PersistentBase&lt; T &gt; Pages: 1 -->
<svg width="280pt" height="163pt"
 viewBox="0.00 0.00 279.50 163.00" xmlns="http://www.w3.org/2000/svg" xmlns:xlink="http://www.w3.org/1999/xlink">
<g id="graph0" class="graph" transform="scale(1 1) rotate(0) translate(4 159)">
<title>v8::PersistentBase&lt; T &gt;</title>
<polygon fill="white" stroke="transparent" points="-4,4 -4,-159 275.5,-159 275.5,4 -4,4"/>
<!-- Node1 -->
<g id="node1" class="node">
<title>Node1</title>
<g id="a_node1"><a xlink:title=" ">
<polygon fill="#bfbfbf" stroke="black" points="40,-135.5 40,-154.5 161,-154.5 161,-135.5 40,-135.5"/>
<text text-anchor="middle" x="100.5" y="-142.5" font-family="Helvetica,sans-Serif" font-size="10.00">v8::PersistentBase&lt; T &gt;</text>
</a>
</g>
</g>
<!-- Node2 -->
<g id="node2" class="node">
<title>Node2</title>
<g id="a_node2"><a xlink:href="classv8_1_1Persistent.html" target="_top" xlink:title=" ">
<polygon fill="white" stroke="black" points="0,-0.5 0,-30.5 95,-30.5 95,-0.5 0,-0.5"/>
<text text-anchor="start" x="8" y="-18.5" font-family="Helvetica,sans-Serif" font-size="10.00">v8::Persistent&lt; v8</text>
<text text-anchor="middle" x="47.5" y="-7.5" font-family="Helvetica,sans-Serif" font-size="10.00">::Promise &gt;</text>
</a>
</g>
</g>
<!-- Node1&#45;&gt;Node2 -->
<g id="edge1" class="edge">
<title>Node1&#45;&gt;Node2</title>
<path fill="none" stroke="midnightblue" d="M77.85,-129.48C67.55,-121.54 56.36,-110.72 50.5,-98 40.42,-76.14 42.41,-47.37 44.88,-30.51"/>
<polygon fill="midnightblue" stroke="midnightblue" points="76,-132.46 86.16,-135.45 80.09,-126.78 76,-132.46"/>
</g>
<!-- Node3 -->
<g id="node3" class="node">
<title>Node3</title>
<g id="a_node3"><a xlink:href="classv8_1_1Global.html" target="_top" xlink:title=" ">
<polygon fill="white" stroke="black" points="59.5,-78.5 59.5,-97.5 141.5,-97.5 141.5,-78.5 59.5,-78.5"/>
<text text-anchor="middle" x="100.5" y="-85.5" font-family="Helvetica,sans-Serif" font-size="10.00">v8::Global&lt; T &gt;</text>
</a>
</g>
</g>
<!-- Node1&#45;&gt;Node3 -->
<g id="edge2" class="edge">
<title>Node1&#45;&gt;Node3</title>
<path fill="none" stroke="midnightblue" d="M100.5,-125.12C100.5,-115.82 100.5,-105.06 100.5,-97.71"/>
<polygon fill="midnightblue" stroke="midnightblue" points="97,-125.41 100.5,-135.41 104,-125.41 97,-125.41"/>
</g>
<!-- Node4 -->
<g id="node4" class="node">
<title>Node4</title>
<g id="a_node4"><a xlink:href="classv8_1_1Persistent.html" target="_top" xlink:title=" ">
<polygon fill="white" stroke="black" points="159.5,-78.5 159.5,-97.5 271.5,-97.5 271.5,-78.5 159.5,-78.5"/>
<text text-anchor="middle" x="215.5" y="-85.5" font-family="Helvetica,sans-Serif" font-size="10.00">v8::Persistent&lt; T, M &gt;</text>
</a>
</g>
</g>
<!-- Node1&#45;&gt;Node4 -->
<g id="edge3" class="edge">
<title>Node1&#45;&gt;Node4</title>
<path fill="none" stroke="midnightblue" d="M127.77,-130.96C149.39,-120.62 178.97,-106.47 197.66,-97.53"/>
<polygon fill="midnightblue" stroke="midnightblue" points="125.98,-127.93 118.47,-135.41 129,-134.25 125.98,-127.93"/>
</g>
<!-- Node4&#45;&gt;Node2 -->
<g id="edge4" class="edge">
<title>Node4&#45;&gt;Node2</title>
<path fill="none" stroke="orange" stroke-dasharray="5,2" d="M185.91,-74.58C156.52,-62.25 111.53,-43.37 80.88,-30.51"/>
<polygon fill="orange" stroke="orange" points="184.66,-77.85 195.24,-78.5 187.37,-71.4 184.66,-77.85"/>
<text text-anchor="middle" x="181.5" y="-52" font-family="Helvetica,sans-Serif" font-size="10.00"> &lt; v8::Promise &gt;</text>
</g>
</g>
</svg>
