<?xml version="1.0" encoding="UTF-8" standalone="no"?>
<!DOCTYPE svg PUBLIC "-//W3C//DTD SVG 1.1//EN"
 "http://www.w3.org/Graphics/SVG/1.1/DTD/svg11.dtd">
<!-- Generated by graphviz version 2.44.0 ()
 -->
<!-- Title: v8::CTypeInfo::FromCType Pages: 1 -->
<svg width="495pt" height="78pt"
 viewBox="0.00 0.00 495.00 77.50" xmlns="http://www.w3.org/2000/svg" xmlns:xlink="http://www.w3.org/1999/xlink">
<g id="graph0" class="graph" transform="scale(1 1) rotate(0) translate(4 73.5)">
<title>v8::CTypeInfo::FromCType</title>
<polygon fill="white" stroke="transparent" points="-4,4 -4,-73.5 491,-73.5 491,4 -4,4"/>
<!-- Node1 -->
<g id="node1" class="node">
<title>Node1</title>
<g id="a_node1"><a xlink:title=" ">
<polygon fill="#bfbfbf" stroke="black" points="356,-28 356,-47 487,-47 487,-28 356,-28"/>
<text text-anchor="middle" x="421.5" y="-35" font-family="Helvetica,sans-Serif" font-size="10.00">v8::CTypeInfo::FromCType</text>
</a>
</g>
</g>
<!-- Node2 -->
<g id="node2" class="node">
<title>Node2</title>
<g id="a_node2"><a xlink:href="structv8_1_1internal_1_1GetCType.html#ac8e64d1cbab2e7b7c0c3c303af4e7086" target="_top" xlink:title=" ">
<polygon fill="white" stroke="black" points="183.5,-50 183.5,-69 314.5,-69 314.5,-50 183.5,-50"/>
<text text-anchor="middle" x="249" y="-57" font-family="Helvetica,sans-Serif" font-size="10.00">v8::internal::GetCType::Get</text>
</a>
</g>
</g>
<!-- Node1&#45;&gt;Node2 -->
<g id="edge1" class="edge">
<title>Node1&#45;&gt;Node2</title>
<path fill="none" stroke="midnightblue" d="M345.42,-47.19C335.2,-48.51 324.78,-49.85 314.76,-51.14"/>
<polygon fill="midnightblue" stroke="midnightblue" points="346.09,-50.63 355.55,-45.88 345.19,-43.69 346.09,-50.63"/>
</g>
<!-- Node3 -->
<g id="node3" class="node">
<title>Node3</title>
<g id="a_node3"><a xlink:href="structv8_1_1internal_1_1GetCTypePointerImpl.html#a31964d3aa8b1dca8d7b4cd7f55f9ab64" target="_top" xlink:title=" ">
<polygon fill="white" stroke="black" points="178,-0.5 178,-30.5 320,-30.5 320,-0.5 178,-0.5"/>
<text text-anchor="start" x="186" y="-18.5" font-family="Helvetica,sans-Serif" font-size="10.00">v8::internal::GetCTypePointer</text>
<text text-anchor="middle" x="249" y="-7.5" font-family="Helvetica,sans-Serif" font-size="10.00">Impl::Get</text>
</a>
</g>
</g>
<!-- Node1&#45;&gt;Node3 -->
<g id="edge2" class="edge">
<title>Node1&#45;&gt;Node3</title>
<path fill="none" stroke="midnightblue" d="M345.41,-27.81C337.01,-26.73 328.49,-25.63 320.16,-24.55"/>
<polygon fill="midnightblue" stroke="midnightblue" points="345.19,-31.31 355.55,-29.12 346.09,-24.37 345.19,-31.31"/>
</g>
<!-- Node4 -->
<g id="node4" class="node">
<title>Node4</title>
<g id="a_node4"><a xlink:href="structv8_1_1internal_1_1GetCTypePointerImpl_3_01T_00_01void_01_4.html#a13a77569ece122cf95d234683d279f71" target="_top" xlink:title=" ">
<polygon fill="white" stroke="black" points="0,-0.5 0,-30.5 142,-30.5 142,-0.5 0,-0.5"/>
<text text-anchor="start" x="8" y="-18.5" font-family="Helvetica,sans-Serif" font-size="10.00">v8::internal::GetCTypePointer</text>
<text text-anchor="middle" x="71" y="-7.5" font-family="Helvetica,sans-Serif" font-size="10.00">Impl&lt; T, void &gt;::Get</text>
</a>
</g>
</g>
<!-- Node3&#45;&gt;Node4 -->
<g id="edge3" class="edge">
<title>Node3&#45;&gt;Node4</title>
<path fill="none" stroke="midnightblue" d="M167.9,-15.5C159.29,-15.5 150.59,-15.5 142.11,-15.5"/>
<polygon fill="midnightblue" stroke="midnightblue" points="167.93,-19 177.93,-15.5 167.93,-12 167.93,-19"/>
</g>
</g>
</svg>
