<?xml version="1.0" encoding="UTF-8" standalone="no"?>
<!DOCTYPE svg PUBLIC "-//W3C//DTD SVG 1.1//EN"
 "http://www.w3.org/Graphics/SVG/1.1/DTD/svg11.dtd">
<!-- Generated by graphviz version 2.44.0 ()
 -->
<!-- Title: Graphical Class Hierarchy Pages: 1 -->
<svg width="379pt" height="246pt"
 viewBox="0.00 0.00 379.00 246.00" xmlns="http://www.w3.org/2000/svg" xmlns:xlink="http://www.w3.org/1999/xlink">
<g id="graph0" class="graph" transform="scale(1 1) rotate(0) translate(4 242)">
<title>Graphical Class Hierarchy</title>
<polygon fill="white" stroke="transparent" points="-4,4 -4,-242 375,-242 375,4 -4,4"/>
<!-- Node22 -->
<g id="node1" class="node">
<title>Node22</title>
<g id="a_node1"><a xlink:title=" ">
<polygon fill="white" stroke="#bfbfbf" points="33.5,-131.5 33.5,-150.5 116.5,-150.5 116.5,-131.5 33.5,-131.5"/>
<text text-anchor="middle" x="75" y="-138.5" font-family="Helvetica,sans-Serif" font-size="10.00">CheckingPolicy</text>
</a>
</g>
</g>
<!-- Node0 -->
<g id="node2" class="node">
<title>Node0</title>
<g id="a_node2"><a xlink:href="classcppgc_1_1internal_1_1BasicMember.html" target="_top" xlink:title=" ">
<polygon fill="white" stroke="black" points="195,-218.5 195,-237.5 362,-237.5 362,-218.5 195,-218.5"/>
<text text-anchor="middle" x="278.5" y="-225.5" font-family="Helvetica,sans-Serif" font-size="10.00">cppgc::internal::BasicMember&lt; V &gt;</text>
</a>
</g>
</g>
<!-- Node22&#45;&gt;Node0 -->
<g id="edge1" class="edge">
<title>Node22&#45;&gt;Node0</title>
<path fill="none" stroke="#8b1a1a" d="M117.59,-154.25C128.61,-158.71 140.17,-164.29 150,-171 169.22,-184.11 165.68,-197.67 186,-209 192.94,-212.87 200.58,-215.96 208.39,-218.41"/>
<polygon fill="#8b1a1a" stroke="#8b1a1a" points="118.69,-150.92 108.09,-150.62 116.19,-157.46 118.69,-150.92"/>
</g>
<!-- Node24 -->
<g id="node3" class="node">
<title>Node24</title>
<g id="a_node3"><a xlink:href="classcppgc_1_1internal_1_1BasicMember.html" target="_top" xlink:title=" ">
<polygon fill="white" stroke="black" points="195,-180.5 195,-199.5 362,-199.5 362,-180.5 195,-180.5"/>
<text text-anchor="middle" x="278.5" y="-187.5" font-family="Helvetica,sans-Serif" font-size="10.00">cppgc::internal::BasicMember&lt; K &gt;</text>
</a>
</g>
</g>
<!-- Node22&#45;&gt;Node24 -->
<g id="edge2" class="edge">
<title>Node22&#45;&gt;Node24</title>
<path fill="none" stroke="#8b1a1a" d="M118.95,-153.37C139.21,-159.04 163.77,-165.67 186,-171 199.88,-174.33 215.03,-177.62 228.94,-180.5"/>
<polygon fill="#8b1a1a" stroke="#8b1a1a" points="119.65,-149.93 109.08,-150.59 117.75,-156.67 119.65,-149.93"/>
</g>
<!-- Node25 -->
<g id="node4" class="node">
<title>Node25</title>
<g id="a_node4"><a xlink:href="classcppgc_1_1internal_1_1BasicCrossThreadPersistent.html" target="_top" xlink:title=" ">
<polygon fill="white" stroke="black" points="186,-0.5 186,-41.5 371,-41.5 371,-0.5 186,-0.5"/>
<text text-anchor="start" x="194" y="-29.5" font-family="Helvetica,sans-Serif" font-size="10.00">cppgc::internal::BasicCross</text>
<text text-anchor="start" x="194" y="-18.5" font-family="Helvetica,sans-Serif" font-size="10.00">ThreadPersistent&lt; T, WeaknessPolicy,</text>
<text text-anchor="middle" x="278.5" y="-7.5" font-family="Helvetica,sans-Serif" font-size="10.00"> LocationPolicy, CheckingPolicy &gt;</text>
</a>
</g>
</g>
<!-- Node22&#45;&gt;Node25 -->
<g id="edge3" class="edge">
<title>Node22&#45;&gt;Node25</title>
<path fill="none" stroke="#8b1a1a" d="M117.28,-127.66C128.69,-122.69 140.53,-116.2 150,-108 172.65,-88.39 162.37,-69.42 186,-51 190.48,-47.51 195.39,-44.41 200.53,-41.67"/>
<polygon fill="#8b1a1a" stroke="#8b1a1a" points="115.8,-124.48 107.85,-131.49 118.44,-130.97 115.8,-124.48"/>
</g>
<!-- Node26 -->
<g id="node5" class="node">
<title>Node26</title>
<g id="a_node5"><a xlink:href="classcppgc_1_1internal_1_1BasicMember.html" target="_top" xlink:title=" ">
<polygon fill="white" stroke="black" points="186.5,-120.5 186.5,-161.5 370.5,-161.5 370.5,-120.5 186.5,-120.5"/>
<text text-anchor="start" x="194.5" y="-149.5" font-family="Helvetica,sans-Serif" font-size="10.00">cppgc::internal::BasicMember</text>
<text text-anchor="start" x="194.5" y="-138.5" font-family="Helvetica,sans-Serif" font-size="10.00">&lt; T, WeaknessTag, WriteBarrierPolicy,</text>
<text text-anchor="middle" x="278.5" y="-127.5" font-family="Helvetica,sans-Serif" font-size="10.00"> CheckingPolicy &gt;</text>
</a>
</g>
</g>
<!-- Node22&#45;&gt;Node26 -->
<g id="edge4" class="edge">
<title>Node22&#45;&gt;Node26</title>
<path fill="none" stroke="#8b1a1a" d="M126.81,-141C144.94,-141 165.95,-141 186.43,-141"/>
<polygon fill="#8b1a1a" stroke="#8b1a1a" points="126.78,-137.5 116.78,-141 126.78,-144.5 126.78,-137.5"/>
</g>
<!-- Node27 -->
<g id="node6" class="node">
<title>Node27</title>
<g id="a_node6"><a xlink:href="classcppgc_1_1internal_1_1BasicPersistent.html" target="_top" xlink:title=" ">
<polygon fill="white" stroke="black" points="188.5,-60.5 188.5,-101.5 368.5,-101.5 368.5,-60.5 188.5,-60.5"/>
<text text-anchor="start" x="196.5" y="-89.5" font-family="Helvetica,sans-Serif" font-size="10.00">cppgc::internal::BasicPersistent</text>
<text text-anchor="start" x="196.5" y="-78.5" font-family="Helvetica,sans-Serif" font-size="10.00">&lt; T, WeaknessPolicy, LocationPolicy,</text>
<text text-anchor="middle" x="278.5" y="-67.5" font-family="Helvetica,sans-Serif" font-size="10.00"> CheckingPolicy &gt;</text>
</a>
</g>
</g>
<!-- Node22&#45;&gt;Node27 -->
<g id="edge5" class="edge">
<title>Node22&#45;&gt;Node27</title>
<path fill="none" stroke="#8b1a1a" d="M117.55,-128.63C143.79,-120.81 178.33,-110.53 208.59,-101.52"/>
<polygon fill="#8b1a1a" stroke="#8b1a1a" points="116.51,-125.28 107.93,-131.49 118.51,-131.99 116.51,-125.28"/>
</g>
<!-- Node206 -->
<g id="node7" class="node">
<title>Node206</title>
<g id="a_node7"><a xlink:title=" ">
<polygon fill="white" stroke="#bfbfbf" points="35,-79.5 35,-98.5 115,-98.5 115,-79.5 35,-79.5"/>
<text text-anchor="middle" x="75" y="-86.5" font-family="Helvetica,sans-Serif" font-size="10.00">LocationPolicy</text>
</a>
</g>
</g>
<!-- Node206&#45;&gt;Node25 -->
<g id="edge6" class="edge">
<title>Node206&#45;&gt;Node25</title>
<path fill="none" stroke="midnightblue" d="M125.09,-78.13C133.5,-75.77 142.08,-73.06 150,-70 166.88,-63.48 169.35,-58.07 186,-51 193.69,-47.74 201.87,-44.6 210.06,-41.67"/>
<polygon fill="midnightblue" stroke="midnightblue" points="124.09,-74.77 115.33,-80.72 125.89,-81.53 124.09,-74.77"/>
</g>
<!-- Node206&#45;&gt;Node27 -->
<g id="edge7" class="edge">
<title>Node206&#45;&gt;Node27</title>
<path fill="none" stroke="midnightblue" d="M125.49,-87.04C144.44,-86.28 166.68,-85.4 188.21,-84.54"/>
<polygon fill="midnightblue" stroke="midnightblue" points="125.18,-83.54 115.33,-87.44 125.46,-90.54 125.18,-83.54"/>
</g>
<!-- Node217 -->
<g id="node8" class="node">
<title>Node217</title>
<g id="a_node8"><a xlink:href="classcppgc_1_1internal_1_1MemberBase.html" target="_top" xlink:title=" ">
<polygon fill="white" stroke="black" points="4.5,-180.5 4.5,-199.5 145.5,-199.5 145.5,-180.5 4.5,-180.5"/>
<text text-anchor="middle" x="75" y="-187.5" font-family="Helvetica,sans-Serif" font-size="10.00">cppgc::internal::MemberBase</text>
</a>
</g>
</g>
<!-- Node217&#45;&gt;Node0 -->
<g id="edge8" class="edge">
<title>Node217&#45;&gt;Node0</title>
<path fill="none" stroke="#8b1a1a" d="M136.55,-201.42C165.38,-206.86 199.46,-213.28 226.89,-218.46"/>
<polygon fill="#8b1a1a" stroke="#8b1a1a" points="137.06,-197.95 126.59,-199.54 135.77,-204.83 137.06,-197.95"/>
</g>
<!-- Node217&#45;&gt;Node24 -->
<g id="edge9" class="edge">
<title>Node217&#45;&gt;Node24</title>
<path fill="none" stroke="#8b1a1a" d="M155.77,-190C168.56,-190 181.82,-190 194.68,-190"/>
<polygon fill="#8b1a1a" stroke="#8b1a1a" points="155.63,-186.5 145.63,-190 155.63,-193.5 155.63,-186.5"/>
</g>
<!-- Node217&#45;&gt;Node26 -->
<g id="edge10" class="edge">
<title>Node217&#45;&gt;Node26</title>
<path fill="none" stroke="#8b1a1a" d="M125.29,-178.01C145.63,-173.07 169.81,-167.19 192.83,-161.59"/>
<polygon fill="#8b1a1a" stroke="#8b1a1a" points="124.22,-174.67 115.33,-180.44 125.87,-181.47 124.22,-174.67"/>
</g>
<!-- Node237 -->
<g id="node9" class="node">
<title>Node237</title>
<g id="a_node9"><a xlink:href="classcppgc_1_1internal_1_1PersistentBase.html" target="_top" xlink:title=" ">
<polygon fill="white" stroke="black" points="0,-41.5 0,-60.5 150,-60.5 150,-41.5 0,-41.5"/>
<text text-anchor="middle" x="75" y="-48.5" font-family="Helvetica,sans-Serif" font-size="10.00">cppgc::internal::PersistentBase</text>
</a>
</g>
</g>
<!-- Node237&#45;&gt;Node25 -->
<g id="edge11" class="edge">
<title>Node237&#45;&gt;Node25</title>
<path fill="none" stroke="midnightblue" d="M150.07,-39.97C161.65,-38.25 173.74,-36.45 185.67,-34.67"/>
<polygon fill="midnightblue" stroke="midnightblue" points="149.41,-36.53 140.03,-41.47 150.44,-43.46 149.41,-36.53"/>
</g>
<!-- Node237&#45;&gt;Node27 -->
<g id="edge12" class="edge">
<title>Node237&#45;&gt;Node27</title>
<path fill="none" stroke="midnightblue" d="M150.26,-62.06C162.62,-63.9 175.55,-65.82 188.24,-67.71"/>
<polygon fill="midnightblue" stroke="midnightblue" points="150.44,-58.54 140.03,-60.53 149.41,-65.47 150.44,-58.54"/>
</g>
<!-- Node375 -->
<g id="node10" class="node">
<title>Node375</title>
<g id="a_node10"><a xlink:title=" ">
<polygon fill="white" stroke="#bfbfbf" points="30.5,-3.5 30.5,-22.5 119.5,-22.5 119.5,-3.5 30.5,-3.5"/>
<text text-anchor="middle" x="75" y="-10.5" font-family="Helvetica,sans-Serif" font-size="10.00">WeaknessPolicy</text>
</a>
</g>
</g>
<!-- Node375&#45;&gt;Node25 -->
<g id="edge13" class="edge">
<title>Node375&#45;&gt;Node25</title>
<path fill="none" stroke="#8b1a1a" d="M130.1,-15.15C147.29,-15.83 166.8,-16.6 185.87,-17.36"/>
<polygon fill="#8b1a1a" stroke="#8b1a1a" points="129.85,-11.64 119.72,-14.74 129.58,-18.63 129.85,-11.64"/>
</g>
<!-- Node375&#45;&gt;Node27 -->
<g id="edge14" class="edge">
<title>Node375&#45;&gt;Node27</title>
<path fill="none" stroke="#8b1a1a" d="M129.66,-25.19C136.58,-27.22 143.52,-29.5 150,-32 166.88,-38.52 169.35,-43.93 186,-51 193.69,-54.26 201.87,-57.4 210.06,-60.33"/>
<polygon fill="#8b1a1a" stroke="#8b1a1a" points="130.15,-21.69 119.58,-22.38 128.27,-28.43 130.15,-21.69"/>
</g>
</g>
</svg>
