<?xml version="1.0" encoding="UTF-8" standalone="no"?>
<!DOCTYPE svg PUBLIC "-//W3C//DTD SVG 1.1//EN"
 "http://www.w3.org/Graphics/SVG/1.1/DTD/svg11.dtd">
<!-- Generated by graphviz version 2.44.0 ()
 -->
<!-- Title: cppgc::Heap::HeapOptions Pages: 1 -->
<svg width="1036pt" height="85pt"
 viewBox="0.00 0.00 1036.00 85.00" xmlns="http://www.w3.org/2000/svg" xmlns:xlink="http://www.w3.org/1999/xlink">
<g id="graph0" class="graph" transform="scale(1 1) rotate(0) translate(4 81)">
<title>cppgc::Heap::HeapOptions</title>
<polygon fill="white" stroke="transparent" points="-4,4 -4,-81 1032,-81 1032,4 -4,4"/>
<!-- Node1 -->
<g id="node1" class="node">
<title>Node1</title>
<g id="a_node1"><a xlink:title=" ">
<polygon fill="#bfbfbf" stroke="black" points="896,-35.5 896,-54.5 1028,-54.5 1028,-35.5 896,-35.5"/>
<text text-anchor="middle" x="962" y="-42.5" font-family="Helvetica,sans-Serif" font-size="10.00">cppgc::Heap::HeapOptions</text>
</a>
</g>
</g>
<!-- Node2 -->
<g id="node2" class="node">
<title>Node2</title>
<g id="a_node2"><a xlink:href="structcppgc_1_1Heap_1_1ResourceConstraints.html" target="_top" xlink:title=" ">
<polygon fill="white" stroke="black" points="596.5,-57.5 596.5,-76.5 762.5,-76.5 762.5,-57.5 596.5,-57.5"/>
<text text-anchor="middle" x="679.5" y="-64.5" font-family="Helvetica,sans-Serif" font-size="10.00">cppgc::Heap::ResourceConstraints</text>
</a>
</g>
</g>
<!-- Node2&#45;&gt;Node1 -->
<g id="edge1" class="edge">
<title>Node2&#45;&gt;Node1</title>
<path fill="none" stroke="#9a32cd" stroke-dasharray="5,2" d="M772.84,-59.76C813,-56.61 859.13,-52.99 895.66,-50.12"/>
<polygon fill="#9a32cd" stroke="#9a32cd" points="772.46,-56.28 762.76,-60.55 773.01,-63.26 772.46,-56.28"/>
<text text-anchor="middle" x="831" y="-61" font-family="Helvetica,sans-Serif" font-size="10.00"> resource_constraints</text>
</g>
<!-- Node3 -->
<g id="node3" class="node">
<title>Node3</title>
<g id="a_node3"><a xlink:title=" ">
<polygon fill="white" stroke="#bfbfbf" points="593,-8 593,-38 766,-38 766,-8 593,-8"/>
<text text-anchor="start" x="601" y="-26" font-family="Helvetica,sans-Serif" font-size="10.00">std::vector&lt; std::unique</text>
<text text-anchor="middle" x="679.5" y="-15" font-family="Helvetica,sans-Serif" font-size="10.00">_ptr&lt; cppgc::CustomSpaceBase &gt; &gt;</text>
</a>
</g>
</g>
<!-- Node3&#45;&gt;Node1 -->
<g id="edge2" class="edge">
<title>Node3&#45;&gt;Node1</title>
<path fill="none" stroke="#9a32cd" stroke-dasharray="5,2" d="M776.42,-29.31C808.71,-31.56 844.93,-34.23 878,-37 883.77,-37.48 889.76,-38.01 895.77,-38.56"/>
<polygon fill="#9a32cd" stroke="#9a32cd" points="776.3,-25.79 766.08,-28.59 775.82,-32.78 776.3,-25.79"/>
<text text-anchor="middle" x="831" y="-40" font-family="Helvetica,sans-Serif" font-size="10.00"> custom_spaces</text>
</g>
<!-- Node4 -->
<g id="node4" class="node">
<title>Node4</title>
<g id="a_node4"><a xlink:title=" ">
<polygon fill="white" stroke="#bfbfbf" points="390,-42 390,-72 504,-72 504,-42 390,-42"/>
<text text-anchor="start" x="398" y="-60" font-family="Helvetica,sans-Serif" font-size="10.00">std::unique_ptr&lt; cppgc</text>
<text text-anchor="middle" x="447" y="-49" font-family="Helvetica,sans-Serif" font-size="10.00">::CustomSpaceBase &gt;</text>
</a>
</g>
</g>
<!-- Node4&#45;&gt;Node3 -->
<g id="edge3" class="edge">
<title>Node4&#45;&gt;Node3</title>
<path fill="none" stroke="#9a32cd" stroke-dasharray="5,2" d="M514.01,-47.26C538.56,-43.64 566.78,-39.48 592.83,-35.64"/>
<polygon fill="#9a32cd" stroke="#9a32cd" points="513.47,-43.8 504.09,-48.73 514.5,-50.73 513.47,-43.8"/>
<text text-anchor="middle" x="553.5" y="-47" font-family="Helvetica,sans-Serif" font-size="10.00"> elements</text>
</g>
<!-- Node5 -->
<g id="node5" class="node">
<title>Node5</title>
<g id="a_node5"><a xlink:title=" ">
<polygon fill="white" stroke="#bfbfbf" points="108,-44.5 108,-63.5 210,-63.5 210,-44.5 108,-44.5"/>
<text text-anchor="middle" x="159" y="-51.5" font-family="Helvetica,sans-Serif" font-size="10.00">std::unique_ptr&lt; T &gt;</text>
</a>
</g>
</g>
<!-- Node5&#45;&gt;Node4 -->
<g id="edge4" class="edge">
<title>Node5&#45;&gt;Node4</title>
<path fill="none" stroke="orange" stroke-dasharray="5,2" d="M220.18,-54.63C270.21,-55.16 340.88,-55.9 389.78,-56.41"/>
<polygon fill="orange" stroke="orange" points="220.18,-51.13 210.14,-54.53 220.11,-58.13 220.18,-51.13"/>
<text text-anchor="middle" x="295" y="-59" font-family="Helvetica,sans-Serif" font-size="10.00"> &lt; cppgc::CustomSpaceBase &gt;</text>
</g>
<!-- Node6 -->
<g id="node6" class="node">
<title>Node6</title>
<g id="a_node6"><a xlink:title=" ">
<polygon fill="white" stroke="#bfbfbf" points="0,-21.5 0,-40.5 29,-40.5 29,-21.5 0,-21.5"/>
<text text-anchor="middle" x="14.5" y="-28.5" font-family="Helvetica,sans-Serif" font-size="10.00">T</text>
</a>
</g>
</g>
<!-- Node6&#45;&gt;Node5 -->
<g id="edge5" class="edge">
<title>Node6&#45;&gt;Node5</title>
<path fill="none" stroke="#9a32cd" stroke-dasharray="5,2" d="M39.15,-34.82C57.83,-37.83 84.55,-42.15 107.93,-45.92"/>
<polygon fill="#9a32cd" stroke="#9a32cd" points="39.59,-31.34 29.16,-33.21 38.48,-38.25 39.59,-31.34"/>
<text text-anchor="middle" x="68.5" y="-45" font-family="Helvetica,sans-Serif" font-size="10.00"> ptr</text>
</g>
<!-- Node7 -->
<g id="node7" class="node">
<title>Node7</title>
<g id="a_node7"><a xlink:title=" ">
<polygon fill="white" stroke="#bfbfbf" points="253,-0.5 253,-19.5 337,-19.5 337,-0.5 253,-0.5"/>
<text text-anchor="middle" x="295" y="-7.5" font-family="Helvetica,sans-Serif" font-size="10.00">std::vector&lt; T &gt;</text>
</a>
</g>
</g>
<!-- Node6&#45;&gt;Node7 -->
<g id="edge7" class="edge">
<title>Node6&#45;&gt;Node7</title>
<path fill="none" stroke="#9a32cd" stroke-dasharray="5,2" d="M38.72,-22.88C41.48,-22.14 44.29,-21.48 47,-21 118.63,-8.26 203.69,-7.57 252.99,-8.56"/>
<polygon fill="#9a32cd" stroke="#9a32cd" points="37.64,-19.55 29.1,-25.82 39.69,-26.24 37.64,-19.55"/>
<text text-anchor="middle" x="68.5" y="-24" font-family="Helvetica,sans-Serif" font-size="10.00"> elements</text>
</g>
<!-- Node7&#45;&gt;Node3 -->
<g id="edge6" class="edge">
<title>Node7&#45;&gt;Node3</title>
<path fill="none" stroke="orange" stroke-dasharray="5,2" d="M347.2,-9.25C391.39,-8.84 456.93,-8.79 514,-11 539.61,-11.99 567.42,-13.76 592.76,-15.63"/>
<polygon fill="orange" stroke="orange" points="346.96,-5.75 337,-9.35 347.04,-12.75 346.96,-5.75"/>
<text text-anchor="start" x="380" y="-25" font-family="Helvetica,sans-Serif" font-size="10.00"> &lt; std::unique_ptr&lt;</text>
<text text-anchor="middle" x="447" y="-14" font-family="Helvetica,sans-Serif" font-size="10.00"> cppgc::CustomSpaceBase &gt; &gt;</text>
</g>
</g>
</svg>
