<?xml version="1.0" encoding="UTF-8" standalone="no"?>
<!DOCTYPE svg PUBLIC "-//W3C//DTD SVG 1.1//EN"
 "http://www.w3.org/Graphics/SVG/1.1/DTD/svg11.dtd">
<!-- Generated by graphviz version 2.44.0 ()
 -->
<!-- Title: cppgc::EphemeronPair&lt; K, V &gt; Pages: 1 -->
<svg width="774pt" height="161pt"
 viewBox="0.00 0.00 774.00 160.86" xmlns="http://www.w3.org/2000/svg" xmlns:xlink="http://www.w3.org/1999/xlink">
<g id="graph0" class="graph" transform="scale(1 1) rotate(0) translate(4 156.86)">
<title>cppgc::EphemeronPair&lt; K, V &gt;</title>
<polygon fill="white" stroke="transparent" points="-4,4 -4,-156.86 770,-156.86 770,4 -4,4"/>
<!-- Node1 -->
<g id="node1" class="node">
<title>Node1</title>
<g id="a_node1"><a xlink:title=" ">
<polygon fill="#bfbfbf" stroke="black" points="653,-41.35 653,-71.35 766,-71.35 766,-41.35 653,-41.35"/>
<text text-anchor="start" x="661" y="-59.35" font-family="Helvetica,sans-Serif" font-size="10.00">cppgc::EphemeronPair</text>
<text text-anchor="middle" x="709.5" y="-48.35" font-family="Helvetica,sans-Serif" font-size="10.00">&lt; K, V &gt;</text>
</a>
</g>
</g>
<!-- Node2 -->
<g id="node2" class="node">
<title>Node2</title>
<g id="a_node2"><a xlink:href="classcppgc_1_1internal_1_1BasicMember.html" target="_top" xlink:title=" ">
<polygon fill="white" stroke="black" points="424,-27.85 424,-46.85 591,-46.85 591,-27.85 424,-27.85"/>
<text text-anchor="middle" x="507.5" y="-34.85" font-family="Helvetica,sans-Serif" font-size="10.00">cppgc::internal::BasicMember&lt; K &gt;</text>
</a>
</g>
</g>
<!-- Node2&#45;&gt;Node1 -->
<g id="edge1" class="edge">
<title>Node2&#45;&gt;Node1</title>
<path fill="none" stroke="#9a32cd" stroke-dasharray="5,2" d="M601.63,-38.5C612.9,-39.17 624.22,-40.09 635,-41.35 640.82,-42.03 646.87,-42.94 652.88,-43.97"/>
<polygon fill="#9a32cd" stroke="#9a32cd" points="601.5,-34.99 591.33,-37.95 601.13,-41.98 601.5,-34.99"/>
<text text-anchor="middle" x="622" y="-44.35" font-family="Helvetica,sans-Serif" font-size="10.00"> key</text>
</g>
<!-- Node3 -->
<g id="node3" class="node">
<title>Node3</title>
<g id="a_node3"><a xlink:href="classcppgc_1_1internal_1_1MemberBase.html" target="_top" xlink:title=" ">
<polygon fill="white" stroke="black" points="0,-114.85 0,-133.85 141,-133.85 141,-114.85 0,-114.85"/>
<text text-anchor="middle" x="70.5" y="-121.85" font-family="Helvetica,sans-Serif" font-size="10.00">cppgc::internal::MemberBase</text>
</a>
</g>
</g>
<!-- Node3&#45;&gt;Node2 -->
<g id="edge2" class="edge">
<title>Node3&#45;&gt;Node2</title>
<path fill="none" stroke="#8b1a1a" d="M151.23,-124.99C221.2,-122.79 324.26,-112.72 406,-76.35 415.51,-72.12 414.81,-66.24 424,-61.35 435.46,-55.26 448.66,-50.53 461.09,-46.95"/>
<polygon fill="#8b1a1a" stroke="#8b1a1a" points="151.06,-121.5 141.16,-125.26 151.25,-128.49 151.06,-121.5"/>
</g>
<!-- Node5 -->
<g id="node5" class="node">
<title>Node5</title>
<g id="a_node5"><a xlink:href="classcppgc_1_1internal_1_1BasicMember.html" target="_top" xlink:title=" ">
<polygon fill="white" stroke="black" points="178,-16.85 178,-57.85 362,-57.85 362,-16.85 178,-16.85"/>
<text text-anchor="start" x="186" y="-45.85" font-family="Helvetica,sans-Serif" font-size="10.00">cppgc::internal::BasicMember</text>
<text text-anchor="start" x="186" y="-34.85" font-family="Helvetica,sans-Serif" font-size="10.00">&lt; T, WeaknessTag, WriteBarrierPolicy,</text>
<text text-anchor="middle" x="270" y="-23.85" font-family="Helvetica,sans-Serif" font-size="10.00"> CheckingPolicy &gt;</text>
</a>
</g>
</g>
<!-- Node3&#45;&gt;Node5 -->
<g id="edge5" class="edge">
<title>Node3&#45;&gt;Node5</title>
<path fill="none" stroke="#8b1a1a" d="M102.75,-110.59C134.92,-96.42 185.41,-74.18 222.31,-57.92"/>
<polygon fill="#8b1a1a" stroke="#8b1a1a" points="101.13,-107.48 93.39,-114.71 103.95,-113.88 101.13,-107.48"/>
</g>
<!-- Node6 -->
<g id="node6" class="node">
<title>Node6</title>
<g id="a_node6"><a xlink:href="classcppgc_1_1internal_1_1BasicMember.html" target="_top" xlink:title=" ">
<polygon fill="white" stroke="black" points="424,-70.85 424,-89.85 591,-89.85 591,-70.85 424,-70.85"/>
<text text-anchor="middle" x="507.5" y="-77.85" font-family="Helvetica,sans-Serif" font-size="10.00">cppgc::internal::BasicMember&lt; V &gt;</text>
</a>
</g>
</g>
<!-- Node3&#45;&gt;Node6 -->
<g id="edge8" class="edge">
<title>Node3&#45;&gt;Node6</title>
<path fill="none" stroke="#8b1a1a" d="M122.6,-135.83C189.12,-148.68 308.41,-164.49 406,-138.35 441.22,-128.92 476.88,-103.83 494.75,-89.94"/>
<polygon fill="#8b1a1a" stroke="#8b1a1a" points="123.28,-132.4 112.79,-133.89 121.91,-139.27 123.28,-132.4"/>
</g>
<!-- Node4 -->
<g id="node4" class="node">
<title>Node4</title>
<g id="a_node4"><a xlink:title=" ">
<polygon fill="white" stroke="#bfbfbf" points="29,-26.85 29,-45.85 112,-45.85 112,-26.85 29,-26.85"/>
<text text-anchor="middle" x="70.5" y="-33.85" font-family="Helvetica,sans-Serif" font-size="10.00">CheckingPolicy</text>
</a>
</g>
</g>
<!-- Node4&#45;&gt;Node2 -->
<g id="edge3" class="edge">
<title>Node4&#45;&gt;Node2</title>
<path fill="none" stroke="#8b1a1a" d="M108.44,-23.69C128.71,-17.41 154.44,-10.5 178,-7.35 259.06,3.49 280.65,1 362,-7.35 399.59,-11.21 441.84,-20.59 470.89,-27.84"/>
<polygon fill="#8b1a1a" stroke="#8b1a1a" points="107.14,-20.43 98.67,-26.8 109.26,-27.1 107.14,-20.43"/>
</g>
<!-- Node4&#45;&gt;Node5 -->
<g id="edge6" class="edge">
<title>Node4&#45;&gt;Node5</title>
<path fill="none" stroke="#8b1a1a" d="M122.57,-36.61C139.43,-36.7 158.71,-36.79 177.64,-36.89"/>
<polygon fill="#8b1a1a" stroke="#8b1a1a" points="122.44,-33.11 112.42,-36.56 122.4,-40.11 122.44,-33.11"/>
</g>
<!-- Node4&#45;&gt;Node6 -->
<g id="edge9" class="edge">
<title>Node4&#45;&gt;Node6</title>
<path fill="none" stroke="#8b1a1a" d="M107.31,-49.15C127.74,-55.84 153.99,-63.44 178,-67.35 260.95,-80.86 357.16,-83.13 423.93,-82.62"/>
<polygon fill="#8b1a1a" stroke="#8b1a1a" points="108.38,-45.81 97.79,-45.95 106.15,-52.45 108.38,-45.81"/>
</g>
<!-- Node5&#45;&gt;Node2 -->
<g id="edge4" class="edge">
<title>Node5&#45;&gt;Node2</title>
<path fill="none" stroke="orange" stroke-dasharray="5,2" d="M372.11,-27.14C383.54,-26.8 395.02,-26.81 406,-27.35 411.78,-27.64 417.74,-28.02 423.74,-28.46"/>
<polygon fill="orange" stroke="orange" points="371.95,-23.64 362.1,-27.53 372.23,-30.64 371.95,-23.64"/>
<text text-anchor="middle" x="393" y="-30.35" font-family="Helvetica,sans-Serif" font-size="10.00"> &lt; K &gt;</text>
</g>
<!-- Node5&#45;&gt;Node6 -->
<g id="edge10" class="edge">
<title>Node5&#45;&gt;Node6</title>
<path fill="none" stroke="orange" stroke-dasharray="5,2" d="M372.17,-55.21C383.58,-57.27 395.04,-59.34 406,-61.35 422.51,-64.38 440.52,-67.76 456.68,-70.82"/>
<polygon fill="orange" stroke="orange" points="372.62,-51.74 362.16,-53.42 371.38,-58.63 372.62,-51.74"/>
<text text-anchor="middle" x="393" y="-64.35" font-family="Helvetica,sans-Serif" font-size="10.00"> &lt; V &gt;</text>
</g>
<!-- Node6&#45;&gt;Node1 -->
<g id="edge7" class="edge">
<title>Node6&#45;&gt;Node1</title>
<path fill="none" stroke="#9a32cd" stroke-dasharray="5,2" d="M597.88,-69.63C616.64,-67.38 635.9,-65.07 652.98,-63.01"/>
<polygon fill="#9a32cd" stroke="#9a32cd" points="597.34,-66.17 587.83,-70.83 598.18,-73.12 597.34,-66.17"/>
<text text-anchor="middle" x="622" y="-70.35" font-family="Helvetica,sans-Serif" font-size="10.00"> value</text>
</g>
</g>
</svg>
