<?xml version="1.0" encoding="UTF-8" standalone="no"?>
<!DOCTYPE svg PUBLIC "-//W3C//DTD SVG 1.1//EN"
 "http://www.w3.org/Graphics/SVG/1.1/DTD/svg11.dtd">
<!-- Generated by graphviz version 2.44.0 ()
 -->
<!-- Title: v8::Persistent&lt; T, M &gt; Pages: 1 -->
<svg width="139pt" height="163pt"
 viewBox="0.00 0.00 138.50 163.00" xmlns="http://www.w3.org/2000/svg" xmlns:xlink="http://www.w3.org/1999/xlink">
<g id="graph0" class="graph" transform="scale(1 1) rotate(0) translate(4 159)">
<title>v8::Persistent&lt; T, M &gt;</title>
<polygon fill="white" stroke="transparent" points="-4,4 -4,-159 134.5,-159 134.5,4 -4,4"/>
<!-- Node1 -->
<g id="node1" class="node">
<title>Node1</title>
<g id="a_node1"><a xlink:title=" ">
<polygon fill="#bfbfbf" stroke="black" points="4.5,-78.5 4.5,-97.5 116.5,-97.5 116.5,-78.5 4.5,-78.5"/>
<text text-anchor="middle" x="60.5" y="-85.5" font-family="Helvetica,sans-Serif" font-size="10.00">v8::Persistent&lt; T, M &gt;</text>
</a>
</g>
</g>
<!-- Node3 -->
<g id="node3" class="node">
<title>Node3</title>
<g id="a_node3"><a xlink:href="classv8_1_1Persistent.html" target="_top" xlink:title=" ">
<polygon fill="white" stroke="black" points="13,-0.5 13,-30.5 108,-30.5 108,-0.5 13,-0.5"/>
<text text-anchor="start" x="21" y="-18.5" font-family="Helvetica,sans-Serif" font-size="10.00">v8::Persistent&lt; v8</text>
<text text-anchor="middle" x="60.5" y="-7.5" font-family="Helvetica,sans-Serif" font-size="10.00">::Promise &gt;</text>
</a>
</g>
</g>
<!-- Node1&#45;&gt;Node3 -->
<g id="edge2" class="edge">
<title>Node1&#45;&gt;Node3</title>
<path fill="none" stroke="orange" stroke-dasharray="5,2" d="M60.5,-68.24C60.5,-56.41 60.5,-41.38 60.5,-30.58"/>
<polygon fill="orange" stroke="orange" points="57,-68.36 60.5,-78.36 64,-68.36 57,-68.36"/>
<text text-anchor="middle" x="95.5" y="-52" font-family="Helvetica,sans-Serif" font-size="10.00"> &lt; v8::Promise &gt;</text>
</g>
<!-- Node2 -->
<g id="node2" class="node">
<title>Node2</title>
<g id="a_node2"><a xlink:href="classv8_1_1PersistentBase.html" target="_top" xlink:title=" ">
<polygon fill="white" stroke="black" points="0,-135.5 0,-154.5 121,-154.5 121,-135.5 0,-135.5"/>
<text text-anchor="middle" x="60.5" y="-142.5" font-family="Helvetica,sans-Serif" font-size="10.00">v8::PersistentBase&lt; T &gt;</text>
</a>
</g>
</g>
<!-- Node2&#45;&gt;Node1 -->
<g id="edge1" class="edge">
<title>Node2&#45;&gt;Node1</title>
<path fill="none" stroke="midnightblue" d="M60.5,-125.12C60.5,-115.82 60.5,-105.06 60.5,-97.71"/>
<polygon fill="midnightblue" stroke="midnightblue" points="57,-125.41 60.5,-135.41 64,-125.41 57,-125.41"/>
</g>
</g>
</svg>
